<svg xmlns="http://www.w3.org/2000/svg" viewBox="0 0 598 110"><defs><style>.cls-1{fill:#fff000;}.cls-2{fill:#f29600;}.cls-3{fill:#e50012;}.cls-4{fill:#e30080;}.cls-5{fill:#8dc21f;}.cls-6{fill:#009fe8;}.cls-7{fill:#2c4197;}.cls-8{fill:#fff;}.cls-9{fill:none;}</style></defs><title>ロゴ小</title><g id="レイヤー_2" data-name="レイヤー 2"><g id="レイヤー_1-2" data-name="レイヤー 1"><path class="cls-1" d="M44.4,53.68a2.14,2.14,0,1,1-2.13-2.14A2.13,2.13,0,0,1,44.4,53.68Z"/><path class="cls-2" d="M39.89,53.14A2.14,2.14,0,1,1,37.75,51,2.14,2.14,0,0,1,39.89,53.14Z"/><path class="cls-3" d="M35.59,51.53a2.14,2.14,0,1,1-2.14-2.14A2.13,2.13,0,0,1,35.59,51.53Z"/><path class="cls-4" d="M32.09,48.67A2.14,2.14,0,1,1,30,46.54,2.14,2.14,0,0,1,32.09,48.67Z"/><path class="cls-5" d="M44.59,53.14A2.14,2.14,0,1,0,46.73,51,2.14,2.14,0,0,0,44.59,53.14Z"/><path class="cls-6" d="M48.89,51.53A2.14,2.14,0,1,0,51,49.39,2.13,2.13,0,0,0,48.89,51.53Z"/><path class="cls-7" d="M52.39,48.67a2.14,2.14,0,1,0,2.13-2.13A2.14,2.14,0,0,0,52.39,48.67Z"/><path d="M48.27,56.13a1.67,1.67,0,0,0-.48,2.31c2.58,3.94,6.68,11.22,6.68,14,0,3.45-2.29,6.69-6,8.46a14.75,14.75,0,0,1-12.46,0c-3.7-1.77-6-5-6-8.46,0-2.73,4.09-10,6.67-14a1.67,1.67,0,1,0-2.79-1.83c-.07.11-1.8,2.75-3.55,6-2.47,4.54-3.67,7.75-3.67,9.83,0,4.74,3,9.14,7.9,11.48a18.15,18.15,0,0,0,15.34,0c4.88-2.34,7.9-6.74,7.9-11.48,0-2.08-1.2-5.3-3.68-9.83-1.75-3.21-3.47-5.85-3.55-6A1.66,1.66,0,0,0,48.27,56.13Z"/><path d="M36.67,33.52A5.57,5.57,0,1,0,42.24,28,5.57,5.57,0,0,0,36.67,33.52Zm3.34,0a2.23,2.23,0,1,1,2.23,2.24A2.23,2.23,0,0,1,40,33.52Z"/><path d="M34.5,25.37c-4.94,2.23-8,6.46-8,11s3.08,8.8,8,11a1.67,1.67,0,1,0,1.37-3c-3.74-1.69-6.06-4.75-6.06-8s2.32-6.29,6.06-8a1.67,1.67,0,0,0-1.38-3Z"/><path d="M47.76,26.21a1.67,1.67,0,0,0,.84,2.2c3.74,1.68,6.06,4.74,6.06,8s-2.32,6.3-6.06,8a1.67,1.67,0,1,0,1.37,3c5-2.23,8-6.46,8-11s-3.08-8.79-8-11A1.67,1.67,0,0,0,47.76,26.21Z"/><path class="cls-8" d="M40.9,65.94a.43.43,0,0,0,.28.51,1.77,1.77,0,0,1,1.22,1.3A1.87,1.87,0,0,1,41.18,70,1.56,1.56,0,0,1,40,69.87a1.83,1.83,0,0,1-.84-1.15,1.93,1.93,0,0,1,.45-1.8.42.42,0,0,0,0-.59.41.41,0,0,0-.58,0,2.82,2.82,0,0,0-.65,2.57,2.6,2.6,0,0,0,1.24,1.66,2.4,2.4,0,0,0,1.87.24,2.71,2.71,0,0,0,1.79-3.27,2.63,2.63,0,0,0-1.79-1.9A.41.41,0,0,0,40.9,65.94Z"/><path class="cls-8" d="M37.92,65.73A2.7,2.7,0,0,0,36.13,69a2.6,2.6,0,0,0,1.79,1.89.4.4,0,0,0,.51-.28.42.42,0,0,0-.28-.51,1.8,1.8,0,0,1-1.22-1.3,1.87,1.87,0,0,1,1.22-2.27,1.56,1.56,0,0,1,1.23.15,1.78,1.78,0,0,1,.84,1.15,2,2,0,0,1-.44,1.8.41.41,0,1,0,.6.56A2.78,2.78,0,0,0,41,67.63,2.68,2.68,0,0,0,39.79,66,2.4,2.4,0,0,0,37.92,65.73Z"/><path class="cls-8" d="M44,65.69a.43.43,0,0,0,0,.59.41.41,0,0,0,.59,0,1.59,1.59,0,0,1,1.09-.35,1.6,1.6,0,0,1,1.09.36.42.42,0,0,0,.59-.59,2.45,2.45,0,0,0-1.67-.6A2.4,2.4,0,0,0,44,65.69Z"/><path class="cls-8" d="M48.37,70.4l-2.34-4a.41.41,0,0,0-.71,0L43,70.4a.4.4,0,0,0,.14.56.42.42,0,0,0,.57-.14s.34-.59.76-1.29a.16.16,0,0,0,.09.07,2.32,2.32,0,0,0,1.13.29,2.38,2.38,0,0,0,1.14-.29l.09-.07c.42.7.76,1.29.76,1.29a.41.41,0,0,0,.56.14A.4.4,0,0,0,48.37,70.4Zm-2-1.52a1.56,1.56,0,0,1-.74.18,1.52,1.52,0,0,1-.73-.18l-.09,0,.82-1.39.83,1.39Z"/><path d="M40.9,65.94a.43.43,0,0,0,.28.51,1.77,1.77,0,0,1,1.22,1.3A1.87,1.87,0,0,1,41.18,70,1.56,1.56,0,0,1,40,69.87a1.83,1.83,0,0,1-.84-1.15,1.93,1.93,0,0,1,.45-1.8.42.42,0,0,0,0-.59.41.41,0,0,0-.58,0,2.82,2.82,0,0,0-.65,2.57,2.6,2.6,0,0,0,1.24,1.66,2.4,2.4,0,0,0,1.87.24,2.71,2.71,0,0,0,1.79-3.27,2.63,2.63,0,0,0-1.79-1.9A.41.41,0,0,0,40.9,65.94Z"/><path d="M37.92,65.73A2.7,2.7,0,0,0,36.13,69a2.6,2.6,0,0,0,1.79,1.89.4.4,0,0,0,.51-.28.42.42,0,0,0-.28-.51,1.8,1.8,0,0,1-1.22-1.3,1.87,1.87,0,0,1,1.22-2.27,1.56,1.56,0,0,1,1.23.15,1.78,1.78,0,0,1,.84,1.15,2,2,0,0,1-.44,1.8.41.41,0,1,0,.6.56A2.78,2.78,0,0,0,41,67.63,2.68,2.68,0,0,0,39.79,66,2.4,2.4,0,0,0,37.92,65.73Z"/><path d="M44,65.69a.43.43,0,0,0,0,.59.41.41,0,0,0,.59,0,1.59,1.59,0,0,1,1.09-.35,1.6,1.6,0,0,1,1.09.36.42.42,0,0,0,.59-.59,2.45,2.45,0,0,0-1.67-.6A2.4,2.4,0,0,0,44,65.69Z"/><path d="M48.37,70.4l-2.34-4a.41.41,0,0,0-.71,0L43,70.4a.4.4,0,0,0,.14.56.42.42,0,0,0,.57-.14s.34-.59.76-1.29a.16.16,0,0,0,.09.07,2.32,2.32,0,0,0,1.13.29,2.38,2.38,0,0,0,1.14-.29l.09-.07c.42.7.76,1.29.76,1.29a.41.41,0,0,0,.56.14A.4.4,0,0,0,48.37,70.4Zm-2-1.52a1.56,1.56,0,0,1-.74.18,1.52,1.52,0,0,1-.73-.18l-.09,0,.82-1.39.83,1.39Z"/><path d="M74.53,44.24c.52.85,1,1.55,3.49,1.55,1.93,0,11.31-.53,13.44-.58l1.13-1.49,3.06,2.42c.12.09.55.44.55.76s-.32.55-1.25.9c-2.82,10.61-6.7,14.89-18.18,18.27l-.2-.64c10.92-4.66,13.52-11.89,14.8-18.24l-1,.06-6.65.52c-3.55.32-4.19.55-5.45,1.14-.67.52-.75.58-.9.58-.38,0-.93-.55-1.51-1.22a8.05,8.05,0,0,1-2-3.79Z"/><path d="M107,53.34c.2,0,.84.17.84.55s-.2.41-.76.76c0,.2,0,.93-.08,1.08l0,2.68-.06,2.65a6.79,6.79,0,0,1,0,.81c.49,0,2.65,0,3.09-.06l1.89-.05a2.38,2.38,0,0,0,1.4-.3,1.84,1.84,0,0,1,.55-.29c.65,0,3,1.81,3,2.74,0,.5-.5.53-.76.53s-.41,0-.49,0l-1.14-.18a38.18,38.18,0,0,0-5.16-.29c-.76,0-9.53.15-10.84,1.17-.46.35-.52.41-.67.41-.38,0-1.78-1-2.71-4.08l.5-.38a2.6,2.6,0,0,0,2.44,1.4c.7,0,3.68-.24,4.55-.29L104,62l0-3.82,0-4.72c-.55,0-3,.12-3.46.12-1.93,0-2.34-.79-3.53-3.18l.52-.29c.76.9,1.17,1.28,3.32,1.28a52.09,52.09,0,0,0,9.3-.81,12.4,12.4,0,0,1,1.28-.53c.47,0,2.45,1.46,2.45,2.19,0,.46-.52.64-.9.67l-1,0-1.63.17c-.53.06-1.37.12-1.9.12Z"/><path d="M130.73,44.33l1.2-1.22,2.71,2.33a1.54,1.54,0,0,1,.58.87c0,.47-.52.53-1.46.67-2.74,5.48-3.06,6.09-4.92,8.6,3.79,1.46,9,4.66,9,8a1.93,1.93,0,0,1-1.83,2c-1.2,0-1.84-1.25-2.71-3.11a16,16,0,0,0-5-6.21,35.81,35.81,0,0,1-7.72,6.82,28.43,28.43,0,0,1-5.94,2.83l-.32-.62a30.67,30.67,0,0,0,10-8.56A38.66,38.66,0,0,0,130,46.43l-1.45.18c-1.72.2-5.89.72-7.38,1.54a3.52,3.52,0,0,1-.87.52c-.79,0-2.47-2.33-3.12-5.07l.59-.2a3,3,0,0,0,3.09,1.78c.55,0,.9,0,3.61-.29,1.51-.15,4.11-.35,4.46-.38Z"/><path d="M159.49,52.78c-1-.11-2.82-.14-4.05-.14-1.08,0-1.48,0-2.71,0-.2,3.12-.49,7.17-2.62,9.59-2,2.19-5.54,3.64-9,4.34l-.21-.67c7.52-2.88,8.22-8,8.28-13-1.81.14-6,.52-7.17,1.37-.15.14-.47.46-.7.46-.52,0-2.39-1.37-3.67-4.45l.58-.3A3.52,3.52,0,0,0,141,51.32c.41,0,1.81,0,2.15-.11a109.71,109.71,0,0,1,11.49-.82c3.23,0,3.61-.32,4.31-.78a1.59,1.59,0,0,1,.7-.32,1.16,1.16,0,0,1,.61.29l.73.49c1.1.76,1.72,1.43,1.72,2.22s-.67.75-.91.75a6.78,6.78,0,0,1-.9-.08Zm-9.61-6.44c-.64.06-3.53.27-4.11.35-.23,0-1.25.29-1.49.29-.52,0-2.1-1.16-3.12-3.7l.56-.26a3.11,3.11,0,0,0,2.8,1.25,57.16,57.16,0,0,0,6.67-.43l1.75-.18a9.08,9.08,0,0,0,2.18-.49,8.63,8.63,0,0,1,.7-.53c.61,0,3,1.84,3,2.62s-.82.68-1,.7l-1-.05c-1.07,0-2.53.08-2.94.11Z"/><path d="M174.44,46.69c2.65.44,4.9,2.36,4.9,3.06,0,.38-.35.44-1.11.59l-.85.66c-2.27,1.9-3,2.39-4.13,3.27.52.2.75.29.75.52s-.29.44-.78.7c0,.64,0,2.42,0,2.94l.11,7.11c0,.53,0,1.67-.69,1.67A3.53,3.53,0,0,1,170,65.05a3.89,3.89,0,0,1,.18-.58,68.32,68.32,0,0,0,.2-7.4v-.94A43.61,43.61,0,0,1,161.07,60l-.21-.58a41.43,41.43,0,0,0,11.72-8c.75-.72,2.53-2.44,2.53-3.17,0-.38-.26-.58-.87-1Z"/><path d="M185.86,45.29c3.27.38,5.74,2.34,5.74,3.24,0,.29-.35.58-.9,1a30.51,30.51,0,0,1-3.35,7.72,28.56,28.56,0,0,1-5.71,6.82l-.53-.44a32.76,32.76,0,0,0,4.38-8.27,27.23,27.23,0,0,0,1.66-7.41c0-1.36-.73-1.71-1.55-2.06Zm8.83,0c6.5,4.72,10.2,12,10.2,15.27,0,1.43-.67,2.86-1.92,2.86s-1.55-1.28-1.78-2.39a32.91,32.91,0,0,0-6.93-15.24ZM198.31,44c3.49.73,4.92,2.36,4.92,3.5,0,.32-.15,1.2-1,1.2-.47,0-.85-.12-1.49-1.2a8.13,8.13,0,0,0-2.68-3Zm2.09-2.21c1.37.17,5.3.76,5.3,3,0,.52-.23,1.19-1,1.19-.24,0-.56,0-1.26-1a7.31,7.31,0,0,0-3.29-2.65Z"/><path d="M208.21,44.3c2.8.5,5.57,1.34,5.57,2.39,0,.18-.06.21-.47.61a3.15,3.15,0,0,0-.2.41c-.12,8.63-.44,13.61-8.86,18.27l-.41-.49c3.35-3.06,6.06-5.69,6.06-16,0-3.58-.17-3.91-1.86-4.58Zm7-2.53c3.18.35,6,1.54,6,2.56a.67.67,0,0,1-.29.5c-.44.32-.53.38-.59.84-.11,1-.14,4.2-.14,5.45l0,4.05V60.5a33.36,33.36,0,0,0,9.09-9.87l.55.29c-2.3,7.31-6.38,10.87-9.91,13.93-.17.81-.23,1.13-.63,1.13a1,1,0,0,1-.65-.32l-2.53-2.85,1.19-.59v-2L217.19,45a3.46,3.46,0,0,0-.53-1.63,2.93,2.93,0,0,0-1.63-.9Z"/><path d="M254.25,49.86c0-.53,0-.73,0-1.06v-.93c0-4.38-.23-4.58-2.37-5.11l.12-.58c3.56-.06,6.45,1.23,6.45,2.07,0,.18-.08.26-.84,1-.06,1.43-.09,2.1-.09,4.38.32,0,.85,0,1.17-.06l1.16,0,2.51-.14a5,5,0,0,0,1.7-.24,6.35,6.35,0,0,1,1.13-.58c.3,0,.62.29,1.38,1,1.08.94,1.46,1.49,1.46,2,0,.73-.73.73-.91.73-.35,0-1.84-.24-2.13-.24-1-.08-3.71-.17-4.9-.17-1,0-1.69,0-2.57.06l0,1.37c-.09,4.84-.53,7.67-4.35,10.45a19.75,19.75,0,0,1-7.56,3.41l-.2-.64c9.1-3.56,9-10.71,8.93-14.45a39.27,39.27,0,0,0-6.92,1,8.91,8.91,0,0,1-1.34.62c-.62,0-2.22-1-3.21-4.79l.55-.29c.59.9,1,1.66,3.18,1.66,1.08,0,4-.17,5.61-.29Z"/><path d="M275.26,54.44a3,3,0,1,1-3-3A3,3,0,0,1,275.26,54.44Z"/><path d="M279.06,42.94c4.43,0,6.33,1.49,6.36,2,0,.18,0,.26-.85,1.11-.05.64-.11,1.14-.14,2l-.12,2.78c0,.35-.06,1.11-.06,1.49A27.07,27.07,0,0,0,295,48.6c.82-.64.94-.7,1.11-.7a2.69,2.69,0,0,1,.91.41l1,.64c.29.2,1.17.88,1.17,1.37s-.47.64-1.58,1c-.64.18-3.44,1.11-4,1.29a28.16,28.16,0,0,1-6.8,1.43,9.87,9.87,0,0,1-2.6-.41c0,.41-.05,1.29-.05,1.66L284,59.31c-.09,3.07.38,3.62,5.22,3.62a44.79,44.79,0,0,0,6.95-.41A2.92,2.92,0,0,0,297.3,62a.92.92,0,0,1,.5-.18c.43,0,.64.23,1.25.88l.64.67a2,2,0,0,1,.61,1.19c0,.94-1,1-2.5,1.08l-2.6.15c-.32,0-4.59.06-7.59.06-.91,0-3.88-.12-4.82-.79-1.81-1.23-1.92-3.15-1.89-5.57l.05-5.67L281.1,48c0-1.22,0-2.56,0-2.74A2.41,2.41,0,0,0,279,43.52Z"/><path d="M309,42c.12,0,.5,0,.76,0s5.05.35,5.05,1.37c0,.2,0,.23-.47.67a1.17,1.17,0,0,0-.23.38C314,45.42,314,46,314,47.46l1.9-.09,3.71-.11.81-1.11,3.21,2.27c.21.15.59.47.59.76s-.12.41-1.14.91c-.06.29-.21.82-.26,1l-.67,2.8a18.17,18.17,0,0,1-5.67,9,22,22,0,0,1-10.18,4.2l-.18-.7c7.76-2.48,11.85-7.15,13.4-17.07l-1.64.06-5.42.26c-4.23.21-5.11.26-6.83.38l.05,2.51v2.6c0,.32.06,1.75.06,2s0,1.23-.9,1.23-2.66-1.52-2.39-2.6l.2-1a23.17,23.17,0,0,0,.17-3.18c0-3.36-.43-4.06-1.75-4.62l.23-.52a10.34,10.34,0,0,1,4.59,1.43l3.41-.18c.38,0,1.2,0,1.58-.08,0-4.44,0-4.59-2.1-5.14Zm10.57.35c3.5.75,4.87,2.24,4.87,3.41a1.09,1.09,0,0,1-1,1.17c-.56,0-.82-.29-1.43-1.31a11.22,11.22,0,0,0-2.71-2.78Zm1.92-2c2.22.32,5.32.93,5.32,3a1,1,0,0,1-.94,1.08c-.2,0-.52,0-1.2-.85a11.35,11.35,0,0,0-3.38-2.72Z"/><path d="M327.27,49.15a2.46,2.46,0,0,0,2.16,1.4c.35,0,3.42-.29,4.06-.35,2.6-.2,5.37-.4,7.94-.46l1.19-1.29L345.43,51a1.15,1.15,0,0,1,.41.76c0,.41-.82.53-1.29.61a54.16,54.16,0,0,1-5.78,4.41l-1.22.85c-.32,2.74-.62,5.25-2.83,7.27a13.73,13.73,0,0,1-6.28,2.88l-.23-.58a9.69,9.69,0,0,0,3.65-2.1,10.82,10.82,0,0,0,2.62-6l.15-1.87c0-.12,0-.5,0-.73a1.8,1.8,0,0,0-1.23-1.81l.23-.5c2.72.44,3.54,1.17,4.21,1.79a32,32,0,0,0,3.47-4.76A41.08,41.08,0,0,0,331.07,53c-.38.11-.38.11-.85.55a1.11,1.11,0,0,1-.61.29c-.41,0-1-.78-1.43-1.34a7.72,7.72,0,0,1-1.43-3.09Z"/><path d="M349.1,42.94c4.44,0,6.34,1.49,6.37,2,0,.18,0,.26-.85,1.11-.06.64-.12,1.14-.14,2l-.12,2.78c0,.35-.06,1.11-.06,1.49a27.07,27.07,0,0,0,10.77-3.74c.82-.64.93-.7,1.11-.7a2.62,2.62,0,0,1,.9.41l1,.64c.29.2,1.16.88,1.16,1.37s-.47.64-1.57,1c-.65.18-3.45,1.11-4,1.29a28.16,28.16,0,0,1-6.8,1.43,9.87,9.87,0,0,1-2.6-.41c0,.41-.06,1.29-.06,1.66l-.11,4.06c-.09,3.07.38,3.62,5.22,3.62a44.79,44.79,0,0,0,6.95-.41,3.05,3.05,0,0,0,1.11-.49.88.88,0,0,1,.49-.18c.44,0,.64.23,1.26.88l.64.67a2,2,0,0,1,.61,1.19c0,.94-1,1-2.51,1.08l-2.6.15c-.32,0-4.58.06-7.59.06-.9,0-3.88-.12-4.81-.79-1.81-1.23-1.93-3.15-1.9-5.57l.06-5.67.15-5.84c0-1.22,0-2.56,0-2.74a2.41,2.41,0,0,0-2.07-1.75Z"/><path d="M379.05,42c.11,0,.49,0,.76,0s5.05.35,5.05,1.37c0,.2,0,.23-.47.67a1.17,1.17,0,0,0-.23.38c-.09,1.08-.09,1.66-.09,3.12l1.9-.09,3.7-.11.82-1.11,3.21,2.27c.2.15.59.47.59.76s-.12.41-1.14.91a8.07,8.07,0,0,1-.27,1l-.67,2.8a18.12,18.12,0,0,1-5.66,9,22,22,0,0,1-10.18,4.2l-.18-.7c7.76-2.48,11.85-7.15,13.4-17.07l-1.64.06-5.43.26c-4.23.21-5.11.26-6.83.38l.06,2.51v2.6c0,.32.06,1.75.06,2s0,1.23-.9,1.23-2.66-1.52-2.4-2.6l.21-1a24.89,24.89,0,0,0,.17-3.18c0-3.36-.44-4.06-1.75-4.62l.23-.52A10.42,10.42,0,0,1,376,47.9l3.41-.18c.38,0,1.2,0,1.58-.08,0-4.44,0-4.59-2.1-5.14Zm10.57.35c3.49.75,4.87,2.24,4.87,3.41a1.09,1.09,0,0,1-1,1.17c-.56,0-.82-.29-1.43-1.31a11.14,11.14,0,0,0-2.72-2.78Zm1.92-2c2.22.32,5.31.93,5.31,3a1,1,0,0,1-.93,1.08c-.21,0-.52,0-1.2-.85a11.6,11.6,0,0,0-3.38-2.72Z"/><path d="M397.32,49.15a2.46,2.46,0,0,0,2.16,1.4c.35,0,3.42-.29,4.06-.35,2.6-.2,5.37-.4,7.94-.46l1.19-1.29,2.8,2.54a1.13,1.13,0,0,1,.42.76c0,.41-.82.53-1.29.61a54.16,54.16,0,0,1-5.78,4.41l-1.23.85c-.32,2.74-.61,5.25-2.83,7.27a13.59,13.59,0,0,1-6.27,2.88l-.24-.58a9.54,9.54,0,0,0,3.65-2.1,10.79,10.79,0,0,0,2.63-6l.14-1.87c0-.12,0-.5,0-.73a1.8,1.8,0,0,0-1.22-1.81l.23-.5c2.72.44,3.53,1.17,4.2,1.79a31.36,31.36,0,0,0,3.48-4.76A41.24,41.24,0,0,0,401.11,53c-.37.11-.37.11-.84.55a1.14,1.14,0,0,1-.62.29c-.4,0-1-.78-1.42-1.34a7.59,7.59,0,0,1-1.43-3.09Z"/><path d="M425.28,54.44a3,3,0,1,1-3-3A3,3,0,0,1,425.28,54.44Z"/><path d="M431.38,45.86c2.95.35,5.9,2.45,5.9,3.44,0,.18-.09.35-.38.53a3.48,3.48,0,0,0-.67.49,28.69,28.69,0,0,1-9.46,14.45l-.44-.53a32.28,32.28,0,0,0,6.33-15.73c0-1.14-.4-1.55-1.51-2.1Zm8.78,0c8.29,6.3,10.28,13.28,10.28,15.32,0,2.36-1.28,2.74-1.87,2.74-1.05,0-1.6-1-1.87-2.54a30.79,30.79,0,0,0-7-15Z"/><path d="M451.31,44a10,10,0,0,1,4.53,1.72c.26,0,1.17,0,1.37-.06l3.12-.17c1.43-.09,2.72-.15,3.89-.21l3.15-.11.81,0,1.26-1.61,3.39,2.63a1.24,1.24,0,0,1,.46.76c0,.41-.73.7-1.2.9-1.54,10.19-4.78,13.54-7.91,15.73a20.88,20.88,0,0,1-7.52,3.36l-.21-.64a18.19,18.19,0,0,0,9.78-9.34,28.9,28.9,0,0,0,2.3-9.81c-.26,0-1,.06-1.22.06l-3,.12-8.55.46c0,2.28.09,5.37.09,7.65,0,.82,0,1.49-.7,1.49-1,0-2.69-1.31-2.69-2.39a1.43,1.43,0,0,1,.06-.44l.23-1a8.72,8.72,0,0,0,.06-1.25,52.27,52.27,0,0,0-.2-5.81,3,3,0,0,0-1.52-1.57Z"/><path d="M489.72,42.06c3,.79,5.46,2.92,5.46,3.74,0,.32-.15.35-1.49.64l-.78.58-3.21,2.43c-.33.23-1.23.81-1.76,1.13.29.12.91.38.91.73s-.18.38-1.05.91c0,.47,0,1.92,0,2.33v5.26c0,1,.11,5.72.11,6.68,0,.44,0,1.08-.75,1.08-.91,0-3-1.23-3-2.48,0-.44.21-1.52.21-1.61a30,30,0,0,0,.2-3.59l.06-6.33c0-.12,0-.93,0-1.11A59.61,59.61,0,0,1,473.38,57l-.23-.7c1.52-.56,2.51-.94,6.92-3.59A51.46,51.46,0,0,0,487.56,47l1.93-1.83c.41-.36,1-.94,1-1.35s-.67-1-1.05-1.22Z"/><path d="M512.88,62.38c2.47,0,2.88-.06,3.86-1.86.24-.24,1-.24,1.16.2A15.34,15.34,0,0,1,516.23,66c-1.35-.07-2.57-.1-4.74-.1h-5.4c-1.76,0-3.22,0-3.8.1-.3-.07-.4-.44-.34-.75,1.29-1.18,3.23-3,5.26-5.22,2.34-2.58,4.44-5.43,4.44-9.06,0-2.34-1.42-4.13-3.69-4.13-1.94,0-3.29,1.25-4.38,3.12a.73.73,0,0,1-1.12-.48,8.32,8.32,0,0,1,7.8-5.29c4,0,6.42,2.58,6.42,5.77,0,2.64-1.06,4.54-5.13,8.37l-1.62,1.53c-1.5,1.39-1.8,1.87-1.8,2.14s.17.4.64.4Z"/><path d="M536.24,55.26c0,5.46-2.34,11.09-7.83,11.09s-7.83-5.63-7.83-11.09c0-5.26,2.34-11.09,7.83-11.09S536.24,50,536.24,55.26Zm-7.83,9.53c2.58,0,2.88-6.51,2.88-9.53s-.3-9.53-2.88-9.53-2.88,6.51-2.88,9.53S525.83,64.79,528.41,64.79Z"/><path d="M549.23,62.38c2.48,0,2.88-.06,3.87-1.86.23-.24,1-.24,1.15.2A15.16,15.16,0,0,1,552.59,66c-1.36-.07-2.58-.1-4.75-.1h-5.39c-1.77,0-3.23,0-3.8.1-.31-.07-.41-.44-.34-.75,1.29-1.18,3.22-3,5.26-5.22C545.91,57.43,548,54.58,548,51c0-2.34-1.42-4.13-3.7-4.13-1.93,0-3.29,1.25-4.37,3.12a.73.73,0,0,1-1.12-.48,8.32,8.32,0,0,1,7.8-5.29c4,0,6.41,2.58,6.41,5.77,0,2.64-1,4.54-5.12,8.37l-1.63,1.53c-1.49,1.39-1.8,1.87-1.8,2.14s.17.4.65.4Z"/><path d="M572,55.26c0,5.46-2.34,11.09-7.83,11.09s-7.84-5.63-7.84-11.09c0-5.26,2.34-11.09,7.84-11.09S572,50,572,55.26Zm-7.83,9.53c2.57,0,2.88-6.51,2.88-9.53s-.31-9.53-2.88-9.53-2.89,6.51-2.89,9.53S561.59,64.79,564.17,64.79Z"/><path class="cls-8" d="M42.59,73.88,41.47,72a.21.21,0,0,0-.17-.1.2.2,0,0,0-.18.1L40,73.88a.21.21,0,0,0,.08.28.21.21,0,0,0,.28-.07l.36-.61,0,0a1.15,1.15,0,0,0,.55.14,1.11,1.11,0,0,0,.54-.14l0,0,.36.61a.21.21,0,0,0,.28.07A.2.2,0,0,0,42.59,73.88Zm-1-.74a.67.67,0,0,1-.34.09.78.78,0,0,1-.35-.08l0,0,.39-.65c.08.15.23.4.38.65Z"/><path class="cls-8" d="M37.3,72.07V74a.21.21,0,0,0,.21.21.21.21,0,0,0,.21-.21V72.07a.21.21,0,0,0-.21-.2A.2.2,0,0,0,37.3,72.07Z"/><path class="cls-8" d="M37,73v-.94a.21.21,0,0,0-.21-.2.2.2,0,0,0-.21.2v.55a1.89,1.89,0,0,0-1.52,0v-.55a.21.21,0,0,0-.21-.2.2.2,0,0,0-.21.2V73h0v1a.21.21,0,0,0,.21.21.21.21,0,0,0,.21-.21V73.1a1.23,1.23,0,0,1,.76-.22,1.32,1.32,0,0,1,.76.22V74a.21.21,0,0,0,.21.21A.21.21,0,0,0,37,74V73Z"/><path class="cls-8" d="M44.58,73v-.91a.2.2,0,0,0-.21-.2.2.2,0,0,0-.2.2v.51a2.06,2.06,0,0,0-.76-.15,1.86,1.86,0,0,0-.77.15v-.51a.2.2,0,0,0-.21-.2.21.21,0,0,0-.21.2V73a.19.19,0,0,0,.07.15l0,0h0l0,0h0a.2.2,0,0,0,.15,0h0l0,0h0a1.17,1.17,0,0,1,.82-.27,1.28,1.28,0,0,1,.77.23V74a.2.2,0,0,0,.2.21.21.21,0,0,0,.21-.21V73Z"/><path class="cls-8" d="M44.9,72.07V74a.21.21,0,1,0,.42,0V72.07a.21.21,0,0,0-.42,0Z"/><path class="cls-8" d="M40.31,72l-.73,1.25V72.07a.19.19,0,0,0-.15-.19.2.2,0,0,0-.24.09s-.41.7-.75,1.26V72.07a.2.2,0,0,0-.2-.2.2.2,0,0,0-.21.2V74a.2.2,0,0,0,.15.2.19.19,0,0,0,.23-.09l.76-1.26V74a.21.21,0,0,0,.38.11l1.11-1.91a.21.21,0,0,0-.07-.29A.21.21,0,0,0,40.31,72Z"/><path class="cls-8" d="M50.2,73.88,49.08,72a.22.22,0,0,0-.18-.1.21.21,0,0,0-.18.1L47.6,73.88a.2.2,0,0,0,.07.28.21.21,0,0,0,.28-.07l.36-.61,0,0a1.18,1.18,0,0,0,.55.14,1.11,1.11,0,0,0,.54-.14l.05,0,.35.61a.22.22,0,0,0,.29.07A.21.21,0,0,0,50.2,73.88Zm-1-.74a.73.73,0,0,1-.35.09.78.78,0,0,1-.35-.08l0,0c.14-.25.29-.5.38-.65l.38.65Z"/><path class="cls-8" d="M47.91,72l-.73,1.25V72.07a.21.21,0,0,0-.38-.1l-.75,1.26V72.07a.2.2,0,0,0-.21-.2.21.21,0,0,0-.21.2V74a.2.2,0,0,0,.16.2.2.2,0,0,0,.23-.09s.41-.7.75-1.26V74a.2.2,0,0,0,.15.2.19.19,0,0,0,.23-.09l1.11-1.91a.21.21,0,0,0-.07-.29A.21.21,0,0,0,47.91,72Z"/><path d="M42.59,73.88,41.47,72a.21.21,0,0,0-.17-.1.2.2,0,0,0-.18.1L40,73.88a.21.21,0,0,0,.08.28.21.21,0,0,0,.28-.07l.36-.61,0,0a1.15,1.15,0,0,0,.55.14,1.11,1.11,0,0,0,.54-.14l0,0,.36.61a.21.21,0,0,0,.28.07A.2.2,0,0,0,42.59,73.88Zm-1-.74a.67.67,0,0,1-.34.09.78.78,0,0,1-.35-.08l0,0,.39-.65c.08.15.23.4.38.65Z"/><path d="M37.3,72.07V74a.21.21,0,0,0,.21.21.21.21,0,0,0,.21-.21V72.07a.21.21,0,0,0-.21-.2A.2.2,0,0,0,37.3,72.07Z"/><path d="M37,73v-.94a.21.21,0,0,0-.21-.2.2.2,0,0,0-.21.2v.55a1.89,1.89,0,0,0-1.52,0v-.55a.21.21,0,0,0-.21-.2.2.2,0,0,0-.21.2V73h0v1a.21.21,0,0,0,.21.21.21.21,0,0,0,.21-.21V73.1a1.23,1.23,0,0,1,.76-.22,1.32,1.32,0,0,1,.76.22V74a.21.21,0,0,0,.21.21A.21.21,0,0,0,37,74V73Z"/><path d="M44.58,73v-.91a.2.2,0,0,0-.21-.2.2.2,0,0,0-.2.2v.51a2.06,2.06,0,0,0-.76-.15,1.86,1.86,0,0,0-.77.15v-.51a.2.2,0,0,0-.21-.2.21.21,0,0,0-.21.2V73a.19.19,0,0,0,.07.15l0,0h0l0,0h0a.2.2,0,0,0,.15,0h0l0,0h0a1.17,1.17,0,0,1,.82-.27,1.28,1.28,0,0,1,.77.23V74a.2.2,0,0,0,.2.21.21.21,0,0,0,.21-.21V73Z"/><path d="M44.9,72.07V74a.21.21,0,1,0,.42,0V72.07a.21.21,0,0,0-.42,0Z"/><path d="M40.31,72l-.73,1.25V72.07a.19.19,0,0,0-.15-.19.2.2,0,0,0-.24.09s-.41.7-.75,1.26V72.07a.2.2,0,0,0-.2-.2.2.2,0,0,0-.21.2V74a.2.2,0,0,0,.15.2.19.19,0,0,0,.23-.09l.76-1.26V74a.21.21,0,0,0,.38.11l1.11-1.91a.21.21,0,0,0-.07-.29A.21.21,0,0,0,40.31,72Z"/><path d="M50.2,73.88,49.08,72a.22.22,0,0,0-.18-.1.21.21,0,0,0-.18.1L47.6,73.88a.2.2,0,0,0,.07.28.21.21,0,0,0,.28-.07l.36-.61,0,0a1.18,1.18,0,0,0,.55.14,1.11,1.11,0,0,0,.54-.14l.05,0,.35.61a.22.22,0,0,0,.29.07A.21.21,0,0,0,50.2,73.88Zm-1-.74a.73.73,0,0,1-.35.09.78.78,0,0,1-.35-.08l0,0c.14-.25.29-.5.38-.65l.38.65Z"/><path d="M47.91,72l-.73,1.25V72.07a.21.21,0,0,0-.38-.1l-.75,1.26V72.07a.2.2,0,0,0-.21-.2.21.21,0,0,0-.21.2V74a.2.2,0,0,0,.16.2.2.2,0,0,0,.23-.09s.41-.7.75-1.26V74a.2.2,0,0,0,.15.2.19.19,0,0,0,.23-.09l1.11-1.91a.21.21,0,0,0-.07-.29A.21.21,0,0,0,47.91,72Z"/><rect class="cls-9" width="598" height="110"/></g></g></svg>