<svg xmlns="http://www.w3.org/2000/svg" viewBox="0 0 688 169"><defs><style>.cls-1{fill:#fff000;}.cls-2{fill:#f29600;}.cls-3{fill:#e50012;}.cls-4{fill:#e30080;}.cls-5{fill:#8dc21f;}.cls-6{fill:#009fe8;}.cls-7{fill:#2c4197;}.cls-8{fill:#fff;}.cls-9{fill:none;}</style></defs><title>ロゴ大</title><g id="レイヤー_2" data-name="レイヤー 2"><g id="レイヤー_1-2" data-name="レイヤー 1"><path class="cls-1" d="M69.51,81.8a3.23,3.23,0,1,1-3.23-3.23A3.23,3.23,0,0,1,69.51,81.8Z"/><path class="cls-2" d="M62.69,81a3.23,3.23,0,1,1-3.23-3.23A3.23,3.23,0,0,1,62.69,81Z"/><path class="cls-3" d="M56.19,78.55A3.23,3.23,0,1,1,53,75.33,3.23,3.23,0,0,1,56.19,78.55Z"/><path class="cls-4" d="M50.92,74.24A3.23,3.23,0,1,1,47.69,71,3.24,3.24,0,0,1,50.92,74.24Z"/><path class="cls-5" d="M69.79,81A3.23,3.23,0,1,0,73,77.76,3.23,3.23,0,0,0,69.79,81Z"/><path class="cls-6" d="M76.29,78.55a3.23,3.23,0,1,0,3.22-3.22A3.23,3.23,0,0,0,76.29,78.55Z"/><path class="cls-7" d="M81.56,74.24A3.23,3.23,0,1,0,84.79,71,3.24,3.24,0,0,0,81.56,74.24Z"/><path d="M75.35,85.5A2.52,2.52,0,0,0,74.62,89c3.9,6,10.09,17,10.09,21.08,0,5.21-3.47,10.1-9.06,12.78a22.33,22.33,0,0,1-18.82,0c-5.59-2.68-9.06-7.57-9.06-12.78C47.77,105.94,54,95,57.85,89a2.52,2.52,0,0,0-4.22-2.77c-.11.17-2.71,4.15-5.35,9-3.74,6.85-5.56,11.7-5.56,14.84,0,7.16,4.58,13.8,11.93,17.33a27.42,27.42,0,0,0,23.18,0c7.35-3.53,11.93-10.17,11.93-17.33,0-3.14-1.82-8-5.57-14.85-2.64-4.84-5.24-8.82-5.35-9A2.52,2.52,0,0,0,75.35,85.5Z"/><path d="M57.82,51.36A8.42,8.42,0,1,0,66.24,43,8.43,8.43,0,0,0,57.82,51.36Zm5,0a3.37,3.37,0,1,1,3.37,3.38A3.37,3.37,0,0,1,62.87,51.36Z"/><path d="M54.56,39.06C47.09,42.43,42.44,48.8,42.44,55.7S47.09,69,54.56,72.35a2.52,2.52,0,1,0,2.07-4.6c-5.64-2.54-9.14-7.16-9.14-12s3.5-9.5,9.14-12.05a2.52,2.52,0,1,0-2.07-4.59Z"/><path d="M74.58,40.32a2.5,2.5,0,0,0,1.26,3.32C81.49,46.19,85,50.8,85,55.7s-3.51,9.51-9.15,12a2.52,2.52,0,1,0,2.07,4.6C85.39,69,90,62.6,90,55.7S85.39,42.42,77.91,39.05A2.51,2.51,0,0,0,74.58,40.32Z"/><path class="cls-8" d="M64.22,100.31a.62.62,0,0,0,.43.77,2.73,2.73,0,0,1,1.83,2,2.83,2.83,0,0,1-1.83,3.43,2.41,2.41,0,0,1-1.87-.23,2.78,2.78,0,0,1-1.27-1.74,2.92,2.92,0,0,1,.68-2.72.63.63,0,0,0-.92-.85,4.23,4.23,0,0,0-1,3.88,4,4,0,0,0,1.87,2.51,3.64,3.64,0,0,0,2.83.35,4.09,4.09,0,0,0,2.7-4.94A4,4,0,0,0,65,99.88.63.63,0,0,0,64.22,100.31Z"/><path class="cls-8" d="M59.71,100A4.07,4.07,0,0,0,57,104.93a4,4,0,0,0,2.69,2.87.63.63,0,0,0,.35-1.2,2.71,2.71,0,0,1-1.83-2,2.81,2.81,0,0,1,1.83-3.43,2.39,2.39,0,0,1,1.86.23,2.75,2.75,0,0,1,1.27,1.73,2.94,2.94,0,0,1-.67,2.72.63.63,0,1,0,.91.86,4.24,4.24,0,0,0,1-3.88,4,4,0,0,0-1.87-2.51A3.6,3.6,0,0,0,59.71,100Z"/><path class="cls-8" d="M68.9,99.94a.63.63,0,0,0,.87.9,2.45,2.45,0,0,1,1.66-.55,2.4,2.4,0,0,1,1.64.56.62.62,0,0,0,.88,0,.61.61,0,0,0,0-.88,4,4,0,0,0-5,0Z"/><path class="cls-8" d="M75.5,107.05,72,101a.63.63,0,0,0-.54-.31.61.61,0,0,0-.53.31l-3.54,6a.61.61,0,0,0,.22.85.62.62,0,0,0,.86-.22s.51-.88,1.14-1.94l.14.11a3.5,3.5,0,0,0,1.71.43,3.59,3.59,0,0,0,1.71-.43l.15-.11,1.14,1.94a.61.61,0,0,0,.85.22A.62.62,0,0,0,75.5,107.05Zm-3-2.29a2.46,2.46,0,0,1-1.11.27,2.3,2.3,0,0,1-1.1-.27.42.42,0,0,0-.14-.06c.48-.83,1-1.64,1.24-2.11.29.47.76,1.28,1.25,2.11A.35.35,0,0,0,72.53,104.76Z"/><path d="M64.22,100.31a.62.62,0,0,0,.43.77,2.73,2.73,0,0,1,1.83,2,2.83,2.83,0,0,1-1.83,3.43,2.41,2.41,0,0,1-1.87-.23,2.78,2.78,0,0,1-1.27-1.74,2.92,2.92,0,0,1,.68-2.72.63.63,0,0,0-.92-.85,4.23,4.23,0,0,0-1,3.88,4,4,0,0,0,1.87,2.51,3.64,3.64,0,0,0,2.83.35,4.09,4.09,0,0,0,2.7-4.94A4,4,0,0,0,65,99.88.63.63,0,0,0,64.22,100.31Z"/><path d="M59.71,100A4.07,4.07,0,0,0,57,104.93a4,4,0,0,0,2.69,2.87.63.63,0,0,0,.35-1.2,2.71,2.71,0,0,1-1.83-2,2.81,2.81,0,0,1,1.83-3.43,2.39,2.39,0,0,1,1.86.23,2.75,2.75,0,0,1,1.27,1.73,2.94,2.94,0,0,1-.67,2.72.63.63,0,1,0,.91.86,4.24,4.24,0,0,0,1-3.88,4,4,0,0,0-1.87-2.51A3.6,3.6,0,0,0,59.71,100Z"/><path d="M68.9,99.94a.63.63,0,0,0,.87.9,2.45,2.45,0,0,1,1.66-.55,2.4,2.4,0,0,1,1.64.56.62.62,0,0,0,.88,0,.61.61,0,0,0,0-.88,4,4,0,0,0-5,0Z"/><path d="M75.5,107.05,72,101a.63.63,0,0,0-.54-.31.61.61,0,0,0-.53.31l-3.54,6a.61.61,0,0,0,.22.85.62.62,0,0,0,.86-.22s.51-.88,1.14-1.94l.14.11a3.5,3.5,0,0,0,1.71.43,3.59,3.59,0,0,0,1.71-.43l.15-.11,1.14,1.94a.61.61,0,0,0,.85.22A.62.62,0,0,0,75.5,107.05Zm-3-2.29a2.46,2.46,0,0,1-1.11.27,2.3,2.3,0,0,1-1.1-.27.42.42,0,0,0-.14-.06c.48-.83,1-1.64,1.24-2.11.29.47.76,1.28,1.25,2.11A.35.35,0,0,0,72.53,104.76Z"/><path d="M349,46.78a3.46,3.46,0,0,0,2,.72,3.14,3.14,0,0,0,2.27-1.16l.26.15a5.19,5.19,0,0,1-1.66,1.91,2.93,2.93,0,0,1-1.53.55c-.72,0-1.34-.36-3.13-1.36-1.51-.86-1.8-1-2.39-1a3.49,3.49,0,0,0-2.36,1.18l-.23-.22c.95-1.33,2.07-2.36,3.32-2.36.63,0,1,.16,2.21.86Z"/><path d="M361.35,42c1.74.28,3,1.15,3,1.74a.35.35,0,0,1-.15.29,3.94,3.94,0,0,0-.36.19s-.21.38-.27.54l-.68,1.33c-.08.17-.38.68-.59,1,1.06.73,2.33,1.64,2.33,3,0,.52-.26,1-.82,1s-.7-.22-1-.78a7.68,7.68,0,0,0-1.33-1.94,11.71,11.71,0,0,1-2.94,2.74,14.34,14.34,0,0,1-3.24,1.59l-.15-.29a14.5,14.5,0,0,0,5.14-5.14,14.17,14.17,0,0,0-3-1.88l-.43-.21.12-.26a20.29,20.29,0,0,1,3.86,1.37A11,11,0,0,0,362,43.07c0-.43-.28-.6-.75-.87Z"/><path d="M368.09,42.21c2,.2,2.75.88,2.75,1.2,0,.09,0,.13-.28.45a.78.78,0,0,0-.09.39c-.05,1.12-.05,1.72-.05,1.93,0,.38,0,.59,0,.8l.06,1c0,.11,0,.28,0,.46,0,.36-.09.63-.41.63s-.91-.54-1.21-.9a.93.93,0,0,1-.26-.66,3.86,3.86,0,0,1,.1-.43,16.79,16.79,0,0,0,.09-2.16c0-1.74,0-2.24-.86-2.39Zm5-.73a6.23,6.23,0,0,1,2.64.48c.54.28.6.53.6.59s0,.11-.29.37a.4.4,0,0,0-.1.24c0,.14,0,.76,0,.89v2.64c0,2.33,0,5.51-6.05,6l0-.32c3.86-.78,4.23-3.15,4.33-4.82,0-.22,0-.72,0-1.16l0-2.17c-.06-1.77-.08-2.21-1.22-2.41Z"/><path d="M379.54,45.63c.36.73.71.78,1.54.78h.78l5.14-.26a9.13,9.13,0,0,0,1.25-.12l.48-.05c.25,0,1.43.39,1.43,1.19,0,.31-.2.48-.57.48s-.53,0-.58,0a10.18,10.18,0,0,0-1.51-.12c-.55,0-4,.13-5,.25a1.8,1.8,0,0,0-1,.34c-.17.13-.27.21-.38.21s-1.2-.35-1.88-2.61Z"/><path d="M396,47a1.4,1.4,0,1,1-1.39-1.4A1.41,1.41,0,0,1,396,47Z"/><path d="M404.73,44.09c0,.14,0,.43,0,.51l-.05,1.12c0,.2,0,.49,0,.58s.32,0,.39,0l2.35-.13a2.21,2.21,0,0,0,.72-.12c.28-.19.3-.2.41-.2.36,0,1.52.69,1.52,1.35,0,.42-.32.42-.47.42s-.94-.12-1.09-.13c-.47-.05-1.14-.05-1.75-.05-1.1,0-1.68,0-2.13.05V48c0,.37,0,.75,0,1.11,0,1,0,1.23.15,1.41s.54.24,1.37.24a9,9,0,0,0,1.78-.22,2.44,2.44,0,0,1,.44-.19c.28,0,1.25.85,1.25,1.35,0,.19-.13.35-.57.45a12.57,12.57,0,0,1-2.37.19c-3.5,0-3.71-.35-3.71-2.57,0-.19,0-.89,0-1.13l0-1a8.7,8.7,0,0,0-2.19.39c-.28.17-.31.19-.39.19-.29,0-.6-.34-.66-.42A2.57,2.57,0,0,1,399,46l.28,0c.2.52.42.59,1.07.59.3,0,.52,0,1.79-.1l.8,0v-.52l0-1.66-.49,0h-.6c-.54,0-1.3,0-1.87-1.72l.26-.15a1.21,1.21,0,0,0,1.22.58l.52,0,1.22,0a19.18,19.18,0,0,0,2.9-.31,6.19,6.19,0,0,1,.63-.24c.18,0,.34.11.69.37.63.47.73.63.73.85s-.32.34-.44.34a7.11,7.11,0,0,0-1,0Z"/><path d="M416.06,44.91a17.72,17.72,0,0,0-.12-2.45,1,1,0,0,0-.95-.68l.05-.31c1.67,0,3.26.6,3.26,1.07,0,.14-.1.23-.44.48,0,0,0,.34,0,.41v1.39c.09,0,.57,0,.85,0l1.49-.12c.25,0,.29,0,.63-.26a.54.54,0,0,1,.24-.08c.14,0,.31.08.71.47s.7.76.7,1-.49.41-.72.39l-.5-.08a19.23,19.23,0,0,0-2.17-.09l-1.25,0v.46c0,2-.11,3.34-2,4.7a9.43,9.43,0,0,1-3.55,1.5l-.09-.3a6.25,6.25,0,0,0,3.35-2.86,6.9,6.9,0,0,0,.58-3.42,12.14,12.14,0,0,0-2.86.48,1.28,1.28,0,0,0-.44.22.27.27,0,0,1-.16.06c-.43,0-.88-.71-.95-.85a4.92,4.92,0,0,1-.58-1.58l.28-.14a1.35,1.35,0,0,0,1.43.78c.41,0,1.61-.07,2.48-.14Z"/><path d="M423.91,45.63c.36.73.71.78,1.53.78h.79l5.14-.26a9.13,9.13,0,0,0,1.25-.12l.48-.05c.25,0,1.42.39,1.42,1.19,0,.31-.19.48-.56.48s-.53,0-.59,0a9.87,9.87,0,0,0-1.49-.12c-.57,0-4,.13-5,.25a1.8,1.8,0,0,0-1.05.34c-.17.13-.27.21-.38.21s-1.2-.35-1.88-2.61Z"/><path d="M438.93,41.69c2,.05,3.06,1,3.06,1.21s0,.13-.34.33c-.13.05-.13.07-.52.83a20.44,20.44,0,0,0,2.75-.29l.62-.76,1.59,1.28c.05.05.31.24.31.43s-.28.32-.73.43a11,11,0,0,1-3.21,5.1,11.76,11.76,0,0,1-5.73,2.47l-.09-.35a11.27,11.27,0,0,0,4.51-2.91A10.82,10.82,0,0,0,443.69,45a21.68,21.68,0,0,1-3.21.24,7.2,7.2,0,0,1-1.35,1.55,12.94,12.94,0,0,1-2.75,1.81l-.2-.26a10.69,10.69,0,0,0,3.46-5.65c0-.47-.42-.57-.78-.68Z"/><path d="M451.25,41.66a6.71,6.71,0,0,1,1.7.12c.15,0,1.11.29,1.11.78a2.64,2.64,0,0,1-.25.47,7.68,7.68,0,0,0-.19,1.9,3.3,3.3,0,0,0,.11,1c.75-.3,1.49-.58,2.26-.83a1.51,1.51,0,0,0,.47-.23c.17-.15.22-.19.32-.19s1.35.69,1.35,1.45c0,.37-.15.38-.95.41a12.57,12.57,0,0,0-3.8.62A6,6,0,0,0,451,48.26a1.52,1.52,0,0,0-.57,1,1.19,1.19,0,0,0,.86,1.06,8.48,8.48,0,0,0,2.73.3,15.51,15.51,0,0,0,2.37-.15,4.11,4.11,0,0,1,.56-.19,1.68,1.68,0,0,1,1.21,1.32.54.54,0,0,1-.5.56,18.18,18.18,0,0,1-2.7.15c-2.9,0-5.56-.11-5.56-2.52,0-1.35.93-2.31,3.2-3.42-.28-.24-.6-.53-.6-1.58,0-.29.08-1.61.08-1.87,0-.7-.18-.82-.87-1Z"/><path d="M465.13,44.91a17.72,17.72,0,0,0-.12-2.45,1,1,0,0,0-.95-.68l.05-.31c1.67,0,3.26.6,3.26,1.07,0,.14-.1.23-.44.48,0,0,0,.34,0,.41v1.39c.09,0,.57,0,.84,0l1.51-.12c.24,0,.28,0,.62-.26a.49.49,0,0,1,.24-.08c.14,0,.31.08.71.47s.69.76.69,1-.48.41-.71.39l-.5-.08a19.26,19.26,0,0,0-2.16-.09l-1.26,0v.46c0,2-.12,3.34-2,4.7a9.43,9.43,0,0,1-3.55,1.5l-.09-.3a6.25,6.25,0,0,0,3.35-2.86,6.89,6.89,0,0,0,.57-3.42,12.14,12.14,0,0,0-2.85.48,1.28,1.28,0,0,0-.44.22.29.29,0,0,1-.16.06c-.43,0-.88-.71-.95-.85a5.17,5.17,0,0,1-.58-1.58l.28-.14a1.34,1.34,0,0,0,1.43.78c.41,0,1.61-.07,2.48-.14Z"/><path d="M476.4,47a1.4,1.4,0,1,1-1.39-1.4A1.42,1.42,0,0,1,476.4,47Z"/><path d="M478.91,43.61c.44.56.59.74,1.85.74.34,0,.39,0,2.61-.18a9.94,9.94,0,0,0-.1-1.75c-.09-.38-.59-.55-1-.66l.06-.25c.37,0,.52-.06.68-.06,1,0,2.39.38,2.39.87,0,.1,0,.13-.16.28a1.06,1.06,0,0,0-.21.64s-.05.73-.05.81l.76,0c1.67-.1,1.7-.12,1.93-.25s.35-.18.47-.18c.38,0,1.55.87,1.55,1.34s-.42.41-.66.41-.67-.07-.77-.07c-.47,0-1.15,0-1.68,0-.84,0-1.31,0-1.66,0V47c0,2.1,0,2.85.12,3.6,0,.08.08.44.08.52,0,.27-1,1.54-1.69,1.54-.25,0-.36-.11-.41-.46-.08-.57-.1-.66-1.61-2.11l.13-.26a15.22,15.22,0,0,0,1.75.6c.05-.92.08-1.41.06-4.57v-.52c-1.91.11-2.25.17-2.87.59a.53.53,0,0,1-.25.07,1.14,1.14,0,0,1-.65-.36,4.09,4.09,0,0,1-1-1.91Zm2.41,2.79a4.4,4.4,0,0,1,.18,1.28c0,2-.95,3.17-1.86,3.17a.94.94,0,0,1-.95-1c0-.41.17-.65.71-1a3,3,0,0,0,1.45-1.49,2.44,2.44,0,0,0,.15-1Zm4.75,0c1.19.42,3.36,1.51,3.36,3.22,0,.73-.43,1.35-1,1.35s-.76-.26-.9-1.18a4.49,4.49,0,0,0-1.63-3.1Z"/><path d="M494,41.69c2,.05,3.05,1,3.05,1.21s0,.13-.34.33c-.13.05-.13.07-.52.83a20.13,20.13,0,0,0,2.75-.29l.62-.76,1.59,1.28c0,.05.31.24.31.43s-.27.32-.73.43a11,11,0,0,1-3.21,5.1,11.76,11.76,0,0,1-5.73,2.47l-.09-.35a11.29,11.29,0,0,0,4.52-2.91A10.9,10.9,0,0,0,498.76,45a21.68,21.68,0,0,1-3.21.24,7.5,7.5,0,0,1-1.35,1.55,12.94,12.94,0,0,1-2.75,1.81l-.2-.26a10.61,10.61,0,0,0,3.46-5.65c0-.47-.42-.57-.78-.68Z"/><path d="M506.68,47a1.4,1.4,0,1,1-1.4-1.4A1.42,1.42,0,0,1,506.68,47Z"/><path d="M510.73,43.35c2,.13,3,1.39,3,1.72,0,.16-.16.26-.24.3l-.24.13a.86.86,0,0,0-.07.21,12.32,12.32,0,0,1-1.62,3.21,11.81,11.81,0,0,1-2.49,2.57l-.19-.25a13.51,13.51,0,0,0,2.46-6.67c0-.47-.12-.67-.7-1Zm4.06-.07a12.35,12.35,0,0,1,3.17,3,7.32,7.32,0,0,1,1.43,3.42c0,.71-.32,1.45-1,1.45s-.81-.53-1-1.71a11.68,11.68,0,0,0-2.8-5.9Z"/><path d="M527.91,42a4.66,4.66,0,0,1,2.44,1.2c.24.21.6.59.6.82a.29.29,0,0,1-.14.25,2,2,0,0,0-.75,1,12.51,12.51,0,0,1-7.82,7.41l-.15-.32a14,14,0,0,0,5-5.27,11.5,11.5,0,0,0,1.55-3.87c0-.51-.31-.68-.93-1Z"/><path d="M535.26,43.35c2,.13,3,1.39,3,1.72a.37.37,0,0,1-.23.3l-.25.13a.86.86,0,0,0-.07.21,12.66,12.66,0,0,1-1.62,3.21,11.84,11.84,0,0,1-2.48,2.57l-.2-.25a13.51,13.51,0,0,0,2.46-6.67c0-.47-.12-.67-.7-1Zm4.07-.07a12.11,12.11,0,0,1,3.16,3,7.32,7.32,0,0,1,1.43,3.42c0,.71-.31,1.45-1,1.45s-.8-.53-1-1.71a11.61,11.61,0,0,0-2.81-5.9Z"/><path d="M552.44,42a4.63,4.63,0,0,1,2.44,1.2c.24.21.61.59.61.82a.29.29,0,0,1-.15.25,2.08,2.08,0,0,0-.74,1,12.55,12.55,0,0,1-7.83,7.41l-.15-.32a14,14,0,0,0,5-5.27,11.5,11.5,0,0,0,1.55-3.87c0-.51-.31-.68-.92-1Z"/><path d="M560,44.61l.71-.17.17-.41a4.89,4.89,0,0,0,.4-1.4c0-.55-.68-.72-1-.81l.11-.35a4.45,4.45,0,0,1,2,.4c.59.29.85.63.85.8a.56.56,0,0,1-.13.28l-.28.36c-.14.19-.37.61-.53.9a4.22,4.22,0,0,1,.52,0c1.67,0,2.22.88,2.22,2.42a14.54,14.54,0,0,1-1.14,5.1,1.63,1.63,0,0,1-1.34,1,.66.66,0,0,1-.69-.55c-.06-.84-.08-1.33-1.42-2.13l.13-.31.39.13,1.14.39.48.17a17,17,0,0,0,.85-4.29c0-.68-.3-1.11-1-1.11a2.79,2.79,0,0,0-.56.08c-.69,1.56-1.83,4.51-2.08,5.19l-.54,1.54c-.28.74-.49.85-.69.85-.49,0-1.06-1-1.06-1.35a.81.81,0,0,1,.17-.43l.28-.35A47.72,47.72,0,0,0,560.09,46l.17-.4a5.23,5.23,0,0,0-1.12.72.42.42,0,0,1-.27.13,1.5,1.5,0,0,1-1-.81,2.43,2.43,0,0,1-.27-1.48l.38-.08c0,.25,0,.85.57.85a3.1,3.1,0,0,0,.69-.11Zm4.88-1.26a5.48,5.48,0,0,1,3.31,2.47,5.9,5.9,0,0,1,.84,2.89,1.56,1.56,0,0,1-.37,1.16,1,1,0,0,1-.61.29c-.17,0-.3-.07-.47-.46-.29-.7-.81-.79-1.85-.79l-.08-.34,1.67-.38a9.06,9.06,0,0,0-.89-2.68,4,4,0,0,0-1.72-1.88Zm1.5-.49a2.32,2.32,0,0,0-1-1l.16-.21a3.74,3.74,0,0,1,1.85.67,1.24,1.24,0,0,1,.51.94.71.71,0,0,1-.66.73c-.19,0-.35-.09-.5-.39Zm1.51-.7A2.75,2.75,0,0,0,566.56,41l.14-.22a3.52,3.52,0,0,1,2.08.54,1,1,0,0,1,.46.83c0,.41-.29.79-.61.79s-.43-.28-.48-.33Z"/><path d="M572.52,45.47a9.25,9.25,0,0,0-.83-1.43,1,1,0,0,1-.24-.46s.09-.87,1.59-.87a9.16,9.16,0,0,1,2.87.53,3.35,3.35,0,0,0-1.82-1.47l.15-.26a4.31,4.31,0,0,1,2.59.71,1.62,1.62,0,0,1,.65,1.27.77.77,0,0,1-.16.52c.16,0,.53,0,.8,0,2.11,0,3,1.28,3,2.51a2.44,2.44,0,0,1-2.55,2.41,5.62,5.62,0,0,1-3.34-1.61l.17-.32a4,4,0,0,0,2.13.74c1.35,0,2-.81,2-1.59a1.55,1.55,0,0,0-1.68-1.42,9.49,9.49,0,0,0-3.67,1.18,46,46,0,0,0,2.41,4.94c.33.62.37.7.37.87a1.6,1.6,0,0,1-1.18,1.22c-.23,0-.31-.22-.45-.65-.29-.79-.65-1.87-.87-2.38s-1.06-2.43-1.23-2.83l-.21-.5a6,6,0,0,0-1.15,1c-.15.18-.23.26-.4.26a2,2,0,0,1-1-.57,2.82,2.82,0,0,1-.79-1.79l.33-.09c.13.38.38.78.82.78a3.72,3.72,0,0,0,1.31-.44Zm3.87-1.27-1-.53A3.76,3.76,0,0,0,574,43.4c-.44,0-.69.18-.69.39s0,.21.43,1.16a22.5,22.5,0,0,1,2.22-.66Z"/><path d="M583.22,46c.17.35.35.65.71.65a4.79,4.79,0,0,0,1.36-.37,17,17,0,0,1,3.76-.78,2.87,2.87,0,0,1,3,3,3.42,3.42,0,0,1-2.26,3.3,14.16,14.16,0,0,1-4.54.67l0-.34c1.7-.2,5.3-.87,5.3-3.9,0-1-.35-1.9-1.74-1.9a6.7,6.7,0,0,0-3.38,1.22c-.54.46-.61.51-.75.51a2,2,0,0,1-1.1-.63,3.29,3.29,0,0,1-.69-1.29Z"/><path d="M603.22,42.49a7,7,0,0,0,.73-.12,3.38,3.38,0,0,1,.43-.21c.44,0,1.42.89,1.42,1.33a.34.34,0,0,1-.37.35s-.69-.07-.75-.09c-.24,0-.78-.08-1.25-.08a3.35,3.35,0,0,0-2.84,1.48A4.47,4.47,0,0,0,599.5,48c0,2.49,2.6,2.6,3.17,2.6l.6-.06c.37,0,.86.85.86,1.27s-.31.65-.89.65a7.41,7.41,0,0,1-3.19-.72,3.54,3.54,0,0,1-1.71-3.17,5.61,5.61,0,0,1,1.16-3.3,7.7,7.7,0,0,1,1.71-1.55l-.53.09a12.23,12.23,0,0,0-3.9,1.17c-.25.19-.35.2-.42.2a2.55,2.55,0,0,1-1.18-.61,2.94,2.94,0,0,1-1-1.44l.31-.16a1.29,1.29,0,0,0,1.11.68,5.41,5.41,0,0,0,1.13-.21c1.29-.28,2.94-.58,4-.7l1.62-.17Z"/><path d="M612.63,43.15c.85-.59.94-.64.94-.86s-.31-.42-.67-.57l.21-.25a2.68,2.68,0,0,1,1.74.78,2.1,2.1,0,0,1,.73,1.1c0,.27-.24.31-.48.35a18.47,18.47,0,0,0-4.54,2.2l-.49.33c-.13.09-.33.25-.33.42s.1.23.42.44a18,18,0,0,1,4.25,3.07,1.84,1.84,0,0,1,.66,1.23,2.13,2.13,0,0,1-.2.86.63.63,0,0,1-.63.4c-.39,0-.62-.32-.85-.69a13,13,0,0,0-4.37-4.1c-.76-.51-.87-.69-.87-1a1,1,0,0,1,.41-.76c.35-.32,1.68-1.31,2.39-1.8Z"/><path d="M623.85,46.4a6.15,6.15,0,0,1,2.25-.48,4.21,4.21,0,0,1,2.26.65,2.65,2.65,0,0,1,1,2.35,3.26,3.26,0,0,1-1.1,2.66,5.23,5.23,0,0,1-3.13.89c-.42,0-3.24,0-3.24-2,0-.58.37-1.34,1.65-1.34,1.63,0,2.84,1.25,2.84,1.81a1.34,1.34,0,0,1,0,.19,2.55,2.55,0,0,0,.77-.77,3.37,3.37,0,0,0,.47-1.7,1.88,1.88,0,0,0-.67-1.59,2.54,2.54,0,0,0-1.47-.42,5.76,5.76,0,0,0-3.85,1.94,9.79,9.79,0,0,0-.81,1,.53.53,0,0,1-.44.27c-.41,0-.79-.7-.79-1.21,0-.33.08-.39.58-.77a28.31,28.31,0,0,0,4.12-4l.78-.88a9.48,9.48,0,0,0-2.16.8c-.34.28-.37.31-.47.31a1.8,1.8,0,0,1-1.12-.91A2.48,2.48,0,0,1,621,42l.36-.1c.14.52.29.73.85.73a30.89,30.89,0,0,0,3.42-.54,2.65,2.65,0,0,1,.53-.27c.31,0,1.25,1,1.25,1.26s-.08.2-.26.25c-.34.09-.59.22-1.46,1.07l-1.43,1.35Zm-.66,3.68c-.31,0-.66.15-.66.5,0,.73,1.09,1.07,1.84,1.07a5.34,5.34,0,0,0,.81-.09C625,51.19,624.23,50.08,623.19,50.08Z"/><path d="M634,49.08h-.37l-1-5.53a1.62,1.62,0,0,1,0-.21,1.18,1.18,0,1,1,2.35,0,.82.82,0,0,1,0,.21Zm-.19,2.7a1.18,1.18,0,0,1,0-2.35A1.22,1.22,0,0,1,635,50.61,1.19,1.19,0,0,1,633.85,51.78Z"/><path d="M99.79,43.39c.77,1.23,1.4,2.25,5.09,2.25,2.8,0,16.46-.76,19.56-.85l1.65-2.16,4.46,3.52c.17.13.8.64.8,1.1,0,.64-.46.81-1.82,1.32-4.12,15.44-9.76,21.68-26.47,26.6l-.3-.94c15.91-6.78,19.68-17.3,21.55-26.55l-1.4.08-9.67.77c-5.18.46-6.11.8-7.93,1.65-1,.76-1.11.85-1.32.85-.55,0-1.36-.81-2.2-1.78a11.65,11.65,0,0,1-2.85-5.52Z"/><path d="M147.05,56.63c.3.08,1.23.25,1.23.8,0,.39-.3.6-1.1,1.11-.05.3-.09,1.36-.13,1.57l0,3.9-.09,3.86a11.06,11.06,0,0,1,0,1.19c.72,0,3.86,0,4.5-.09l2.76-.08a3.46,3.46,0,0,0,2-.43A2.42,2.42,0,0,1,157,68c.93,0,4.28,2.63,4.28,4,0,.72-.72.76-1.1.76s-.59,0-.72,0l-1.66-.26a54.38,54.38,0,0,0-7.5-.42c-1.11,0-13.88.21-15.79,1.7-.68.51-.76.59-1,.59-.55,0-2.59-1.53-4-5.94l.72-.55a3.8,3.8,0,0,0,3.57,2c1,0,5.34-.34,6.61-.43l2.3-.21,0-5.56,0-6.87c-.81,0-4.33.17-5.05.17-2.8,0-3.4-1.14-5.13-4.62l.76-.43c1.1,1.32,1.7,1.87,4.83,1.87,2.59,0,10.1-.3,13.54-1.19a18.18,18.18,0,0,1,1.86-.76c.68,0,3.57,2.12,3.57,3.18,0,.68-.77.93-1.32,1l-1.44,0-2.38.25c-.76.09-2,.17-2.75.17Z"/><path d="M181.62,43.52l1.74-1.78,3.95,3.39a2.29,2.29,0,0,1,.85,1.28c0,.67-.76.76-2.12,1-4,8-4.46,8.87-7.17,12.52,5.51,2.12,13.06,6.78,13.06,11.58a2.81,2.81,0,0,1-2.67,3c-1.74,0-2.67-1.83-3.94-4.54a23.27,23.27,0,0,0-7.22-9,51.74,51.74,0,0,1-11.24,9.93,41.05,41.05,0,0,1-8.65,4.11l-.47-.89a44.83,44.83,0,0,0,14.55-12.47,56.5,56.5,0,0,0,8.32-15l-2.12.26c-2.51.3-8.58,1.06-10.74,2.25a5.93,5.93,0,0,1-1.27.76c-1.15,0-3.6-3.39-4.54-7.38l.85-.3a4.46,4.46,0,0,0,4.5,2.59c.8,0,1.31,0,5.25-.42,2.21-.22,6-.51,6.5-.56Z"/><path d="M223.5,55.82c-1.41-.17-4.12-.21-5.9-.21-1.57,0-2.17,0-3.95.09-.29,4.54-.72,10.43-3.82,14C207,72.83,201.77,75,196.77,76l-.3-1c10.95-4.2,12-11.58,12.05-18.92-2.63.21-8.78.76-10.44,2-.21.21-.67.68-1,.68-.77,0-3.48-2-5.35-6.49l.85-.43a5.14,5.14,0,0,0,4,1.87c.59,0,2.63-.08,3.14-.17a158.46,158.46,0,0,1,16.71-1.19c4.71-.08,5.26-.46,6.28-1.14a2.49,2.49,0,0,1,1-.47,1.73,1.73,0,0,1,.89.43l1.06.72c1.61,1.1,2.5,2.08,2.5,3.22s-1,1.1-1.31,1.1a11.72,11.72,0,0,1-1.32-.12Zm-14-9.37c-.94.08-5.14.38-6,.51-.34,0-1.82.42-2.16.42-.76,0-3-1.7-4.54-5.39l.81-.38a4.52,4.52,0,0,0,4.07,1.83,82.6,82.6,0,0,0,9.71-.64l2.55-.26a13.05,13.05,0,0,0,3.18-.72c.17-.08.89-.76,1-.76.89,0,4.29,2.67,4.29,3.82s-1.19,1-1.49,1l-1.44-.09c-1.57,0-3.69.13-4.29.17Z"/><path d="M245.26,47c3.86.63,7.12,3.43,7.12,4.45,0,.55-.51.64-1.61.85l-1.23,1c-3.31,2.76-4.33,3.48-6,4.76.76.29,1.1.42,1.1.76s-.42.64-1.14,1c0,.93,0,3.52,0,4.28l.16,10.35c0,.77,0,2.42-1,2.42-1.45,0-3.74-2.2-3.74-3.14a5.52,5.52,0,0,1,.26-.85,97.65,97.65,0,0,0,.29-10.77V60.7a63.57,63.57,0,0,1-13.61,5.6l-.3-.85a60.27,60.27,0,0,0,17-11.71c1.11-1.06,3.69-3.56,3.69-4.62,0-.55-.38-.85-1.27-1.53Z"/><path d="M261.89,44.92c4.75.55,8.36,3.4,8.36,4.71,0,.42-.51.85-1.32,1.44a44.4,44.4,0,0,1-4.88,11.24,41.66,41.66,0,0,1-8.31,9.93L255,71.6a47.33,47.33,0,0,0,6.37-12,39.41,39.41,0,0,0,2.41-10.78c0-2-1.06-2.5-2.24-3Zm12.85,0c9.46,6.87,14.85,17.43,14.85,22.23,0,2.08-1,4.15-2.8,4.15s-2.25-1.86-2.59-3.47c-1.87-8.91-4.33-14.85-10.09-22.19ZM280,43c5.1,1.06,7.17,3.44,7.17,5.09,0,.47-.21,1.74-1.4,1.74-.67,0-1.23-.17-2.16-1.74a12,12,0,0,0-3.91-4.37Zm3.06-3.23c2,.26,7.72,1.11,7.72,4.42,0,.76-.34,1.74-1.44,1.74-.34,0-.81,0-1.83-1.45a10.76,10.76,0,0,0-4.79-3.86Z"/><path d="M294.42,43.48c4.08.72,8.11,2,8.11,3.48,0,.25-.09.29-.68.89a3.56,3.56,0,0,0-.3.59c-.17,12.56-.63,19.81-12.9,26.6l-.59-.72c4.88-4.46,8.83-8.27,8.83-23.25,0-5.22-.26-5.68-2.72-6.66Zm10.19-3.69c4.62.51,8.78,2.25,8.78,3.73a.93.93,0,0,1-.42.72c-.64.47-.77.55-.86,1.23-.16,1.44-.21,6.11-.21,7.94l0,5.89v7.77A48.57,48.57,0,0,0,325.1,52.68l.8.43c-3.35,10.64-9.29,15.82-14.42,20.28-.26,1.18-.34,1.65-.93,1.65a1.38,1.38,0,0,1-.94-.47l-3.69-4.15,1.74-.85V66.64l-.17-22.14a5.05,5.05,0,0,0-.76-2.38,4.27,4.27,0,0,0-2.38-1.31Z"/><path d="M113.89,98.77c0-.89,0-1.22,0-1.76V95.44c0-7.33-.39-7.67-4-8.55l.2-1c6-.1,10.8,2.06,10.8,3.47,0,.29-.15.44-1.42,1.71-.1,2.4-.15,3.52-.15,7.33.54,0,1.42,0,2-.1l2,0,4.21-.25c2-.15,2.44-.19,2.83-.39a10.15,10.15,0,0,1,1.91-1c.49,0,1,.49,2.29,1.62,1.81,1.56,2.45,2.49,2.45,3.37,0,1.22-1.22,1.22-1.52,1.22-.58,0-3.07-.39-3.56-.39-1.77-.15-6.21-.29-8.22-.29-1.65,0-2.83,0-4.3.1l0,2.29c-.14,8.12-.88,12.86-7.28,17.5a33,33,0,0,1-12.65,5.72L99,126.72c15.25-6,15.15-17.94,15-24.19a63.88,63.88,0,0,0-11.59,1.71,14.89,14.89,0,0,1-2.24,1c-1,0-3.72-1.62-5.38-8l.93-.49c1,1.52,1.76,2.79,5.32,2.79,1.81,0,6.7-.3,9.39-.49Z"/><path d="M149.08,106.44a5,5,0,1,1-5-5A5,5,0,0,1,149.08,106.44Z"/><path d="M155.43,87.18c7.43-.05,10.61,2.49,10.66,3.37,0,.3,0,.44-1.42,1.86-.1,1.08-.19,1.91-.24,3.37l-.2,4.65c0,.58-.1,1.86-.1,2.49,6.21-.39,15.5-4.3,18-6.26,1.37-1.07,1.56-1.17,1.85-1.17a4.45,4.45,0,0,1,1.52.68l1.66,1.08c.49.34,2,1.47,2,2.3s-.78,1.07-2.64,1.61c-1.08.29-5.77,1.86-6.75,2.15-3.47,1.08-8.36,2.4-11.39,2.4A16.27,16.27,0,0,1,164,105c0,.69-.09,2.15-.09,2.79l-.2,6.79c-.15,5.13.64,6.06,8.75,6.06,2.83,0,9.14-.1,11.63-.68a4.74,4.74,0,0,0,1.86-.83,1.54,1.54,0,0,1,.83-.3c.73,0,1.08.39,2.1,1.47l1.08,1.12a3.41,3.41,0,0,1,1,2c0,1.56-1.61,1.66-4.2,1.8l-4.35.25c-.54,0-7.67.1-12.71.1-1.51,0-6.5-.2-8.06-1.32-3-2-3.23-5.28-3.18-9.34l.1-9.48.24-9.78c0-2.05,0-4.29,0-4.59-.14-1.12-1.27-2.44-3.47-2.93Z"/><path d="M205.58,85.52c.19,0,.83,0,1.27,0s8.46.59,8.46,2.3c0,.34-.05.39-.79,1.12a2,2,0,0,0-.39.64c-.15,1.81-.15,2.78-.15,5.23.79-.05,2.45-.1,3.18-.15l6.21-.19,1.36-1.86,5.38,3.81c.35.25,1,.78,1,1.27s-.2.68-1.92,1.52a14.8,14.8,0,0,1-.43,1.61l-1.13,4.69a30.37,30.37,0,0,1-9.48,15.15c-4.84,4-10.9,5.92-17.06,7l-.29-1.17c13-4.16,19.84-12,22.43-28.6l-2.74.1-9.09.44c-7.08.35-8.55.44-11.43.64l.09,4.2v4.35c0,.54.11,2.93.11,3.38s0,2.05-1.52,2.05c-1.27,0-4.45-2.54-4-4.35L195,107a38.57,38.57,0,0,0,.29-5.32c0-5.62-.73-6.8-2.93-7.73l.39-.87a17.25,17.25,0,0,1,7.68,2.39l5.72-.29c.63,0,2-.1,2.64-.15,0-7.43,0-7.67-3.52-8.6Zm17.69.59c5.86,1.27,8.16,3.76,8.16,5.72a1.82,1.82,0,0,1-1.66,2c-.93,0-1.37-.49-2.39-2.2a18.81,18.81,0,0,0-4.55-4.64Zm3.23-3.28c3.71.54,8.89,1.57,8.89,5a1.67,1.67,0,0,1-1.56,1.8c-.35,0-.88,0-2-1.41a19.07,19.07,0,0,0-5.66-4.55Z"/><path d="M236.17,97.59a4.14,4.14,0,0,0,3.62,2.35c.59,0,5.72-.49,6.8-.59,4.34-.34,9-.68,13.29-.78l2-2.15,4.69,4.25a1.92,1.92,0,0,1,.69,1.27c0,.69-1.37.88-2.15,1a93.07,93.07,0,0,1-9.68,7.38l-2.05,1.42c-.54,4.59-1,8.79-4.74,12.17a22.92,22.92,0,0,1-10.51,4.83l-.39-1c2.59-1,4.25-1.71,6.11-3.52,3.81-3.76,4.4-10,4.4-10.12l.24-3.13c0-.19,0-.83,0-1.22a3,3,0,0,0-2-3l.39-.83c4.55.73,5.91,2,7,3a52.2,52.2,0,0,0,5.81-8c-6.3.59-11.63,1.08-17.2,3-.63.2-.63.2-1.42.93a1.88,1.88,0,0,1-1,.49c-.68,0-1.65-1.32-2.39-2.25A12.87,12.87,0,0,1,235.3,98Z"/><path d="M272.73,87.18c7.44-.05,10.61,2.49,10.66,3.37,0,.3,0,.44-1.42,1.86-.1,1.08-.2,1.91-.24,3.37l-.2,4.65c0,.58-.1,1.86-.1,2.49,6.21-.39,15.5-4.3,18-6.26,1.37-1.07,1.56-1.17,1.86-1.17a4.38,4.38,0,0,1,1.51.68l1.67,1.08c.49.34,1.95,1.47,1.95,2.3s-.79,1.07-2.64,1.61c-1.08.29-5.77,1.86-6.75,2.15-3.46,1.08-8.35,2.4-11.38,2.4a16.21,16.21,0,0,1-4.35-.69c0,.69-.1,2.15-.1,2.79l-.19,6.79c-.15,5.13.63,6.06,8.75,6.06,2.83,0,9.13-.1,11.62-.68a4.74,4.74,0,0,0,1.86-.83,1.54,1.54,0,0,1,.83-.3c.74,0,1.08.39,2.1,1.47l1.08,1.12a3.42,3.42,0,0,1,1,2c0,1.56-1.62,1.66-4.21,1.8l-4.35.25c-.53,0-7.67.1-12.71.1-1.51,0-6.49-.2-8.06-1.32-3-2-3.22-5.28-3.18-9.34l.1-9.48.24-9.78c0-2.05,0-4.29,0-4.59-.15-1.12-1.28-2.44-3.47-2.93Z"/><path d="M322.88,85.52c.19,0,.83,0,1.27,0s8.46.59,8.46,2.3c0,.34-.05.39-.78,1.12a2,2,0,0,0-.4.64c-.14,1.81-.14,2.78-.14,5.23.78-.05,2.44-.1,3.18-.15l6.2-.19L342,92.56l5.38,3.81c.34.25,1,.78,1,1.27s-.19.68-1.9,1.52c-.1.48-.35,1.37-.44,1.61l-1.13,4.69a30.37,30.37,0,0,1-9.48,15.15c-4.84,4-10.9,5.92-17.05,7l-.3-1.17c13-4.16,19.85-12,22.44-28.6l-2.75.1-9.08.44c-7.09.35-8.56.44-11.44.64l.1,4.2v4.35c0,.54.09,2.93.09,3.38s0,2.05-1.51,2.05c-1.27,0-4.45-2.54-4-4.35l.35-1.67a40.22,40.22,0,0,0,.29-5.32c0-5.62-.73-6.8-2.94-7.73l.4-.87a17.25,17.25,0,0,1,7.67,2.39l5.72-.29c.63,0,2-.1,2.64-.15,0-7.43,0-7.67-3.52-8.6Zm17.69.59c5.87,1.27,8.16,3.76,8.16,5.72a1.82,1.82,0,0,1-1.65,2c-.94,0-1.37-.49-2.4-2.2a18.89,18.89,0,0,0-4.54-4.64Zm3.23-3.28c3.71.54,8.89,1.57,8.89,5a1.67,1.67,0,0,1-1.56,1.8c-.34,0-.87,0-2-1.41a19.23,19.23,0,0,0-5.67-4.55Z"/><path d="M353.48,97.59a4.11,4.11,0,0,0,3.61,2.35c.59,0,5.72-.49,6.8-.59,4.35-.34,9-.68,13.29-.78l2-2.15,4.7,4.25a1.92,1.92,0,0,1,.69,1.27c0,.69-1.37.88-2.16,1a91,91,0,0,1-9.68,7.38l-2.05,1.42c-.53,4.59-1,8.79-4.74,12.17a22.85,22.85,0,0,1-10.51,4.83l-.39-1c2.6-1,4.25-1.71,6.11-3.52,3.82-3.76,4.4-10,4.4-10.12l.24-3.13c0-.19,0-.83,0-1.22a3,3,0,0,0-2-3l.39-.83c4.55.73,5.91,2,7,3a52.24,52.24,0,0,0,5.82-8c-6.31.59-11.64,1.08-17.21,3-.63.2-.63.2-1.41.93a1.91,1.91,0,0,1-1,.49c-.69,0-1.66-1.32-2.39-2.25A12.89,12.89,0,0,1,352.6,98Z"/><path d="M400.3,106.44a5,5,0,1,1-5-5A5,5,0,0,1,400.3,106.44Z"/><path d="M410.52,92.07c4.93.59,9.87,4.1,9.87,5.77,0,.29-.14.58-.63.88a6,6,0,0,0-1.13.83c-3.28,10.65-9,19-15.83,24.19l-.73-.88c7.86-9.68,10.6-23.46,10.6-26.34,0-1.91-.69-2.59-2.54-3.52Zm14.7,0c13.89,10.56,17.21,22.24,17.21,25.66,0,4-2.15,4.59-3.13,4.59-1.75,0-2.68-1.66-3.12-4.25-2-10.85-6.55-19.35-11.78-25.17Z"/><path d="M443.9,88.94a16.74,16.74,0,0,1,7.58,2.89c.43,0,1.95,0,2.29-.1l5.23-.3c2.39-.14,4.55-.24,6.51-.34l5.27-.19,1.37-.05,2.1-2.69,5.67,4.4a2.06,2.06,0,0,1,.78,1.27c0,.68-1.22,1.17-2,1.51-2.59,17.06-8,22.68-13.25,26.35a35.23,35.23,0,0,1-12.6,5.62l-.35-1.08a30.37,30.37,0,0,0,16.37-15.64,47.84,47.84,0,0,0,3.86-16.42c-.43,0-1.65.1-2,.1l-5,.2-14.32.77c0,3.82.14,9,.14,12.81,0,1.37,0,2.49-1.17,2.49-1.66,0-4.5-2.19-4.5-4a2.43,2.43,0,0,1,.1-.74l.39-1.61a14.77,14.77,0,0,0,.1-2.1c0-1.91,0-8.56-.34-9.73a5.16,5.16,0,0,0-2.54-2.64Z"/><path d="M508.22,85.72c5,1.31,9.14,4.88,9.14,6.25,0,.54-.25.59-2.49,1.08-.44.34-1.08.78-1.32,1l-5.38,4.06c-.54.39-2.05,1.37-2.93,1.91.48.19,1.51.63,1.51,1.22s-.29.63-1.76,1.51c0,.79.05,3.23.05,3.91v8.8c0,1.76.2,9.58.2,11.2,0,.73-.05,1.8-1.27,1.8-1.52,0-5-2.05-5-4.15,0-.73.34-2.54.34-2.69a49.4,49.4,0,0,0,.34-6l.09-10.61c0-.19,0-1.56,0-1.85a99.8,99.8,0,0,1-18.83,7.52l-.38-1.17c2.54-.93,4.2-1.57,11.58-6A86,86,0,0,0,504.6,94l3.23-3.07c.69-.59,1.61-1.57,1.61-2.25,0-.93-1.12-1.66-1.76-2.05Z"/><path d="M345,66.13a1.06,1.06,0,0,0,.11.58.53.53,0,0,0,.44.15h1.13a1.37,1.37,0,0,0,.87-.25,2.77,2.77,0,0,0,.58-1c0-.12.09-.18.16-.18s.23.07.23.21a1.67,1.67,0,0,1,0,.19,1.77,1.77,0,0,0,0,.24c0,.3,0,.65,0,1l.11,1.45a2.33,2.33,0,0,1,0,.33c0,.11-.07.17-.21.17s-.16-.06-.18-.2a1.71,1.71,0,0,0-.52-1.08,2.09,2.09,0,0,0-1.26-.28,3.37,3.37,0,0,0-1.34.14q-.18.15-.18,1.11V70.3a2.77,2.77,0,0,0,.4,1.68,1.6,1.6,0,0,0,1.17.45c.16,0,.25.09.25.21s-.06.22-.17.22a3.2,3.2,0,0,1-.45,0c-.18,0-.56,0-1.12,0h-.85a7,7,0,0,0-1,.06,6.79,6.79,0,0,1-.76.07c-.17,0-.25-.06-.25-.2s.07-.17.22-.22a1,1,0,0,0,.62-.53,3.62,3.62,0,0,0,.16-1.3V64.33a1.68,1.68,0,0,0-.34-1.26,1.78,1.78,0,0,0-1.12-.37c-.14,0-.2-.08-.2-.19s.09-.23.26-.23l.4,0c.31,0,.64,0,1,0l1.33,0h2c.7,0,1.4,0,2.13-.09l.59,0c.12,0,.2.13.21.4s0,.51.05.57l.07.58c0,.12,0,.22,0,.3,0,.43-.1.64-.29.64s-.16-.07-.16-.22V64.2a1.1,1.1,0,0,0,0-.27c-.21-.67-.89-1-2-1h-1.31a.9.9,0,0,0-.62.17.8.8,0,0,0-.17.58Z"/><path d="M353.68,64v1.67a2.34,2.34,0,0,0,.11.91c.07.13.24.19.5.19h1.23A1.29,1.29,0,0,0,356.7,66l.18-.38a.26.26,0,0,1,.23-.15c.11,0,.17.06.17.21s0,.15,0,.34,0,.24,0,.34,0,.55.07,1.16c0,.39.05.74.05,1v.4a.22.22,0,0,1,0,.14s-.06,0-.12.06-.21-.09-.24-.3a1.7,1.7,0,0,0-.46-1,1.07,1.07,0,0,0-.49-.24,8.25,8.25,0,0,0-1.09,0h-.52a.8.8,0,0,0-.51.11.68.68,0,0,0-.18.45,11.37,11.37,0,0,0-.05,1.22V70a5.22,5.22,0,0,0,.17,1.56,1,1,0,0,0,.31.46.91.91,0,0,0,.55.13q3.14,0,4.1-1.91c0-.06.06-.09.09-.1a.16.16,0,0,1,.14.06.21.21,0,0,1,.06.16,3,3,0,0,1-.4,1.47,2.07,2.07,0,0,1-.85.86,3,3,0,0,1-1.35.26c-.33,0-.69,0-1.09-.06l-.9-.08a11.85,11.85,0,0,0-1.33,0c-.37,0-.94,0-1.71.07l-.45,0a.18.18,0,0,1-.2-.18.21.21,0,0,1,.17-.21,1.36,1.36,0,0,0,.59-.36,1.48,1.48,0,0,0,.25-.67,5.43,5.43,0,0,0,.09-1.11V64.24a1.81,1.81,0,0,0-.28-1.17,2,2,0,0,0-1.17-.43.21.21,0,0,1-.2-.23c0-.12.08-.18.25-.18h.61l.77,0,2.92,0c1.68,0,2.72,0,3.11-.07h.1c.15,0,.22.08.22.25s0,.33.05.63q.06.68.06,1c0,.4-.1.6-.3.61s-.15-.11-.15-.34a1.19,1.19,0,0,0-.56-1.11,3.54,3.54,0,0,0-1.8-.35h-.94l-.52.07c-.27.08-.4.34-.4.78Z"/><path d="M363,62.07a3.67,3.67,0,0,1,1.42.28l.51.21a1.41,1.41,0,0,0,.5.14.47.47,0,0,0,.22-.05l.29-.15.13,0c.1,0,.16.09.16.26v.62a2.53,2.53,0,0,0,0,.28l.1.75.07.71a1,1,0,0,1,0,.15c0,.22-.07.33-.19.33s-.16-.09-.2-.29a3.27,3.27,0,0,0-1.13-1.86,2.89,2.89,0,0,0-1.92-.78,1.68,1.68,0,0,0-1.2.47,1.42,1.42,0,0,0-.52,1.1,1.36,1.36,0,0,0,.45,1,8.59,8.59,0,0,0,1.83.9A6.59,6.59,0,0,1,366,67.59a3.37,3.37,0,0,1-.27,4.42,3.11,3.11,0,0,1-2.27,1,6.16,6.16,0,0,1-1.69-.37l-.8-.23a1.17,1.17,0,0,1-.41-.13,1,1,0,0,1-.1-.4,6,6,0,0,0-.23-1,7,7,0,0,1-.28-1.34c0-.25.07-.37.23-.37s.12.06.15.18a4.84,4.84,0,0,0,1.31,2.22,2.83,2.83,0,0,0,1.94.9,2,2,0,0,0,1.39-.59,1.88,1.88,0,0,0,.62-1.37,1.56,1.56,0,0,0-.32-1,2.91,2.91,0,0,0-1.11-.73l-1.17-.53a6.77,6.77,0,0,1-2.25-1.4,2.5,2.5,0,0,1-.6-1.75,3,3,0,0,1,.83-2.13A2.75,2.75,0,0,1,363,62.07Z"/><path d="M373.38,64.13v5.8a3.32,3.32,0,0,0,.38,1.85,1.64,1.64,0,0,0,1.33.6c.19,0,.28.11.28.27s-.08.18-.24.18h-.19l-.58,0-1-.07h-.31c-.3,0-.57,0-.8,0l-1.7.1-.37,0q-.24,0-.24-.21a.35.35,0,0,1,.08-.22.72.72,0,0,1,.3-.07,1.25,1.25,0,0,0,.93-.43,1.64,1.64,0,0,0,.33-1.08v-7.2c0-.41-.22-.61-.65-.61a6.55,6.55,0,0,0-2.11.23,1.12,1.12,0,0,0-.55.38,5.41,5.41,0,0,0-.36,1l-.06.22c-.06.21-.14.31-.26.31s-.25-.08-.24-.23,0-.35.07-.61l.08-.67.09-.68.06-.48a.28.28,0,0,1,.32-.3l.26,0c.2,0,.49,0,.85,0h1.58l1.87,0c1.21,0,2.49,0,3.84-.11h.52c.28,0,.42.12.44.35l0,.56c0,.08,0,.29.08.62a6.45,6.45,0,0,1,0,.66c0,.16-.07.25-.22.25s-.19-.1-.24-.29a1.61,1.61,0,0,0-.62-1,2.35,2.35,0,0,0-1.33-.32,3.44,3.44,0,0,0-1.45.18C373.48,63.35,373.38,63.65,373.38,64.13Z"/><path d="M381.33,70.4l.06.77a1.44,1.44,0,0,0,.45.91,1.36,1.36,0,0,0,.93.31c.26,0,.38.08.38.24s-.16.23-.5.23c-.14,0-.34,0-.61,0-.67-.07-1.21-.11-1.62-.11a7.63,7.63,0,0,0-1.22.08,3.53,3.53,0,0,1-.55.08.21.21,0,0,1-.22-.17v-.07l.22-.18a1.36,1.36,0,0,0,.73-.48,1.94,1.94,0,0,0,.18-1V64.19a1.56,1.56,0,0,0-.25-1,1.4,1.4,0,0,0-.89-.4,1.85,1.85,0,0,1-.5-.12.21.21,0,0,1-.12-.2c0-.14.07-.22.19-.21l.41.06a5,5,0,0,0,.93.06c.29,0,.65,0,1.07-.05l.56,0c.54,0,.94-.05,1.22-.05s.25.06.25.18a.38.38,0,0,1,0,.19s-.09.06-.2.07a1.14,1.14,0,0,0-.71.31,1.59,1.59,0,0,0-.16.88Z"/><path d="M387.46,66.06l1.71,4.21c.08.19.16.28.22.29s.11-.07.18-.22l1.74-3.85a7.87,7.87,0,0,0,.86-2.73,1,1,0,0,0-.34-.78,1.73,1.73,0,0,0-1-.4q-.27,0-.27-.21c0-.12.06-.18.19-.18s.22,0,.43,0l.81,0,.78,0A8.45,8.45,0,0,0,394,62.2l.31,0c.09,0,.14.07.14.2s-.08.2-.23.23a1.15,1.15,0,0,0-.73.46,8.91,8.91,0,0,0-.81,1.55l-1.14,2.65-1.32,2.9q-.63,1.42-.69,1.53c-.28.57-.43.9-.47,1-.1.23-.22.35-.37.35s-.17-.06-.23-.19l-.18-.39-.19-.47-1.82-4.13c-.45-1-.82-1.93-1.12-2.73a10.38,10.38,0,0,0-.85-1.87,1.34,1.34,0,0,0-.85-.57c-.2,0-.31-.13-.31-.26a.19.19,0,0,1,.22-.21,1.22,1.22,0,0,1,.23,0,8.31,8.31,0,0,0,.92,0l1.29,0,.81,0,.67,0a.19.19,0,0,1,.21.21c0,.12-.11.2-.32.24a.61.61,0,0,0-.57.66A9.41,9.41,0,0,0,387.46,66.06Z"/><path d="M398.08,63.13l3.5,8a2.5,2.5,0,0,0,.62.91,1.94,1.94,0,0,0,.92.4c.09,0,.14.09.14.22s-.06.21-.18.2l-.29,0a9.78,9.78,0,0,0-1.92-.13,8.92,8.92,0,0,0-1.81.12l-.19,0a.2.2,0,0,1-.22-.22c0-.08.06-.13.17-.17a1.24,1.24,0,0,0,.61-.39.87.87,0,0,0,.24-.58,6.42,6.42,0,0,0-.66-1.89c-.14-.3-.29-.47-.46-.52a13.37,13.37,0,0,0-1.77-.06h-1l-.69.12c-.19.09-.4.42-.64,1l-.24.59a1.35,1.35,0,0,0-.11.52c0,.64.45,1,1.36,1.12.19,0,.29.1.28.23s-.1.2-.28.2a2.31,2.31,0,0,1-.39,0,4.5,4.5,0,0,0-.91-.1c-.24,0-.63,0-1.17.08l-.75.06c-.14,0-.21-.06-.21-.19s.07-.18.21-.23a1.31,1.31,0,0,0,.67-.48,9.62,9.62,0,0,0,.74-1.48l2.1-4.84c.17-.38.29-.65.36-.79l.71-1.47.37-.72v0c.17-.39.27-.59.33-.59s.22.22.42.65Zm.29,4.81-1-2.35q-.36-.84-.51-.84c-.06,0-.18.18-.34.54l-.14.32-.9,2.06-.09.19a.53.53,0,0,0-.05.2c0,.17.18.26.55.26h2.27c.2,0,.3-.06.3-.16a.58.58,0,0,0,0-.13Z"/><path d="M406.54,70.39c0,1,.11,1.49.34,1.61a1.84,1.84,0,0,0,.76.1,4.2,4.2,0,0,0,3.69-1.53c.23-.32.37-.47.43-.47s.14.1.14.31a2.63,2.63,0,0,1-.64,1.75,1.85,1.85,0,0,1-1.53.68l-.73,0-.92-.06-.85,0-1,0a16.61,16.61,0,0,0-1.92.12l-.43,0c-.15,0-.22-.07-.22-.2s.07-.16.2-.2a1,1,0,0,0,.68-.53,3.13,3.13,0,0,0,.19-1.3V64.2c0-.82-.34-1.28-1-1.39l-.47-.08c-.19,0-.29-.11-.29-.23a.21.21,0,0,1,.23-.24l.22,0,.31,0,.33,0,.7,0c.25,0,.64,0,1.18-.09s.81-.06,1.22-.06.46.07.46.22-.1.19-.32.2c-.52,0-.78.39-.78,1.07Z"/><path d="M418.72,64l4.07,4.57.26.29c.35.39.58.59.7.59s.17-.16.18-.47c0-1.13.06-2.21.06-3.23a5.53,5.53,0,0,0-.36-2.44,1.67,1.67,0,0,0-1.43-.72c-.17,0-.26-.07-.26-.18s.08-.2.23-.2a8,8,0,0,1,.89.07,6,6,0,0,0,.66,0,15.89,15.89,0,0,0,1.69-.13,1.08,1.08,0,0,1,.22,0c.17,0,.25.07.25.22s-.08.2-.25.23c-.66.12-1,.71-1,1.76v.38l-.11,4.8,0,.67v1.44l0,1q0,.21-.15.21a.47.47,0,0,1-.29-.18l-7-7.78c-.12-.13-.2-.21-.25-.21s-.18.12-.18.35v3.21a13.46,13.46,0,0,0,.24,3.19c.17.58.67.9,1.5,1,.15,0,.23.08.23.2a.21.21,0,0,1-.24.23l-.3,0a8.94,8.94,0,0,0-1.43-.11,8.16,8.16,0,0,0-1.39.11,2.91,2.91,0,0,1-.39.05.18.18,0,0,1-.21-.2c0-.1.07-.17.22-.22a1.22,1.22,0,0,0,.82-.66,3.25,3.25,0,0,0,.26-1.44l.05-1.83V65.19c0-1.57-.58-2.4-1.75-2.48-.16,0-.24-.08-.24-.19s.09-.22.26-.22l.54,0h.32c.41,0,.83,0,1.29-.07l.43,0a.58.58,0,0,1,.37.11,5,5,0,0,1,.59.63l.53.62Z"/><path d="M431.54,63.13l3.5,8a2.62,2.62,0,0,0,.61.91,2,2,0,0,0,.93.4c.09,0,.13.09.13.22s-.06.21-.17.2l-.3,0a9.6,9.6,0,0,0-1.91-.13,8.85,8.85,0,0,0-1.81.12l-.2,0a.19.19,0,0,1-.21-.22c0-.08.05-.13.17-.17a1.24,1.24,0,0,0,.61-.39.87.87,0,0,0,.24-.58,6.25,6.25,0,0,0-.67-1.89.85.85,0,0,0-.45-.52,13.37,13.37,0,0,0-1.77-.06h-1.05l-.69.12c-.19.09-.4.42-.64,1l-.24.59a1.35,1.35,0,0,0-.11.52c0,.64.45,1,1.35,1.12.2,0,.29.1.29.23s-.11.2-.28.2a2.31,2.31,0,0,1-.39,0,4.5,4.5,0,0,0-.91-.1c-.24,0-.63,0-1.17.08l-.75.06c-.14,0-.22-.06-.22-.19s.08-.18.22-.23a1.31,1.31,0,0,0,.67-.48,10.67,10.67,0,0,0,.74-1.48l2.1-4.84.35-.79.72-1.47.37-.72v0c.16-.39.27-.59.33-.59s.22.22.42.65Zm.29,4.81-1-2.35q-.36-.84-.51-.84c-.06,0-.18.18-.34.54l-.15.32-.9,2.06-.08.19a.39.39,0,0,0,0,.2c0,.17.18.26.55.26h2.27c.2,0,.29-.06.29-.16a.3.3,0,0,0,0-.13Z"/><path d="M446.65,67.55H443c-.36,0-.59,0-.67.15a1.24,1.24,0,0,0-.13.74v1.92a2.76,2.76,0,0,0,.35,1.57,1.37,1.37,0,0,0,1.17.48c.17,0,.26.07.26.2s-.13.25-.4.25l-.55,0a14.59,14.59,0,0,0-1.67-.11,11.82,11.82,0,0,0-1.27.09l-.59,0c-.16,0-.25-.08-.25-.26s.07-.17.2-.19a1,1,0,0,0,.75-.47,2.47,2.47,0,0,0,.22-1.19V63.89a1,1,0,0,0-.3-.82,2.45,2.45,0,0,0-1.13-.43c-.14,0-.22-.11-.22-.23s.08-.22.25-.22a4,4,0,0,1,.51.06,10.27,10.27,0,0,0,1.46.09c.19,0,.59,0,1.21-.1.37,0,.65-.05.84-.05s.28.07.28.21-.07.19-.22.21a1,1,0,0,0-.91,1.15v2a2.1,2.1,0,0,0,.11.92c.08.09.32.14.75.14h3.6c.31,0,.5-.07.57-.19a2.94,2.94,0,0,0,.11-1V63.89a1.14,1.14,0,0,0-1.09-1.18l-.36-.07c-.14,0-.21-.1-.21-.23s.08-.22.25-.22a3.67,3.67,0,0,1,.5.06,10.63,10.63,0,0,0,1.47.09c.2,0,.6,0,1.22-.1.37,0,.65-.05.84-.05s.27.07.27.21-.07.19-.22.21a1,1,0,0,0-.9,1.15v6.6a2.77,2.77,0,0,0,.34,1.57,1.34,1.34,0,0,0,1.15.48c.19,0,.28.07.28.2s-.13.25-.4.25l-.53,0a14.88,14.88,0,0,0-1.67-.11,11.82,11.82,0,0,0-1.28.09l-.6,0c-.16,0-.24-.08-.24-.26s.06-.17.19-.19a1,1,0,0,0,.75-.47,2.45,2.45,0,0,0,.23-1.19V68.62a2.49,2.49,0,0,0-.1-.91C447.16,67.6,447,67.55,446.65,67.55Z"/><path d="M454.49,70.4l.06.77a1.44,1.44,0,0,0,.45.91,1.37,1.37,0,0,0,.94.31c.25,0,.37.08.37.24s-.16.23-.5.23c-.14,0-.34,0-.61,0-.67-.07-1.21-.11-1.62-.11a7.63,7.63,0,0,0-1.22.08,3.38,3.38,0,0,1-.55.08.22.22,0,0,1-.22-.17v-.07l.22-.18a1.44,1.44,0,0,0,.74-.48,2.06,2.06,0,0,0,.18-1V64.19a1.63,1.63,0,0,0-.24-1,1.43,1.43,0,0,0-.9-.4,1.85,1.85,0,0,1-.5-.12.21.21,0,0,1-.12-.2c0-.14.07-.22.19-.21l.42.06a4.85,4.85,0,0,0,.92.06c.29,0,.65,0,1.08-.05l.56,0c.52,0,.93-.05,1.21-.05s.25.06.25.18a.38.38,0,0,1,0,.19s-.09.06-.2.07a1.14,1.14,0,0,0-.71.31,1.59,1.59,0,0,0-.16.88Z"/><path d="M468.76,62.16l.52,0c.59.05,1.12.08,1.58.08a5.87,5.87,0,0,0,1.25-.11h.06c.12,0,.17.06.17.18s-.08.21-.25.26a1.61,1.61,0,0,0-.71.47,3.26,3.26,0,0,0-.51.95l-.45,1.12-.71,1.73-1,2.44c-.47,1.22-.77,2-.9,2.26q-.43,1-.51,1.17c-.07.18-.17.27-.31.27s-.3-.11-.38-.34l-.37-.9c-.81-1.93-1.36-3.39-1.68-4.38q-.1-.33-.24-.33c-.09,0-.22.2-.37.58s-.48,1.16-1,2.24-.87,1.83-1.1,2.26l-.19.39c-.14.32-.29.48-.47.48s-.31-.18-.41-.52a6.06,6.06,0,0,0-.23-.58q-1.05-2.41-2-5.17l-.68-1.94-.42-1c-.28-.7-.6-1.07-1-1.1a.19.19,0,0,1-.2-.21c0-.14.09-.21.24-.21l.58,0,.77,0,.79,0c.35,0,.77,0,1.24-.06h.13c.18,0,.26.07.26.21s-.09.2-.28.2c-.45,0-.69.22-.69.65a12.33,12.33,0,0,0,.71,2.33l.75,2.1.47,1.37.26.73c.13.37.25.55.37.55s.31-.25.52-.76c0,0,.21-.45.59-1.23.13-.26.33-.69.6-1.3.14-.34.26-.62.37-.84a.76.76,0,0,0,.05-.19.52.52,0,0,0-.05-.21c-.09-.21-.21-.55-.37-1a7,7,0,0,0-.74-1.65,1.26,1.26,0,0,0-.83-.58.21.21,0,0,1-.21-.22c0-.13.1-.2.3-.2h.37l1.26.09c.88,0,1.39,0,1.54,0l.47,0c.13,0,.2.08.2.26s-.06.14-.17.18l-.24.07a.64.64,0,0,0-.46.66,12.15,12.15,0,0,0,.8,2.68l.8,2.2.33.91.18.5c.12.38.25.57.38.57s.26-.2.39-.59c0-.09.19-.48.47-1.14.12-.3.33-.86.62-1.67l.59-1.56a4.9,4.9,0,0,0,.38-1.44,1,1,0,0,0-.28-.81,2.24,2.24,0,0,0-1-.42c-.16,0-.22-.09-.22-.19S468.63,62.17,468.76,62.16Z"/><path d="M475.93,63.13l3.5,8a2.5,2.5,0,0,0,.62.91,1.91,1.91,0,0,0,.91.4c.1,0,.14.09.14.22s-.05.21-.17.2l-.3,0a9.6,9.6,0,0,0-1.91-.13,8.85,8.85,0,0,0-1.81.12l-.2,0a.19.19,0,0,1-.21-.22c0-.08.05-.13.16-.17a1.27,1.27,0,0,0,.62-.39.87.87,0,0,0,.24-.58,6.25,6.25,0,0,0-.67-1.89.85.85,0,0,0-.45-.52,13.37,13.37,0,0,0-1.77-.06h-1.05l-.69.12c-.19.09-.4.42-.64,1l-.24.59a1.35,1.35,0,0,0-.11.52c0,.64.45,1,1.36,1.12.19,0,.28.1.28.23s-.11.2-.28.2a2.31,2.31,0,0,1-.39,0,4.5,4.5,0,0,0-.91-.1c-.24,0-.63,0-1.17.08l-.75.06c-.14,0-.21-.06-.21-.19s.07-.18.21-.23a1.31,1.31,0,0,0,.67-.48,10.67,10.67,0,0,0,.74-1.48l2.1-4.84.35-.79.72-1.47.37-.72v0c.16-.39.27-.59.33-.59s.22.22.42.65Zm.29,4.81-1-2.35q-.36-.84-.51-.84c-.06,0-.18.18-.34.54l-.15.32-.89,2.06-.09.19a.41.41,0,0,0-.06.2c0,.17.19.26.56.26H476c.2,0,.29-.06.29-.16a.3.3,0,0,0,0-.13Z"/><path d="M488.83,67.55h-3.65c-.37,0-.59,0-.68.15s-.12.34-.12.74v1.92a2.68,2.68,0,0,0,.35,1.57,1.34,1.34,0,0,0,1.16.48c.17,0,.27.07.27.2s-.14.25-.4.25l-.55,0a14.74,14.74,0,0,0-1.67-.11,11.66,11.66,0,0,0-1.27.09l-.6,0c-.16,0-.24-.08-.24-.26s.06-.17.19-.19a1,1,0,0,0,.75-.47,2.45,2.45,0,0,0,.23-1.19V63.89a1,1,0,0,0-.31-.82,2.4,2.4,0,0,0-1.13-.43.23.23,0,0,1-.21-.23c0-.15.08-.22.24-.22a3.76,3.76,0,0,1,.51.06,10.37,10.37,0,0,0,1.46.09c.19,0,.6,0,1.22-.1.37,0,.65-.05.84-.05s.28.07.28.21-.08.19-.23.21a1,1,0,0,0-.9,1.15v2a2.17,2.17,0,0,0,.1.92c.08.09.33.14.75.14h3.6c.32,0,.51-.07.58-.19a3,3,0,0,0,.1-1V63.89a1.13,1.13,0,0,0-1.09-1.18l-.35-.07c-.15,0-.22-.1-.22-.23s.08-.22.25-.22a3.67,3.67,0,0,1,.5.06,10.78,10.78,0,0,0,1.48.09c.19,0,.6,0,1.21-.1.37,0,.65-.05.84-.05s.28.07.28.21-.07.19-.22.21a1,1,0,0,0-.91,1.15v6.6a2.76,2.76,0,0,0,.35,1.57,1.32,1.32,0,0,0,1.14.48c.2,0,.29.07.29.2s-.13.25-.4.25l-.54,0a14.88,14.88,0,0,0-1.67-.11,12,12,0,0,0-1.28.09l-.59,0c-.17,0-.25-.08-.25-.26s.07-.17.2-.19a.94.94,0,0,0,.74-.47,2.34,2.34,0,0,0,.23-1.19V68.62a2.27,2.27,0,0,0-.1-.91C489.35,67.6,489.15,67.55,488.83,67.55Z"/><path d="M497,70.4l.06.77a1.44,1.44,0,0,0,.45.91,1.37,1.37,0,0,0,.94.31c.25,0,.38.08.38.24s-.17.23-.5.23c-.15,0-.35,0-.62,0-.67-.07-1.21-.11-1.62-.11a7.63,7.63,0,0,0-1.22.08,3.38,3.38,0,0,1-.55.08.22.22,0,0,1-.22-.17v-.07l.22-.18A1.36,1.36,0,0,0,495,72a1.94,1.94,0,0,0,.18-1V64.19a1.56,1.56,0,0,0-.25-1,1.4,1.4,0,0,0-.89-.4,1.85,1.85,0,0,1-.5-.12.21.21,0,0,1-.12-.2c0-.14.07-.22.19-.21l.42.06a4.9,4.9,0,0,0,.93.06c.28,0,.64,0,1.06-.05l.57,0c.53,0,.93-.05,1.21-.05s.26.06.26.18a.35.35,0,0,1,0,.19s-.09.06-.2.07a1.14,1.14,0,0,0-.71.31,1.59,1.59,0,0,0-.16.88Z"/><path d="M511.26,62.16l.52,0c.59.05,1.12.08,1.58.08a5.87,5.87,0,0,0,1.25-.11h.06c.11,0,.17.06.17.18s-.08.21-.25.26a1.61,1.61,0,0,0-.71.47,3,3,0,0,0-.51.95l-.46,1.12-.7,1.73-1,2.44c-.47,1.22-.77,2-.9,2.26q-.43,1-.51,1.17t-.3.27c-.18,0-.31-.11-.39-.34l-.37-.9q-1.22-2.89-1.68-4.38c-.07-.22-.15-.33-.23-.33s-.23.2-.37.58-.49,1.16-1,2.24-.87,1.83-1.1,2.26c-.1.19-.16.32-.19.39-.14.32-.3.48-.47.48s-.31-.18-.41-.52a6.06,6.06,0,0,0-.23-.58q-1.05-2.41-2-5.17l-.68-1.94-.42-1c-.28-.7-.6-1.07-1-1.1a.18.18,0,0,1-.19-.21q0-.21.24-.21l.57,0,.77,0,.79,0c.35,0,.76,0,1.24-.06h.13c.17,0,.27.07.27.21s-.1.2-.28.2c-.46,0-.69.22-.69.65a12.32,12.32,0,0,0,.69,2.33l.76,2.1.47,1.37.27.73c.12.37.24.55.35.55s.32-.25.53-.76c0,0,.21-.45.59-1.23.13-.26.33-.69.59-1.3.15-.34.27-.62.38-.84a.55.55,0,0,0,.06-.19.57.57,0,0,0-.06-.21c-.09-.21-.21-.55-.37-1a6.57,6.57,0,0,0-.74-1.65,1.26,1.26,0,0,0-.83-.58.21.21,0,0,1-.21-.22c0-.13.1-.2.3-.2H505l1.28.09q1.31,0,1.53,0l.47,0c.13,0,.2.08.2.26s-.05.14-.17.18l-.24.07a.64.64,0,0,0-.46.66,12.15,12.15,0,0,0,.8,2.68l.8,2.2.33.91.18.5c.12.38.25.57.38.57s.26-.2.39-.59c0-.09.19-.48.47-1.14.12-.3.33-.86.62-1.67l.59-1.56a4.79,4.79,0,0,0,.37-1.44,1.07,1.07,0,0,0-.27-.81,2.19,2.19,0,0,0-1-.42c-.14,0-.21-.09-.2-.19S511.13,62.17,511.26,62.16Z"/><path d="M518.43,63.13l3.5,8a2.5,2.5,0,0,0,.62.91,1.91,1.91,0,0,0,.91.4c.1,0,.14.09.14.22s-.05.21-.17.2l-.29,0a9.78,9.78,0,0,0-1.92-.13,8.85,8.85,0,0,0-1.81.12l-.2,0a.19.19,0,0,1-.21-.22c0-.08,0-.13.17-.17a1.24,1.24,0,0,0,.61-.39.87.87,0,0,0,.24-.58,6.42,6.42,0,0,0-.66-1.89c-.15-.3-.3-.47-.46-.52a13.37,13.37,0,0,0-1.77-.06h-1l-.69.12c-.19.09-.4.42-.64,1l-.24.59a1.35,1.35,0,0,0-.11.52c0,.64.45,1,1.35,1.12.2,0,.29.1.29.23s-.1.2-.28.2a2.31,2.31,0,0,1-.39,0,4.5,4.5,0,0,0-.91-.1c-.24,0-.63,0-1.17.08l-.75.06c-.14,0-.21-.06-.21-.19s.07-.18.21-.23a1.31,1.31,0,0,0,.67-.48,10.67,10.67,0,0,0,.74-1.48l2.1-4.84.35-.79.72-1.47.37-.72v0c.16-.39.27-.59.33-.59s.22.22.42.65Zm.29,4.81-1-2.35q-.36-.84-.51-.84c-.06,0-.18.18-.34.54l-.15.32-.9,2.06-.08.19a.39.39,0,0,0-.05.2c0,.17.18.26.55.26h2.27c.2,0,.29-.06.29-.16a.3.3,0,0,0,0-.13Z"/><path d="M531.41,62.07a5.42,5.42,0,0,1,3.88,1.4,4.84,4.84,0,0,1,1.48,3.67,6.08,6.08,0,0,1-1.53,4.19A5.17,5.17,0,0,1,531.15,73a5.49,5.49,0,0,1-4-1.46,5.19,5.19,0,0,1-1.49-3.9,6,6,0,0,1,.37-2.08,4.95,4.95,0,0,1,2.93-3A6.43,6.43,0,0,1,531.41,62.07Zm-.55.58a2.85,2.85,0,0,0-2.42,1.15,5.1,5.1,0,0,0-.87,3.19,6.55,6.55,0,0,0,1.09,3.93,3.36,3.36,0,0,0,2.84,1.51A3,3,0,0,0,534,71.18a5.42,5.42,0,0,0,1-3.35,6.57,6.57,0,0,0-.44-2.35,4.9,4.9,0,0,0-1.17-1.83A3.54,3.54,0,0,0,530.86,62.65Z"/><path d="M547.79,67.55h-3.65c-.37,0-.59,0-.68.15a1.33,1.33,0,0,0-.13.74v1.92a2.67,2.67,0,0,0,.36,1.57,1.35,1.35,0,0,0,1.16.48c.18,0,.27.07.27.2s-.14.25-.4.25l-.55,0a14.74,14.74,0,0,0-1.67-.11,11.82,11.82,0,0,0-1.27.09l-.59,0c-.17,0-.25-.08-.25-.26s.06-.17.19-.19a1,1,0,0,0,.75-.47,2.45,2.45,0,0,0,.23-1.19V63.89a1,1,0,0,0-.31-.82,2.4,2.4,0,0,0-1.12-.43c-.15,0-.22-.11-.22-.23s.08-.22.25-.22a3.67,3.67,0,0,1,.5.06,10.53,10.53,0,0,0,1.47.09c.19,0,.59,0,1.21-.1.37,0,.65-.05.84-.05s.28.07.28.21-.08.19-.23.21a1,1,0,0,0-.91,1.15v2a1.89,1.89,0,0,0,.12.92c.07.09.32.14.74.14h3.6c.32,0,.51-.07.58-.19a3,3,0,0,0,.1-1V63.89a1.13,1.13,0,0,0-1.08-1.18l-.36-.07c-.14,0-.22-.1-.22-.23s.08-.22.25-.22a4,4,0,0,1,.51.06,10.53,10.53,0,0,0,1.47.09c.19,0,.6,0,1.22-.1.36,0,.65-.05.84-.05s.27.07.27.21-.07.19-.22.21a1,1,0,0,0-.91,1.15v6.6a2.76,2.76,0,0,0,.35,1.57,1.32,1.32,0,0,0,1.14.48c.2,0,.29.07.29.2s-.13.25-.4.25l-.54,0a14.88,14.88,0,0,0-1.67-.11,12,12,0,0,0-1.28.09l-.59,0c-.16,0-.25-.08-.25-.26s.07-.17.2-.19a1,1,0,0,0,.75-.47,2.47,2.47,0,0,0,.22-1.19V68.62a2.27,2.27,0,0,0-.1-.91C548.31,67.6,548.12,67.55,547.79,67.55Z"/><path d="M558.19,63.13l3.5,8a2.49,2.49,0,0,0,.61.91,2,2,0,0,0,.92.4c.1,0,.14.09.14.22s-.05.21-.17.2l-.3,0a9.66,9.66,0,0,0-1.91-.13,8.85,8.85,0,0,0-1.81.12l-.2,0a.2.2,0,0,1-.22-.22c0-.08.06-.13.18-.17a1.24,1.24,0,0,0,.61-.39.87.87,0,0,0,.24-.58,6.25,6.25,0,0,0-.67-1.89.84.84,0,0,0-.46-.52,13.06,13.06,0,0,0-1.76-.06h-1l-.69.12c-.19.09-.4.42-.64,1l-.24.59a1.19,1.19,0,0,0-.11.52c0,.64.45,1,1.35,1.12.2,0,.29.1.29.23s-.11.2-.28.2a2.31,2.31,0,0,1-.39,0,4.5,4.5,0,0,0-.91-.1c-.24,0-.63,0-1.17.08l-.75.06c-.14,0-.21-.06-.21-.19s.07-.18.21-.23a1.31,1.31,0,0,0,.67-.48,10.67,10.67,0,0,0,.74-1.48l2.1-4.84c.16-.38.29-.65.35-.79l.72-1.47.37-.72v0c.16-.39.27-.59.32-.59s.23.22.43.65Zm.28,4.81-1-2.35q-.36-.84-.51-.84c-.07,0-.18.18-.34.54l-.15.32-.9,2.06-.08.19a.41.41,0,0,0-.06.2c0,.17.19.26.56.26h2.27c.19,0,.29-.06.29-.16a.3.3,0,0,0,0-.13Z"/><path d="M573.63,62.16l.51,0c.59.05,1.12.08,1.59.08a5.77,5.77,0,0,0,1.24-.11H577a.16.16,0,0,1,.18.18c0,.12-.08.21-.25.26a1.51,1.51,0,0,0-.71.47,3.24,3.24,0,0,0-.52.95l-.45,1.12-.7,1.73c-.53,1.33-.86,2.14-1,2.44-.48,1.22-.78,2-.9,2.26-.3.65-.46,1-.51,1.17s-.17.27-.31.27-.3-.11-.39-.34c0-.08-.15-.38-.37-.9q-1.2-2.89-1.67-4.38-.11-.33-.24-.33c-.1,0-.22.2-.37.58s-.49,1.16-1,2.24-.86,1.83-1.09,2.26c-.1.19-.16.32-.19.39q-.21.48-.48.48c-.17,0-.3-.18-.41-.52a6.06,6.06,0,0,0-.23-.58q-1.05-2.41-2-5.17c-.43-1.23-.66-1.88-.67-1.94l-.42-1c-.28-.7-.6-1.07-1-1.1a.18.18,0,0,1-.19-.21q0-.21.24-.21l.57,0,.78,0,.78,0c.36,0,.77,0,1.24-.06h.14c.17,0,.26.07.26.21s-.09.2-.28.2c-.46,0-.69.22-.69.65a11.92,11.92,0,0,0,.7,2.33l.76,2.1.47,1.37.26.73c.13.37.25.55.36.55s.31-.25.53-.76c0,0,.21-.45.58-1.23.13-.26.33-.69.6-1.3.14-.34.27-.62.37-.84a.55.55,0,0,0,.06-.19.76.76,0,0,0,0-.21c-.09-.21-.22-.55-.37-1a7,7,0,0,0-.74-1.65,1.29,1.29,0,0,0-.83-.58.21.21,0,0,1-.21-.22c0-.13.1-.2.29-.2h.37l1.27.09c.88,0,1.39,0,1.54,0l.47,0c.13,0,.2.08.2.26s-.06.14-.17.18l-.24.07a.65.65,0,0,0-.47.66,12.79,12.79,0,0,0,.8,2.68l.8,2.2.33.91c.1.25.16.42.19.5.12.38.24.57.37.57s.26-.2.4-.59c0-.09.18-.48.46-1.14.13-.3.34-.86.63-1.67l.58-1.56a4.9,4.9,0,0,0,.38-1.44,1.07,1.07,0,0,0-.27-.81,2.24,2.24,0,0,0-1-.42c-.15,0-.22-.09-.21-.19S573.49,62.17,573.63,62.16Z"/><path d="M580.79,63.13l3.51,8a2.49,2.49,0,0,0,.61.91,2,2,0,0,0,.92.4c.09,0,.14.09.14.22s-.06.21-.18.2l-.29,0a9.71,9.71,0,0,0-1.92-.13,8.8,8.8,0,0,0-1.8.12l-.2,0a.2.2,0,0,1-.22-.22c0-.08.06-.13.17-.17a1.2,1.2,0,0,0,.61-.39.84.84,0,0,0,.25-.58,6.57,6.57,0,0,0-.67-1.89c-.14-.3-.29-.47-.46-.52a13.15,13.15,0,0,0-1.77-.06h-1l-.69.12c-.19.09-.41.42-.65,1l-.23.59a1.19,1.19,0,0,0-.11.52c0,.64.45,1,1.35,1.12.19,0,.29.1.28.23s-.1.2-.27.2a2.31,2.31,0,0,1-.4,0,4.41,4.41,0,0,0-.9-.1c-.24,0-.63,0-1.18.08l-.74.06c-.15,0-.22-.06-.22-.19s.07-.18.22-.23a1.35,1.35,0,0,0,.67-.48,10.67,10.67,0,0,0,.74-1.48l2.1-4.84c.17-.38.28-.65.35-.79l.72-1.47.36-.72v0c.17-.39.28-.59.34-.59s.22.22.42.65Zm.29,4.81-1-2.35c-.24-.56-.41-.84-.52-.84s-.17.18-.33.54l-.15.32-.9,2.06-.09.19a.53.53,0,0,0-.05.2c0,.17.18.26.56.26h2.27c.19,0,.29-.06.29-.16a.3.3,0,0,0,0-.13Z"/><path d="M589.25,70.4l.06.77a1.54,1.54,0,0,0,.45.91,1.37,1.37,0,0,0,.94.31c.26,0,.38.08.38.24s-.17.23-.5.23c-.15,0-.35,0-.62,0a16.2,16.2,0,0,0-1.62-.11,7.72,7.72,0,0,0-1.22.08,3.38,3.38,0,0,1-.55.08.22.22,0,0,1-.22-.17v-.07l.23-.18a1.4,1.4,0,0,0,.73-.48,2.06,2.06,0,0,0,.18-1V64.19a1.63,1.63,0,0,0-.24-1,1.4,1.4,0,0,0-.9-.4,1.85,1.85,0,0,1-.5-.12.22.22,0,0,1-.11-.2c0-.14.06-.22.18-.21l.42.06a5,5,0,0,0,.93.06c.28,0,.64,0,1.07-.05l.56,0c.53,0,.93-.05,1.21-.05s.26.06.26.18,0,.16,0,.19-.09.06-.2.07a1.21,1.21,0,0,0-.71.31,1.69,1.69,0,0,0-.16.88Z"/><path d="M597.8,70.4l.07.77a1.44,1.44,0,0,0,.45.91,1.34,1.34,0,0,0,.93.31c.25,0,.38.08.38.24s-.17.23-.5.23a6.08,6.08,0,0,1-.61,0c-.67-.07-1.21-.11-1.63-.11a7.49,7.49,0,0,0-1.21.08,3.46,3.46,0,0,1-.56.08.2.2,0,0,1-.21-.17l0-.07.22-.18a1.4,1.4,0,0,0,.74-.48,1.94,1.94,0,0,0,.18-1V64.19a1.63,1.63,0,0,0-.24-1,1.4,1.4,0,0,0-.9-.4,2,2,0,0,1-.5-.12.22.22,0,0,1-.11-.2c0-.14.06-.22.18-.21l.42.06a4.9,4.9,0,0,0,.93.06c.29,0,.64,0,1.07-.05l.56,0c.53,0,.93-.05,1.21-.05s.26.06.26.18,0,.16,0,.19-.09.06-.19.07A1.21,1.21,0,0,0,598,63a1.59,1.59,0,0,0-.16.88Z"/><rect x="428.42" y="61.08" width="4.88" height="0.57"/><path d="M593.56,59.7a.1.1,0,0,1,.11.11c0,.07-.08.17-.25.3a2.24,2.24,0,0,0-.55.69,1.92,1.92,0,0,0-.21.83,1.34,1.34,0,0,0,.7,1.14c.22.15.33.28.33.4a.36.36,0,0,1-.1.25l-.47.49c-.34.37-.58.55-.72.55a1,1,0,0,1-.8-.48,1.69,1.69,0,0,1-.37-1.06,3.28,3.28,0,0,1,1-2.31A5,5,0,0,1,593,60,1.24,1.24,0,0,1,593.56,59.7Z"/><path d="M547,119.75c4.15,0,4.83-.12,6.47-3.13.4-.39,1.71-.39,1.94.35-.51,3.52-1.82,7.44-2.79,8.8-2.27-.12-4.31-.17-8-.17h-9c-3,0-5.4.05-6.36.17-.51-.12-.68-.74-.57-1.25,2.16-2,5.4-5,8.8-8.75,3.92-4.31,7.44-9.09,7.44-15.16,0-3.92-2.38-6.93-6.19-6.93-3.23,0-5.51,2.1-7.32,5.22a1.21,1.21,0,0,1-1.88-.79,13.93,13.93,0,0,1,13.07-8.86c6.64,0,10.73,4.31,10.73,9.65,0,4.43-1.76,7.61-8.58,14l-2.72,2.56c-2.5,2.33-3,3.12-3,3.58s.28.68,1.08.68Z"/><path d="M586.12,107.82c0,9.15-3.92,18.57-13.12,18.57s-13.12-9.42-13.12-18.57c0-8.8,3.92-18.57,13.12-18.57S586.12,99,586.12,107.82Zm-13.12,16c4.32,0,4.83-10.9,4.83-16s-.51-16-4.83-16-4.83,10.9-4.83,16S568.69,123.78,573,123.78Z"/><path d="M607.87,119.75c4.15,0,4.83-.12,6.48-3.13.39-.39,1.7-.39,1.93.35-.51,3.52-1.82,7.44-2.79,8.8-2.27-.12-4.31-.17-8-.17h-9c-3,0-5.4.05-6.36.17-.51-.12-.68-.74-.57-1.25,2.16-2,5.4-5,8.8-8.75,3.92-4.31,7.45-9.09,7.45-15.16,0-3.92-2.39-6.93-6.2-6.93-3.23,0-5.5,2.1-7.32,5.22a1.21,1.21,0,0,1-1.88-.79,13.93,13.93,0,0,1,13.07-8.86c6.64,0,10.73,4.31,10.73,9.65,0,4.43-1.76,7.61-8.58,14l-2.72,2.56c-2.5,2.33-3,3.12-3,3.58s.28.68,1.08.68Z"/><path d="M646,107.82c0,9.15-3.92,18.57-13.12,18.57s-13.12-9.42-13.12-18.57c0-8.8,3.92-18.57,13.12-18.57S646,99,646,107.82Zm-13.12,16c4.32,0,4.83-10.9,4.83-16s-.51-16-4.83-16-4.83,10.9-4.83,16S628.56,123.78,632.88,123.78Z"/><path d="M610,70.82c1.23,0,1.44,0,1.93-.93.12-.12.51-.12.58.1a8.12,8.12,0,0,1-.83,2.63c-.68,0-1.29-.05-2.38-.05h-2.69c-.88,0-1.61,0-1.9.05s-.2-.22-.17-.37c.64-.6,1.61-1.49,2.63-2.61a6.87,6.87,0,0,0,2.22-4.53A1.88,1.88,0,0,0,607.56,63a2.58,2.58,0,0,0-2.19,1.56.36.36,0,0,1-.56-.24,4.17,4.17,0,0,1,3.9-2.64,2.93,2.93,0,0,1,3.21,2.88c0,1.32-.53,2.27-2.56,4.19l-.82.76c-.74.7-.9.93-.9,1.07s.09.2.33.2Z"/><path d="M621.7,67.26c0,2.73-1.17,5.55-3.92,5.55s-3.92-2.82-3.92-5.55,1.17-5.54,3.92-5.54S621.7,64.64,621.7,67.26ZM617.78,72c1.29,0,1.44-3.26,1.44-4.77s-.15-4.76-1.44-4.76-1.44,3.25-1.44,4.76S616.49,72,617.78,72Z"/><path d="M628,70.82c1.24,0,1.44,0,1.94-.93.11-.12.5-.12.57.1a7.65,7.65,0,0,1-.83,2.63c-.68,0-1.29-.05-2.37-.05h-2.7c-.88,0-1.61,0-1.9.05s-.2-.22-.17-.37c.65-.6,1.62-1.49,2.63-2.61a6.87,6.87,0,0,0,2.22-4.53A1.88,1.88,0,0,0,625.55,63a2.58,2.58,0,0,0-2.19,1.56.36.36,0,0,1-.56-.24,4.15,4.15,0,0,1,3.9-2.64,2.93,2.93,0,0,1,3.2,2.88c0,1.32-.52,2.27-2.56,4.19l-.81.76c-.75.7-.9.93-.9,1.07s.09.2.32.2Z"/><path d="M639.35,67.26c0,2.73-1.17,5.55-3.92,5.55s-3.91-2.82-3.91-5.55,1.17-5.54,3.91-5.54S639.35,64.64,639.35,67.26ZM635.43,72c1.29,0,1.44-3.26,1.44-4.77s-.15-4.76-1.44-4.76S634,65.75,634,67.26,634.14,72,635.43,72Z"/><path class="cls-8" d="M66.77,112.3l-1.69-2.88a.33.33,0,0,0-.27-.15.3.3,0,0,0-.26.15l-1.7,2.88a.31.31,0,0,0,.11.43.32.32,0,0,0,.43-.11l.54-.92.06,0a1.78,1.78,0,0,0,.82.21,1.82,1.82,0,0,0,.83-.21l.06,0,.54.92a.31.31,0,0,0,.42.11A.3.3,0,0,0,66.77,112.3Zm-1.43-1.1a1.19,1.19,0,0,1-.53.13,1.14,1.14,0,0,1-.52-.13l-.06,0c.23-.39.45-.75.58-1l.58,1Z"/><path class="cls-8" d="M58.78,109.58v2.88a.31.31,0,0,0,.32.31.32.32,0,0,0,.31-.31v-2.88a.32.32,0,0,0-.31-.31A.31.31,0,0,0,58.78,109.58Z"/><path class="cls-8" d="M58.35,111v-1.42a.31.31,0,0,0-.62,0v.83a2.81,2.81,0,0,0-1.15-.24,2.67,2.67,0,0,0-1.16.23v-.82a.31.31,0,0,0-.31-.31.31.31,0,0,0-.31.31v2.88a.31.31,0,0,0,.31.31.31.31,0,0,0,.31-.31v-1.34a1.9,1.9,0,0,1,1.16-.33,2,2,0,0,1,1.15.34v1.33a.31.31,0,0,0,.62,0V111Z"/><path class="cls-8" d="M69.77,110.94v-1.36a.31.31,0,0,0-.31-.31.31.31,0,0,0-.31.31v.77a3,3,0,0,0-2.31,0v-.76a.31.31,0,0,0-.31-.31.32.32,0,0,0-.32.31v1.35a.37.37,0,0,0,.1.23l0,0h0s0,0,0,0h.07a.32.32,0,0,0,.23,0h0s0,0,0,0h0a1.76,1.76,0,0,1,1.24-.42,1.91,1.91,0,0,1,1.16.35v1.38a.31.31,0,0,0,.31.31.31.31,0,0,0,.31-.31V111Z"/><path class="cls-8" d="M70.26,109.58v2.88a.31.31,0,0,0,.31.31.32.32,0,0,0,.32-.31v-2.88a.32.32,0,0,0-.32-.31A.31.31,0,0,0,70.26,109.58Z"/><path class="cls-8" d="M63.32,109.42l-1.1,1.89v-1.73a.3.3,0,0,0-.23-.3.3.3,0,0,0-.35.14l-1.13,1.9v-1.74a.32.32,0,0,0-.63,0v2.88a.31.31,0,0,0,.23.3.3.3,0,0,0,.35-.14l1.14-1.9v1.74a.3.3,0,0,0,.23.3.31.31,0,0,0,.35-.14l1.67-2.88a.31.31,0,0,0-.11-.43A.3.3,0,0,0,63.32,109.42Z"/><path class="cls-8" d="M78.26,112.3l-1.7-2.88a.32.32,0,0,0-.27-.15.3.3,0,0,0-.26.15l-1.7,2.88a.31.31,0,0,0,.11.43.32.32,0,0,0,.43-.11l.54-.92s0,0,0,0a1.89,1.89,0,0,0,.83.21,1.82,1.82,0,0,0,.83-.21l.06,0,.54.92a.32.32,0,0,0,.43.11A.33.33,0,0,0,78.26,112.3Zm-1.44-1.1a1.19,1.19,0,0,1-.53.13,1.14,1.14,0,0,1-.52-.13l0,0c.22-.39.44-.75.57-1,.14.23.36.59.58,1Z"/><path class="cls-8" d="M74.8,109.42l-1.1,1.89v-1.73a.3.3,0,0,0-.23-.3.3.3,0,0,0-.35.14L72,111.32v-1.74a.31.31,0,0,0-.31-.31.32.32,0,0,0-.32.31v2.88a.31.31,0,0,0,.23.3.32.32,0,0,0,.36-.14l1.13-1.9v1.74a.3.3,0,0,0,.23.3.31.31,0,0,0,.35-.14l1.68-2.88a.32.32,0,0,0-.12-.43A.3.3,0,0,0,74.8,109.42Z"/><path d="M66.77,112.3l-1.69-2.88a.33.33,0,0,0-.27-.15.3.3,0,0,0-.26.15l-1.7,2.88a.31.31,0,0,0,.11.43.32.32,0,0,0,.43-.11l.54-.92.06,0a1.78,1.78,0,0,0,.82.21,1.82,1.82,0,0,0,.83-.21l.06,0,.54.92a.31.31,0,0,0,.42.11A.3.3,0,0,0,66.77,112.3Zm-1.43-1.1a1.19,1.19,0,0,1-.53.13,1.14,1.14,0,0,1-.52-.13l-.06,0c.23-.39.45-.75.58-1l.58,1Z"/><path d="M58.78,109.58v2.88a.31.31,0,0,0,.32.31.32.32,0,0,0,.31-.31v-2.88a.32.32,0,0,0-.31-.31A.31.31,0,0,0,58.78,109.58Z"/><path d="M58.35,111v-1.42a.31.31,0,0,0-.62,0v.83a2.81,2.81,0,0,0-1.15-.24,2.67,2.67,0,0,0-1.16.23v-.82a.31.31,0,0,0-.31-.31.31.31,0,0,0-.31.31v2.88a.31.31,0,0,0,.31.31.31.31,0,0,0,.31-.31v-1.34a1.9,1.9,0,0,1,1.16-.33,2,2,0,0,1,1.15.34v1.33a.31.31,0,0,0,.62,0V111Z"/><path d="M69.77,110.94v-1.36a.31.31,0,0,0-.31-.31.31.31,0,0,0-.31.31v.77a3,3,0,0,0-2.31,0v-.76a.31.31,0,0,0-.31-.31.32.32,0,0,0-.32.31v1.35a.37.37,0,0,0,.1.23l0,0h0s0,0,0,0h.07a.32.32,0,0,0,.23,0h0s0,0,0,0h0a1.76,1.76,0,0,1,1.24-.42,1.91,1.91,0,0,1,1.16.35v1.38a.31.31,0,0,0,.31.31.31.31,0,0,0,.31-.31V111Z"/><path d="M70.26,109.58v2.88a.31.31,0,0,0,.31.31.32.32,0,0,0,.32-.31v-2.88a.32.32,0,0,0-.32-.31A.31.31,0,0,0,70.26,109.58Z"/><path d="M63.32,109.42l-1.1,1.89v-1.73a.3.3,0,0,0-.23-.3.3.3,0,0,0-.35.14l-1.13,1.9v-1.74a.32.32,0,0,0-.63,0v2.88a.31.31,0,0,0,.23.3.3.3,0,0,0,.35-.14l1.14-1.9v1.74a.3.3,0,0,0,.23.3.31.31,0,0,0,.35-.14l1.67-2.88a.31.31,0,0,0-.11-.43A.3.3,0,0,0,63.32,109.42Z"/><path d="M78.26,112.3l-1.7-2.88a.32.32,0,0,0-.27-.15.3.3,0,0,0-.26.15l-1.7,2.88a.31.31,0,0,0,.11.43.32.32,0,0,0,.43-.11l.54-.92s0,0,0,0a1.89,1.89,0,0,0,.83.21,1.82,1.82,0,0,0,.83-.21l.06,0,.54.92a.32.32,0,0,0,.43.11A.33.33,0,0,0,78.26,112.3Zm-1.44-1.1a1.19,1.19,0,0,1-.53.13,1.14,1.14,0,0,1-.52-.13l0,0c.22-.39.44-.75.57-1,.14.23.36.59.58,1Z"/><path d="M74.8,109.42l-1.1,1.89v-1.73a.3.3,0,0,0-.23-.3.3.3,0,0,0-.35.14L72,111.32v-1.74a.31.31,0,0,0-.31-.31.32.32,0,0,0-.32.31v2.88a.31.31,0,0,0,.23.3.32.32,0,0,0,.36-.14l1.13-1.9v1.74a.3.3,0,0,0,.23.3.31.31,0,0,0,.35-.14l1.68-2.88a.32.32,0,0,0-.12-.43A.3.3,0,0,0,74.8,109.42Z"/><rect class="cls-9" width="688" height="169"/></g></g></svg>