<?xml version="1.0" encoding="utf-8"?>
<!-- Generator: Adobe Illustrator 26.2.1, SVG Export Plug-In . SVG Version: 6.00 Build 0)  -->
<svg version="1.1" id="レイヤー_1" xmlns="http://www.w3.org/2000/svg" xmlns:xlink="http://www.w3.org/1999/xlink" x="0px"
	 y="0px" viewBox="0 0 570.82 92.24" style="enable-background:new 0 0 570.82 92.24;" xml:space="preserve">
<style type="text/css">
	.st0{fill:#ECD825;}
	.st1{fill:#D49119;}
	.st2{fill:#BD3C26;}
	.st3{fill:#B40F73;}
	.st4{fill:#98B93D;}
	.st5{fill:#1B94D3;}
	.st6{fill:#4954A3;}
	.st7{fill:#FFFFFF;}
</style>
<g>
	<g>
		<g>
			<g>
				<g>
					<g>
						<path class="st0" d="M27.6,44.32c0,1.68-1.37,3.05-3.05,3.05c-1.68,0-3.05-1.37-3.05-3.05c0-1.69,1.37-3.05,3.05-3.05
							C26.23,41.27,27.6,42.63,27.6,44.32z"/>
						<path class="st1" d="M21.16,43.55c0,1.68-1.37,3.05-3.05,3.05c-1.68,0-3.05-1.37-3.05-3.05c0-1.68,1.37-3.05,3.05-3.05
							C19.79,40.5,21.16,41.87,21.16,43.55z"/>
						<path class="st2" d="M15.02,41.25c0,1.68-1.37,3.05-3.05,3.05c-1.69,0-3.05-1.37-3.05-3.05c0-1.68,1.37-3.05,3.05-3.05
							C13.65,38.2,15.02,39.57,15.02,41.25z"/>
						<path class="st3" d="M10.03,37.18c0,1.69-1.37,3.05-3.05,3.05c-1.68,0-3.05-1.37-3.05-3.05c0-1.68,1.36-3.05,3.05-3.05
							C8.67,34.14,10.03,35.5,10.03,37.18z"/>
						<path class="st4" d="M27.87,43.55c0,1.68,1.36,3.05,3.05,3.05c1.68,0,3.05-1.37,3.05-3.05c0-1.68-1.37-3.05-3.05-3.05
							C29.23,40.5,27.87,41.87,27.87,43.55z"/>
						<path class="st5" d="M34,41.25c0,1.68,1.36,3.05,3.05,3.05c1.69,0,3.05-1.37,3.05-3.05c0-1.68-1.36-3.05-3.05-3.05
							C35.37,38.2,34,39.57,34,41.25z"/>
						<path class="st6" d="M38.99,37.18c0,1.69,1.36,3.05,3.05,3.05c1.68,0,3.05-1.37,3.05-3.05c0-1.68-1.37-3.05-3.05-3.05
							C40.35,34.14,38.99,35.5,38.99,37.18z"/>
					</g>
					<g>
						<g>
							<path d="M33.12,47.82c-1.1,0.72-1.41,2.2-0.69,3.3c3.68,5.62,9.53,16.01,9.53,19.92c0,4.92-3.28,9.55-8.57,12.08
								c-2.68,1.28-5.76,1.96-8.89,1.96c-3.14,0-6.21-0.68-8.89-1.97c-5.28-2.53-8.56-7.16-8.56-12.08c0-3.9,5.84-14.29,9.52-19.91
								c0.72-1.1,0.41-2.58-0.69-3.3c-1.1-0.72-2.58-0.42-3.3,0.69c-0.11,0.16-2.56,3.92-5.06,8.5c-3.53,6.48-5.25,11.06-5.25,14.03
								c0,6.77,4.32,13.04,11.27,16.38c3.32,1.59,7.1,2.43,10.95,2.43c3.84,0,7.63-0.84,10.95-2.43
								c6.95-3.33,11.27-9.61,11.27-16.38c0-2.96-1.72-7.56-5.26-14.03c-2.5-4.58-4.95-8.34-5.06-8.5
								C35.7,47.4,34.22,47.1,33.12,47.82z"/>
						</g>
						<g>
							<path d="M16.56,15.56c0,4.38,3.57,7.95,7.95,7.95c4.38,0,7.95-3.56,7.95-7.95c0-4.38-3.57-7.96-7.95-7.96
								C20.13,7.61,16.56,11.18,16.56,15.56z M21.32,15.56c0-1.76,1.43-3.19,3.19-3.19c1.76,0,3.19,1.43,3.19,3.19
								c0,1.76-1.43,3.19-3.19,3.19C22.75,18.75,21.32,17.32,21.32,15.56z"/>
						</g>
						<g>
							<path d="M13.47,3.94C6.41,7.12,2.03,13.14,2.03,19.66c0,6.52,4.39,12.55,11.45,15.73c1.2,0.54,2.61,0.01,3.15-1.19
								c0.54-1.2,0-2.61-1.2-3.15c-5.33-2.41-8.64-6.77-8.64-11.39c0-4.62,3.31-8.98,8.64-11.39c1.2-0.54,1.73-1.95,1.19-3.15
								C16.08,3.92,14.68,3.39,13.47,3.94z"/>
						</g>
						<g>
							<path d="M32.39,5.12c-0.54,1.2-0.01,2.61,1.19,3.15c5.34,2.4,8.66,6.77,8.66,11.39c0,4.62-3.31,8.98-8.65,11.39
								c-1.2,0.54-1.73,1.95-1.19,3.15c0.54,1.2,1.95,1.73,3.15,1.19C42.61,32.21,47,26.18,47,19.66c0-6.52-4.39-12.55-11.46-15.74
								C34.34,3.39,32.93,3.92,32.39,5.12z"/>
						</g>
						<g>
							<g>
								<path class="st7" d="M25.02,73.14l-1.6-2.72c-0.06-0.09-0.15-0.14-0.25-0.14c-0.1,0-0.2,0.05-0.25,0.14l-1.6,2.72
									c-0.08,0.14-0.04,0.32,0.1,0.4c0.14,0.08,0.32,0.04,0.41-0.1c0,0,0.23-0.39,0.51-0.87c0.02,0.01,0.04,0.03,0.06,0.04
									c0.24,0.13,0.51,0.2,0.78,0.2c0.27,0,0.54-0.07,0.78-0.2c0.02-0.01,0.04-0.03,0.05-0.04c0.28,0.48,0.51,0.87,0.51,0.87
									c0.08,0.14,0.27,0.19,0.4,0.1C25.06,73.46,25.1,73.29,25.02,73.14z M23.66,72.1c-0.15,0.08-0.32,0.12-0.49,0.12
									c-0.18,0-0.35-0.04-0.5-0.12c-0.02-0.01-0.03-0.02-0.05-0.02c0.21-0.36,0.42-0.71,0.55-0.93c0.13,0.22,0.33,0.56,0.54,0.93
									C23.69,72.09,23.68,72.09,23.66,72.1z"/>
								<path class="st7" d="M17.46,70.57v2.72c0,0.16,0.13,0.3,0.3,0.3c0.16,0,0.3-0.13,0.3-0.3v-2.72c0-0.16-0.14-0.3-0.3-0.3
									C17.6,70.28,17.46,70.41,17.46,70.57z"/>
								<path class="st7" d="M17.06,71.91v-1.34c0-0.16-0.13-0.3-0.3-0.3c-0.16,0-0.29,0.13-0.29,0.3v0.78
									c-0.31-0.14-0.69-0.23-1.09-0.23c-0.4-0.01-0.78,0.07-1.09,0.22v-0.78c0-0.16-0.13-0.3-0.3-0.3c-0.16,0-0.3,0.13-0.3,0.3
									v1.33c0,0,0,0.01,0,0.01v1.38c0,0.16,0.13,0.3,0.3,0.3c0.16,0,0.3-0.13,0.3-0.3v-1.26c0.25-0.2,0.65-0.31,1.09-0.31
									c0.43,0,0.84,0.13,1.09,0.32v1.25c0,0.16,0.13,0.3,0.29,0.3c0.17,0,0.3-0.13,0.3-0.3v-1.37
									C17.06,71.92,17.06,71.92,17.06,71.91z"/>
								<path class="st7" d="M27.85,71.86v-1.29c0-0.16-0.13-0.3-0.29-0.3c-0.17,0-0.29,0.13-0.29,0.3v0.73
									c-0.31-0.14-0.69-0.22-1.09-0.22c-0.4,0-0.78,0.07-1.1,0.22v-0.72c0-0.16-0.13-0.3-0.29-0.3c-0.16,0-0.3,0.13-0.3,0.3v1.27
									c0,0.08,0.03,0.15,0.09,0.21c0.01,0.01,0.03,0.02,0.04,0.03l0,0c0.01,0.01,0.03,0.02,0.05,0.03c0,0,0,0,0.01,0
									c0.01,0.01,0.03,0.01,0.05,0.01c0,0,0.01,0,0.01,0c0.07,0.01,0.16,0,0.22-0.04c0,0,0-0.01,0-0.01
									c0.01,0,0.01-0.01,0.02-0.01c0.01-0.01,0.02-0.02,0.03-0.03l0,0c0.23-0.24,0.69-0.39,1.17-0.39c0.44,0,0.84,0.13,1.09,0.33
									v1.3c0,0.16,0.13,0.3,0.29,0.3c0.16,0,0.29-0.13,0.29-0.3V71.86C27.85,71.87,27.85,71.86,27.85,71.86z"/>
								<path class="st7" d="M28.31,70.57v2.72c0,0.16,0.13,0.3,0.29,0.3c0.16,0,0.3-0.13,0.3-0.3v-2.72c0-0.16-0.13-0.3-0.3-0.3
									C28.44,70.28,28.31,70.41,28.31,70.57z"/>
								<path class="st7" d="M21.75,70.42c0,0-0.57,0.98-1.04,1.78c0-0.79,0-1.63,0-1.63c0-0.13-0.09-0.25-0.22-0.28
									c-0.13-0.04-0.27,0.02-0.33,0.13c0,0-0.59,0.99-1.07,1.8c0-0.79,0-1.64,0-1.64c0-0.16-0.13-0.3-0.29-0.3
									c-0.16,0-0.3,0.13-0.3,0.3v2.72c0,0.13,0.09,0.25,0.22,0.28c0.13,0.04,0.26-0.02,0.33-0.13c0,0,0.59-0.99,1.07-1.79
									c0,0.78,0,1.64,0,1.64c0,0.13,0.09,0.25,0.22,0.28c0.13,0.04,0.26-0.02,0.33-0.13l1.58-2.72c0.09-0.14,0.04-0.32-0.1-0.4
									C22.01,70.23,21.83,70.28,21.75,70.42z"/>
								<path class="st7" d="M35.87,73.14l-1.6-2.72c-0.05-0.09-0.15-0.14-0.26-0.14c-0.11,0-0.2,0.05-0.25,0.14l-1.6,2.72
									c-0.09,0.14-0.04,0.32,0.1,0.4c0.14,0.08,0.32,0.04,0.41-0.1c0,0,0.23-0.39,0.51-0.87c0.02,0.01,0.04,0.03,0.06,0.04
									c0.24,0.13,0.51,0.2,0.78,0.2c0.27,0,0.54-0.07,0.78-0.2c0.02-0.01,0.04-0.03,0.06-0.04c0.28,0.48,0.51,0.87,0.51,0.87
									c0.08,0.14,0.26,0.19,0.41,0.1C35.9,73.46,35.95,73.29,35.87,73.14z M34.51,72.1c-0.15,0.08-0.32,0.12-0.5,0.12
									c-0.18,0-0.35-0.04-0.5-0.12c-0.02-0.01-0.03-0.02-0.05-0.02c0.21-0.36,0.42-0.71,0.55-0.93c0.13,0.22,0.33,0.56,0.54,0.93
									C34.54,72.09,34.52,72.09,34.51,72.1z"/>
								<path class="st7" d="M32.6,70.42c0,0-0.57,0.98-1.04,1.78c0-0.79,0-1.63,0-1.63c0-0.13-0.08-0.25-0.22-0.28
									c-0.12-0.04-0.26,0.02-0.33,0.13c0,0-0.59,0.99-1.07,1.8c0-0.79,0-1.64,0-1.64c0-0.16-0.13-0.3-0.29-0.3
									c-0.16,0-0.3,0.13-0.3,0.3v2.72c0,0.13,0.09,0.25,0.22,0.28c0.13,0.04,0.27-0.02,0.33-0.13c0,0,0.59-0.99,1.07-1.79
									c0,0.78,0,1.64,0,1.64c0,0.13,0.09,0.25,0.22,0.28c0.13,0.04,0.27-0.02,0.33-0.13l1.59-2.72c0.08-0.14,0.03-0.32-0.11-0.4
									C32.86,70.23,32.68,70.28,32.6,70.42z"/>
							</g>
							<g>
								<path d="M25.02,73.14l-1.6-2.72c-0.06-0.09-0.15-0.14-0.25-0.14c-0.1,0-0.2,0.05-0.25,0.14l-1.6,2.72
									c-0.08,0.14-0.04,0.32,0.1,0.4c0.14,0.08,0.32,0.04,0.41-0.1c0,0,0.23-0.39,0.51-0.87c0.02,0.01,0.04,0.03,0.06,0.04
									c0.24,0.13,0.51,0.2,0.78,0.2c0.27,0,0.54-0.07,0.78-0.2c0.02-0.01,0.04-0.03,0.05-0.04c0.28,0.48,0.51,0.87,0.51,0.87
									c0.08,0.14,0.27,0.19,0.4,0.1C25.06,73.46,25.1,73.29,25.02,73.14z M23.66,72.1c-0.15,0.08-0.32,0.12-0.49,0.12
									c-0.18,0-0.35-0.04-0.5-0.12c-0.02-0.01-0.03-0.02-0.05-0.02c0.21-0.36,0.42-0.71,0.55-0.93c0.13,0.22,0.33,0.56,0.54,0.93
									C23.69,72.09,23.68,72.09,23.66,72.1z"/>
								<path d="M17.46,70.57v2.72c0,0.16,0.13,0.3,0.3,0.3c0.16,0,0.3-0.13,0.3-0.3v-2.72c0-0.16-0.14-0.3-0.3-0.3
									C17.6,70.28,17.46,70.41,17.46,70.57z"/>
								<path d="M17.06,71.91v-1.34c0-0.16-0.13-0.3-0.3-0.3c-0.16,0-0.29,0.13-0.29,0.3v0.78c-0.31-0.14-0.69-0.23-1.09-0.23
									c-0.4-0.01-0.78,0.07-1.09,0.22v-0.78c0-0.16-0.13-0.3-0.3-0.3c-0.16,0-0.3,0.13-0.3,0.3v1.33c0,0,0,0.01,0,0.01v1.38
									c0,0.16,0.13,0.3,0.3,0.3c0.16,0,0.3-0.13,0.3-0.3v-1.26c0.25-0.2,0.65-0.31,1.09-0.31c0.43,0,0.84,0.13,1.09,0.32v1.25
									c0,0.16,0.13,0.3,0.29,0.3c0.17,0,0.3-0.13,0.3-0.3v-1.37C17.06,71.92,17.06,71.92,17.06,71.91z"/>
								<path d="M27.85,71.86v-1.29c0-0.16-0.13-0.3-0.29-0.3c-0.17,0-0.29,0.13-0.29,0.3v0.73c-0.31-0.14-0.69-0.22-1.09-0.22
									c-0.4,0-0.78,0.07-1.1,0.22v-0.72c0-0.16-0.13-0.3-0.29-0.3c-0.16,0-0.3,0.13-0.3,0.3v1.27c0,0.08,0.03,0.15,0.09,0.21
									c0.01,0.01,0.03,0.02,0.04,0.03l0,0c0.01,0.01,0.03,0.02,0.05,0.03c0,0,0,0,0.01,0c0.01,0.01,0.03,0.01,0.05,0.01
									c0,0,0.01,0,0.01,0c0.07,0.01,0.16,0,0.22-0.04c0,0,0-0.01,0-0.01c0.01,0,0.01-0.01,0.02-0.01
									c0.01-0.01,0.02-0.02,0.03-0.03l0,0c0.23-0.24,0.69-0.39,1.17-0.39c0.44,0,0.84,0.13,1.09,0.33v1.3
									c0,0.16,0.13,0.3,0.29,0.3c0.16,0,0.29-0.13,0.29-0.3V71.86C27.85,71.87,27.85,71.86,27.85,71.86z"/>
								<path d="M28.31,70.57v2.72c0,0.16,0.13,0.3,0.29,0.3c0.16,0,0.3-0.13,0.3-0.3v-2.72c0-0.16-0.13-0.3-0.3-0.3
									C28.44,70.28,28.31,70.41,28.31,70.57z"/>
								<path d="M21.75,70.42c0,0-0.57,0.98-1.04,1.78c0-0.79,0-1.63,0-1.63c0-0.13-0.09-0.25-0.22-0.28
									c-0.13-0.04-0.27,0.02-0.33,0.13c0,0-0.59,0.99-1.07,1.8c0-0.79,0-1.64,0-1.64c0-0.16-0.13-0.3-0.29-0.3
									c-0.16,0-0.3,0.13-0.3,0.3v2.72c0,0.13,0.09,0.25,0.22,0.28c0.13,0.04,0.26-0.02,0.33-0.13c0,0,0.59-0.99,1.07-1.79
									c0,0.78,0,1.64,0,1.64c0,0.13,0.09,0.25,0.22,0.28c0.13,0.04,0.26-0.02,0.33-0.13l1.58-2.72c0.09-0.14,0.04-0.32-0.1-0.4
									C22.01,70.23,21.83,70.28,21.75,70.42z"/>
								<path d="M35.87,73.14l-1.6-2.72c-0.05-0.09-0.15-0.14-0.26-0.14c-0.11,0-0.2,0.05-0.25,0.14l-1.6,2.72
									c-0.09,0.14-0.04,0.32,0.1,0.4c0.14,0.08,0.32,0.04,0.41-0.1c0,0,0.23-0.39,0.51-0.87c0.02,0.01,0.04,0.03,0.06,0.04
									c0.24,0.13,0.51,0.2,0.78,0.2c0.27,0,0.54-0.07,0.78-0.2c0.02-0.01,0.04-0.03,0.06-0.04c0.28,0.48,0.51,0.87,0.51,0.87
									c0.08,0.14,0.26,0.19,0.41,0.1C35.9,73.46,35.95,73.29,35.87,73.14z M34.51,72.1c-0.15,0.08-0.32,0.12-0.5,0.12
									c-0.18,0-0.35-0.04-0.5-0.12c-0.02-0.01-0.03-0.02-0.05-0.02c0.21-0.36,0.42-0.71,0.55-0.93c0.13,0.22,0.33,0.56,0.54,0.93
									C34.54,72.09,34.52,72.09,34.51,72.1z"/>
								<path d="M32.6,70.42c0,0-0.57,0.98-1.04,1.78c0-0.79,0-1.63,0-1.63c0-0.13-0.08-0.25-0.22-0.28
									c-0.12-0.04-0.26,0.02-0.33,0.13c0,0-0.59,0.99-1.07,1.8c0-0.79,0-1.64,0-1.64c0-0.16-0.13-0.3-0.29-0.3
									c-0.16,0-0.3,0.13-0.3,0.3v2.72c0,0.13,0.09,0.25,0.22,0.28c0.13,0.04,0.27-0.02,0.33-0.13c0,0,0.59-0.99,1.07-1.79
									c0,0.78,0,1.64,0,1.64c0,0.13,0.09,0.25,0.22,0.28c0.13,0.04,0.27-0.02,0.33-0.13l1.59-2.72c0.08-0.14,0.03-0.32-0.11-0.4
									C32.86,70.23,32.68,70.28,32.6,70.42z"/>
							</g>
						</g>
						<g>
							<g>
								<path class="st7" d="M22.6,61.81c-0.09,0.31,0.09,0.64,0.4,0.73c0.84,0.24,1.5,0.96,1.73,1.86
									c0.35,1.42-0.42,2.87-1.73,3.25c-0.59,0.17-1.22,0.09-1.76-0.22c-0.6-0.35-1.03-0.93-1.2-1.64
									c-0.23-0.92,0.02-1.9,0.64-2.57c0.22-0.24,0.21-0.61-0.03-0.84c-0.23-0.22-0.61-0.21-0.83,0.03
									c-0.9,0.96-1.25,2.36-0.93,3.66c0.26,1.02,0.88,1.86,1.76,2.38c0.82,0.47,1.77,0.59,2.68,0.33
									c1.91-0.55,3.05-2.64,2.55-4.67c-0.33-1.31-1.31-2.35-2.55-2.71C23.02,61.32,22.69,61.5,22.6,61.81z"/>
								<path class="st7" d="M18.35,61.52c-1.91,0.55-3.06,2.64-2.55,4.66c0.33,1.32,1.3,2.35,2.55,2.71
									c0.31,0.09,0.64-0.09,0.73-0.4c0.09-0.31-0.1-0.64-0.4-0.73c-0.84-0.24-1.5-0.95-1.73-1.86c-0.35-1.42,0.42-2.87,1.73-3.24
									c0.59-0.17,1.22-0.09,1.76,0.22c0.6,0.34,1.03,0.93,1.2,1.63c0.23,0.92-0.01,1.9-0.64,2.57c-0.22,0.24-0.21,0.61,0.02,0.84
									c0.24,0.22,0.61,0.21,0.83-0.03c0.9-0.96,1.25-2.37,0.92-3.66c-0.26-1.02-0.88-1.87-1.76-2.37
									C20.2,61.38,19.25,61.26,18.35,61.52z"/>
								<path class="st7" d="M27.02,61.46c-0.23,0.23-0.23,0.61-0.01,0.84c0.23,0.23,0.61,0.24,0.84,0.01
									c0.33-0.32,0.93-0.52,1.56-0.51c0.64,0,1.23,0.2,1.55,0.52c0.23,0.23,0.61,0.23,0.83-0.01c0.23-0.23,0.23-0.6,0-0.83
									c-0.54-0.54-1.43-0.86-2.38-0.86C28.47,60.61,27.57,60.93,27.02,61.46z"/>
								<path class="st7" d="M33.26,68.18l-3.34-5.68c-0.11-0.18-0.3-0.29-0.51-0.29c-0.21,0-0.4,0.11-0.51,0.29l-3.34,5.68
									c-0.17,0.28-0.07,0.64,0.21,0.8c0.28,0.17,0.64,0.07,0.81-0.21c0,0,0.49-0.84,1.08-1.84c0.04,0.04,0.08,0.08,0.13,0.11
									c0.49,0.27,1.05,0.41,1.62,0.41c0.57,0,1.13-0.14,1.62-0.41c0.05-0.03,0.09-0.07,0.14-0.11c0.59,1,1.08,1.84,1.08,1.84
									c0.16,0.28,0.53,0.38,0.81,0.21C33.33,68.82,33.43,68.46,33.26,68.18z M30.46,66.01c-0.32,0.17-0.68,0.26-1.05,0.26
									c-0.37,0-0.73-0.09-1.05-0.26c-0.04-0.02-0.08-0.04-0.13-0.05c0.46-0.79,0.91-1.55,1.18-1.99c0.27,0.45,0.71,1.21,1.17,1.99
									C30.54,65.97,30.5,65.99,30.46,66.01z"/>
							</g>
							<g>
								<path d="M22.6,61.81c-0.09,0.31,0.09,0.64,0.4,0.73c0.84,0.24,1.5,0.96,1.73,1.86c0.35,1.42-0.42,2.87-1.73,3.25
									c-0.59,0.17-1.22,0.09-1.76-0.22c-0.6-0.35-1.03-0.93-1.2-1.64c-0.23-0.92,0.02-1.9,0.64-2.57
									c0.22-0.24,0.21-0.61-0.03-0.84c-0.23-0.22-0.61-0.21-0.83,0.03c-0.9,0.96-1.25,2.36-0.93,3.66
									c0.26,1.02,0.88,1.86,1.76,2.38c0.82,0.47,1.77,0.59,2.68,0.33c1.91-0.55,3.05-2.64,2.55-4.67
									c-0.33-1.31-1.31-2.35-2.55-2.71C23.02,61.32,22.69,61.5,22.6,61.81z"/>
								<path d="M18.35,61.52c-1.91,0.55-3.06,2.64-2.55,4.66c0.33,1.32,1.3,2.35,2.55,2.71c0.31,0.09,0.64-0.09,0.73-0.4
									c0.09-0.31-0.1-0.64-0.4-0.73c-0.84-0.24-1.5-0.95-1.73-1.86c-0.35-1.42,0.42-2.87,1.73-3.24c0.59-0.17,1.22-0.09,1.76,0.22
									c0.6,0.34,1.03,0.93,1.2,1.63c0.23,0.92-0.01,1.9-0.64,2.57c-0.22,0.24-0.21,0.61,0.02,0.84c0.24,0.22,0.61,0.21,0.83-0.03
									c0.9-0.96,1.25-2.37,0.92-3.66c-0.26-1.02-0.88-1.87-1.76-2.37C20.2,61.38,19.25,61.26,18.35,61.52z"/>
								<path d="M27.02,61.46c-0.23,0.23-0.23,0.61-0.01,0.84c0.23,0.23,0.61,0.24,0.84,0.01c0.33-0.32,0.93-0.52,1.56-0.51
									c0.64,0,1.23,0.2,1.55,0.52c0.23,0.23,0.61,0.23,0.83-0.01c0.23-0.23,0.23-0.6,0-0.83c-0.54-0.54-1.43-0.86-2.38-0.86
									C28.47,60.61,27.57,60.93,27.02,61.46z"/>
								<path d="M33.26,68.18l-3.34-5.68c-0.11-0.18-0.3-0.29-0.51-0.29c-0.21,0-0.4,0.11-0.51,0.29l-3.34,5.68
									c-0.17,0.28-0.07,0.64,0.21,0.8c0.28,0.17,0.64,0.07,0.81-0.21c0,0,0.49-0.84,1.08-1.84c0.04,0.04,0.08,0.08,0.13,0.11
									c0.49,0.27,1.05,0.41,1.62,0.41c0.57,0,1.13-0.14,1.62-0.41c0.05-0.03,0.09-0.07,0.14-0.11c0.59,1,1.08,1.84,1.08,1.84
									c0.16,0.28,0.53,0.38,0.81,0.21C33.33,68.82,33.43,68.46,33.26,68.18z M30.46,66.01c-0.32,0.17-0.68,0.26-1.05,0.26
									c-0.37,0-0.73-0.09-1.05-0.26c-0.04-0.02-0.08-0.04-0.13-0.05c0.46-0.79,0.91-1.55,1.18-1.99c0.27,0.45,0.71,1.21,1.17,1.99
									C30.54,65.97,30.5,65.99,30.46,66.01z"/>
							</g>
						</g>
					</g>
				</g>
				<path d="M291.73,11.23c1,0.59,1.37,0.68,1.87,0.68c1.02,0,1.65-0.6,2.15-1.1l0.24,0.15c-0.3,0.53-0.71,1.23-1.56,1.8
					c-0.14,0.1-0.75,0.52-1.44,0.52c-0.68,0-1.27-0.33-2.96-1.28c-1.43-0.81-1.71-0.97-2.26-0.97c-1.08,0-1.89,0.78-2.23,1.12
					l-0.22-0.21c0.9-1.26,1.96-2.23,3.14-2.23c0.59,0,0.95,0.15,2.08,0.81L291.73,11.23z"/>
				<path d="M303.37,6.68c1.64,0.26,2.86,1.08,2.86,1.64c0,0.16-0.09,0.22-0.15,0.27c-0.05,0.04-0.31,0.15-0.33,0.19
					c0,0-0.2,0.36-0.26,0.51l-0.64,1.26c-0.08,0.16-0.36,0.64-0.56,0.96c1,0.69,2.2,1.55,2.2,2.79c0,0.49-0.24,0.96-0.78,0.96
					c-0.41,0-0.66-0.21-0.94-0.74c-0.54-1-0.74-1.26-1.25-1.84c-0.36,0.46-1.19,1.54-2.78,2.59c-0.96,0.63-1.97,1.13-3.06,1.5
					l-0.14-0.27c1.35-0.84,2.93-1.87,4.86-4.86c-0.63-0.51-1.21-0.96-2.82-1.78l-0.41-0.2l0.11-0.25c1.17,0.27,2.61,0.79,3.65,1.3
					c0.33-0.67,1.09-2.28,1.09-2.99c0-0.4-0.27-0.56-0.71-0.82L303.37,6.68z"/>
				<path d="M309.73,6.91c1.86,0.19,2.61,0.83,2.61,1.13c0,0.09-0.04,0.12-0.27,0.42c-0.07,0.09-0.08,0.32-0.08,0.37
					c-0.05,1.06-0.05,1.63-0.05,1.82c0,0.36,0,0.56,0.01,0.75l0.06,0.96c0.01,0.1,0.03,0.26,0.03,0.43c0,0.35-0.09,0.59-0.38,0.59
					c-0.37,0-0.86-0.5-1.15-0.85c-0.19-0.22-0.24-0.39-0.24-0.62c0-0.05,0.06-0.27,0.1-0.41c0.09-0.38,0.09-1.6,0.09-2.05
					c0-1.64,0-2.11-0.81-2.25L309.73,6.91z M314.49,6.22c0.64,0.01,1.68,0.04,2.5,0.46c0.5,0.26,0.57,0.49,0.57,0.55
					c0,0.09-0.01,0.1-0.28,0.34c-0.07,0.05-0.09,0.2-0.09,0.23c0,0.12,0.01,0.71,0.01,0.84v2.49c0,2.21-0.04,5.21-5.71,5.69
					l-0.04-0.31c3.65-0.74,4-2.97,4.09-4.55c0.01-0.21,0.04-0.68,0.03-1.1l-0.03-2.05c-0.05-1.68-0.07-2.1-1.15-2.28L314.49,6.22z"
					/>
				<path d="M320.56,10.14c0.33,0.69,0.67,0.74,1.45,0.74c0.38,0,0.62-0.01,0.74-0.01l4.86-0.25c0.64-0.04,0.71-0.04,1.18-0.11
					c0.15-0.01,0.37-0.05,0.45-0.05c0.23,0,1.35,0.37,1.35,1.12c0,0.3-0.19,0.46-0.53,0.46c-0.23,0-0.51-0.05-0.55-0.05
					c-0.3-0.05-0.84-0.11-1.42-0.11c-0.53,0-3.76,0.12-4.7,0.23c-0.5,0.06-0.73,0.12-0.99,0.32c-0.16,0.12-0.26,0.2-0.36,0.2
					c-0.17,0-1.13-0.33-1.78-2.46L320.56,10.14z"/>
				<path d="M336.12,11.48c0,0.73-0.6,1.33-1.32,1.33c-0.73,0-1.33-0.6-1.33-1.33c0-0.72,0.6-1.32,1.33-1.32
					C335.5,10.16,336.12,10.76,336.12,11.48z"/>
				<path d="M344.36,8.69c-0.01,0.14-0.04,0.41-0.04,0.48l-0.05,1.06c-0.01,0.18-0.02,0.46-0.02,0.54c0.07-0.01,0.29-0.01,0.36-0.03
					l2.23-0.12c0.15-0.01,0.59-0.04,0.68-0.11c0.26-0.19,0.28-0.2,0.38-0.2c0.34,0,1.44,0.65,1.44,1.28c0,0.39-0.31,0.39-0.45,0.39
					c-0.16,0-0.89-0.11-1.03-0.12c-0.45-0.05-1.07-0.05-1.65-0.05c-1.04,0-1.59,0.03-2.01,0.05l-0.01,0.47
					c-0.01,0.34-0.01,0.7-0.01,1.05c0,0.91,0.02,1.16,0.15,1.33c0.17,0.22,0.51,0.22,1.29,0.22c0.46,0,1.37-0.11,1.68-0.21
					c0.06-0.03,0.36-0.17,0.42-0.17c0.26,0,1.18,0.8,1.18,1.27c0,0.19-0.12,0.34-0.54,0.43c-0.43,0.11-1.47,0.17-2.24,0.17
					c-3.31,0-3.51-0.33-3.51-2.43c0-0.17,0.01-0.84,0.01-1.06l0.03-0.94c-0.51,0.05-1.68,0.16-2.07,0.37
					c-0.26,0.16-0.29,0.17-0.37,0.17c-0.27,0-0.56-0.32-0.62-0.39c-0.62-0.7-0.64-1.36-0.64-1.71l0.26-0.03
					c0.2,0.49,0.4,0.56,1.01,0.56c0.28,0,0.49,0,1.69-0.09l0.76-0.05v-0.49l0.04-1.56l-0.47,0.01c-0.09,0-0.49,0.01-0.57,0.01
					c-0.51,0-1.22,0-1.76-1.63l0.25-0.14c0.17,0.25,0.37,0.54,1.15,0.54c0.09,0,0.38-0.01,0.49-0.01l1.16-0.05
					c0.41-0.01,2.03-0.11,2.74-0.29c0.09-0.03,0.5-0.22,0.59-0.22c0.17,0,0.32,0.1,0.65,0.35c0.6,0.44,0.7,0.59,0.7,0.8
					c0,0.32-0.31,0.32-0.42,0.32c-0.54,0-0.54,0-0.94,0.04L344.36,8.69z"/>
				<path d="M355.06,9.47c0-0.38-0.01-2.01-0.11-2.32c-0.16-0.53-0.59-0.59-0.9-0.64l0.05-0.29c1.58-0.03,3.08,0.57,3.08,1.01
					c0,0.13-0.1,0.22-0.42,0.46c0,0.05,0.01,0.32,0,0.38l-0.01,0.79v0.53c0.08-0.01,0.54-0.03,0.8-0.05l1.41-0.11
					c0.24-0.03,0.27-0.05,0.6-0.25c0.01-0.01,0.12-0.07,0.22-0.07c0.13,0,0.29,0.07,0.68,0.44c0.47,0.44,0.65,0.71,0.65,0.97
					c0,0.38-0.46,0.39-0.68,0.37l-0.47-0.07c-0.47-0.06-1.33-0.09-2.05-0.09c-0.46,0-0.69,0.01-1.18,0.03v0.43
					c-0.02,1.91-0.11,3.16-1.91,4.44c-1.37,0.95-2.49,1.22-3.35,1.42l-0.09-0.28c0.9-0.33,2.37-1.15,3.17-2.7
					c0.49-0.96,0.57-2.05,0.54-3.23c-1.28,0.1-1.71,0.18-2.7,0.46c-0.19,0.05-0.19,0.06-0.42,0.21c-0.05,0.04-0.1,0.05-0.15,0.05
					c-0.41,0-0.83-0.67-0.9-0.8c-0.25-0.4-0.36-0.75-0.54-1.49l0.26-0.14c0.2,0.35,0.42,0.74,1.36,0.74c0.38,0,1.52-0.06,2.34-0.13
					L355.06,9.47z"/>
				<path d="M362.48,10.14c0.33,0.69,0.67,0.74,1.44,0.74c0.38,0,0.63-0.01,0.74-0.01l4.86-0.25c0.64-0.04,0.71-0.04,1.18-0.11
					c0.15-0.01,0.37-0.05,0.46-0.05c0.24,0,1.34,0.37,1.34,1.12c0,0.3-0.19,0.46-0.53,0.46c-0.24,0-0.5-0.05-0.56-0.05
					c-0.29-0.05-0.84-0.11-1.42-0.11c-0.53,0-3.76,0.12-4.7,0.23c-0.51,0.06-0.73,0.12-0.99,0.32c-0.16,0.12-0.26,0.2-0.36,0.2
					c-0.17,0-1.14-0.33-1.78-2.46L362.48,10.14z"/>
				<path d="M376.68,6.42c1.9,0.05,2.89,0.9,2.89,1.14c0,0.1-0.04,0.12-0.32,0.31c-0.12,0.05-0.12,0.06-0.49,0.79
					c0.88-0.05,1.31-0.07,2.6-0.28l0.58-0.71l1.5,1.21c0.05,0.05,0.3,0.23,0.3,0.41c0,0.26-0.26,0.31-0.69,0.41
					c-0.99,2.69-1.97,3.93-3.04,4.82c-1.95,1.65-4.03,2.06-5.42,2.33l-0.09-0.33c0.88-0.33,2.59-0.96,4.27-2.75
					c1.55-1.65,2.04-3.16,2.39-4.21c-1.01,0.15-2.02,0.22-3.04,0.22c-0.27,0.39-0.6,0.9-1.27,1.47c-1.14,0.97-2.1,1.45-2.6,1.71
					l-0.19-0.24c2.71-2.44,3.27-5.21,3.27-5.34c0-0.45-0.4-0.54-0.74-0.64L376.68,6.42z"/>
				<path d="M388.32,6.4c0.74,0,1.16,0,1.61,0.11c0.13,0.04,1.04,0.27,1.04,0.74c0,0.07-0.21,0.38-0.23,0.44
					c-0.1,0.32-0.18,0.97-0.18,1.79c0,0.49,0.04,0.64,0.11,0.93c0.7-0.28,1.4-0.55,2.13-0.79c0.27-0.1,0.34-0.15,0.44-0.22
					c0.16-0.14,0.21-0.17,0.29-0.17c0.21,0,1.28,0.65,1.28,1.37c0,0.34-0.15,0.36-0.9,0.38c-1.13,0.02-2.04,0.12-3.59,0.59
					c-1.16,0.34-1.77,0.68-2.21,1.06c-0.2,0.18-0.54,0.54-0.54,0.97c0,0.27,0.15,0.73,0.82,1c0.62,0.26,1.78,0.28,2.57,0.28
					c0.34,0,1.62-0.01,2.24-0.15c0.08-0.03,0.46-0.17,0.53-0.17c0.28,0,1.14,0.59,1.14,1.25c0,0.36-0.25,0.48-0.47,0.53
					c-0.62,0.12-1.86,0.13-2.55,0.13c-2.74,0-5.25-0.1-5.25-2.38c0-1.27,0.88-2.18,3.02-3.23c-0.27-0.22-0.57-0.49-0.57-1.49
					c0-0.27,0.07-1.52,0.07-1.76c0-0.67-0.17-0.78-0.81-0.91V6.4z"/>
				<path d="M401.43,9.47c0-0.38-0.01-2.01-0.11-2.32c-0.16-0.53-0.59-0.59-0.9-0.64l0.05-0.29c1.58-0.03,3.08,0.57,3.08,1.01
					c0,0.13-0.1,0.22-0.42,0.46c0,0.05,0.01,0.32,0,0.38l-0.01,0.79v0.53c0.09-0.01,0.54-0.03,0.8-0.05l1.42-0.11
					c0.23-0.03,0.27-0.05,0.59-0.25c0.01-0.01,0.12-0.07,0.22-0.07c0.13,0,0.29,0.07,0.68,0.44c0.47,0.44,0.65,0.71,0.65,0.97
					c0,0.38-0.46,0.39-0.68,0.37l-0.47-0.07c-0.47-0.06-1.33-0.09-2.04-0.09c-0.47,0-0.69,0.01-1.18,0.03v0.43
					c-0.03,1.91-0.11,3.16-1.91,4.44c-1.37,0.95-2.49,1.22-3.35,1.42l-0.09-0.28c0.9-0.33,2.37-1.15,3.17-2.7
					c0.49-0.96,0.57-2.05,0.54-3.23c-1.28,0.1-1.71,0.18-2.7,0.46c-0.19,0.05-0.19,0.06-0.42,0.21c-0.05,0.04-0.1,0.05-0.15,0.05
					c-0.41,0-0.82-0.67-0.9-0.8c-0.25-0.4-0.36-0.75-0.54-1.49l0.26-0.14c0.2,0.35,0.42,0.74,1.35,0.74c0.39,0,1.52-0.06,2.35-0.13
					L401.43,9.47z"/>
				<path d="M412.08,11.48c0,0.73-0.6,1.33-1.32,1.33c-0.73,0-1.33-0.6-1.33-1.33c0-0.72,0.61-1.32,1.33-1.32
					C411.46,10.16,412.08,10.76,412.08,11.48z"/>
				<path d="M414.45,8.24c0.42,0.53,0.55,0.7,1.75,0.7c0.32,0,0.37,0,2.47-0.17c-0.01-0.91-0.03-1.33-0.1-1.65
					c-0.08-0.36-0.55-0.52-0.93-0.63l0.06-0.24c0.34-0.04,0.49-0.05,0.64-0.05c0.95,0,2.25,0.36,2.25,0.81
					c0,0.1-0.02,0.12-0.14,0.27c-0.15,0.17-0.16,0.3-0.2,0.61c0,0.04-0.05,0.69-0.05,0.76l0.71-0.05c1.58-0.1,1.6-0.11,1.82-0.23
					c0.3-0.15,0.33-0.18,0.45-0.18c0.36,0,1.46,0.83,1.46,1.27c0,0.35-0.39,0.38-0.63,0.38c-0.11,0-0.63-0.06-0.72-0.06
					c-0.45-0.04-1.09-0.05-1.59-0.05c-0.79,0-1.23,0.03-1.57,0.05v0.84l0.01,0.83c0.02,1.98,0.04,2.7,0.11,3.4
					c0.01,0.07,0.07,0.42,0.07,0.49c0,0.26-0.99,1.46-1.59,1.46c-0.24,0-0.35-0.1-0.39-0.43c-0.07-0.55-0.09-0.63-1.52-2l0.12-0.25
					c0.74,0.29,1,0.38,1.65,0.57c0.05-0.86,0.07-1.33,0.06-4.31V9.89c-1.81,0.11-2.13,0.16-2.71,0.55
					c-0.06,0.04-0.13,0.07-0.24,0.07c-0.25,0-0.51-0.25-0.61-0.34c-0.55-0.56-0.76-1.23-0.92-1.8L414.45,8.24z M416.73,10.87
					c0.11,0.43,0.17,0.71,0.17,1.21c0,1.88-0.9,3-1.76,3c-0.52,0-0.9-0.39-0.9-0.93c0-0.39,0.16-0.62,0.68-0.91
					c0.42-0.23,1-0.57,1.37-1.4c0.12-0.3,0.14-0.54,0.14-0.96H416.73z M421.22,10.82c1.12,0.39,3.17,1.43,3.17,3.04
					c0,0.69-0.41,1.27-0.96,1.27c-0.43,0-0.71-0.25-0.85-1.11c-0.29-1.83-1.06-2.53-1.54-2.94L421.22,10.82z"/>
				<path d="M428.72,6.42c1.9,0.05,2.89,0.9,2.89,1.14c0,0.1-0.04,0.12-0.32,0.31c-0.12,0.05-0.12,0.06-0.49,0.79
					c0.89-0.05,1.31-0.07,2.6-0.28l0.58-0.71l1.51,1.21c0.04,0.05,0.29,0.23,0.29,0.41c0,0.26-0.26,0.31-0.69,0.41
					c-0.98,2.69-1.97,3.93-3.03,4.82c-1.95,1.65-4.03,2.06-5.41,2.33l-0.09-0.33c0.88-0.33,2.59-0.96,4.27-2.75
					c1.55-1.65,2.04-3.16,2.39-4.21c-1.01,0.15-2.02,0.22-3.03,0.22c-0.27,0.39-0.61,0.9-1.27,1.47c-1.13,0.97-2.1,1.45-2.6,1.71
					l-0.19-0.24c2.71-2.44,3.27-5.21,3.27-5.34c0-0.45-0.39-0.54-0.74-0.64L428.72,6.42z"/>
				<path d="M440.69,11.48c0,0.73-0.6,1.33-1.32,1.33c-0.73,0-1.33-0.6-1.33-1.33c0-0.72,0.6-1.32,1.33-1.32
					C440.07,10.16,440.69,10.76,440.69,11.48z"/>
				<path d="M444.51,7.99c1.86,0.13,2.85,1.32,2.85,1.63c0,0.15-0.15,0.25-0.22,0.28c-0.04,0.03-0.22,0.11-0.23,0.12
					c-0.04,0.05-0.05,0.15-0.07,0.2c-0.13,0.41-0.63,1.79-1.53,3.03c-0.98,1.37-1.9,2.07-2.35,2.43l-0.19-0.23
					c1.79-2.44,2.33-5.43,2.33-6.3c0-0.44-0.11-0.64-0.66-0.91L444.51,7.99z M448.36,7.93c1.53,1.09,2.32,1.9,2.99,2.84
					c0.58,0.8,1.35,2.25,1.35,3.23c0,0.67-0.29,1.37-0.96,1.37c-0.67,0-0.76-0.51-0.96-1.62c-0.45-2.36-1.33-4.12-2.65-5.57
					L448.36,7.93z"/>
				<path d="M460.75,6.69c0.58,0.12,1.38,0.29,2.3,1.13c0.22,0.2,0.57,0.56,0.57,0.78c0,0.11-0.05,0.17-0.13,0.24
					c-0.06,0.05-0.38,0.22-0.71,0.97c-1.64,3.75-3.86,5.68-7.4,7l-0.14-0.31c1.58-0.99,3.17-2.29,4.72-4.97
					c0.88-1.5,1.46-3.13,1.46-3.66c0-0.48-0.29-0.64-0.88-0.92L460.75,6.69z"/>
				<path d="M467.69,7.99c1.87,0.13,2.85,1.32,2.85,1.63c0,0.15-0.15,0.25-0.22,0.28c-0.04,0.03-0.22,0.11-0.23,0.12
					c-0.04,0.05-0.05,0.15-0.07,0.2c-0.13,0.41-0.63,1.79-1.53,3.03c-0.98,1.37-1.9,2.07-2.35,2.43l-0.19-0.23
					c1.79-2.44,2.33-5.43,2.33-6.3c0-0.44-0.11-0.64-0.67-0.91L467.69,7.99z M471.54,7.93c1.53,1.09,2.32,1.9,2.98,2.84
					c0.58,0.8,1.36,2.25,1.36,3.23c0,0.67-0.29,1.37-0.96,1.37c-0.67,0-0.76-0.51-0.96-1.62c-0.44-2.36-1.33-4.12-2.65-5.57
					L471.54,7.93z"/>
				<path d="M483.93,6.69c0.58,0.12,1.38,0.29,2.3,1.13c0.22,0.2,0.57,0.56,0.57,0.78c0,0.11-0.05,0.17-0.14,0.24
					c-0.06,0.05-0.38,0.22-0.7,0.97c-1.64,3.75-3.86,5.68-7.4,7l-0.14-0.31c1.58-0.99,3.17-2.29,4.72-4.97
					c0.88-1.5,1.47-3.13,1.47-3.66c0-0.48-0.29-0.64-0.88-0.92L483.93,6.69z"/>
				<path d="M491.06,9.18c0.15-0.04,0.51-0.12,0.68-0.16l0.16-0.39c0.31-0.88,0.37-1.11,0.37-1.32c0-0.52-0.64-0.68-0.98-0.76
					l0.1-0.33c0.81,0.02,1.31,0.07,1.93,0.38c0.56,0.27,0.8,0.59,0.8,0.75c0,0.1-0.1,0.23-0.12,0.27l-0.26,0.33
					c-0.13,0.18-0.35,0.58-0.5,0.85c0.27-0.02,0.38-0.02,0.49-0.02c1.58,0,2.1,0.83,2.1,2.28c0,1.12-0.47,3.74-1.08,4.82
					c-0.36,0.63-0.83,0.92-1.27,0.92c-0.31,0-0.63-0.21-0.65-0.52c-0.05-0.79-0.07-1.26-1.33-2.01l0.12-0.3l0.37,0.12
					c0.33,0.11,0.72,0.25,1.09,0.37l0.45,0.16c0.56-1.46,0.8-3.66,0.8-4.06c0-0.64-0.28-1.05-0.94-1.05c-0.16,0-0.42,0.05-0.53,0.08
					c-0.65,1.48-1.73,4.27-1.96,4.91l-0.52,1.46c-0.26,0.7-0.46,0.8-0.64,0.8c-0.46,0-1.01-0.99-1.01-1.27
					c0-0.12,0.07-0.29,0.16-0.41l0.27-0.33c0.36-0.43,1.74-3.64,2.01-4.28l0.16-0.38c-0.48,0.25-0.55,0.29-1.06,0.68
					c-0.1,0.09-0.17,0.12-0.26,0.12c-0.23,0-0.65-0.31-0.9-0.76c-0.25-0.46-0.28-0.78-0.26-1.4l0.36-0.07c0,0.23,0.01,0.8,0.54,0.8
					c0.15,0,0.39-0.04,0.65-0.11L491.06,9.18z M495.67,7.99c0.96,0.33,2.18,0.77,3.13,2.33c0.6,1.01,0.79,2.08,0.79,2.74
					c0,0.32-0.02,0.79-0.34,1.1c-0.22,0.21-0.47,0.27-0.58,0.27c-0.16,0-0.29-0.06-0.45-0.43c-0.27-0.66-0.76-0.75-1.75-0.75
					l-0.07-0.32l1.58-0.36c-0.12-0.68-0.33-1.55-0.84-2.53c-0.54-1.06-1-1.38-1.63-1.78L495.67,7.99z M497.09,7.53
					c-0.3-0.58-0.59-0.76-0.96-0.99l0.15-0.2c0.9,0.17,1.33,0.29,1.75,0.63c0.26,0.21,0.48,0.53,0.48,0.89
					c0,0.38-0.3,0.69-0.62,0.69c-0.18,0-0.33-0.09-0.48-0.37L497.09,7.53z M498.52,6.87c-0.49-0.75-0.86-0.93-1.24-1.11l0.12-0.21
					c0.63,0.02,1.39,0.05,1.97,0.5c0.26,0.21,0.43,0.46,0.43,0.79c0,0.38-0.27,0.74-0.58,0.74c-0.23,0-0.41-0.26-0.45-0.31
					L498.52,6.87z"/>
				<path d="M502.9,10c-0.33-0.65-0.57-1.11-0.78-1.36c-0.1-0.12-0.23-0.31-0.23-0.43c0,0,0.09-0.83,1.51-0.83
					c0.92,0,1.83,0.21,2.71,0.51c-0.41-0.69-0.81-0.98-1.71-1.39l0.13-0.25c0.93,0.05,1.74,0.12,2.45,0.68
					c0.62,0.48,0.62,1.1,0.62,1.2c0,0.21-0.04,0.31-0.16,0.49c0.16-0.01,0.51-0.05,0.75-0.05c2,0,2.84,1.21,2.84,2.37
					c0,1.45-1.21,2.28-2.41,2.28c-1.28,0-2.38-0.89-3.16-1.52l0.16-0.31c0.56,0.33,1.19,0.7,2.01,0.7c1.28,0,1.89-0.77,1.89-1.5
					c0-0.83-0.78-1.34-1.59-1.34c-1.25,0-2.78,0.78-3.46,1.12c0.66,1.6,1.43,3.16,2.27,4.66c0.32,0.59,0.35,0.67,0.35,0.83
					c0,0.46-0.71,1.15-1.12,1.15c-0.21,0-0.29-0.21-0.42-0.62c-0.27-0.74-0.62-1.76-0.83-2.24c-0.18-0.42-1-2.29-1.16-2.68
					l-0.2-0.47c-0.42,0.3-0.88,0.65-1.08,0.92c-0.15,0.17-0.22,0.25-0.38,0.25c-0.35,0-0.87-0.43-0.98-0.54
					c-0.56-0.52-0.66-1.15-0.74-1.69l0.31-0.09c0.12,0.36,0.36,0.74,0.78,0.74c0.33,0,0.75-0.2,1.24-0.42L502.9,10z M506.56,8.79
					c-0.16-0.07-0.81-0.43-0.95-0.49c-0.37-0.17-0.95-0.26-1.27-0.26c-0.41,0-0.65,0.17-0.65,0.37c0,0.15,0.02,0.2,0.41,1.1
					c0.9-0.31,1.18-0.4,2.09-0.63L506.56,8.79z"/>
				<path d="M513.01,10.49c0.16,0.33,0.33,0.62,0.68,0.62c0.28,0,0.64-0.12,1.28-0.35c0.59-0.2,2.56-0.74,3.55-0.74
					c1.36,0,2.86,0.83,2.86,2.85c0,0.62-0.17,2.34-2.13,3.11c-1.39,0.52-2.87,0.6-4.29,0.64l-0.03-0.32
					c1.61-0.2,5.01-0.83,5.01-3.69c0-0.9-0.33-1.8-1.64-1.8c-1.17,0-2.72,0.77-3.19,1.16c-0.52,0.43-0.58,0.48-0.71,0.48
					c-0.16,0-0.63-0.17-1.04-0.59c-0.35-0.37-0.5-0.75-0.65-1.22L513.01,10.49z"/>
				<path d="M531.91,7.17c0.19-0.03,0.53-0.06,0.69-0.11c0.07-0.03,0.33-0.2,0.41-0.2c0.42,0,1.34,0.84,1.34,1.26
					c0,0.14-0.08,0.33-0.35,0.33c-0.01,0-0.65-0.07-0.7-0.08c-0.23-0.03-0.74-0.07-1.19-0.07c-1.01,0-1.72,0.28-2.69,1.39
					c-0.82,0.94-1.02,2.08-1.02,2.71c0,2.36,2.46,2.45,3,2.45c0.09,0,0.48-0.05,0.57-0.05c0.35,0,0.81,0.8,0.81,1.2
					c0,0.49-0.29,0.62-0.85,0.62c-0.3,0-1.82-0.04-3.01-0.68c-0.66-0.38-1.62-1.32-1.62-3c0-1.08,0.42-2.25,1.1-3.12
					c0.5-0.67,1.02-1.04,1.62-1.47l-0.5,0.09c-1.02,0.19-2.9,0.54-3.69,1.11c-0.23,0.17-0.32,0.19-0.4,0.19
					c-0.18,0-0.69-0.22-1.11-0.58c-0.63-0.54-0.78-0.95-0.91-1.36l0.29-0.15c0.16,0.24,0.44,0.64,1.05,0.64
					c0.16,0,0.21-0.01,1.07-0.2c1.22-0.27,2.78-0.55,3.83-0.66l1.53-0.16L531.91,7.17z"/>
				<path d="M540.81,7.8c0.8-0.55,0.89-0.61,0.89-0.82c0-0.27-0.3-0.39-0.63-0.54l0.2-0.23c0.37,0.04,0.92,0.09,1.64,0.74
					c0.33,0.3,0.69,0.77,0.69,1.04c0,0.26-0.22,0.3-0.46,0.33c-0.36,0.07-2.36,0.8-4.29,2.08l-0.46,0.31
					c-0.12,0.09-0.32,0.23-0.32,0.39c0,0.17,0.1,0.22,0.4,0.42c2.13,1.29,2.97,1.81,4.01,2.9c0.46,0.48,0.62,0.84,0.62,1.16
					c0,0.23-0.06,0.53-0.19,0.81c-0.13,0.33-0.43,0.38-0.6,0.38c-0.37,0-0.58-0.31-0.8-0.65c-1.12-1.84-2.43-2.71-4.13-3.87
					c-0.71-0.48-0.82-0.65-0.82-0.94c0-0.36,0.26-0.62,0.38-0.71c0.33-0.31,1.59-1.25,2.26-1.7L540.81,7.8z"/>
				<path d="M551.41,10.87c0.59-0.28,1.54-0.46,2.12-0.46c0.79,0,1.62,0.26,2.13,0.62c0.66,0.46,0.98,1.21,0.98,2.22
					c0,0.96-0.29,1.92-1.04,2.52c-0.94,0.71-2.17,0.84-2.96,0.84c-0.39,0-3.06,0-3.06-1.89c0-0.55,0.34-1.27,1.55-1.27
					c1.54,0,2.69,1.18,2.69,1.71c0,0.05,0,0.11-0.02,0.17c0.38-0.27,0.54-0.43,0.73-0.73c0.29-0.48,0.44-1.04,0.44-1.6
					c0-0.63-0.18-1.17-0.63-1.51c-0.41-0.3-0.96-0.39-1.4-0.39c-1.16,0-2.69,0.77-3.64,1.84c-0.4,0.46-0.54,0.64-0.76,0.95
					c-0.08,0.1-0.18,0.26-0.42,0.26c-0.38,0-0.74-0.67-0.74-1.14c0-0.31,0.07-0.37,0.54-0.73c1.7-1.3,2.91-2.65,3.89-3.77l0.74-0.83
					c-0.73,0.2-1.79,0.54-2.05,0.75c-0.32,0.27-0.34,0.29-0.44,0.29c-0.18,0-0.73-0.29-1.06-0.86c-0.23-0.41-0.27-0.73-0.29-1.16
					l0.33-0.1c0.14,0.49,0.28,0.69,0.8,0.69c0.37,0,2.94-0.39,3.24-0.5c0.07-0.04,0.41-0.26,0.49-0.26c0.29,0,1.18,0.92,1.18,1.19
					c0,0.14-0.07,0.19-0.24,0.24c-0.32,0.09-0.55,0.21-1.38,1.01l-1.34,1.27L551.41,10.87z M550.78,14.35
					c-0.29,0-0.62,0.13-0.62,0.47c0,0.69,1.03,1.01,1.74,1.01c0.16,0,0.32-0.01,0.76-0.09C552.45,15.4,551.77,14.35,550.78,14.35z"
					/>
				<path d="M561.03,13.41h-0.35l-0.92-5.23c-0.01-0.07-0.01-0.13-0.01-0.2c0-0.63,0.52-1.13,1.11-1.13s1.11,0.51,1.11,1.13
					c0,0.06,0,0.12-0.01,0.2L561.03,13.41z M560.86,15.96c-0.59,0-1.11-0.51-1.11-1.11c0-0.6,0.52-1.11,1.11-1.11
					c0-0.06,1.11,0.12,1.11,1.11C561.97,15.45,561.46,15.96,560.86,15.96z"/>
				<g>
					<path d="M56.22,8.03c0.72,1.16,1.32,2.12,4.81,2.12c2.65,0,15.55-0.72,18.48-0.8l1.56-2.05l4.21,3.33
						c0.16,0.12,0.76,0.6,0.76,1.04c0,0.6-0.44,0.76-1.72,1.24C80.43,27.51,75.1,33.4,59.3,38.05l-0.28-0.88
						c15.03-6.41,18.6-16.36,20.36-25.1l-1.32,0.08l-9.14,0.72c-4.89,0.44-5.77,0.76-7.5,1.56c-0.92,0.72-1.04,0.8-1.24,0.8
						c-0.52,0-1.28-0.76-2.08-1.68c-1.96-2.28-2.37-3.89-2.69-5.21L56.22,8.03z"/>
					<path d="M100.87,20.54c0.28,0.08,1.16,0.24,1.16,0.76c0,0.36-0.28,0.56-1.04,1.04c-0.04,0.28-0.08,1.28-0.12,1.48l-0.04,3.69
						l-0.08,3.65c0,0.12,0,1.08-0.04,1.12c0.68,0,3.65-0.04,4.25-0.08l2.61-0.08c1.16-0.04,1.56-0.16,1.92-0.4
						c0.24-0.16,0.6-0.4,0.76-0.4c0.88,0,4.05,2.49,4.05,3.77c0,0.68-0.68,0.72-1.04,0.72c-0.28,0-0.56-0.04-0.68-0.04l-1.56-0.24
						c-1.2-0.2-3.85-0.4-7.1-0.4c-1.04,0-13.11,0.2-14.91,1.6c-0.64,0.48-0.72,0.56-0.92,0.56c-0.52,0-2.45-1.45-3.73-5.61
						l0.68-0.52c0.68,0.96,1.36,1.92,3.37,1.92c0.96,0,5.05-0.32,6.25-0.4l2.17-0.2l0.04-5.25l-0.04-6.49
						c-0.76,0-4.09,0.16-4.77,0.16c-2.64,0-3.21-1.08-4.85-4.37l0.72-0.4c1.04,1.24,1.6,1.76,4.57,1.76c2.45,0,9.54-0.28,12.79-1.12
						c0.28-0.08,1.48-0.72,1.76-0.72c0.64,0,3.37,2.01,3.37,3.01c0,0.64-0.72,0.88-1.24,0.92l-1.36,0.04c-0.08,0-1.96,0.2-2.24,0.24
						c-0.72,0.08-1.88,0.16-2.61,0.16L100.87,20.54z"/>
					<path d="M133.54,8.15l1.65-1.68l3.73,3.21c0.4,0.32,0.8,0.88,0.8,1.2c0,0.64-0.72,0.72-2,0.92c-3.77,7.54-4.21,8.38-6.77,11.83
						c5.21,2,12.35,6.41,12.35,10.94c0,1.4-0.96,2.81-2.53,2.81c-1.64,0-2.52-1.72-3.73-4.29c-0.88-1.92-2.48-5.09-6.81-8.54
						c-3.61,4.09-7.41,7.46-10.62,9.38c-3.85,2.24-5.93,3.17-8.18,3.89l-0.44-0.84c4.65-2.53,8.9-5.69,13.75-11.79
						c2.52-3.21,5.13-7.26,7.86-14.15l-2,0.24c-2.37,0.28-8.1,1-10.14,2.12c-0.16,0.12-1,0.72-1.2,0.72c-1.08,0-3.41-3.21-4.29-6.97
						l0.8-0.28c0.64,1.08,1.44,2.45,4.25,2.45c0.76,0,1.24-0.04,4.97-0.4c2.08-0.2,5.65-0.48,6.14-0.52L133.54,8.15z"/>
					<path d="M173.11,19.78c-1.33-0.16-3.89-0.2-5.57-0.2c-1.48,0-2.04,0-3.73,0.08c-0.28,4.29-0.68,9.86-3.61,13.19
						c-2.69,3.01-7.62,5.01-12.35,5.97l-0.28-0.92c10.34-3.97,11.3-10.94,11.38-17.88c-2.48,0.2-8.3,0.72-9.86,1.88
						c-0.2,0.2-0.64,0.64-0.96,0.64c-0.72,0-3.29-1.88-5.05-6.13l0.8-0.4c1.04,1.29,2.52,1.76,3.81,1.76c0.56,0,2.48-0.08,2.96-0.16
						c8.58-0.88,9.54-0.96,15.79-1.12c4.45-0.08,4.97-0.44,5.93-1.08c0.24-0.16,0.68-0.44,0.96-0.44c0.28,0,0.64,0.24,0.84,0.4
						l1,0.68c1.52,1.04,2.37,1.97,2.37,3.05c0,1.04-0.92,1.04-1.24,1.04c-0.2,0-0.72-0.04-1.24-0.12L173.11,19.78z M159.88,10.92
						c-0.88,0.08-4.85,0.36-5.65,0.48c-0.32,0.04-1.72,0.4-2.04,0.4c-0.72,0-2.89-1.6-4.29-5.09l0.76-0.36
						c0.96,1.28,2.12,1.72,3.85,1.72c3.41,0,5.81-0.24,9.18-0.6l2.41-0.24c1.08-0.12,2.17-0.36,3.01-0.68
						c0.16-0.08,0.84-0.72,0.96-0.72c0.84,0,4.05,2.53,4.05,3.61c0,0.96-1.12,0.92-1.41,0.96l-1.36-0.08
						c-1.48-0.04-3.49,0.12-4.05,0.16L159.88,10.92z"/>
					<path d="M193.67,11.4c3.65,0.6,6.73,3.25,6.73,4.21c0,0.52-0.48,0.6-1.52,0.8l-1.16,0.92c-3.13,2.61-4.09,3.29-5.69,4.49
						c0.72,0.28,1.04,0.4,1.04,0.72c0,0.4-0.4,0.6-1.08,0.96c0,0.88-0.04,3.33-0.04,4.05l0.16,9.78c0,0.72,0,2.29-0.96,2.29
						c-1.36,0-3.53-2.08-3.53-2.97c0-0.12,0.2-0.68,0.24-0.8c0.12-0.72,0.36-4.65,0.28-10.18v-1.29c-3.33,1.76-7.34,3.77-12.87,5.29
						l-0.28-0.8c4.97-2.37,9.98-5.21,16.11-11.06c1.04-1,3.49-3.37,3.49-4.37c0-0.52-0.36-0.8-1.2-1.44L193.67,11.4z"/>
					<path d="M209.38,9.47c4.49,0.52,7.9,3.21,7.9,4.45c0,0.4-0.48,0.8-1.24,1.36c-1.28,4.93-3.73,9.18-4.61,10.62
						c-3.21,5.09-5.45,7.17-7.86,9.38l-0.72-0.6c1.48-2.12,3.85-5.45,6.01-11.38c1.6-4.49,2.28-8.58,2.28-10.18
						c0-1.88-1-2.36-2.12-2.85L209.38,9.47z M221.53,9.43c8.94,6.49,14.03,16.48,14.03,21c0,1.96-0.92,3.93-2.65,3.93
						c-1.6,0-2.12-1.77-2.44-3.29c-1.77-8.42-4.09-14.03-9.54-20.96L221.53,9.43z M226.5,7.63c4.81,1,6.77,3.25,6.77,4.81
						c0,0.44-0.2,1.64-1.32,1.64c-0.64,0-1.16-0.16-2.05-1.64c-1.44-2.53-2.64-3.37-3.69-4.13L226.5,7.63z M229.38,4.58
						c1.88,0.24,7.29,1.04,7.29,4.17c0,0.72-0.32,1.64-1.36,1.64c-0.32,0-0.76,0-1.72-1.36c-1.68-2.37-3.57-3.25-4.53-3.65
						L229.38,4.58z"/>
					<path d="M240.13,8.11c3.85,0.68,7.66,1.85,7.66,3.29c0,0.24-0.08,0.28-0.64,0.84c-0.08,0.12-0.2,0.36-0.28,0.56
						c-0.16,11.87-0.6,18.72-12.19,25.13l-0.56-0.68c4.61-4.21,8.34-7.82,8.34-21.97c0-4.93-0.24-5.37-2.57-6.29L240.13,8.11z
						 M249.75,4.62c4.37,0.48,8.3,2.12,8.3,3.53c0,0.36-0.28,0.6-0.4,0.68c-0.6,0.44-0.72,0.52-0.8,1.16
						c-0.16,1.36-0.2,5.77-0.2,7.5l-0.04,5.57v7.34c5.17-3.81,9.46-8.38,12.51-13.59l0.76,0.4c-3.17,10.06-8.78,14.95-13.63,19.16
						c-0.24,1.12-0.32,1.56-0.88,1.56c-0.36,0-0.68-0.24-0.88-0.44l-3.49-3.93c0.84-0.4,0.92-0.44,1.64-0.8V30l-0.16-20.92
						c0-0.48-0.28-1.69-0.72-2.25c-0.64-0.76-1.4-1-2.25-1.24L249.75,4.62z"/>
					<path d="M69.54,60.36c-0.05-0.83-0.05-1.15-0.05-1.66v-1.48c-0.05-6.93-0.37-7.25-3.74-8.08l0.19-0.93
						c5.63-0.09,10.2,1.94,10.2,3.28c0,0.28-0.14,0.41-1.34,1.62c-0.09,2.26-0.14,3.32-0.14,6.93c0.51,0,1.34-0.05,1.84-0.09
						l1.85-0.04l3.97-0.23c1.89-0.14,2.31-0.18,2.68-0.37c0.28-0.14,1.48-0.92,1.8-0.92c0.46,0,0.97,0.46,2.17,1.53
						c1.71,1.48,2.31,2.36,2.31,3.19c0,1.15-1.15,1.15-1.43,1.15c-0.55,0-2.9-0.37-3.37-0.37c-1.67-0.14-5.87-0.28-7.76-0.28
						c-1.56,0-2.68,0.05-4.06,0.09l-0.05,2.17c-0.14,7.67-0.83,12.15-6.88,16.54c-5.17,3.79-9.65,4.85-11.96,5.4l-0.32-1.01
						c14.41-5.64,14.31-16.95,14.13-22.86c-4.43,0.28-6.74,0.69-10.94,1.62c-0.32,0.14-1.8,0.97-2.12,0.97
						c-0.97,0-3.51-1.52-5.08-7.57l0.88-0.46c0.92,1.43,1.66,2.63,5.03,2.63c1.71,0,6.33-0.28,8.87-0.46L69.54,60.36z"/>
					<path d="M102.79,67.61c0,2.68-2.13,4.76-4.76,4.76c-2.63,0-4.76-2.13-4.76-4.76c0-2.68,2.12-4.76,4.8-4.76
						C100.66,62.85,102.79,64.92,102.79,67.61z"/>
					<path d="M108.79,49.41c7.02-0.05,10.02,2.35,10.07,3.19c0,0.28,0,0.41-1.34,1.75c-0.09,1.02-0.18,1.8-0.23,3.19l-0.18,4.39
						c0,0.55-0.09,1.76-0.09,2.36c5.87-0.37,14.64-4.06,17.04-5.91c1.29-1.02,1.48-1.11,1.75-1.11c0.46,0,1.34,0.6,1.43,0.64
						l1.57,1.02c0.46,0.32,1.85,1.39,1.85,2.17c0,0.79-0.74,1.02-2.49,1.53c-1.02,0.28-5.45,1.75-6.37,2.03
						c-3.28,1.02-7.9,2.26-10.76,2.26c-1.57,0-2.63-0.28-4.11-0.65c-0.04,0.65-0.09,2.03-0.09,2.63l-0.19,6.42
						c-0.14,4.85,0.6,5.73,8.27,5.73c2.68,0,8.64-0.09,10.99-0.65c0.65-0.14,0.74-0.18,1.76-0.78c0.19-0.14,0.51-0.28,0.79-0.28
						c0.69,0,1.01,0.37,1.99,1.38l1.01,1.06c0.23,0.23,0.97,1.06,0.97,1.89c0,1.48-1.52,1.57-3.97,1.71l-4.11,0.23
						c-0.51,0.04-7.25,0.09-12.01,0.09c-1.43,0-6.14-0.18-7.62-1.24c-2.86-1.94-3.05-4.99-3-8.82l0.09-8.96l0.23-9.24
						c0-1.94,0-4.06-0.04-4.34c-0.14-1.06-1.2-2.31-3.28-2.77L108.79,49.41z"/>
					<path d="M156.17,47.84c0.18,0,0.78-0.05,1.2-0.05c0.32,0,7.99,0.55,7.99,2.17c0,0.32-0.05,0.37-0.74,1.06
						c-0.14,0.14-0.28,0.37-0.37,0.6c-0.14,1.71-0.14,2.63-0.14,4.94c0.74-0.04,2.31-0.09,3.01-0.14l5.87-0.18l1.29-1.76l5.08,3.6
						c0.33,0.23,0.93,0.74,0.93,1.2c0,0.55-0.19,0.65-1.81,1.43c-0.09,0.46-0.32,1.29-0.41,1.53l-1.06,4.43
						c-0.33,1.25-2.4,8.91-8.96,14.32c-4.57,3.74-10.3,5.59-16.12,6.65l-0.28-1.11c12.28-3.93,18.75-11.31,21.2-27.02l-2.59,0.09
						l-8.59,0.42c-6.69,0.32-8.08,0.41-10.81,0.6l0.09,3.97v4.11c0,0.5,0.1,2.77,0.1,3.18c0,0.55,0,1.94-1.43,1.94
						c-1.2,0-4.2-2.4-3.79-4.11l0.32-1.57c0.19-0.79,0.28-3.51,0.28-5.03c0-5.31-0.69-6.42-2.77-7.3l0.37-0.83
						c2.22,0.05,5.18,1.02,7.25,2.26l5.4-0.28c0.6-0.05,1.89-0.09,2.49-0.14c0-7.02,0-7.25-3.32-8.13L156.17,47.84z M172.89,48.39
						c5.54,1.2,7.71,3.56,7.71,5.4c0,1.29-0.97,1.85-1.57,1.85c-0.88,0-1.3-0.46-2.26-2.08c-0.42-0.65-1.66-2.4-4.29-4.39
						L172.89,48.39z M175.94,45.3c3.51,0.51,8.4,1.48,8.4,4.76c0,0.64-0.37,1.71-1.48,1.71c-0.32,0-0.83-0.05-1.89-1.34
						c-1.84-2.17-3.32-3.1-5.35-4.29L175.94,45.3z"/>
					<path d="M185.08,59.24c0.56,0.83,1.38,2.22,3.42,2.22c0.56,0,5.4-0.46,6.42-0.55c4.11-0.32,8.5-0.65,12.56-0.74l1.89-2.03
						l4.43,4.02c0.51,0.46,0.65,0.97,0.65,1.2c0,0.65-1.3,0.83-2.03,0.97c-3.46,2.91-4.67,3.93-9.15,6.97l-1.94,1.34
						c-0.51,4.34-0.98,8.31-4.48,11.5c-0.37,0.32-3.74,3.32-9.93,4.57l-0.37-0.92c2.45-0.97,4.01-1.62,5.77-3.32
						c3.6-3.56,4.15-9.42,4.15-9.56l0.23-2.95c0-0.19,0.05-0.79,0.05-1.16c0-1.89-1.11-2.45-1.94-2.87l0.37-0.78
						c4.3,0.69,5.59,1.85,6.65,2.82c2.22-2.63,3.6-4.34,5.5-7.53c-5.96,0.55-10.99,1.02-16.26,2.86c-0.6,0.19-0.6,0.19-1.34,0.88
						c-0.33,0.28-0.74,0.46-0.97,0.46c-0.64,0-1.57-1.25-2.26-2.12c-1.25-1.66-1.66-2.72-2.26-4.89L185.08,59.24z"/>
					<path d="M219.63,49.41c7.02-0.05,10.02,2.35,10.07,3.19c0,0.28,0,0.41-1.34,1.75c-0.09,1.02-0.19,1.8-0.23,3.19l-0.19,4.39
						c0,0.55-0.09,1.76-0.09,2.36c5.87-0.37,14.64-4.06,17.04-5.91c1.29-1.02,1.48-1.11,1.75-1.11c0.46,0,1.34,0.6,1.43,0.64
						l1.57,1.02c0.46,0.32,1.85,1.39,1.85,2.17c0,0.79-0.74,1.02-2.5,1.53c-1.02,0.28-5.45,1.75-6.38,2.03
						c-3.28,1.02-7.89,2.26-10.76,2.26c-1.57,0-2.63-0.28-4.11-0.65c-0.04,0.65-0.09,2.03-0.09,2.63l-0.18,6.42
						c-0.14,4.85,0.6,5.73,8.27,5.73c2.68,0,8.63-0.09,10.99-0.65c0.65-0.14,0.74-0.18,1.76-0.78c0.19-0.14,0.51-0.28,0.78-0.28
						c0.7,0,1.02,0.37,1.98,1.38l1.02,1.06c0.23,0.23,0.97,1.06,0.97,1.89c0,1.48-1.53,1.57-3.97,1.71l-4.11,0.23
						c-0.51,0.04-7.25,0.09-12.01,0.09c-1.43,0-6.14-0.18-7.62-1.24c-2.87-1.94-3.05-4.99-3-8.82l0.1-8.96l0.23-9.24
						c0-1.94,0-4.06-0.05-4.34c-0.14-1.06-1.2-2.31-3.28-2.77L219.63,49.41z"/>
					<path d="M267.01,47.84c0.19,0,0.79-0.05,1.2-0.05c0.32,0,7.99,0.55,7.99,2.17c0,0.32-0.05,0.37-0.74,1.06
						c-0.14,0.14-0.28,0.37-0.37,0.6c-0.13,1.71-0.13,2.63-0.13,4.94c0.74-0.04,2.3-0.09,3-0.14l5.86-0.18l1.3-1.76l5.08,3.6
						c0.32,0.23,0.92,0.74,0.92,1.2c0,0.55-0.18,0.65-1.8,1.43c-0.1,0.46-0.33,1.29-0.42,1.53l-1.06,4.43
						c-0.32,1.25-2.4,8.91-8.96,14.32c-4.57,3.74-10.3,5.59-16.12,6.65l-0.28-1.11c12.29-3.93,18.75-11.31,21.2-27.02l-2.59,0.09
						l-8.59,0.42c-6.7,0.32-8.08,0.41-10.81,0.6l0.09,3.97v4.11c0,0.5,0.09,2.77,0.09,3.18c0,0.55,0,1.94-1.43,1.94
						c-1.2,0-4.2-2.4-3.79-4.11l0.32-1.57c0.18-0.79,0.28-3.51,0.28-5.03c0-5.31-0.69-6.42-2.77-7.3l0.37-0.83
						c2.22,0.05,5.17,1.02,7.25,2.26l5.4-0.28c0.6-0.05,1.9-0.09,2.49-0.14c0-7.02,0-7.25-3.32-8.13L267.01,47.84z M283.73,48.39
						c5.54,1.2,7.71,3.56,7.71,5.4c0,1.29-0.97,1.85-1.57,1.85c-0.88,0-1.3-0.46-2.26-2.08c-0.41-0.65-1.66-2.4-4.29-4.39
						L283.73,48.39z M286.78,45.3c3.51,0.51,8.41,1.48,8.41,4.76c0,0.64-0.37,1.71-1.48,1.71c-0.32,0-0.83-0.05-1.89-1.34
						c-1.85-2.17-3.33-3.1-5.36-4.29L286.78,45.3z"/>
					<path d="M295.93,59.24c0.55,0.83,1.38,2.22,3.42,2.22c0.55,0,5.41-0.46,6.42-0.55c4.11-0.32,8.49-0.65,12.56-0.74l1.89-2.03
						l4.43,4.02c0.51,0.46,0.65,0.97,0.65,1.2c0,0.65-1.29,0.83-2.04,0.97c-3.46,2.91-4.66,3.93-9.15,6.97l-1.93,1.34
						c-0.51,4.34-0.97,8.31-4.48,11.5c-0.37,0.32-3.74,3.32-9.93,4.57l-0.37-0.92c2.45-0.97,4.02-1.62,5.77-3.32
						c3.61-3.56,4.16-9.42,4.16-9.56l0.23-2.95c0-0.19,0.04-0.79,0.04-1.16c0-1.89-1.11-2.45-1.94-2.87l0.37-0.78
						c4.3,0.69,5.59,1.85,6.65,2.82c2.22-2.63,3.6-4.34,5.5-7.53c-5.96,0.55-10.99,1.02-16.26,2.86c-0.6,0.19-0.6,0.19-1.34,0.88
						c-0.32,0.28-0.74,0.46-0.97,0.46c-0.65,0-1.56-1.25-2.26-2.12c-1.25-1.66-1.66-2.72-2.27-4.89L295.93,59.24z"/>
					<path d="M340.17,67.61c0,2.68-2.13,4.76-4.76,4.76c-2.63,0-4.75-2.13-4.75-4.76c0-2.68,2.12-4.76,4.8-4.76
						C338.05,62.85,340.17,64.92,340.17,67.61z"/>
					<path d="M349.82,54.03c4.66,0.55,9.33,3.88,9.33,5.45c0,0.28-0.14,0.55-0.6,0.83c-0.51,0.32-0.6,0.37-1.07,0.78
						c-3.09,10.07-8.54,17.92-14.96,22.86l-0.69-0.83c7.43-9.14,10.02-22.17,10.02-24.89c0-1.8-0.65-2.45-2.4-3.32L349.82,54.03z
						 M363.72,53.98c13.12,9.97,16.26,21.01,16.26,24.25c0,3.74-2.03,4.34-2.96,4.34c-1.66,0-2.54-1.57-2.96-4.02
						c-1.89-10.25-6.19-18.29-11.13-23.79L363.72,53.98z"/>
					<path d="M381.37,51.07c3.28,0.37,5.86,1.8,7.16,2.73c0.41,0,1.85-0.05,2.17-0.09l4.94-0.28c2.26-0.14,4.29-0.23,6.15-0.32
						l4.98-0.19c0.14,0,1.11-0.04,1.29-0.04l1.99-2.54l5.36,4.15c0.46,0.37,0.74,0.92,0.74,1.2c0,0.65-1.15,1.11-1.89,1.43
						c-2.45,16.12-7.57,21.43-12.52,24.89c-5.17,3.61-9.42,4.71-11.91,5.31l-0.32-1.02c2.63-1.15,10.95-4.71,15.47-14.78
						c0.32-0.69,3.19-7.06,3.65-15.52c-0.41,0-1.56,0.09-1.93,0.09l-4.71,0.18l-13.53,0.74c0.04,3.6,0.14,8.5,0.14,12.1
						c0,1.29,0,2.36-1.11,2.36c-1.57,0-4.25-2.08-4.25-3.79c0-0.14,0-0.37,0.1-0.69l0.37-1.52c0.09-0.51,0.09-1.48,0.09-1.99
						c0-1.8,0-8.08-0.32-9.19c-0.37-1.25-1.62-2.03-2.4-2.49L381.37,51.07z"/>
					<path d="M442.15,48.02c4.71,1.25,8.63,4.62,8.63,5.91c0,0.51-0.23,0.55-2.36,1.02c-0.41,0.32-1.01,0.74-1.25,0.92l-5.08,3.83
						c-0.51,0.37-1.94,1.29-2.78,1.8c0.46,0.18,1.44,0.6,1.44,1.15c0,0.42-0.28,0.6-1.67,1.43c0,0.74,0.05,3.05,0.05,3.7v8.31
						c0,1.66,0.18,9.05,0.18,10.58c0,0.69-0.05,1.71-1.2,1.71c-1.43,0-4.76-1.94-4.76-3.92c0-0.69,0.32-2.4,0.32-2.54
						c0.27-1.29,0.27-4.3,0.32-5.68l0.09-10.02c0-0.18-0.04-1.48-0.04-1.75c-4.43,2.31-11.13,5.31-17.79,7.11l-0.37-1.11
						c2.4-0.88,3.97-1.48,10.95-5.68c5.27-3.14,10.53-7.71,11.87-8.96l3.05-2.91c0.65-0.55,1.52-1.48,1.52-2.12
						c0-0.88-1.06-1.57-1.66-1.94L442.15,48.02z"/>
				</g>
				<g>
					<g>
						<path d="M287.95,29.52c0,0.27,0.04,0.46,0.11,0.55c0.07,0.09,0.21,0.14,0.41,0.14l0.28-0.01l0.79-0.01
							c0.36,0,0.63-0.08,0.82-0.23c0.18-0.16,0.37-0.46,0.55-0.91c0.04-0.11,0.09-0.17,0.16-0.17c0.14,0,0.22,0.06,0.22,0.19
							c0,0.04,0,0.1-0.01,0.19c-0.01,0.06-0.01,0.14-0.01,0.23c0,0.28,0.01,0.61,0.04,0.99l0.11,1.37c0.01,0.14,0.01,0.25,0.01,0.31
							c0,0.1-0.06,0.16-0.2,0.17c-0.09,0.01-0.15-0.06-0.17-0.2c-0.1-0.51-0.26-0.85-0.49-1.02c-0.23-0.17-0.63-0.26-1.2-0.26
							c-0.73,0-1.15,0.04-1.27,0.13c-0.11,0.09-0.17,0.44-0.17,1.05l0.01,0.58v0.86c0,0.73,0.12,1.25,0.38,1.58
							c0.19,0.24,0.55,0.38,1.11,0.43c0.16,0.02,0.23,0.08,0.23,0.2c0,0.13-0.05,0.2-0.16,0.2c-0.1,0-0.24-0.01-0.42-0.04
							c-0.17-0.02-0.53-0.03-1.05-0.03h-0.8c-0.36,0-0.68,0.02-0.94,0.05c-0.35,0.05-0.59,0.07-0.71,0.07
							c-0.16,0-0.24-0.06-0.24-0.19c0-0.1,0.07-0.17,0.2-0.21c0.29-0.1,0.49-0.26,0.59-0.5c0.1-0.24,0.15-0.65,0.15-1.23v-5.98
							c0-0.61-0.11-1.01-0.32-1.19c-0.24-0.21-0.6-0.33-1.06-0.36c-0.13-0.01-0.19-0.07-0.19-0.18c0-0.14,0.08-0.21,0.25-0.21
							c0.05,0,0.18,0.01,0.38,0.02c0.29,0.03,0.6,0.04,0.92,0.04l1.25-0.02l1.91-0.01c0.65,0,1.32-0.03,2.01-0.08
							c0.25-0.02,0.44-0.03,0.56-0.03c0.12,0,0.18,0.12,0.2,0.38c0.02,0.31,0.04,0.48,0.04,0.53l0.07,0.55
							c0.02,0.11,0.02,0.21,0.02,0.28c0,0.4-0.09,0.6-0.28,0.6c-0.1,0-0.15-0.07-0.15-0.2v-0.25c0-0.1-0.01-0.18-0.04-0.25
							c-0.2-0.64-0.84-0.96-1.92-0.96l-0.95-0.01l-0.3,0.01c-0.28,0-0.47,0.05-0.58,0.16c-0.11,0.1-0.16,0.29-0.16,0.55V29.52z"/>
						<path d="M296.12,27.54v1.58c0,0.45,0.03,0.74,0.1,0.86c0.06,0.12,0.22,0.18,0.47,0.18l0.22-0.01l0.32-0.01h0.62
							c0.48,0,0.86-0.26,1.12-0.79l0.17-0.36c0.04-0.09,0.12-0.13,0.22-0.14c0.11-0.01,0.16,0.06,0.16,0.2
							c0,0.04-0.01,0.15-0.02,0.32c-0.01,0.12-0.01,0.23-0.01,0.32c0,0.16,0.02,0.52,0.07,1.1c0.03,0.37,0.04,0.7,0.04,0.98
							l0.01,0.37c0,0.07-0.01,0.12-0.02,0.14c-0.02,0.03-0.06,0.04-0.12,0.05c-0.12,0.01-0.2-0.09-0.22-0.28
							c-0.07-0.41-0.21-0.72-0.44-0.94c-0.13-0.12-0.28-0.19-0.46-0.23c-0.18-0.03-0.53-0.05-1.02-0.05h-0.5
							c-0.23,0-0.39,0.03-0.48,0.11c-0.09,0.07-0.14,0.21-0.17,0.42c-0.03,0.24-0.04,0.62-0.04,1.15v0.65
							c0,0.68,0.05,1.17,0.16,1.48c0.08,0.21,0.18,0.36,0.29,0.44c0.11,0.08,0.29,0.12,0.52,0.12c1.98,0,3.27-0.6,3.87-1.8
							c0.04-0.06,0.06-0.09,0.09-0.09c0.05-0.01,0.09,0.01,0.13,0.05c0.04,0.04,0.06,0.09,0.06,0.16c0,0.48-0.13,0.94-0.38,1.39
							c-0.21,0.38-0.48,0.65-0.8,0.81c-0.32,0.16-0.74,0.24-1.27,0.24c-0.31,0-0.65-0.02-1.03-0.06l-0.84-0.08
							c-0.31-0.03-0.73-0.04-1.26-0.04c-0.35,0-0.89,0.02-1.62,0.07c-0.2,0.02-0.34,0.02-0.43,0.02c-0.12,0-0.18-0.05-0.19-0.16
							c0-0.09,0.05-0.16,0.16-0.2c0.27-0.11,0.46-0.22,0.56-0.34c0.1-0.12,0.18-0.33,0.24-0.64c0.05-0.26,0.08-0.6,0.08-1.04v-5.76
							c0-0.54-0.09-0.91-0.27-1.11c-0.18-0.19-0.54-0.33-1.1-0.41c-0.13-0.02-0.2-0.09-0.2-0.22c0-0.11,0.08-0.17,0.24-0.17
							c0.03,0,0.11,0,0.22,0.01c0.09,0.01,0.21,0.01,0.36,0.01l0.73,0.03l2.76,0.03c1.59,0,2.56-0.02,2.93-0.07
							c0.04-0.01,0.07-0.01,0.1-0.01c0.14,0,0.21,0.08,0.21,0.24c0,0.11,0.01,0.31,0.04,0.6c0.04,0.42,0.06,0.72,0.06,0.91
							c0,0.37-0.09,0.56-0.29,0.57c-0.09,0-0.14-0.1-0.14-0.32c0-0.48-0.17-0.83-0.53-1.05c-0.35-0.22-0.92-0.32-1.71-0.32h-0.89
							l-0.49,0.06c-0.25,0.08-0.38,0.32-0.38,0.74L296.12,27.54z"/>
						<path d="M304.9,25.68c0.46,0,0.9,0.09,1.34,0.27l0.49,0.2c0.22,0.09,0.37,0.13,0.47,0.13c0.07,0,0.13-0.02,0.21-0.05
							l0.28-0.14c0.04-0.02,0.08-0.03,0.12-0.03c0.1,0,0.15,0.08,0.15,0.24l-0.01,0.59c0,0.09,0,0.18,0.01,0.26l0.09,0.71l0.07,0.66
							c0.01,0.06,0.02,0.11,0.02,0.14c0,0.21-0.06,0.31-0.18,0.31c-0.09,0-0.15-0.09-0.19-0.28c-0.14-0.68-0.49-1.26-1.06-1.76
							c-0.57-0.49-1.17-0.74-1.81-0.74c-0.44,0-0.82,0.15-1.14,0.44c-0.33,0.29-0.49,0.64-0.49,1.04c0,0.37,0.14,0.7,0.43,0.96
							c0.19,0.18,0.76,0.46,1.73,0.85c1.15,0.47,1.92,0.93,2.29,1.38c0.44,0.54,0.66,1.2,0.66,1.97c0,0.85-0.31,1.58-0.92,2.21
							c-0.61,0.62-1.33,0.94-2.15,0.94c-0.34,0-0.87-0.12-1.6-0.35c-0.34-0.11-0.59-0.19-0.75-0.22c-0.22-0.04-0.35-0.09-0.39-0.13
							c-0.04-0.04-0.07-0.17-0.09-0.37c-0.02-0.23-0.1-0.56-0.22-0.99c-0.18-0.65-0.27-1.08-0.27-1.26c0-0.23,0.07-0.35,0.22-0.35
							c0.07,0,0.12,0.06,0.15,0.17c0.23,0.83,0.65,1.53,1.24,2.1c0.59,0.57,1.2,0.85,1.83,0.85c0.49,0,0.93-0.19,1.31-0.56
							c0.39-0.38,0.58-0.8,0.58-1.29c0-0.38-0.1-0.7-0.3-0.94c-0.2-0.25-0.55-0.48-1.04-0.7l-1.11-0.49
							c-1.04-0.47-1.75-0.91-2.13-1.32c-0.37-0.42-0.56-0.97-0.56-1.66c0-0.8,0.26-1.47,0.78-2.01
							C303.48,25.95,304.13,25.68,304.9,25.68z"/>
						<path d="M314.73,27.63v5.48c0,0.82,0.12,1.4,0.36,1.74c0.24,0.34,0.66,0.53,1.26,0.57c0.17,0.02,0.26,0.1,0.26,0.26
							c0,0.11-0.07,0.17-0.22,0.17c-0.03,0-0.1,0-0.18-0.01l-0.54-0.02l-0.91-0.06c-0.07,0-0.17-0.01-0.29-0.01
							c-0.28,0-0.53,0.01-0.76,0.02l-1.61,0.09c-0.17,0.02-0.29,0.03-0.35,0.03c-0.15,0-0.22-0.06-0.22-0.19
							c0-0.11,0.03-0.18,0.07-0.21c0.04-0.03,0.14-0.05,0.29-0.07c0.38-0.02,0.67-0.16,0.88-0.41c0.21-0.25,0.31-0.59,0.31-1.02
							l-0.01-0.34v-6.46c0-0.38-0.21-0.57-0.62-0.57c-0.97,0-1.64,0.07-1.99,0.21c-0.26,0.11-0.43,0.23-0.51,0.36
							c-0.08,0.13-0.2,0.47-0.35,0.99l-0.06,0.2c-0.05,0.2-0.13,0.3-0.25,0.3c-0.16,0-0.23-0.07-0.22-0.22
							c0-0.14,0.03-0.33,0.07-0.57l0.07-0.63l0.08-0.65l0.05-0.45c0.02-0.19,0.12-0.29,0.31-0.29c0.05,0,0.13,0,0.25,0.02
							c0.19,0.02,0.46,0.02,0.8,0.02l1.49,0.02l1.77,0.03c1.14,0,2.35-0.03,3.63-0.1c0.25-0.01,0.42-0.01,0.49-0.01
							c0.27,0,0.41,0.11,0.42,0.33l0.04,0.52c0,0.08,0.03,0.28,0.07,0.59c0.03,0.26,0.05,0.46,0.05,0.62c0,0.16-0.07,0.24-0.2,0.24
							c-0.11,0-0.19-0.09-0.23-0.28c-0.1-0.45-0.3-0.78-0.59-0.97c-0.29-0.2-0.71-0.3-1.25-0.3c-0.74,0-1.19,0.06-1.37,0.17
							C314.82,26.89,314.73,27.17,314.73,27.63z"/>
						<path d="M322.24,33.55l0.06,0.73c0.06,0.37,0.2,0.66,0.43,0.86c0.23,0.2,0.52,0.3,0.88,0.3c0.24,0,0.36,0.07,0.36,0.22
							c0,0.14-0.16,0.21-0.47,0.21c-0.13,0-0.33-0.01-0.58-0.04c-0.63-0.07-1.14-0.11-1.53-0.11c-0.49,0-0.87,0.03-1.15,0.08
							c-0.24,0.04-0.42,0.07-0.53,0.07c-0.1,0-0.17-0.05-0.2-0.16l-0.02-0.06l0.21-0.17c0.35-0.13,0.58-0.28,0.69-0.46
							c0.12-0.18,0.17-0.48,0.17-0.9l0.01-0.65v-5.78c0-0.44-0.08-0.76-0.23-0.95c-0.16-0.19-0.44-0.32-0.85-0.38
							c-0.24-0.04-0.4-0.08-0.47-0.11c-0.07-0.04-0.11-0.1-0.11-0.19c0-0.14,0.06-0.21,0.17-0.2c0.09,0,0.22,0.03,0.39,0.06
							c0.18,0.04,0.47,0.05,0.88,0.05c0.27,0,0.61-0.02,1.01-0.05l0.53-0.04c0.5-0.04,0.88-0.05,1.15-0.05
							c0.16,0,0.24,0.06,0.24,0.18c0,0.09-0.01,0.15-0.04,0.18c-0.03,0.03-0.09,0.05-0.18,0.07c-0.35,0.06-0.58,0.16-0.68,0.29
							c-0.1,0.13-0.15,0.41-0.15,0.83V33.55z"/>
						<path d="M328.04,29.45l1.62,3.98c0.07,0.17,0.14,0.26,0.2,0.27c0.05,0,0.11-0.06,0.17-0.21l1.64-3.64
							c0.54-1.19,0.81-2.05,0.81-2.58c0-0.3-0.11-0.55-0.32-0.74c-0.21-0.19-0.52-0.32-0.91-0.37c-0.17-0.02-0.26-0.09-0.26-0.2
							s0.06-0.17,0.18-0.17c0.06,0,0.2,0,0.41,0.01l0.76,0.04c0.34,0.02,0.59,0.03,0.73,0.03c0.44,0,0.82-0.03,1.15-0.08
							c0.12-0.02,0.22-0.03,0.29-0.03c0.09,0,0.13,0.06,0.13,0.19c0,0.12-0.07,0.19-0.22,0.21c-0.28,0.05-0.51,0.2-0.69,0.43
							c-0.17,0.24-0.43,0.72-0.76,1.46l-1.08,2.51l-1.24,2.74c-0.4,0.9-0.62,1.38-0.65,1.44c-0.26,0.54-0.41,0.85-0.44,0.93
							c-0.09,0.22-0.21,0.33-0.35,0.33c-0.09,0-0.17-0.06-0.22-0.18l-0.17-0.37l-0.18-0.44l-1.72-3.91
							c-0.42-0.96-0.78-1.82-1.06-2.58c-0.33-0.89-0.6-1.48-0.8-1.77c-0.2-0.29-0.46-0.46-0.8-0.54c-0.2-0.04-0.29-0.12-0.29-0.25
							c0-0.13,0.07-0.2,0.2-0.2c0.04,0,0.11,0,0.22,0.01c0.25,0.03,0.54,0.04,0.87,0.04l1.22,0.04l0.76-0.04
							c0.33-0.02,0.54-0.03,0.63-0.03c0.14,0,0.21,0.06,0.21,0.2c0,0.12-0.11,0.19-0.31,0.23c-0.36,0.06-0.54,0.27-0.54,0.63
							C327.24,27.3,327.5,28.16,328.04,29.45z"/>
						<path d="M338.07,26.68l3.31,7.6c0.16,0.38,0.36,0.67,0.58,0.86c0.22,0.19,0.51,0.31,0.86,0.38c0.09,0.02,0.13,0.09,0.13,0.21
							c0,0.13-0.05,0.2-0.17,0.19c-0.06-0.01-0.15-0.02-0.28-0.04c-0.38-0.08-0.98-0.12-1.81-0.12c-0.84,0-1.4,0.04-1.71,0.11
							c-0.07,0.02-0.13,0.03-0.19,0.03c-0.14,0-0.21-0.07-0.21-0.21c0-0.07,0.05-0.12,0.16-0.16c0.23-0.06,0.43-0.19,0.58-0.36
							c0.15-0.17,0.23-0.36,0.23-0.55c0-0.27-0.21-0.86-0.63-1.79c-0.13-0.28-0.27-0.44-0.43-0.49c-0.16-0.04-0.71-0.06-1.67-0.06
							h-0.99l-0.66,0.12c-0.18,0.08-0.38,0.4-0.61,0.96l-0.23,0.56c-0.07,0.16-0.1,0.32-0.1,0.49c0,0.61,0.43,0.96,1.28,1.06
							c0.18,0.03,0.28,0.1,0.27,0.22c-0.01,0.13-0.1,0.2-0.26,0.2c-0.09,0-0.21-0.02-0.37-0.04c-0.32-0.06-0.61-0.09-0.86-0.09
							c-0.23,0-0.6,0.03-1.11,0.07c-0.38,0.04-0.61,0.06-0.71,0.06c-0.13,0-0.2-0.06-0.2-0.18c0-0.1,0.07-0.17,0.2-0.22
							c0.26-0.08,0.47-0.23,0.63-0.46c0.16-0.22,0.39-0.68,0.7-1.39l1.98-4.57c0.16-0.37,0.27-0.62,0.33-0.75l0.68-1.39l0.35-0.68
							v0.02c0.16-0.37,0.26-0.56,0.31-0.56c0.08,0,0.21,0.2,0.4,0.61L338.07,26.68z M338.35,31.23l-0.96-2.22
							c-0.22-0.53-0.38-0.8-0.48-0.8c-0.06,0-0.17,0.17-0.32,0.51l-0.14,0.31l-0.85,1.94l-0.08,0.18c-0.03,0.07-0.05,0.14-0.05,0.19
							c0,0.17,0.17,0.25,0.53,0.25h2.15c0.18,0,0.28-0.05,0.28-0.15c0-0.02-0.01-0.06-0.04-0.12L338.35,31.23z"/>
						<path d="M346.07,33.54c0,0.91,0.11,1.42,0.33,1.53c0.12,0.06,0.36,0.09,0.71,0.09c1.64,0,2.81-0.48,3.49-1.45
							c0.21-0.29,0.35-0.44,0.4-0.44c0.09,0,0.13,0.1,0.13,0.3c0,0.62-0.2,1.17-0.6,1.65c-0.36,0.43-0.84,0.64-1.45,0.64
							c-0.13,0-0.36-0.01-0.69-0.04c-0.09-0.01-0.38-0.02-0.87-0.05l-0.8-0.03c-0.27-0.02-0.57-0.02-0.91-0.02
							c-0.56,0-1.17,0.04-1.82,0.11c-0.2,0.02-0.33,0.04-0.4,0.04c-0.14,0-0.21-0.06-0.21-0.19c0-0.09,0.06-0.15,0.19-0.19
							c0.31-0.09,0.53-0.26,0.65-0.5c0.12-0.25,0.18-0.65,0.18-1.22v-6.06c0-0.77-0.32-1.21-0.97-1.31l-0.44-0.07
							c-0.19-0.03-0.28-0.1-0.28-0.22c0-0.15,0.08-0.22,0.22-0.22c0.05,0,0.12,0.01,0.21,0.02c0.07,0.01,0.16,0.02,0.29,0.03
							l0.31,0.02c0.3,0.03,0.52,0.04,0.67,0.04c0.23,0,0.6-0.03,1.11-0.09c0.38-0.04,0.77-0.06,1.16-0.06
							c0.29,0,0.44,0.07,0.44,0.21c0,0.12-0.1,0.18-0.31,0.19c-0.49,0.04-0.73,0.37-0.73,1.01V33.54z"/>
						<path d="M357.57,27.52l3.85,4.32l0.24,0.27c0.33,0.37,0.55,0.55,0.66,0.55c0.1,0,0.16-0.15,0.17-0.44
							c0.04-1.07,0.06-2.09,0.06-3.05c0-1.14-0.12-1.91-0.35-2.31c-0.23-0.4-0.68-0.62-1.35-0.67c-0.16-0.01-0.24-0.07-0.24-0.17
							c0-0.13,0.07-0.2,0.21-0.2c0.18,0,0.46,0.02,0.84,0.07c0.25,0.03,0.46,0.04,0.62,0.04c0.34,0,0.87-0.04,1.59-0.13
							c0.1-0.01,0.17-0.01,0.21-0.01c0.16,0,0.23,0.07,0.23,0.21c0,0.12-0.08,0.19-0.23,0.22c-0.62,0.12-0.94,0.67-0.94,1.66v0.36
							l-0.1,4.54l-0.03,0.63l-0.01,0.81l0.01,0.55l0.03,0.91c0,0.13-0.05,0.2-0.15,0.2c-0.09-0.01-0.18-0.06-0.27-0.16l-6.62-7.36
							c-0.12-0.12-0.2-0.19-0.24-0.19c-0.12,0-0.17,0.11-0.17,0.33l-0.01,0.21v2.82c0,1.51,0.07,2.51,0.22,3.02
							c0.16,0.54,0.63,0.85,1.42,0.92c0.14,0.02,0.22,0.08,0.22,0.19c0,0.15-0.08,0.22-0.22,0.22c-0.06,0-0.15-0.01-0.29-0.03
							c-0.41-0.07-0.86-0.1-1.35-0.1c-0.49,0-0.93,0.03-1.31,0.1c-0.17,0.03-0.29,0.04-0.37,0.04c-0.13,0-0.2-0.06-0.2-0.18
							c0-0.1,0.07-0.17,0.21-0.21c0.36-0.1,0.61-0.31,0.77-0.62c0.16-0.32,0.25-0.77,0.25-1.37l0.05-1.72v-3.14
							c0-1.49-0.55-2.27-1.66-2.35c-0.15-0.01-0.22-0.07-0.22-0.18c0-0.14,0.08-0.21,0.25-0.21l0.51,0.02l0.3-0.01
							c0.38,0,0.79-0.02,1.22-0.06c0.16-0.02,0.29-0.02,0.4-0.02c0.15,0,0.27,0.03,0.36,0.1c0.09,0.06,0.27,0.27,0.55,0.6l0.5,0.59
							C357.41,27.33,357.53,27.47,357.57,27.52z"/>
						<path d="M369.68,26.68l3.31,7.6c0.17,0.38,0.36,0.67,0.58,0.86c0.23,0.19,0.51,0.31,0.87,0.38c0.08,0.02,0.13,0.09,0.13,0.21
							c0,0.13-0.06,0.2-0.17,0.19c-0.06-0.01-0.16-0.02-0.28-0.04c-0.38-0.08-0.98-0.12-1.81-0.12c-0.84,0-1.41,0.04-1.71,0.11
							c-0.07,0.02-0.13,0.03-0.19,0.03c-0.14,0-0.2-0.07-0.2-0.21c0-0.07,0.05-0.12,0.16-0.16c0.23-0.06,0.43-0.19,0.58-0.36
							c0.15-0.17,0.23-0.36,0.23-0.55c0-0.27-0.21-0.86-0.63-1.79c-0.13-0.28-0.27-0.44-0.43-0.49c-0.16-0.04-0.72-0.06-1.67-0.06
							h-0.99l-0.65,0.12c-0.18,0.08-0.38,0.4-0.61,0.96l-0.22,0.56c-0.07,0.16-0.1,0.32-0.1,0.49c0,0.61,0.43,0.96,1.28,1.06
							c0.18,0.03,0.27,0.1,0.27,0.22c-0.01,0.13-0.1,0.2-0.26,0.2c-0.09,0-0.21-0.02-0.37-0.04c-0.32-0.06-0.61-0.09-0.86-0.09
							c-0.23,0-0.59,0.03-1.11,0.07c-0.38,0.04-0.61,0.06-0.7,0.06c-0.14,0-0.21-0.06-0.21-0.18c0-0.1,0.07-0.17,0.21-0.22
							c0.26-0.08,0.47-0.23,0.63-0.46c0.16-0.22,0.39-0.68,0.7-1.39l1.98-4.57c0.16-0.37,0.27-0.62,0.34-0.75l0.68-1.39l0.35-0.68
							v0.02c0.15-0.37,0.26-0.56,0.31-0.56c0.07,0,0.21,0.2,0.4,0.61L369.68,26.68z M369.96,31.23l-0.95-2.22
							c-0.23-0.53-0.39-0.8-0.48-0.8c-0.06,0-0.17,0.17-0.32,0.51l-0.14,0.31l-0.85,1.94l-0.08,0.18c-0.04,0.07-0.05,0.14-0.05,0.19
							c0,0.17,0.17,0.25,0.52,0.25h2.15c0.18,0,0.28-0.05,0.28-0.15c0-0.02-0.01-0.06-0.04-0.12L369.96,31.23z"/>
						<path d="M383.97,30.86h-3.46c-0.35,0-0.56,0.05-0.64,0.13c-0.08,0.09-0.12,0.32-0.12,0.71v1.8c0,0.69,0.11,1.18,0.33,1.48
							c0.23,0.3,0.59,0.45,1.1,0.45c0.16,0,0.25,0.07,0.25,0.2c0,0.15-0.12,0.23-0.38,0.23c-0.09,0-0.26-0.01-0.52-0.04
							c-0.57-0.07-1.1-0.1-1.58-0.1c-0.3,0-0.7,0.03-1.2,0.08c-0.29,0.03-0.48,0.05-0.56,0.05c-0.16,0-0.23-0.08-0.23-0.25
							c0-0.11,0.06-0.16,0.18-0.18c0.33-0.05,0.57-0.21,0.71-0.45c0.14-0.25,0.21-0.62,0.21-1.12l0.01-0.39V27.4
							c0-0.35-0.09-0.61-0.29-0.78c-0.19-0.17-0.55-0.3-1.07-0.4c-0.13-0.03-0.2-0.1-0.2-0.21c0-0.14,0.08-0.21,0.23-0.21
							c0.09,0,0.25,0.02,0.48,0.05c0.39,0.06,0.85,0.09,1.38,0.09c0.18,0,0.56-0.03,1.15-0.09c0.35-0.04,0.61-0.05,0.79-0.05
							c0.18,0,0.26,0.07,0.26,0.2c0,0.11-0.07,0.18-0.21,0.2c-0.57,0.1-0.86,0.46-0.86,1.08v1.87c0,0.49,0.03,0.78,0.11,0.87
							c0.07,0.08,0.3,0.13,0.7,0.13h3.41c0.29,0,0.47-0.06,0.54-0.18c0.07-0.12,0.1-0.45,0.1-0.99V27.4c0-0.62-0.35-1-1.03-1.12
							l-0.33-0.07c-0.13-0.02-0.2-0.09-0.2-0.21c0-0.14,0.08-0.21,0.23-0.21c0.09,0,0.25,0.02,0.48,0.05
							c0.4,0.06,0.86,0.09,1.39,0.09c0.18,0,0.57-0.03,1.15-0.09c0.35-0.04,0.61-0.05,0.79-0.05c0.17,0,0.26,0.07,0.26,0.2
							c0,0.11-0.07,0.18-0.21,0.2c-0.57,0.1-0.86,0.46-0.86,1.08v6.23c0,0.69,0.11,1.18,0.33,1.48c0.22,0.3,0.58,0.45,1.09,0.45
							c0.18,0,0.26,0.07,0.26,0.2c0,0.15-0.12,0.23-0.38,0.23c-0.08,0-0.25-0.01-0.51-0.04c-0.58-0.07-1.11-0.1-1.58-0.1
							c-0.31,0-0.71,0.03-1.21,0.08c-0.3,0.03-0.48,0.05-0.56,0.05c-0.15,0-0.23-0.08-0.23-0.25c0-0.11,0.06-0.16,0.18-0.18
							c0.33-0.05,0.57-0.21,0.71-0.45c0.14-0.25,0.21-0.62,0.21-1.12l0.01-0.39v-1.6c0-0.48-0.03-0.76-0.1-0.87
							C384.45,30.91,384.27,30.86,383.97,30.86z"/>
						<path d="M391.37,33.55l0.06,0.73c0.06,0.37,0.2,0.66,0.43,0.86c0.23,0.2,0.52,0.3,0.88,0.3c0.24,0,0.36,0.07,0.36,0.22
							c0,0.14-0.16,0.21-0.47,0.21c-0.13,0-0.33-0.01-0.58-0.04c-0.63-0.07-1.14-0.11-1.53-0.11c-0.48,0-0.87,0.03-1.15,0.08
							c-0.24,0.04-0.42,0.07-0.52,0.07c-0.11,0-0.17-0.05-0.21-0.16l-0.01-0.06l0.21-0.17c0.35-0.13,0.58-0.28,0.69-0.46
							c0.11-0.18,0.17-0.48,0.17-0.9l0.01-0.65v-5.78c0-0.44-0.08-0.76-0.23-0.95c-0.15-0.19-0.44-0.32-0.85-0.38
							c-0.25-0.04-0.4-0.08-0.47-0.11c-0.07-0.04-0.11-0.1-0.11-0.19c0-0.14,0.06-0.21,0.18-0.2c0.09,0,0.22,0.03,0.39,0.06
							c0.17,0.04,0.47,0.05,0.88,0.05c0.27,0,0.61-0.02,1.01-0.05l0.53-0.04c0.5-0.04,0.88-0.05,1.14-0.05
							c0.16,0,0.24,0.06,0.24,0.18c0,0.09-0.01,0.15-0.04,0.18c-0.02,0.03-0.09,0.05-0.19,0.07c-0.35,0.06-0.58,0.16-0.68,0.29
							c-0.1,0.13-0.15,0.41-0.15,0.83V33.55z"/>
						<path d="M404.86,25.77c0.11,0,0.27,0,0.49,0.02c0.56,0.05,1.06,0.08,1.49,0.08c0.45,0,0.84-0.03,1.18-0.1l0.06-0.01
							c0.11,0,0.16,0.06,0.16,0.18c0,0.11-0.08,0.19-0.23,0.24c-0.28,0.1-0.51,0.24-0.67,0.44c-0.17,0.2-0.33,0.5-0.49,0.9
							l-0.43,1.05l-0.66,1.64c-0.5,1.25-0.81,2.02-0.92,2.31c-0.45,1.14-0.73,1.85-0.85,2.13c-0.28,0.61-0.44,0.98-0.48,1.11
							c-0.06,0.17-0.16,0.26-0.29,0.26c-0.16,0-0.28-0.11-0.37-0.32c-0.03-0.08-0.14-0.36-0.35-0.86c-0.76-1.82-1.28-3.2-1.59-4.14
							c-0.06-0.21-0.13-0.31-0.22-0.31c-0.09,0.01-0.21,0.19-0.35,0.55c-0.15,0.39-0.46,1.1-0.93,2.12
							c-0.47,1.02-0.82,1.73-1.04,2.13c-0.09,0.18-0.15,0.3-0.18,0.37c-0.13,0.3-0.28,0.45-0.45,0.45c-0.16,0-0.29-0.17-0.39-0.49
							c-0.04-0.12-0.11-0.31-0.22-0.55c-0.66-1.51-1.29-3.14-1.9-4.89c-0.41-1.16-0.62-1.77-0.64-1.83l-0.39-0.99
							c-0.26-0.66-0.57-1.01-0.92-1.04c-0.12-0.01-0.18-0.08-0.18-0.2c0-0.13,0.08-0.2,0.23-0.2c0.04,0,0.21,0.01,0.54,0.02
							l0.73,0.04c0.3,0.01,0.55,0.02,0.74,0.02c0.34,0,0.73-0.02,1.18-0.06l0.12-0.01c0.17,0,0.25,0.06,0.25,0.2
							c0,0.13-0.09,0.19-0.26,0.19c-0.43,0-0.65,0.21-0.65,0.62c0,0.23,0.22,0.96,0.66,2.2l0.71,1.99l0.44,1.29l0.25,0.68
							c0.12,0.35,0.24,0.52,0.34,0.52c0.13,0,0.29-0.24,0.5-0.72c0.02-0.04,0.2-0.42,0.55-1.16c0.12-0.25,0.31-0.66,0.56-1.24
							c0.13-0.31,0.25-0.58,0.35-0.79c0.04-0.08,0.06-0.14,0.06-0.18c0-0.04-0.02-0.11-0.05-0.2c-0.08-0.19-0.2-0.51-0.35-0.96
							c-0.24-0.73-0.48-1.25-0.7-1.56c-0.22-0.31-0.48-0.49-0.78-0.54c-0.13-0.02-0.2-0.1-0.2-0.21c0-0.13,0.09-0.19,0.28-0.19
							c0.11,0,0.22,0,0.35,0.01c0.68,0.06,1.08,0.09,1.2,0.09c0.83,0,1.31-0.01,1.45-0.03c0.21-0.03,0.36-0.04,0.44-0.05
							c0.12,0,0.19,0.08,0.19,0.24c0,0.08-0.05,0.14-0.16,0.17l-0.22,0.07c-0.29,0.1-0.44,0.3-0.44,0.62c0,0.3,0.25,1.15,0.75,2.53
							l0.76,2.08l0.31,0.86c0.09,0.24,0.15,0.4,0.18,0.48c0.11,0.36,0.23,0.54,0.36,0.53c0.12,0,0.24-0.19,0.37-0.55
							c0.03-0.09,0.18-0.45,0.45-1.08c0.12-0.28,0.31-0.8,0.59-1.57c0.14-0.38,0.33-0.88,0.55-1.48c0.24-0.63,0.36-1.08,0.36-1.36
							c0-0.35-0.08-0.6-0.26-0.76c-0.17-0.16-0.49-0.29-0.97-0.39c-0.14-0.03-0.21-0.09-0.2-0.18
							C404.67,25.85,404.73,25.78,404.86,25.77z"/>
						<path d="M411.63,26.68l3.31,7.6c0.16,0.38,0.36,0.67,0.58,0.86c0.22,0.19,0.52,0.31,0.87,0.38c0.09,0.02,0.13,0.09,0.13,0.21
							c0,0.13-0.05,0.2-0.17,0.19c-0.06-0.01-0.16-0.02-0.28-0.04c-0.37-0.08-0.98-0.12-1.81-0.12c-0.83,0-1.4,0.04-1.7,0.11
							c-0.07,0.02-0.13,0.03-0.19,0.03c-0.14,0-0.2-0.07-0.2-0.21c0-0.07,0.05-0.12,0.16-0.16c0.24-0.06,0.43-0.19,0.58-0.36
							c0.15-0.17,0.23-0.36,0.23-0.55c0-0.27-0.21-0.86-0.63-1.79c-0.13-0.28-0.27-0.44-0.43-0.49c-0.16-0.04-0.71-0.06-1.67-0.06
							h-0.99l-0.65,0.12c-0.18,0.08-0.38,0.4-0.61,0.96l-0.22,0.56c-0.07,0.16-0.1,0.32-0.1,0.49c0,0.61,0.43,0.96,1.28,1.06
							c0.18,0.03,0.27,0.1,0.27,0.22c-0.01,0.13-0.1,0.2-0.26,0.2c-0.09,0-0.21-0.02-0.37-0.04c-0.32-0.06-0.61-0.09-0.86-0.09
							c-0.23,0-0.59,0.03-1.11,0.07c-0.38,0.04-0.61,0.06-0.7,0.06c-0.14,0-0.21-0.06-0.21-0.18c0-0.1,0.07-0.17,0.21-0.22
							c0.26-0.08,0.47-0.23,0.63-0.46c0.16-0.22,0.39-0.68,0.7-1.39l1.98-4.57c0.16-0.37,0.27-0.62,0.33-0.75l0.67-1.39l0.35-0.68
							v0.02c0.15-0.37,0.26-0.56,0.31-0.56c0.08,0,0.21,0.2,0.4,0.61L411.63,26.68z M411.9,31.23l-0.95-2.22
							c-0.23-0.53-0.39-0.8-0.49-0.8c-0.06,0-0.17,0.17-0.32,0.51l-0.14,0.31l-0.85,1.94l-0.08,0.18c-0.04,0.07-0.05,0.14-0.05,0.19
							c0,0.17,0.17,0.25,0.52,0.25h2.15c0.18,0,0.28-0.05,0.28-0.15c0-0.02-0.01-0.06-0.04-0.12L411.9,31.23z"/>
						<path d="M423.83,30.86h-3.46c-0.34,0-0.56,0.05-0.63,0.13c-0.08,0.09-0.12,0.32-0.12,0.71v1.8c0,0.69,0.11,1.18,0.33,1.48
							c0.22,0.3,0.59,0.45,1.1,0.45c0.16,0,0.25,0.07,0.25,0.2c0,0.15-0.13,0.23-0.38,0.23c-0.09,0-0.26-0.01-0.52-0.04
							c-0.57-0.07-1.1-0.1-1.58-0.1c-0.3,0-0.7,0.03-1.2,0.08c-0.29,0.03-0.48,0.05-0.56,0.05c-0.15,0-0.23-0.08-0.23-0.25
							c0-0.11,0.06-0.16,0.18-0.18c0.33-0.05,0.57-0.21,0.71-0.45c0.14-0.25,0.21-0.62,0.21-1.12l0.01-0.39V27.4
							c0-0.35-0.1-0.61-0.29-0.78c-0.19-0.17-0.55-0.3-1.07-0.4c-0.13-0.03-0.2-0.1-0.2-0.21c0-0.14,0.08-0.21,0.23-0.21
							c0.08,0,0.25,0.02,0.48,0.05c0.39,0.06,0.85,0.09,1.38,0.09c0.18,0,0.56-0.03,1.15-0.09c0.35-0.04,0.61-0.05,0.79-0.05
							c0.18,0,0.26,0.07,0.26,0.2c0,0.11-0.07,0.18-0.21,0.2c-0.57,0.1-0.86,0.46-0.86,1.08v1.87c0,0.49,0.03,0.78,0.1,0.87
							c0.07,0.08,0.3,0.13,0.71,0.13h3.4c0.3,0,0.48-0.06,0.54-0.18c0.07-0.12,0.1-0.45,0.1-0.99V27.4c0-0.62-0.34-1-1.03-1.12
							l-0.34-0.07c-0.14-0.02-0.21-0.09-0.21-0.21c0-0.14,0.08-0.21,0.23-0.21c0.09,0,0.25,0.02,0.48,0.05
							c0.4,0.06,0.86,0.09,1.39,0.09c0.18,0,0.57-0.03,1.15-0.09c0.35-0.04,0.62-0.05,0.79-0.05c0.17,0,0.26,0.07,0.26,0.2
							c0,0.11-0.07,0.18-0.21,0.2c-0.57,0.1-0.86,0.46-0.86,1.08v6.23c0,0.69,0.11,1.18,0.33,1.48c0.22,0.3,0.58,0.45,1.08,0.45
							c0.18,0,0.27,0.07,0.27,0.2c0,0.15-0.13,0.23-0.38,0.23c-0.09,0-0.26-0.01-0.51-0.04c-0.58-0.07-1.1-0.1-1.58-0.1
							c-0.3,0-0.71,0.03-1.21,0.08c-0.3,0.03-0.48,0.05-0.56,0.05c-0.16,0-0.23-0.08-0.23-0.25c0-0.11,0.06-0.16,0.18-0.18
							c0.33-0.05,0.56-0.21,0.71-0.45c0.15-0.25,0.22-0.62,0.22-1.12l0.01-0.39v-1.6c0-0.48-0.03-0.76-0.09-0.87
							C424.31,30.91,424.13,30.86,423.83,30.86z"/>
						<path d="M431.53,33.55l0.06,0.73c0.06,0.37,0.2,0.66,0.43,0.86c0.23,0.2,0.52,0.3,0.89,0.3c0.24,0,0.36,0.07,0.36,0.22
							c0,0.14-0.16,0.21-0.47,0.21c-0.14,0-0.33-0.01-0.58-0.04c-0.63-0.07-1.14-0.11-1.54-0.11c-0.49,0-0.87,0.03-1.15,0.08
							c-0.24,0.04-0.42,0.07-0.52,0.07c-0.11,0-0.17-0.05-0.2-0.16l-0.02-0.06l0.21-0.17c0.35-0.13,0.58-0.28,0.69-0.46
							c0.11-0.18,0.17-0.48,0.17-0.9l0.01-0.65v-5.78c0-0.44-0.08-0.76-0.23-0.95c-0.15-0.19-0.44-0.32-0.85-0.38
							c-0.25-0.04-0.4-0.08-0.47-0.11c-0.07-0.04-0.11-0.1-0.11-0.19c0-0.14,0.06-0.21,0.18-0.2c0.09,0,0.22,0.03,0.39,0.06
							c0.17,0.04,0.46,0.05,0.88,0.05c0.27,0,0.61-0.02,1.01-0.05l0.53-0.04c0.5-0.04,0.88-0.05,1.15-0.05
							c0.16,0,0.24,0.06,0.24,0.18c0,0.09-0.01,0.15-0.04,0.18c-0.02,0.03-0.08,0.05-0.18,0.07c-0.36,0.06-0.58,0.16-0.68,0.29
							c-0.1,0.13-0.15,0.41-0.15,0.83V33.55z"/>
						<path d="M445.02,25.77c0.11,0,0.27,0,0.49,0.02c0.56,0.05,1.06,0.08,1.5,0.08c0.45,0,0.84-0.03,1.18-0.1l0.06-0.01
							c0.1,0,0.16,0.06,0.16,0.18c0,0.11-0.08,0.19-0.23,0.24c-0.28,0.1-0.51,0.24-0.67,0.44c-0.17,0.2-0.33,0.5-0.48,0.9
							l-0.43,1.05l-0.66,1.64c-0.5,1.25-0.81,2.02-0.92,2.31c-0.44,1.14-0.73,1.85-0.85,2.13c-0.28,0.61-0.43,0.98-0.48,1.11
							c-0.06,0.17-0.16,0.26-0.29,0.26c-0.16,0-0.29-0.11-0.37-0.32c-0.03-0.08-0.14-0.36-0.35-0.86c-0.76-1.82-1.29-3.2-1.59-4.14
							c-0.06-0.21-0.13-0.31-0.22-0.31c-0.1,0.01-0.21,0.19-0.35,0.55c-0.15,0.39-0.46,1.1-0.93,2.12
							c-0.47,1.02-0.82,1.73-1.04,2.13c-0.1,0.18-0.15,0.3-0.18,0.37c-0.13,0.3-0.28,0.45-0.45,0.45c-0.16,0-0.29-0.17-0.39-0.49
							c-0.04-0.12-0.11-0.31-0.22-0.55c-0.66-1.51-1.29-3.14-1.9-4.89c-0.41-1.16-0.62-1.77-0.64-1.83l-0.39-0.99
							c-0.27-0.66-0.57-1.01-0.92-1.04c-0.12-0.01-0.18-0.08-0.18-0.2c0-0.13,0.07-0.2,0.22-0.2c0.03,0,0.21,0.01,0.54,0.02
							l0.73,0.04c0.3,0.01,0.55,0.02,0.74,0.02c0.33,0,0.72-0.02,1.17-0.06l0.13-0.01c0.16,0,0.25,0.06,0.25,0.2
							c0,0.13-0.09,0.19-0.26,0.19c-0.43,0-0.65,0.21-0.65,0.62c0,0.23,0.22,0.96,0.66,2.2l0.72,1.99l0.44,1.29l0.25,0.68
							c0.12,0.35,0.23,0.52,0.34,0.52c0.13,0,0.3-0.24,0.5-0.72c0.02-0.04,0.2-0.42,0.55-1.16c0.12-0.25,0.31-0.66,0.56-1.24
							c0.13-0.31,0.25-0.58,0.35-0.79c0.04-0.08,0.06-0.14,0.06-0.18c0-0.04-0.02-0.11-0.05-0.2c-0.08-0.19-0.2-0.51-0.35-0.96
							c-0.25-0.73-0.48-1.25-0.7-1.56c-0.22-0.31-0.48-0.49-0.79-0.54c-0.13-0.02-0.2-0.1-0.2-0.21c0-0.13,0.09-0.19,0.28-0.19
							c0.11,0,0.22,0,0.35,0.01c0.68,0.06,1.08,0.09,1.2,0.09c0.83,0,1.31-0.01,1.45-0.03c0.21-0.03,0.36-0.04,0.45-0.05
							c0.13,0,0.19,0.08,0.19,0.24c0,0.08-0.05,0.14-0.16,0.17l-0.22,0.07c-0.3,0.1-0.44,0.3-0.44,0.62c0,0.3,0.25,1.15,0.76,2.53
							l0.76,2.08l0.31,0.86c0.09,0.24,0.14,0.4,0.18,0.48c0.11,0.36,0.23,0.54,0.35,0.53c0.12,0,0.25-0.19,0.37-0.55
							c0.03-0.09,0.18-0.45,0.44-1.08c0.12-0.28,0.31-0.8,0.59-1.57c0.14-0.38,0.32-0.88,0.55-1.48c0.24-0.63,0.36-1.08,0.36-1.36
							c0-0.35-0.09-0.6-0.26-0.76c-0.17-0.16-0.49-0.29-0.98-0.39c-0.14-0.03-0.2-0.09-0.19-0.18
							C444.82,25.85,444.89,25.78,445.02,25.77z"/>
						<path d="M451.79,26.68l3.31,7.6c0.16,0.38,0.36,0.67,0.58,0.86c0.22,0.19,0.51,0.31,0.87,0.38c0.09,0.02,0.13,0.09,0.13,0.21
							c0,0.13-0.05,0.2-0.17,0.19c-0.06-0.01-0.16-0.02-0.27-0.04c-0.38-0.08-0.98-0.12-1.81-0.12c-0.84,0-1.41,0.04-1.71,0.11
							c-0.07,0.02-0.13,0.03-0.19,0.03c-0.14,0-0.21-0.07-0.21-0.21c0-0.07,0.05-0.12,0.16-0.16c0.23-0.06,0.43-0.19,0.58-0.36
							c0.15-0.17,0.23-0.36,0.23-0.55c0-0.27-0.21-0.86-0.63-1.79c-0.13-0.28-0.28-0.44-0.43-0.49c-0.16-0.04-0.72-0.06-1.67-0.06
							h-0.99l-0.65,0.12c-0.18,0.08-0.38,0.4-0.61,0.96l-0.23,0.56c-0.07,0.16-0.1,0.32-0.1,0.49c0,0.61,0.43,0.96,1.28,1.06
							c0.18,0.03,0.27,0.1,0.27,0.22c-0.01,0.13-0.1,0.2-0.26,0.2c-0.09,0-0.21-0.02-0.37-0.04c-0.32-0.06-0.61-0.09-0.86-0.09
							c-0.23,0-0.6,0.03-1.11,0.07c-0.38,0.04-0.61,0.06-0.71,0.06c-0.14,0-0.2-0.06-0.2-0.18c0-0.1,0.07-0.17,0.2-0.22
							c0.26-0.08,0.47-0.23,0.63-0.46c0.16-0.22,0.39-0.68,0.7-1.39l1.98-4.57c0.16-0.37,0.27-0.62,0.33-0.75l0.68-1.39l0.35-0.68
							v0.02c0.16-0.37,0.26-0.56,0.31-0.56c0.08,0,0.21,0.2,0.4,0.61L451.79,26.68z M452.06,31.23l-0.95-2.22
							c-0.23-0.53-0.39-0.8-0.49-0.8c-0.06,0-0.16,0.17-0.32,0.51l-0.14,0.31l-0.85,1.94l-0.08,0.18c-0.04,0.07-0.05,0.14-0.05,0.19
							c0,0.17,0.17,0.25,0.52,0.25h2.14c0.19,0,0.28-0.05,0.28-0.15c0-0.02-0.01-0.06-0.04-0.12L452.06,31.23z"/>
						<path d="M464.06,25.68c1.51,0,2.74,0.44,3.67,1.32c0.93,0.88,1.39,2.03,1.39,3.47c0,1.55-0.48,2.87-1.44,3.96
							c-0.94,1.06-2.22,1.59-3.87,1.59c-1.57,0-2.83-0.46-3.77-1.38c-0.94-0.92-1.41-2.15-1.41-3.69c0-0.66,0.12-1.31,0.36-1.97
							c0.24-0.65,0.56-1.2,0.97-1.64c0.47-0.52,1.07-0.93,1.79-1.22C462.47,25.83,463.24,25.68,464.06,25.68z M463.53,26.23
							c-0.98,0-1.74,0.36-2.29,1.08c-0.55,0.72-0.82,1.73-0.82,3.02c0,1.52,0.34,2.76,1.04,3.71c0.69,0.95,1.58,1.43,2.68,1.43
							c1,0,1.79-0.39,2.39-1.18c0.6-0.79,0.9-1.84,0.9-3.16c0-0.76-0.14-1.5-0.41-2.23c-0.28-0.72-0.64-1.3-1.11-1.73
							C465.23,26.54,464.44,26.23,463.53,26.23z"/>
						<path d="M479.54,30.86h-3.46c-0.35,0-0.56,0.05-0.64,0.13c-0.08,0.09-0.12,0.32-0.12,0.71v1.8c0,0.69,0.11,1.18,0.34,1.48
							c0.22,0.3,0.59,0.45,1.1,0.45c0.17,0,0.25,0.07,0.25,0.2c0,0.15-0.13,0.23-0.38,0.23c-0.09,0-0.26-0.01-0.52-0.04
							c-0.58-0.07-1.1-0.1-1.58-0.1c-0.3,0-0.7,0.03-1.2,0.08c-0.29,0.03-0.48,0.05-0.56,0.05c-0.15,0-0.23-0.08-0.23-0.25
							c0-0.11,0.06-0.16,0.18-0.18c0.33-0.05,0.57-0.21,0.71-0.45c0.14-0.25,0.22-0.62,0.22-1.12l0.01-0.39V27.4
							c0-0.35-0.1-0.61-0.29-0.78c-0.19-0.17-0.55-0.3-1.06-0.4c-0.14-0.03-0.21-0.1-0.21-0.21c0-0.14,0.08-0.21,0.23-0.21
							c0.09,0,0.25,0.02,0.48,0.05c0.39,0.06,0.85,0.09,1.38,0.09c0.18,0,0.56-0.03,1.15-0.09c0.35-0.04,0.61-0.05,0.79-0.05
							c0.18,0,0.26,0.07,0.26,0.2c0,0.11-0.07,0.18-0.21,0.2c-0.57,0.1-0.86,0.46-0.86,1.08v1.87c0,0.49,0.04,0.78,0.11,0.87
							c0.07,0.08,0.3,0.13,0.7,0.13h3.4c0.3,0,0.48-0.06,0.54-0.18c0.07-0.12,0.1-0.45,0.1-0.99V27.4c0-0.62-0.34-1-1.03-1.12
							l-0.34-0.07c-0.13-0.02-0.21-0.09-0.21-0.21c0-0.14,0.08-0.21,0.23-0.21c0.09,0,0.25,0.02,0.48,0.05
							c0.4,0.06,0.86,0.09,1.39,0.09c0.18,0,0.56-0.03,1.15-0.09c0.35-0.04,0.61-0.05,0.79-0.05c0.17,0,0.26,0.07,0.26,0.2
							c0,0.11-0.07,0.18-0.21,0.2c-0.57,0.1-0.86,0.46-0.86,1.08v6.23c0,0.69,0.11,1.18,0.33,1.48c0.22,0.3,0.58,0.45,1.08,0.45
							c0.18,0,0.27,0.07,0.27,0.2c0,0.15-0.12,0.23-0.38,0.23c-0.09,0-0.26-0.01-0.51-0.04c-0.58-0.07-1.11-0.1-1.58-0.1
							c-0.3,0-0.71,0.03-1.21,0.08c-0.29,0.03-0.48,0.05-0.56,0.05c-0.15,0-0.23-0.08-0.23-0.25c0-0.11,0.06-0.16,0.19-0.18
							c0.33-0.05,0.56-0.21,0.71-0.45c0.15-0.25,0.21-0.62,0.21-1.12l0.01-0.39v-1.6c0-0.48-0.03-0.76-0.09-0.87
							C480.02,30.91,479.84,30.86,479.54,30.86z"/>
						<path d="M489.36,26.68l3.31,7.6c0.16,0.38,0.35,0.67,0.58,0.86c0.22,0.19,0.51,0.31,0.87,0.38c0.09,0.02,0.13,0.09,0.13,0.21
							c0,0.13-0.05,0.2-0.17,0.19c-0.06-0.01-0.16-0.02-0.28-0.04c-0.38-0.08-0.98-0.12-1.81-0.12c-0.84,0-1.41,0.04-1.71,0.11
							c-0.08,0.02-0.14,0.03-0.19,0.03c-0.13,0-0.2-0.07-0.2-0.21c0-0.07,0.05-0.12,0.16-0.16c0.23-0.06,0.43-0.19,0.58-0.36
							c0.15-0.17,0.23-0.36,0.23-0.55c0-0.27-0.21-0.86-0.63-1.79c-0.13-0.28-0.28-0.44-0.43-0.49c-0.16-0.04-0.71-0.06-1.67-0.06
							h-0.99l-0.65,0.12c-0.18,0.08-0.38,0.4-0.61,0.96l-0.22,0.56c-0.07,0.16-0.1,0.32-0.1,0.49c0,0.61,0.42,0.96,1.28,1.06
							c0.18,0.03,0.27,0.1,0.27,0.22c-0.01,0.13-0.1,0.2-0.26,0.2c-0.09,0-0.21-0.02-0.37-0.04c-0.32-0.06-0.61-0.09-0.86-0.09
							c-0.23,0-0.6,0.03-1.1,0.07c-0.38,0.04-0.62,0.06-0.71,0.06c-0.13,0-0.2-0.06-0.2-0.18c0-0.1,0.07-0.17,0.2-0.22
							c0.26-0.08,0.47-0.23,0.63-0.46c0.16-0.22,0.39-0.68,0.7-1.39l1.98-4.57c0.16-0.37,0.27-0.62,0.33-0.75l0.68-1.39l0.35-0.68
							v0.02c0.15-0.37,0.26-0.56,0.31-0.56c0.08,0,0.21,0.2,0.41,0.61L489.36,26.68z M489.63,31.23l-0.95-2.22
							c-0.23-0.53-0.39-0.8-0.48-0.8c-0.06,0-0.17,0.17-0.32,0.51l-0.14,0.31l-0.85,1.94l-0.08,0.18c-0.03,0.07-0.05,0.14-0.05,0.19
							c0,0.17,0.17,0.25,0.52,0.25h2.15c0.18,0,0.28-0.05,0.28-0.15c0-0.02-0.01-0.06-0.04-0.12L489.63,31.23z"/>
						<path d="M503.95,25.77c0.11,0,0.27,0,0.49,0.02c0.56,0.05,1.06,0.08,1.49,0.08c0.45,0,0.84-0.03,1.18-0.1l0.06-0.01
							c0.11,0,0.16,0.06,0.16,0.18c0,0.11-0.08,0.19-0.23,0.24c-0.28,0.1-0.51,0.24-0.67,0.44c-0.17,0.2-0.33,0.5-0.49,0.9
							l-0.43,1.05l-0.66,1.64c-0.51,1.25-0.81,2.02-0.92,2.31c-0.45,1.14-0.73,1.85-0.85,2.13c-0.28,0.61-0.44,0.98-0.48,1.11
							c-0.07,0.17-0.16,0.26-0.29,0.26c-0.16,0-0.29-0.11-0.37-0.32c-0.03-0.08-0.14-0.36-0.35-0.86c-0.76-1.82-1.29-3.2-1.58-4.14
							c-0.07-0.21-0.14-0.31-0.22-0.31c-0.1,0.01-0.21,0.19-0.35,0.55c-0.15,0.39-0.46,1.1-0.93,2.12
							c-0.47,1.02-0.81,1.73-1.03,2.13c-0.09,0.18-0.15,0.3-0.18,0.37c-0.13,0.3-0.28,0.45-0.45,0.45c-0.16,0-0.29-0.17-0.39-0.49
							c-0.04-0.12-0.11-0.31-0.22-0.55c-0.66-1.51-1.29-3.14-1.9-4.89c-0.41-1.16-0.62-1.77-0.64-1.83l-0.39-0.99
							c-0.26-0.66-0.57-1.01-0.92-1.04c-0.12-0.01-0.18-0.08-0.18-0.2c0-0.13,0.08-0.2,0.23-0.2c0.04,0,0.21,0.01,0.54,0.02
							l0.73,0.04c0.3,0.01,0.55,0.02,0.74,0.02c0.33,0,0.73-0.02,1.17-0.06l0.12-0.01c0.16,0,0.25,0.06,0.25,0.2
							c0,0.13-0.09,0.19-0.26,0.19c-0.43,0-0.65,0.21-0.65,0.62c0,0.23,0.22,0.96,0.66,2.2l0.71,1.99l0.45,1.29l0.25,0.68
							c0.12,0.35,0.23,0.52,0.34,0.52c0.13,0,0.29-0.24,0.5-0.72c0.01-0.04,0.2-0.42,0.55-1.16c0.12-0.25,0.31-0.66,0.56-1.24
							c0.14-0.31,0.25-0.58,0.35-0.79c0.04-0.08,0.06-0.14,0.06-0.18c0-0.04-0.02-0.11-0.05-0.2c-0.08-0.19-0.2-0.51-0.35-0.96
							c-0.24-0.73-0.48-1.25-0.7-1.56c-0.22-0.31-0.48-0.49-0.78-0.54c-0.13-0.02-0.2-0.1-0.2-0.21c0-0.13,0.1-0.19,0.28-0.19
							c0.11,0,0.22,0,0.35,0.01c0.68,0.06,1.08,0.09,1.2,0.09c0.83,0,1.31-0.01,1.45-0.03c0.21-0.03,0.36-0.04,0.44-0.05
							c0.12,0,0.19,0.08,0.19,0.24c0,0.08-0.06,0.14-0.16,0.17l-0.23,0.07c-0.29,0.1-0.44,0.3-0.44,0.62c0,0.3,0.25,1.15,0.76,2.53
							l0.76,2.08l0.31,0.86c0.09,0.24,0.14,0.4,0.17,0.48c0.11,0.36,0.23,0.54,0.36,0.53c0.12,0,0.24-0.19,0.37-0.55
							c0.03-0.09,0.18-0.45,0.44-1.08c0.12-0.28,0.31-0.8,0.59-1.57c0.14-0.38,0.32-0.88,0.55-1.48c0.24-0.63,0.36-1.08,0.36-1.36
							c0-0.35-0.09-0.6-0.25-0.76c-0.17-0.16-0.49-0.29-0.98-0.39c-0.14-0.03-0.21-0.09-0.19-0.18
							C503.75,25.85,503.82,25.78,503.95,25.77z"/>
						<path d="M510.72,26.68l3.31,7.6c0.16,0.38,0.36,0.67,0.58,0.86c0.23,0.19,0.51,0.31,0.87,0.38c0.08,0.02,0.13,0.09,0.13,0.21
							c0,0.13-0.05,0.2-0.17,0.19c-0.06-0.01-0.15-0.02-0.28-0.04c-0.37-0.08-0.98-0.12-1.81-0.12c-0.84,0-1.4,0.04-1.71,0.11
							c-0.07,0.02-0.13,0.03-0.19,0.03c-0.13,0-0.2-0.07-0.2-0.21c0-0.07,0.05-0.12,0.16-0.16c0.23-0.06,0.43-0.19,0.58-0.36
							c0.15-0.17,0.23-0.36,0.23-0.55c0-0.27-0.21-0.86-0.63-1.79c-0.13-0.28-0.27-0.44-0.43-0.49c-0.16-0.04-0.71-0.06-1.67-0.06
							h-0.98l-0.65,0.12c-0.18,0.08-0.38,0.4-0.61,0.96l-0.23,0.56c-0.07,0.16-0.1,0.32-0.1,0.49c0,0.61,0.43,0.96,1.28,1.06
							c0.18,0.03,0.27,0.1,0.27,0.22c-0.01,0.13-0.1,0.2-0.26,0.2c-0.09,0-0.21-0.02-0.37-0.04c-0.32-0.06-0.61-0.09-0.86-0.09
							c-0.23,0-0.6,0.03-1.11,0.07c-0.38,0.04-0.61,0.06-0.71,0.06c-0.13,0-0.2-0.06-0.2-0.18c0-0.1,0.07-0.17,0.2-0.22
							c0.26-0.08,0.47-0.23,0.63-0.46c0.16-0.22,0.39-0.68,0.7-1.39l1.98-4.57c0.16-0.37,0.27-0.62,0.33-0.75l0.68-1.39l0.35-0.68
							v0.02c0.16-0.37,0.26-0.56,0.31-0.56c0.08,0,0.21,0.2,0.4,0.61L510.72,26.68z M510.99,31.23l-0.95-2.22
							c-0.23-0.53-0.39-0.8-0.48-0.8c-0.06,0-0.17,0.17-0.32,0.51l-0.14,0.31l-0.85,1.94l-0.08,0.18c-0.03,0.07-0.05,0.14-0.05,0.19
							c0,0.17,0.17,0.25,0.53,0.25h2.15c0.18,0,0.28-0.05,0.28-0.15c0-0.02-0.01-0.06-0.04-0.12L510.99,31.23z"/>
						<path d="M518.71,33.55l0.06,0.73c0.06,0.37,0.2,0.66,0.43,0.86c0.22,0.2,0.52,0.3,0.88,0.3c0.24,0,0.36,0.07,0.36,0.22
							c0,0.14-0.16,0.21-0.47,0.21c-0.13,0-0.33-0.01-0.58-0.04c-0.63-0.07-1.14-0.11-1.53-0.11c-0.49,0-0.87,0.03-1.15,0.08
							c-0.24,0.04-0.42,0.07-0.52,0.07c-0.11,0-0.17-0.05-0.21-0.16l-0.01-0.06l0.21-0.17c0.35-0.13,0.58-0.28,0.69-0.46
							c0.11-0.18,0.17-0.48,0.17-0.9l0.01-0.65v-5.78c0-0.44-0.08-0.76-0.23-0.95c-0.15-0.19-0.44-0.32-0.85-0.38
							c-0.25-0.04-0.4-0.08-0.47-0.11c-0.07-0.04-0.11-0.1-0.11-0.19c0-0.14,0.06-0.21,0.18-0.2c0.09,0,0.21,0.03,0.39,0.06
							c0.18,0.04,0.47,0.05,0.88,0.05c0.27,0,0.61-0.02,1.01-0.05l0.53-0.04c0.5-0.04,0.88-0.05,1.14-0.05
							c0.16,0,0.24,0.06,0.24,0.18c0,0.09-0.01,0.15-0.04,0.18c-0.03,0.03-0.09,0.05-0.19,0.07c-0.35,0.06-0.57,0.16-0.68,0.29
							c-0.1,0.13-0.15,0.41-0.15,0.83V33.55z"/>
						<path d="M526.79,33.55l0.06,0.73c0.06,0.37,0.2,0.66,0.43,0.86c0.22,0.2,0.52,0.3,0.88,0.3c0.24,0,0.36,0.07,0.36,0.22
							c0,0.14-0.16,0.21-0.47,0.21c-0.14,0-0.33-0.01-0.58-0.04c-0.63-0.07-1.14-0.11-1.54-0.11c-0.48,0-0.87,0.03-1.15,0.08
							c-0.24,0.04-0.42,0.07-0.52,0.07c-0.11,0-0.18-0.05-0.21-0.16l-0.01-0.06l0.21-0.17c0.35-0.13,0.58-0.28,0.69-0.46
							c0.11-0.18,0.17-0.48,0.17-0.9l0.01-0.65v-5.78c0-0.44-0.08-0.76-0.23-0.95c-0.15-0.19-0.44-0.32-0.85-0.38
							c-0.25-0.04-0.4-0.08-0.47-0.11c-0.07-0.04-0.11-0.1-0.11-0.19c0-0.14,0.06-0.21,0.17-0.2c0.09,0,0.22,0.03,0.39,0.06
							c0.17,0.04,0.47,0.05,0.88,0.05c0.27,0,0.61-0.02,1.01-0.05l0.53-0.04c0.5-0.04,0.88-0.05,1.15-0.05
							c0.16,0,0.24,0.06,0.24,0.18c0,0.09-0.01,0.15-0.04,0.18c-0.03,0.03-0.09,0.05-0.19,0.07c-0.35,0.06-0.57,0.16-0.68,0.29
							c-0.1,0.13-0.15,0.41-0.15,0.83V33.55z"/>
					</g>
					<rect x="366.74" y="24.74" width="4.61" height="0.54"/>
					<g>
						<g>
							<path d="M522.78,23.44c0.07,0,0.1,0.04,0.1,0.11c0,0.07-0.07,0.16-0.23,0.28c-0.21,0.17-0.38,0.38-0.52,0.65
								c-0.14,0.27-0.21,0.53-0.21,0.78c0,0.42,0.22,0.78,0.67,1.08c0.21,0.14,0.31,0.26,0.31,0.38c0,0.08-0.03,0.16-0.1,0.23
								l-0.44,0.47c-0.32,0.34-0.55,0.52-0.68,0.52c-0.27,0-0.53-0.15-0.76-0.46c-0.23-0.3-0.35-0.64-0.35-1
								c0-0.79,0.32-1.52,0.95-2.18c0.21-0.22,0.45-0.42,0.7-0.6C522.49,23.53,522.67,23.44,522.78,23.44z"/>
						</g>
					</g>
				</g>
			</g>
		</g>
	</g>
</g>
<g>
	<g>
		<path d="M504.33,51.72c4.02,0,7.26,1.51,9.73,4.53c2.47,3.02,3.71,6.99,3.71,11.91c0,5.34-1.27,9.87-3.82,13.59
			c-2.49,3.63-5.91,5.44-10.27,5.44c-4.17,0-7.5-1.58-10-4.73c-2.49-3.16-3.74-7.38-3.74-12.66c0-2.26,0.32-4.52,0.94-6.76
			c0.63-2.24,1.49-4.12,2.57-5.63c1.24-1.78,2.83-3.18,4.75-4.18C500.12,52.23,502.17,51.72,504.33,51.72z M503.07,53.59
			c-2.25,0-4.01,1.24-5.28,3.72c-1.27,2.48-1.9,5.93-1.9,10.36c0,5.22,0.8,9.47,2.39,12.74c1.59,3.27,3.66,4.91,6.2,4.91
			c2.3,0,4.13-1.35,5.52-4.06c1.38-2.7,2.07-6.32,2.07-10.85c0-2.61-0.32-5.16-0.96-7.65c-0.64-2.49-1.49-4.46-2.56-5.93
			C507.01,54.67,505.18,53.59,503.07,53.59z"/>
	</g>
	<g>
		<path d="M484.75,76.82c0.41,0,0.63,0.15,0.66,0.45l-0.05,0.26l-0.4,1.17c-0.25,0.72-0.56,1.47-0.93,2.25l-1.35,2.83
			c-0.53,1.09-0.99,1.76-1.39,2s-1.24,0.36-2.53,0.36c-0.78,0-1.71-0.03-2.81-0.08l-2.25-0.13c-0.85-0.04-2.04-0.05-3.57-0.05
			c-2.88,0-4.68,0.06-5.4,0.19c-0.49,0.09-0.86,0.13-1.08,0.13c-0.55,0-0.82-0.24-0.82-0.72c0-0.34,0.52-1.09,1.57-2.25
			c1.63-1.86,3.49-4.3,5.6-7.34s3.66-5.53,4.67-7.47c1.34-2.61,2.02-4.97,2.02-7.08c0-1.82-0.51-3.27-1.54-4.34
			c-1.03-1.08-2.4-1.62-4.11-1.62c-2.44,0-4.63,1.1-6.58,3.31c-0.18,0.21-0.34,0.32-0.48,0.32c-0.12,0-0.26-0.07-0.41-0.22
			c-0.15-0.15-0.23-0.29-0.23-0.44c0-0.23,0.27-0.72,0.82-1.47c0.55-0.75,1.12-1.41,1.72-1.97c2.35-2.31,5.06-3.47,8.13-3.47
			c2.44,0,4.4,0.68,5.9,2.03c1.5,1.35,2.25,3.13,2.25,5.34c0,3.99-3.46,9.95-10.38,17.86l-1.27,1.46c-0.74,0.83-1.11,1.42-1.11,1.78
			c0,0.62,0.74,0.93,2.22,0.93l4.33-0.05l2.54-0.03c1.13-0.05,2.23-0.41,3.3-1.07c1.07-0.66,1.88-1.47,2.4-2.45
			C484.35,76.95,484.54,76.82,484.75,76.82z"/>
		<path d="M540.59,76.82c0.41,0,0.63,0.15,0.66,0.45l-0.05,0.26l-0.4,1.17c-0.25,0.72-0.56,1.47-0.93,2.25l-1.35,2.83
			c-0.53,1.09-0.99,1.76-1.39,2s-1.24,0.36-2.53,0.36c-0.78,0-1.71-0.03-2.81-0.08l-2.25-0.13c-0.85-0.04-2.04-0.05-3.57-0.05
			c-2.88,0-4.68,0.06-5.4,0.19c-0.49,0.09-0.86,0.13-1.08,0.13c-0.55,0-0.82-0.24-0.82-0.72c0-0.34,0.52-1.09,1.57-2.25
			c1.63-1.86,3.49-4.3,5.6-7.34s3.66-5.53,4.67-7.47c1.34-2.61,2.02-4.97,2.02-7.08c0-1.82-0.51-3.27-1.54-4.34
			c-1.03-1.08-2.4-1.62-4.11-1.62c-2.44,0-4.63,1.1-6.58,3.31c-0.18,0.21-0.34,0.32-0.48,0.32c-0.12,0-0.26-0.07-0.41-0.22
			c-0.15-0.15-0.23-0.29-0.23-0.44c0-0.23,0.27-0.72,0.82-1.47c0.55-0.75,1.12-1.41,1.72-1.97c2.35-2.31,5.06-3.47,8.13-3.47
			c2.44,0,4.4,0.68,5.9,2.03c1.5,1.35,2.25,3.13,2.25,5.34c0,3.99-3.46,9.95-10.38,17.86l-1.27,1.46c-0.74,0.83-1.11,1.42-1.11,1.78
			c0,0.62,0.74,0.93,2.22,0.93l4.33-0.05l2.54-0.03c1.13-0.05,2.23-0.41,3.3-1.07c1.07-0.66,1.88-1.47,2.4-2.45
			C540.2,76.95,540.38,76.82,540.59,76.82z"/>
		<path d="M567.7,76.82c0.41,0,0.63,0.15,0.66,0.45l-0.05,0.26l-0.4,1.17c-0.25,0.72-0.56,1.47-0.93,2.25l-1.35,2.83
			c-0.53,1.09-0.99,1.76-1.39,2s-1.24,0.36-2.53,0.36c-0.78,0-1.71-0.03-2.81-0.08l-2.25-0.13c-0.85-0.04-2.04-0.05-3.57-0.05
			c-2.88,0-4.68,0.06-5.4,0.19c-0.49,0.09-0.86,0.13-1.08,0.13c-0.55,0-0.82-0.24-0.82-0.72c0-0.34,0.52-1.09,1.57-2.25
			c1.63-1.86,3.49-4.3,5.6-7.34s3.66-5.53,4.67-7.47c1.34-2.61,2.02-4.97,2.02-7.08c0-1.82-0.51-3.27-1.54-4.34
			c-1.03-1.08-2.4-1.62-4.11-1.62c-2.44,0-4.63,1.1-6.58,3.31c-0.18,0.21-0.34,0.32-0.48,0.32c-0.12,0-0.26-0.07-0.41-0.22
			c-0.15-0.15-0.23-0.29-0.23-0.44c0-0.23,0.27-0.72,0.82-1.47c0.55-0.75,1.12-1.41,1.72-1.97c2.35-2.31,5.06-3.47,8.13-3.47
			c2.44,0,4.4,0.68,5.9,2.03c1.5,1.35,2.25,3.13,2.25,5.34c0,3.99-3.46,9.95-10.38,17.86l-1.27,1.46c-0.74,0.83-1.11,1.42-1.11,1.78
			c0,0.62,0.74,0.93,2.22,0.93l4.33-0.05l2.54-0.03c1.13-0.05,2.23-0.41,3.3-1.07c1.07-0.66,1.88-1.47,2.4-2.45
			C567.31,76.95,567.49,76.82,567.7,76.82z"/>
	</g>
</g>
<g>
	<g>
		<path d="M545.56,25.48c1.23,0,2.21,0.46,2.97,1.38c0.75,0.92,1.13,2.13,1.13,3.63c0,1.63-0.39,3.01-1.16,4.14
			c-0.76,1.11-1.8,1.66-3.13,1.66c-1.27,0-2.29-0.48-3.05-1.44c-0.76-0.96-1.14-2.25-1.14-3.86c0-0.69,0.1-1.38,0.29-2.06
			c0.19-0.68,0.45-1.26,0.78-1.72c0.38-0.54,0.86-0.97,1.45-1.28C544.27,25.64,544.9,25.48,545.56,25.48z M545.17,26.05
			c-0.69,0-1.23,0.38-1.61,1.14c-0.39,0.76-0.58,1.81-0.58,3.16c0,1.6,0.24,2.89,0.73,3.88c0.48,1,1.12,1.5,1.89,1.5
			c0.7,0,1.26-0.41,1.68-1.24c0.42-0.83,0.63-1.93,0.63-3.31c0-0.79-0.1-1.57-0.29-2.33c-0.2-0.76-0.45-1.36-0.78-1.81
			C546.37,26.38,545.81,26.05,545.17,26.05z"/>
	</g>
	<g>
		<path d="M540.03,33.14c0.12,0,0.19,0.05,0.2,0.14l-0.02,0.08l-0.12,0.36c-0.08,0.22-0.17,0.46-0.29,0.7l-0.42,0.88
			c-0.16,0.34-0.31,0.54-0.43,0.62c-0.12,0.07-0.38,0.11-0.78,0.11c-0.24,0-0.53-0.01-0.87-0.02l-0.7-0.04
			c-0.26-0.01-0.63-0.02-1.1-0.02c-0.89,0-1.45,0.02-1.67,0.06c-0.15,0.03-0.26,0.04-0.33,0.04c-0.17,0-0.25-0.07-0.25-0.22
			c0-0.1,0.16-0.34,0.48-0.7c0.5-0.57,1.08-1.33,1.73-2.27c0.65-0.94,1.13-1.71,1.44-2.31c0.42-0.81,0.62-1.54,0.62-2.19
			c0-0.56-0.16-1.01-0.48-1.34c-0.32-0.33-0.74-0.5-1.27-0.5c-0.75,0-1.43,0.34-2.03,1.02c-0.05,0.07-0.1,0.1-0.15,0.1
			c-0.04,0-0.08-0.02-0.13-0.07c-0.05-0.05-0.07-0.09-0.07-0.13c0-0.07,0.08-0.22,0.25-0.45c0.17-0.23,0.35-0.44,0.53-0.61
			c0.73-0.71,1.56-1.07,2.51-1.07c0.75,0,1.36,0.21,1.82,0.63c0.46,0.42,0.7,0.97,0.7,1.65c0,1.23-1.07,3.07-3.21,5.52l-0.39,0.45
			c-0.23,0.26-0.34,0.44-0.34,0.55c0,0.19,0.23,0.29,0.69,0.29l1.34-0.02l0.78-0.01c0.35-0.02,0.69-0.13,1.02-0.33
			s0.58-0.46,0.74-0.76C539.91,33.18,539.96,33.14,540.03,33.14z"/>
		<path d="M556.62,33.14c0.12,0,0.19,0.05,0.2,0.14l-0.02,0.08l-0.12,0.36c-0.08,0.22-0.17,0.46-0.29,0.7l-0.42,0.88
			c-0.16,0.34-0.31,0.54-0.43,0.62c-0.12,0.07-0.38,0.11-0.78,0.11c-0.24,0-0.53-0.01-0.87-0.02l-0.7-0.04
			c-0.26-0.01-0.63-0.02-1.1-0.02c-0.89,0-1.45,0.02-1.67,0.06c-0.15,0.03-0.26,0.04-0.33,0.04c-0.17,0-0.25-0.07-0.25-0.22
			c0-0.1,0.16-0.34,0.48-0.7c0.5-0.57,1.08-1.33,1.73-2.27c0.65-0.94,1.13-1.71,1.44-2.31c0.42-0.81,0.62-1.54,0.62-2.19
			c0-0.56-0.16-1.01-0.48-1.34c-0.32-0.33-0.74-0.5-1.27-0.5c-0.75,0-1.43,0.34-2.03,1.02c-0.05,0.07-0.1,0.1-0.15,0.1
			c-0.04,0-0.08-0.02-0.13-0.07c-0.05-0.05-0.07-0.09-0.07-0.13c0-0.07,0.08-0.22,0.25-0.45c0.17-0.23,0.35-0.44,0.53-0.61
			c0.73-0.71,1.56-1.07,2.51-1.07c0.75,0,1.36,0.21,1.82,0.63c0.46,0.42,0.7,0.97,0.7,1.65c0,1.23-1.07,3.07-3.21,5.52l-0.39,0.45
			c-0.23,0.26-0.34,0.44-0.34,0.55c0,0.19,0.23,0.29,0.69,0.29l1.34-0.02l0.78-0.01c0.35-0.02,0.69-0.13,1.02-0.33
			s0.58-0.46,0.74-0.76C556.5,33.18,556.55,33.14,556.62,33.14z"/>
		<path d="M564.66,33.14c0.12,0,0.19,0.05,0.2,0.14l-0.02,0.08l-0.12,0.36c-0.08,0.22-0.17,0.46-0.29,0.7l-0.42,0.88
			c-0.16,0.34-0.31,0.54-0.43,0.62c-0.12,0.07-0.38,0.11-0.78,0.11c-0.24,0-0.53-0.01-0.87-0.02l-0.7-0.04
			c-0.26-0.01-0.63-0.02-1.1-0.02c-0.89,0-1.45,0.02-1.67,0.06c-0.15,0.03-0.26,0.04-0.33,0.04c-0.17,0-0.25-0.07-0.25-0.22
			c0-0.1,0.16-0.34,0.48-0.7c0.5-0.57,1.08-1.33,1.73-2.27c0.65-0.94,1.13-1.71,1.44-2.31c0.42-0.81,0.62-1.54,0.62-2.19
			c0-0.56-0.16-1.01-0.48-1.34c-0.32-0.33-0.74-0.5-1.27-0.5c-0.75,0-1.43,0.34-2.03,1.02c-0.05,0.07-0.1,0.1-0.15,0.1
			c-0.04,0-0.08-0.02-0.13-0.07c-0.05-0.05-0.07-0.09-0.07-0.13c0-0.07,0.08-0.22,0.25-0.45c0.17-0.23,0.35-0.44,0.53-0.61
			c0.73-0.71,1.56-1.07,2.51-1.07c0.75,0,1.36,0.21,1.82,0.63c0.46,0.42,0.7,0.97,0.7,1.65c0,1.23-1.07,3.07-3.21,5.52l-0.39,0.45
			c-0.23,0.26-0.34,0.44-0.34,0.55c0,0.19,0.23,0.29,0.69,0.29l1.34-0.02l0.78-0.01c0.35-0.02,0.69-0.13,1.02-0.33
			s0.58-0.46,0.74-0.76C564.54,33.18,564.59,33.14,564.66,33.14z"/>
	</g>
</g>
</svg>
