<svg xmlns="http://www.w3.org/2000/svg" viewBox="0 0 544.98 82.8"><defs><style>.cls-1{fill:#fff100;}.cls-2{fill:#f39800;}.cls-3{fill:#e60012;}.cls-4{fill:#e40080;}.cls-5{fill:#8fc31f;}.cls-6{fill:#00a0e9;}.cls-7{fill:#2c4198;}.cls-8{fill:#231815;}.cls-9{fill:#fff;}</style></defs><g id="レイヤー_2" data-name="レイヤー 2"><g id="レイヤー_1-2" data-name="レイヤー 1"><path class="cls-1" d="M24.58,39a2.93,2.93,0,1,1-2.93-2.94A2.93,2.93,0,0,1,24.58,39Z"/><path class="cls-2" d="M18.39,38.3a2.93,2.93,0,1,1-2.93-2.94A2.93,2.93,0,0,1,18.39,38.3Z"/><path class="cls-3" d="M12.49,36.09a2.93,2.93,0,1,1-2.93-2.93A2.93,2.93,0,0,1,12.49,36.09Z"/><path class="cls-4" d="M7.7,32.17a2.94,2.94,0,1,1-2.94-2.92A2.94,2.94,0,0,1,7.7,32.17Z"/><path class="cls-5" d="M24.85,38.3a2.93,2.93,0,1,0,2.93-2.94A2.93,2.93,0,0,0,24.85,38.3Z"/><path class="cls-6" d="M30.74,36.09a2.94,2.94,0,1,0,2.94-2.93A2.94,2.94,0,0,0,30.74,36.09Z"/><path class="cls-7" d="M35.54,32.17a2.93,2.93,0,1,0,2.93-2.92A2.93,2.93,0,0,0,35.54,32.17Z"/><path class="cls-8" d="M29.89,42.4a2.29,2.29,0,0,0-.66,3.17C32.78,51,38.4,61,38.4,64.72c0,4.73-3.15,9.18-8.24,11.61a20.26,20.26,0,0,1-17.09,0C8,73.9,4.84,69.45,4.84,64.72,4.84,61,10.45,51,14,45.58a2.29,2.29,0,1,0-3.83-2.51c-.1.15-2.46,3.77-4.86,8.16-3.4,6.23-5,10.64-5,13.49,0,6.51,4.15,12.54,10.83,15.74a24.84,24.84,0,0,0,21.05,0C38.83,77.26,43,71.23,43,64.72c0-2.85-1.65-7.26-5-13.49-2.4-4.4-4.77-8-4.87-8.17A2.29,2.29,0,0,0,29.89,42.4Z"/><path class="cls-8" d="M14,11.39a7.65,7.65,0,1,0,7.65-7.65A7.65,7.65,0,0,0,14,11.39Zm4.58,0a3.07,3.07,0,1,1,3.07,3.07A3.08,3.08,0,0,1,18.55,11.39Z"/><path class="cls-8" d="M11,.21C4.22,3.27,0,9.06,0,15.33S4.22,27.39,11,30.45a2.29,2.29,0,1,0,1.88-4.17c-5.13-2.32-8.31-6.51-8.31-11S7.76,6.69,12.89,4.38A2.29,2.29,0,1,0,11,.21Z"/><path class="cls-8" d="M29.19,1.35a2.29,2.29,0,0,0,1.15,3c5.13,2.31,8.32,6.5,8.32,11s-3.19,8.63-8.32,11a2.29,2.29,0,0,0,1.89,4.17c6.79-3.06,11-8.85,11-15.12S39,3.26,32.22.2A2.29,2.29,0,0,0,29.19,1.35Z"/><path class="cls-9" d="M22.1,66.75l-1.54-2.62a.28.28,0,0,0-.48,0l-1.54,2.62A.28.28,0,0,0,19,67s.23-.37.5-.83l.05,0a1.58,1.58,0,0,0,1.5,0l.05,0c.28.46.49.83.49.83a.28.28,0,0,0,.39.1A.26.26,0,0,0,22.1,66.75Zm-1.3-1a1,1,0,0,1-.48.12,1.13,1.13,0,0,1-.48-.11s0,0-.05,0l.53-.9.52.9Z"/><path class="cls-9" d="M14.84,64.27v2.62a.29.29,0,1,0,.57,0V64.27a.29.29,0,0,0-.57,0Z"/><path class="cls-9" d="M14.45,65.56V64.27a.28.28,0,0,0-.28-.28.29.29,0,0,0-.29.28V65a2.48,2.48,0,0,0-1-.22,2.35,2.35,0,0,0-1.05.21v-.75a.29.29,0,0,0-.57,0v1.28h0v1.33a.29.29,0,1,0,.57,0V65.68a1.74,1.74,0,0,1,1.05-.3,1.71,1.71,0,0,1,1,.31v1.2a.29.29,0,0,0,.29.29.28.28,0,0,0,.28-.29V65.57Z"/><path class="cls-9" d="M24.83,65.51V64.27a.29.29,0,0,0-.29-.28.28.28,0,0,0-.28.28V65a2.64,2.64,0,0,0-1-.21,2.54,2.54,0,0,0-1.06.21v-.7a.28.28,0,0,0-.28-.28.29.29,0,0,0-.29.28V65.5a.3.3,0,0,0,.09.21l0,0h0l.05,0h.05a.31.31,0,0,0,.21,0h0a0,0,0,0,0,0,0l0,0h0a1.88,1.88,0,0,1,2.18-.06v1.25a.28.28,0,0,0,.28.29.29.29,0,0,0,.29-.29V65.52Z"/><path class="cls-9" d="M25.27,64.27v2.62a.29.29,0,1,0,.57,0V64.27a.29.29,0,0,0-.57,0Z"/><path class="cls-9" d="M19,64.13l-1,1.71V64.27a.29.29,0,0,0-.21-.27.28.28,0,0,0-.32.13l-1,1.73V64.27a.29.29,0,0,0-.57,0v2.62a.28.28,0,0,0,.21.27.26.26,0,0,0,.32-.13l1-1.72v1.58a.28.28,0,0,0,.21.27.27.27,0,0,0,.32-.13l1.52-2.61a.28.28,0,0,0-.1-.39A.29.29,0,0,0,19,64.13Z"/><path class="cls-9" d="M32.53,66.75,31,64.13a.3.3,0,0,0-.25-.14.27.27,0,0,0-.24.14L29,66.75a.27.27,0,0,0,.1.38.28.28,0,0,0,.39-.1s.22-.37.48-.83l.06,0a1.58,1.58,0,0,0,1.5,0l.06,0c.26.46.49.83.49.83a.28.28,0,0,0,.39.1A.27.27,0,0,0,32.53,66.75Zm-1.3-1a1,1,0,0,1-.48.12,1.13,1.13,0,0,1-.48-.11,0,0,0,0,0,0,0l.52-.9.52.9Z"/><path class="cls-9" d="M29.39,64.13s-.54.94-1,1.71V64.27a.28.28,0,0,0-.52-.14l-1,1.73V64.27a.29.29,0,0,0-.57,0v2.62a.28.28,0,0,0,.21.27A.26.26,0,0,0,26.8,67s.56-1,1-1.72v1.58a.28.28,0,0,0,.53.14l1.52-2.61a.28.28,0,0,0-.49-.29Z"/><path class="cls-8" d="M22.1,66.75l-1.54-2.62a.28.28,0,0,0-.48,0l-1.54,2.62A.28.28,0,0,0,19,67s.23-.37.5-.83l.05,0a1.58,1.58,0,0,0,1.5,0l.05,0c.28.46.49.83.49.83a.28.28,0,0,0,.39.1A.26.26,0,0,0,22.1,66.75Zm-1.3-1a1,1,0,0,1-.48.12,1.13,1.13,0,0,1-.48-.11s0,0-.05,0l.53-.9.52.9Z"/><path class="cls-8" d="M14.84,64.27v2.62a.29.29,0,1,0,.57,0V64.27a.29.29,0,0,0-.57,0Z"/><path class="cls-8" d="M14.45,65.56V64.27a.28.28,0,0,0-.28-.28.29.29,0,0,0-.29.28V65a2.48,2.48,0,0,0-1-.22,2.35,2.35,0,0,0-1.05.21v-.75a.29.29,0,0,0-.57,0v1.28h0v1.33a.29.29,0,1,0,.57,0V65.68a1.74,1.74,0,0,1,1.05-.3,1.71,1.71,0,0,1,1,.31v1.2a.29.29,0,0,0,.29.29.28.28,0,0,0,.28-.29V65.57Z"/><path class="cls-8" d="M24.83,65.51V64.27a.29.29,0,0,0-.29-.28.28.28,0,0,0-.28.28V65a2.64,2.64,0,0,0-1-.21,2.54,2.54,0,0,0-1.06.21v-.7a.28.28,0,0,0-.28-.28.29.29,0,0,0-.29.28V65.5a.3.3,0,0,0,.09.21l0,0h0l.05,0h.05a.31.31,0,0,0,.21,0h0a0,0,0,0,0,0,0l0,0h0a1.88,1.88,0,0,1,2.18-.06v1.25a.28.28,0,0,0,.28.29.29.29,0,0,0,.29-.29V65.52Z"/><path class="cls-8" d="M25.27,64.27v2.62a.29.29,0,1,0,.57,0V64.27a.29.29,0,0,0-.57,0Z"/><path class="cls-8" d="M19,64.13l-1,1.71V64.27a.29.29,0,0,0-.21-.27.28.28,0,0,0-.32.13l-1,1.73V64.27a.29.29,0,0,0-.57,0v2.62a.28.28,0,0,0,.21.27.26.26,0,0,0,.32-.13l1-1.72v1.58a.28.28,0,0,0,.21.27.27.27,0,0,0,.32-.13l1.52-2.61a.28.28,0,0,0-.1-.39A.29.29,0,0,0,19,64.13Z"/><path class="cls-8" d="M32.53,66.75,31,64.13a.3.3,0,0,0-.25-.14.27.27,0,0,0-.24.14L29,66.75a.27.27,0,0,0,.1.38.28.28,0,0,0,.39-.1s.22-.37.48-.83l.06,0a1.58,1.58,0,0,0,1.5,0l.06,0c.26.46.49.83.49.83a.28.28,0,0,0,.39.1A.27.27,0,0,0,32.53,66.75Zm-1.3-1a1,1,0,0,1-.48.12,1.13,1.13,0,0,1-.48-.11,0,0,0,0,0,0,0l.52-.9.52.9Z"/><path class="cls-8" d="M29.39,64.13s-.54.94-1,1.71V64.27a.28.28,0,0,0-.52-.14l-1,1.73V64.27a.29.29,0,0,0-.57,0v2.62a.28.28,0,0,0,.21.27A.26.26,0,0,0,26.8,67s.56-1,1-1.72v1.58a.28.28,0,0,0,.53.14l1.52-2.61a.28.28,0,0,0-.49-.29Z"/><path class="cls-9" d="M19.78,55.85a.57.57,0,0,0,.39.7,2.45,2.45,0,0,1,1.66,1.79,2.56,2.56,0,0,1-1.66,3.12,2.18,2.18,0,0,1-1.69-.21,2.51,2.51,0,0,1-1.16-1.58,2.69,2.69,0,0,1,.61-2.47.56.56,0,0,0,0-.8.57.57,0,0,0-.8,0A3.84,3.84,0,0,0,16.22,60a3.58,3.58,0,0,0,1.69,2.28,3.31,3.31,0,0,0,2.57.32,3.71,3.71,0,0,0,2.45-4.49,3.6,3.6,0,0,0-2.45-2.6A.57.57,0,0,0,19.78,55.85Z"/><path class="cls-9" d="M15.69,55.57a3.7,3.7,0,0,0-2.45,4.48,3.58,3.58,0,0,0,2.45,2.61.57.57,0,0,0,.7-.39.59.59,0,0,0-.39-.71,2.44,2.44,0,0,1-1.66-1.78A2.56,2.56,0,0,1,16,56.66a2.18,2.18,0,0,1,1.69.21,2.48,2.48,0,0,1,1.16,1.58,2.69,2.69,0,0,1-.61,2.47.56.56,0,0,0,0,.8.57.57,0,0,0,.8,0A3.79,3.79,0,0,0,20,58.17a3.62,3.62,0,0,0-1.69-2.28A3.31,3.31,0,0,0,15.69,55.57Z"/><path class="cls-9" d="M24,55.52a.58.58,0,0,0,0,.8.57.57,0,0,0,.81,0,2.15,2.15,0,0,1,1.5-.49,2.17,2.17,0,0,1,1.49.5.57.57,0,0,0,.8,0,.55.55,0,0,0,0-.8,3.59,3.59,0,0,0-4.59,0Z"/><path class="cls-9" d="M30,62l-3.21-5.45a.58.58,0,0,0-.49-.29.55.55,0,0,0-.49.29L22.63,62a.57.57,0,1,0,1,.58s.47-.81,1-1.77a.69.69,0,0,0,.13.11,3.26,3.26,0,0,0,3.11,0,.41.41,0,0,0,.13-.1c.57,1,1,1.77,1,1.77a.56.56,0,0,0,.77.2A.57.57,0,0,0,30,62Zm-2.7-2.08a2.15,2.15,0,0,1-1,.25,2.07,2.07,0,0,1-1-.25l-.12,0,1.13-1.91c.25.43.68,1.16,1.13,1.91Z"/><path class="cls-8" d="M19.78,55.85a.57.57,0,0,0,.39.7,2.45,2.45,0,0,1,1.66,1.79,2.56,2.56,0,0,1-1.66,3.12,2.18,2.18,0,0,1-1.69-.21,2.51,2.51,0,0,1-1.16-1.58,2.69,2.69,0,0,1,.61-2.47.56.56,0,0,0,0-.8.57.57,0,0,0-.8,0A3.84,3.84,0,0,0,16.22,60a3.58,3.58,0,0,0,1.69,2.28,3.31,3.31,0,0,0,2.57.32,3.71,3.71,0,0,0,2.45-4.49,3.6,3.6,0,0,0-2.45-2.6A.57.57,0,0,0,19.78,55.85Z"/><path class="cls-8" d="M15.69,55.57a3.7,3.7,0,0,0-2.45,4.48,3.58,3.58,0,0,0,2.45,2.61.57.57,0,0,0,.7-.39.59.59,0,0,0-.39-.71,2.44,2.44,0,0,1-1.66-1.78A2.56,2.56,0,0,1,16,56.66a2.18,2.18,0,0,1,1.69.21,2.48,2.48,0,0,1,1.16,1.58,2.69,2.69,0,0,1-.61,2.47.56.56,0,0,0,0,.8.57.57,0,0,0,.8,0A3.79,3.79,0,0,0,20,58.17a3.62,3.62,0,0,0-1.69-2.28A3.31,3.31,0,0,0,15.69,55.57Z"/><path class="cls-8" d="M24,55.52a.58.58,0,0,0,0,.8.57.57,0,0,0,.81,0,2.15,2.15,0,0,1,1.5-.49,2.17,2.17,0,0,1,1.49.5.57.57,0,0,0,.8,0,.55.55,0,0,0,0-.8,3.59,3.59,0,0,0-4.59,0Z"/><path class="cls-8" d="M30,62l-3.21-5.45a.58.58,0,0,0-.49-.29.55.55,0,0,0-.49.29L22.63,62a.57.57,0,1,0,1,.58s.47-.81,1-1.77a.69.69,0,0,0,.13.11,3.26,3.26,0,0,0,3.11,0,.41.41,0,0,0,.13-.1c.57,1,1,1.77,1,1.77a.56.56,0,0,0,.77.2A.57.57,0,0,0,30,62Zm-2.7-2.08a2.15,2.15,0,0,1-1,.25,2.07,2.07,0,0,1-1-.25l-.12,0,1.13-1.91c.25.43.68,1.16,1.13,1.91Z"/><path class="cls-8" d="M278.52,7.23a3.18,3.18,0,0,0,1.79.65,2.85,2.85,0,0,0,2.06-1.06l.24.14a4.64,4.64,0,0,1-1.51,1.73,2.53,2.53,0,0,1-1.39.5c-.65,0-1.22-.32-2.84-1.23-1.38-.78-1.64-.94-2.17-.94a3.19,3.19,0,0,0-2.15,1.08l-.21-.2c.87-1.21,1.88-2.14,3-2.14.57,0,.91.14,2,.78Z"/><path class="cls-8" d="M289.71,2.85c1.58.25,2.75,1,2.75,1.58a.33.33,0,0,1-.14.26,1.92,1.92,0,0,0-.32.18s-.19.34-.25.48l-.62,1.21a10.29,10.29,0,0,1-.54.92c1,.67,2.12,1.5,2.12,2.68,0,.48-.23.93-.75.93s-.63-.2-.9-.71a7.26,7.26,0,0,0-1.21-1.77,10.59,10.59,0,0,1-2.67,2.49,13,13,0,0,1-2.94,1.45l-.14-.26a13.24,13.24,0,0,0,4.67-4.67,12.48,12.48,0,0,0-2.71-1.71l-.4-.19.11-.24a17.6,17.6,0,0,1,3.51,1.25,10.35,10.35,0,0,0,1-2.87c0-.39-.26-.55-.68-.8Z"/><path class="cls-8" d="M295.82,3.07c1.79.18,2.51.8,2.51,1.1,0,.08,0,.11-.26.4a.74.74,0,0,0-.08.36c0,1,0,1.56,0,1.75,0,.34,0,.53,0,.72l.06.93c0,.09,0,.25,0,.41,0,.33-.08.57-.37.57s-.82-.48-1.1-.82a.82.82,0,0,1-.23-.59,2.48,2.48,0,0,1,.09-.39,15.74,15.74,0,0,0,.08-2c0-1.57,0-2-.78-2.17Zm4.58-.66a5.73,5.73,0,0,1,2.41.44c.48.25.54.47.54.53s0,.1-.27.33a.4.4,0,0,0-.08.23c0,.12,0,.69,0,.81V7.14c0,2.12,0,5-5.49,5.47l0-.3c3.5-.71,3.84-2.86,3.93-4.37,0-.21,0-.66,0-1.06l0-2c-.05-1.61-.07-2-1.1-2.19Z"/><path class="cls-8" d="M306.23,6.18c.32.67.64.71,1.39.71h.71L313,6.64a7.9,7.9,0,0,0,1.14-.1c.14,0,.35,0,.44,0s1.29.36,1.29,1.08c0,.28-.18.44-.51.44s-.48,0-.53,0a8.64,8.64,0,0,0-1.37-.11c-.5,0-3.61.12-4.51.23a1.69,1.69,0,0,0-.95.31c-.16.11-.25.19-.34.19s-1.09-.32-1.71-2.37Z"/><path class="cls-8" d="M321.19,7.46a1.27,1.27,0,1,1-1.26-1.27A1.28,1.28,0,0,1,321.19,7.46Z"/><path class="cls-8" d="M329.11,4.78c0,.13,0,.39,0,.47l-.05,1c0,.18,0,.44,0,.53s.28,0,.34,0l2.15-.12a2.11,2.11,0,0,0,.65-.1c.25-.18.27-.19.37-.19.33,0,1.38.63,1.38,1.23,0,.38-.29.38-.43.38s-.85-.11-1-.12a15.56,15.56,0,0,0-1.59,0c-1,0-1.53,0-1.93,0v.45c0,.33,0,.68,0,1,0,.88,0,1.11.14,1.28s.48.21,1.24.21a7.45,7.45,0,0,0,1.61-.2,3.56,3.56,0,0,1,.41-.17c.25,0,1.13.78,1.13,1.23,0,.17-.11.32-.51.41a11.46,11.46,0,0,1-2.15.17c-3.19,0-3.38-.32-3.38-2.34,0-.17,0-.8,0-1l0-.9a7.65,7.65,0,0,0-2,.36c-.26.15-.28.16-.36.16-.26,0-.54-.31-.59-.38a2.28,2.28,0,0,1-.62-1.64l.25,0c.19.48.39.54,1,.54.27,0,.47,0,1.63-.09l.73,0V6.37l0-1.5h-1c-.49,0-1.17,0-1.7-1.57l.24-.13a1.1,1.1,0,0,0,1.1.52h.48l1.11,0a18.35,18.35,0,0,0,2.64-.29c.09,0,.48-.21.56-.21s.31.09.63.33c.57.43.67.57.67.77s-.3.31-.41.31a7.7,7.7,0,0,0-.9,0Z"/><path class="cls-8" d="M339.4,5.53a17.86,17.86,0,0,0-.1-2.23.92.92,0,0,0-.87-.62l.05-.28c1.52,0,3,.54,3,1,0,.13-.09.22-.4.44,0,0,0,.31,0,.37V5.45c.08,0,.52,0,.77,0l1.36-.11a1,1,0,0,0,.57-.23.38.38,0,0,1,.21-.08c.13,0,.29.08.65.43s.63.69.63.94-.43.38-.65.35l-.45-.07a18.46,18.46,0,0,0-2-.08l-1.14,0V7c0,1.84-.1,3-1.83,4.26A8.42,8.42,0,0,1,336,12.62l-.08-.27a5.73,5.73,0,0,0,3.05-2.6,6.47,6.47,0,0,0,.52-3.11,11.32,11.32,0,0,0-2.6.44,1.06,1.06,0,0,0-.4.2.2.2,0,0,1-.14,0c-.39,0-.8-.64-.87-.77a4.5,4.5,0,0,1-.52-1.43l.25-.13a1.23,1.23,0,0,0,1.3.71c.37,0,1.46-.06,2.26-.13Z"/><path class="cls-8" d="M346.54,6.18c.32.67.64.71,1.39.71h.71l4.67-.24a7.9,7.9,0,0,0,1.14-.1c.14,0,.35,0,.44,0s1.29.36,1.29,1.08c0,.28-.18.44-.51.44s-.49,0-.54,0a8.39,8.39,0,0,0-1.36-.11c-.51,0-3.61.12-4.51.23a1.69,1.69,0,0,0-.95.31c-.16.11-.25.19-.35.19s-1.09-.32-1.7-2.37Z"/><path class="cls-8" d="M360.18,2.6c1.83,0,2.78.87,2.78,1.1s0,.12-.31.3c-.12,0-.12.06-.47.76a19.57,19.57,0,0,0,2.5-.27l.56-.69L366.68,5c.05,0,.29.22.29.39s-.25.3-.67.39a9.89,9.89,0,0,1-2.91,4.64,10.67,10.67,0,0,1-5.21,2.24l-.08-.32a10.21,10.21,0,0,0,4.1-2.64,9.82,9.82,0,0,0,2.3-4.06,20.35,20.35,0,0,1-2.91.21,6.57,6.57,0,0,1-1.23,1.42,11.89,11.89,0,0,1-2.5,1.64l-.18-.23a9.78,9.78,0,0,0,3.15-5.14c0-.43-.38-.52-.71-.61Z"/><path class="cls-8" d="M371.38,2.58a6.64,6.64,0,0,1,1.54.1c.13,0,1,.26,1,.72a3.36,3.36,0,0,1-.22.42,6.49,6.49,0,0,0-.18,1.72,2.8,2.8,0,0,0,.11.89c.67-.27,1.35-.53,2.05-.76a1.39,1.39,0,0,0,.43-.21c.15-.13.2-.17.28-.17s1.23.63,1.23,1.32c0,.33-.14.34-.86.37a11.26,11.26,0,0,0-3.45.56,5.55,5.55,0,0,0-2.13,1,1.38,1.38,0,0,0-.52.93,1.08,1.08,0,0,0,.79,1,7.78,7.78,0,0,0,2.47.27,13.62,13.62,0,0,0,2.15-.14c.08,0,.44-.17.51-.17a1.51,1.51,0,0,1,1.1,1.2.49.49,0,0,1-.45.51,16.26,16.26,0,0,1-2.45.13c-2.63,0-5-.09-5-2.28,0-1.23.84-2.1,2.91-3.11-.26-.22-.55-.48-.55-1.44,0-.26.07-1.45.07-1.69,0-.64-.16-.75-.78-.88Z"/><path class="cls-8" d="M384,5.53a16.09,16.09,0,0,0-.11-2.23.9.9,0,0,0-.86-.62l.05-.28c1.51,0,3,.54,3,1,0,.13-.1.22-.4.44v.37l0,.76v.51c.09,0,.53,0,.77,0l1.37-.11a1,1,0,0,0,.57-.23.35.35,0,0,1,.21-.08c.13,0,.28.08.65.43s.63.69.63.94-.44.38-.65.35l-.45-.07a18.58,18.58,0,0,0-2-.08l-1.14,0V7c0,1.84-.11,3-1.84,4.26a8.33,8.33,0,0,1-3.22,1.37l-.09-.27a5.7,5.7,0,0,0,3.05-2.6A6.24,6.24,0,0,0,384,6.64a11.13,11.13,0,0,0-2.59.44,1.06,1.06,0,0,0-.4.2.23.23,0,0,1-.15,0c-.39,0-.79-.64-.86-.77a4.27,4.27,0,0,1-.52-1.43l.25-.13a1.22,1.22,0,0,0,1.3.71c.37,0,1.46-.06,2.25-.13Z"/><path class="cls-8" d="M394.22,7.46A1.28,1.28,0,1,1,393,6.19,1.29,1.29,0,0,1,394.22,7.46Z"/><path class="cls-8" d="M396.5,4.34c.4.51.53.68,1.68.68.31,0,.35,0,2.37-.17a8.62,8.62,0,0,0-.09-1.59c-.08-.34-.54-.49-.89-.6l.06-.23.61,0c.92,0,2.17.34,2.17.78,0,.09,0,.12-.14.26a.87.87,0,0,0-.19.58s0,.66,0,.74l.68,0c1.52-.1,1.54-.11,1.75-.23s.33-.16.43-.16c.35,0,1.41.79,1.41,1.22s-.38.37-.6.37l-.7-.06c-.43,0-1,0-1.53,0-.76,0-1.19,0-1.51,0v.8l0,.8c0,1.91,0,2.59.1,3.27a3.81,3.81,0,0,1,.07.47c0,.25-1,1.4-1.52,1.4-.23,0-.34-.09-.38-.41-.07-.52-.09-.61-1.46-1.92l.12-.24a12.37,12.37,0,0,0,1.58.54c.05-.83.07-1.27.06-4.14V5.93c-1.74.11-2.05.16-2.61.54a.42.42,0,0,1-.23.07,1,1,0,0,1-.58-.33,3.67,3.67,0,0,1-.89-1.74Zm2.19,2.54A3.92,3.92,0,0,1,398.86,8c0,1.82-.87,2.88-1.7,2.88a.86.86,0,0,1-.87-.89c0-.37.16-.59.66-.87a2.75,2.75,0,0,0,1.31-1.35,2.2,2.2,0,0,0,.14-.93Zm4.32,0c1.08.38,3.05,1.38,3.05,2.93,0,.66-.4,1.22-.92,1.22s-.69-.23-.82-1.06a4.11,4.11,0,0,0-1.48-2.83Z"/><path class="cls-8" d="M410.21,2.6c1.83,0,2.78.87,2.78,1.1s0,.12-.31.3-.12.06-.48.76a19.51,19.51,0,0,0,2.51-.27l.55-.69L416.71,5s.28.22.28.39-.24.3-.66.39a10,10,0,0,1-2.92,4.64,10.6,10.6,0,0,1-5.2,2.24l-.08-.32a10.27,10.27,0,0,0,4.1-2.64,9.82,9.82,0,0,0,2.3-4.06,20.48,20.48,0,0,1-2.92.21,6.47,6.47,0,0,1-1.22,1.42,12.16,12.16,0,0,1-2.5,1.64l-.18-.23a9.72,9.72,0,0,0,3.14-5.14c0-.43-.37-.52-.71-.61Z"/><path class="cls-8" d="M421.72,7.46a1.27,1.27,0,1,1-1.27-1.27A1.29,1.29,0,0,1,421.72,7.46Z"/><path class="cls-8" d="M425.4,4.11a3.06,3.06,0,0,1,2.74,1.56.33.33,0,0,1-.22.27s-.21.11-.22.12a.52.52,0,0,0-.06.19,11.36,11.36,0,0,1-1.47,2.92,10.51,10.51,0,0,1-2.26,2.33l-.18-.22A12.3,12.3,0,0,0,426,5.22c0-.43-.11-.62-.64-.88Zm3.7-.06A11,11,0,0,1,432,6.77a6.57,6.57,0,0,1,1.3,3.11c0,.64-.28,1.32-.92,1.32s-.74-.49-.93-1.56a10.6,10.6,0,0,0-2.55-5.36Z"/><path class="cls-8" d="M441,2.86A4.25,4.25,0,0,1,443.23,4c.21.19.54.54.54.75a.26.26,0,0,1-.12.23,1.82,1.82,0,0,0-.68.93,11.39,11.39,0,0,1-7.11,6.74l-.13-.3a12.81,12.81,0,0,0,4.54-4.78A10.62,10.62,0,0,0,441.68,4c0-.46-.29-.62-.85-.89Z"/><path class="cls-8" d="M447.69,4.11a3.06,3.06,0,0,1,2.74,1.56c0,.14-.15.24-.22.27l-.22.12a.89.89,0,0,0-.07.19,11.22,11.22,0,0,1-1.46,2.92,10.74,10.74,0,0,1-2.26,2.33l-.18-.22a12.4,12.4,0,0,0,2.24-6.06c0-.43-.11-.62-.65-.88Zm3.7-.06a10.77,10.77,0,0,1,2.86,2.72,6.59,6.59,0,0,1,1.31,3.11c0,.64-.29,1.32-.93,1.32s-.73-.49-.92-1.56a10.6,10.6,0,0,0-2.55-5.36Z"/><path class="cls-8" d="M463.3,2.86A4.2,4.2,0,0,1,465.51,4c.22.19.55.54.55.75a.25.25,0,0,1-.13.23,1.77,1.77,0,0,0-.67.93,11.38,11.38,0,0,1-7.12,6.74l-.13-.3a12.74,12.74,0,0,0,4.54-4.78A10.62,10.62,0,0,0,464,4c0-.46-.28-.62-.84-.89Z"/><path class="cls-8" d="M470.15,5.26l.65-.16.16-.38a4.24,4.24,0,0,0,.36-1.27c0-.49-.62-.65-.95-.73l.1-.32a3.89,3.89,0,0,1,1.86.37c.54.26.77.57.77.72a.63.63,0,0,1-.11.26l-.26.32c-.12.18-.34.56-.48.82l.48,0c1.51,0,2,.79,2,2.19a13.15,13.15,0,0,1-1,4.63,1.48,1.48,0,0,1-1.22.89.6.6,0,0,1-.63-.5c-.05-.75-.07-1.2-1.28-1.93l.11-.28L471,10l1,.35.42.16a15.37,15.37,0,0,0,.78-3.9c0-.62-.27-1-.91-1a3.31,3.31,0,0,0-.51.07c-.62,1.42-1.66,4.1-1.88,4.72l-.5,1.4c-.25.67-.44.77-.62.77-.45,0-1-1-1-1.22a.68.68,0,0,1,.15-.39l.26-.32a41.49,41.49,0,0,0,1.94-4.12l.15-.37a5.13,5.13,0,0,0-1,.66.35.35,0,0,1-.25.11,1.33,1.33,0,0,1-.86-.73A2.23,2.23,0,0,1,468,4.83l.34-.07c0,.22,0,.77.52.77a2.68,2.68,0,0,0,.63-.11Zm4.44-1.15a5,5,0,0,1,3,2.24A5.47,5.47,0,0,1,478.35,9a1.42,1.42,0,0,1-.32,1,.89.89,0,0,1-.56.26c-.16,0-.28,0-.43-.41-.26-.64-.74-.72-1.68-.72l-.08-.31,1.52-.35a8.62,8.62,0,0,0-.8-2.43,3.75,3.75,0,0,0-1.57-1.7ZM476,3.67a2,2,0,0,0-.93-.95l.15-.19a3.55,3.55,0,0,1,1.68.6,1.16,1.16,0,0,1,.46.86.64.64,0,0,1-.59.66c-.18,0-.32-.08-.46-.35ZM477.32,3A2.5,2.5,0,0,0,476.13,2l.12-.2a3.19,3.19,0,0,1,1.89.48,1,1,0,0,1,.42.76.67.67,0,0,1-.56.71c-.23,0-.39-.24-.43-.29Z"/><path class="cls-8" d="M481.53,6a6.91,6.91,0,0,0-.75-1.3,1,1,0,0,1-.22-.42s.09-.79,1.45-.79a8.25,8.25,0,0,1,2.6.48A3,3,0,0,0,483,2.67l.13-.24a3.86,3.86,0,0,1,2.35.66,1.44,1.44,0,0,1,.6,1.15.75.75,0,0,1-.15.47c.15,0,.48,0,.72,0,1.92,0,2.73,1.16,2.73,2.28A2.21,2.21,0,0,1,487,9.13a5.11,5.11,0,0,1-3-1.46l.15-.29a3.69,3.69,0,0,0,1.94.67c1.23,0,1.81-.73,1.81-1.44a1.41,1.41,0,0,0-1.53-1.29A8.53,8.53,0,0,0,483,6.39a42.27,42.27,0,0,0,2.18,4.49c.31.56.34.64.34.79a1.45,1.45,0,0,1-1.07,1.1c-.21,0-.28-.2-.41-.59-.26-.71-.59-1.69-.79-2.16s-1-2.2-1.12-2.57L482,7a5.42,5.42,0,0,0-1,.89c-.14.16-.21.23-.36.23a1.83,1.83,0,0,1-.94-.52A2.43,2.43,0,0,1,478.93,6l.29-.08c.12.34.34.71.75.71a3.45,3.45,0,0,0,1.19-.4Zm3.52-1.16-.91-.48a3.5,3.5,0,0,0-1.22-.25c-.4,0-.63.17-.63.36s0,.19.39,1.06a18.69,18.69,0,0,1,2-.61Z"/><path class="cls-8" d="M491.25,6.51c.16.32.33.6.66.6a4.35,4.35,0,0,0,1.23-.34,15.44,15.44,0,0,1,3.41-.71A2.61,2.61,0,0,1,499.3,8.8a3.1,3.1,0,0,1-2.05,3,12.68,12.68,0,0,1-4.12.62l0-.31c1.55-.19,4.82-.8,4.82-3.55,0-.86-.32-1.73-1.58-1.73a6.06,6.06,0,0,0-3.07,1.12c-.5.41-.56.46-.69.46a1.83,1.83,0,0,1-1-.57A2.82,2.82,0,0,1,491,6.65Z"/><path class="cls-8" d="M509.43,3.32a6.12,6.12,0,0,0,.66-.1,2.33,2.33,0,0,1,.39-.19c.4,0,1.29.8,1.29,1.21a.31.31,0,0,1-.34.32s-.63-.07-.67-.09c-.23,0-.72-.07-1.15-.07A3.06,3.06,0,0,0,507,5.74a4.1,4.1,0,0,0-1,2.61c0,2.27,2.36,2.36,2.88,2.36l.54-.05c.34,0,.79.77.79,1.15s-.29.6-.82.6a6.78,6.78,0,0,1-2.9-.66A3.22,3.22,0,0,1,505,8.87a5.07,5.07,0,0,1,1.06-3,6.59,6.59,0,0,1,1.55-1.41l-.48.08a11.22,11.22,0,0,0-3.55,1.07c-.22.17-.31.18-.38.18a2.31,2.31,0,0,1-1.07-.56,2.55,2.55,0,0,1-.87-1.3l.27-.14a1.18,1.18,0,0,0,1,.61,5.11,5.11,0,0,0,1-.19c1.17-.26,2.67-.53,3.68-.64l1.47-.15Z"/><path class="cls-8" d="M518,3.93c.76-.53.85-.58.85-.79s-.28-.37-.61-.52l.19-.22a2.4,2.4,0,0,1,1.58.71,1.93,1.93,0,0,1,.66,1c0,.24-.21.28-.43.32a16.59,16.59,0,0,0-4.13,2l-.44.3c-.12.08-.3.22-.3.38s.09.21.38.4a16.41,16.41,0,0,1,3.86,2.78,1.67,1.67,0,0,1,.6,1.12,2,2,0,0,1-.18.78.58.58,0,0,1-.57.37c-.36,0-.56-.3-.78-.63a11.49,11.49,0,0,0-4-3.72c-.68-.47-.78-.63-.78-.9a.91.91,0,0,1,.37-.69c.32-.3,1.52-1.2,2.17-1.64Z"/><path class="cls-8" d="M528.17,6.88a5.59,5.59,0,0,1,2-.44,3.87,3.87,0,0,1,2,.59,2.42,2.42,0,0,1,.94,2.14,3,3,0,0,1-1,2.42,4.79,4.79,0,0,1-2.84.8c-.38,0-2.94,0-2.94-1.81,0-.53.33-1.22,1.49-1.22,1.48,0,2.59,1.14,2.59,1.65a.5.5,0,0,1,0,.16,2,2,0,0,0,.7-.7,3,3,0,0,0,.43-1.54,1.76,1.76,0,0,0-.6-1.45,2.4,2.4,0,0,0-1.35-.37,5.22,5.22,0,0,0-3.49,1.76,10,10,0,0,0-.74.91.46.46,0,0,1-.4.25c-.37,0-.71-.64-.71-1.1,0-.29.07-.35.52-.7a24.64,24.64,0,0,0,3.74-3.63l.72-.79a8.78,8.78,0,0,0-2,.72c-.31.26-.33.29-.43.29a1.73,1.73,0,0,1-1-.83,2.24,2.24,0,0,1-.28-1.12l.32-.09c.13.47.27.66.77.66A30.78,30.78,0,0,0,529.81,3a2.37,2.37,0,0,1,.47-.25c.28,0,1.14.89,1.14,1.15s-.07.17-.24.22-.53.2-1.33,1l-1.29,1.22Zm-.6,3.34c-.28,0-.6.14-.6.45,0,.67,1,1,1.67,1a4.64,4.64,0,0,0,.74-.09C529.17,11.23,528.51,10.22,527.57,10.22Z"/><path class="cls-8" d="M537.42,9.32h-.33l-.89-5a1.28,1.28,0,0,1,0-.19,1.07,1.07,0,1,1,2.13,0,1.28,1.28,0,0,1,0,.19Zm-.17,2.45a1.07,1.07,0,1,1,1.07-1.07A1.08,1.08,0,0,1,537.25,11.77Z"/><path class="cls-8" d="M52.1,4.15c.69,1.12,1.27,2,4.62,2,2.55,0,15-.69,17.77-.77l1.5-2L80,6.65c.15.12.73.58.73,1,0,.58-.42.74-1.66,1.2-3.74,14-8.86,19.69-24,24.16l-.27-.84C69.25,26,72.67,16.44,74.37,8l-1.27.08-8.78.69c-4.71.43-5.56.73-7.21,1.5-.89.7-1,.78-1.2.78-.5,0-1.23-.74-2-1.62a10.46,10.46,0,0,1-2.58-5Z"/><path class="cls-8" d="M95,16.17c.27.08,1.11.23,1.11.73s-.26.54-1,1c0,.27-.07,1.23-.11,1.42l0,3.55-.08,3.51a9,9,0,0,1,0,1.07c.66,0,3.51,0,4.09-.07l2.5-.08a3.23,3.23,0,0,0,1.85-.39,2.26,2.26,0,0,1,.74-.38c.84,0,3.89,2.39,3.89,3.62,0,.66-.66.69-1,.69s-.54,0-.66,0l-1.5-.23A47.71,47.71,0,0,0,98,30.2c-1,0-12.6.19-14.34,1.54-.62.46-.69.54-.89.54-.5,0-2.35-1.39-3.58-5.39l.65-.5A3.46,3.46,0,0,0,83,28.23c.93,0,4.86-.3,6-.38l2.09-.19,0-5.05,0-6.25c-.74,0-3.93.16-4.59.16-2.54,0-3.08-1-4.66-4.2l.69-.39c1,1.2,1.54,1.7,4.39,1.7,2.35,0,9.17-.27,12.3-1.08a15,15,0,0,1,1.69-.69c.62,0,3.24,1.92,3.24,2.89,0,.61-.69.84-1.19.88l-1.32,0c-.07,0-1.88.19-2.15.23-.7.08-1.81.16-2.51.16Z"/><path class="cls-8" d="M126.43,4.26,128,2.64l3.58,3.09a2.08,2.08,0,0,1,.77,1.16c0,.61-.69.69-1.93.88-3.62,7.25-4,8.06-6.51,11.37,5,1.93,11.87,6.16,11.87,10.52a2.55,2.55,0,0,1-2.43,2.7c-1.58,0-2.43-1.66-3.58-4.13A21.27,21.27,0,0,0,123.24,20,46.94,46.94,0,0,1,113,29a36.92,36.92,0,0,1-7.86,3.74l-.42-.81A40.78,40.78,0,0,0,118,20.64,50.88,50.88,0,0,0,125.51,7l-1.92.23c-2.28.27-7.79,1-9.76,2a4.88,4.88,0,0,1-1.15.69c-1,0-3.28-3.08-4.12-6.7l.76-.27a4.06,4.06,0,0,0,4.09,2.35c.73,0,1.19,0,4.78-.38,2-.2,5.43-.47,5.9-.51Z"/><path class="cls-8" d="M164.47,15.44c-1.27-.15-3.74-.19-5.35-.19-1.43,0-2,0-3.59.07-.27,4.13-.65,9.48-3.47,12.68-2.58,2.89-7.32,4.82-11.87,5.75l-.27-.89c10-3.82,10.87-10.52,11-17.19-2.39.19-8,.69-9.48,1.81-.19.19-.62.62-.93.62-.69,0-3.16-1.81-4.85-5.9l.77-.38A4.68,4.68,0,0,0,140,13.51c.54,0,2.39-.07,2.85-.15a141.44,141.44,0,0,1,15.19-1.08c4.27-.08,4.77-.42,5.7-1a2.24,2.24,0,0,1,.93-.42,1.61,1.61,0,0,1,.8.38l1,.66c1.46,1,2.27,1.88,2.27,2.92s-.89,1-1.19,1a9.4,9.4,0,0,1-1.2-.12ZM151.76,6.92c-.85.08-4.67.35-5.44.47-.31,0-1.66.38-2,.38-.7,0-2.78-1.54-4.13-4.89l.73-.35a4.13,4.13,0,0,0,3.7,1.66,74.25,74.25,0,0,0,8.83-.58l2.31-.23a12.41,12.41,0,0,0,2.89-.66,11,11,0,0,1,.93-.69c.81,0,3.89,2.43,3.89,3.47s-1.08.88-1.35.92l-1.31-.08c-1.43,0-3.35.12-3.89.16Z"/><path class="cls-8" d="M184.24,7.39c3.51.57,6.48,3.12,6.48,4,0,.5-.47.58-1.47.77l-1.12.89c-3,2.5-3.93,3.16-5.47,4.31.7.27,1,.39,1,.7s-.38.58-1,.92c0,.85,0,3.2,0,3.9l.15,9.4c0,.69,0,2.2-.92,2.2-1.31,0-3.4-2-3.4-2.86,0-.11.2-.65.23-.77a85.34,85.34,0,0,0,.27-9.78V19.87A57.84,57.84,0,0,1,166.55,25l-.26-.77a55.19,55.19,0,0,0,15.49-10.64c1-1,3.35-3.24,3.35-4.2,0-.5-.35-.77-1.16-1.39Z"/><path class="cls-8" d="M199.35,5.54c4.32.5,7.59,3.08,7.59,4.27,0,.39-.46.77-1.19,1.31a41,41,0,0,1-4.43,10.22,38.12,38.12,0,0,1-7.56,9l-.69-.57a43.57,43.57,0,0,0,5.78-11A35.74,35.74,0,0,0,201.05,9c0-1.81-1-2.27-2.05-2.73ZM211,5.5c8.6,6.24,13.5,15.84,13.5,20.19,0,1.89-.89,3.78-2.55,3.78s-2-1.7-2.35-3.16c-1.7-8.1-3.93-13.49-9.17-20.16Zm4.79-1.74c4.62,1,6.51,3.13,6.51,4.63,0,.42-.19,1.58-1.27,1.58-.62,0-1.12-.16-2-1.58a10.87,10.87,0,0,0-3.54-4ZM218.58.83c1.81.24,7,1,7,4,0,.7-.3,1.58-1.31,1.58-.3,0-.73,0-1.65-1.31a9.8,9.8,0,0,0-4.36-3.51Z"/><path class="cls-8" d="M228.91,4.22c3.7.66,7.36,1.78,7.36,3.17,0,.23-.08.26-.62.8a3.86,3.86,0,0,0-.27.54c-.15,11.41-.57,18-11.71,24.17l-.54-.66c4.43-4,8-7.51,8-21.12,0-4.74-.23-5.16-2.46-6ZM238.16.87c4.2.46,8,2,8,3.39a.86.86,0,0,1-.38.66c-.58.42-.7.5-.77,1.12-.16,1.31-.2,5.55-.2,7.2l0,5.36v7a43.92,43.92,0,0,0,12-13.06l.73.38c-3,9.68-8.44,14.38-13.1,18.42-.23,1.08-.31,1.51-.85,1.51a1.3,1.3,0,0,1-.85-.43l-3.35-3.77,1.58-.77V25.27l-.15-20.12a4.52,4.52,0,0,0-.7-2.16,3.9,3.9,0,0,0-2.15-1.19Z"/><path class="cls-8" d="M64.9,54.45c0-.8,0-1.11,0-1.6V51.43c0-6.66-.36-7-3.6-7.77l.18-.89c5.42-.09,9.81,1.87,9.81,3.16,0,.26-.13.4-1.29,1.55-.08,2.17-.13,3.2-.13,6.66.49,0,1.29,0,1.77-.09l1.78,0,3.82-.23a7.68,7.68,0,0,0,2.58-.35,9.45,9.45,0,0,1,1.73-.89c.44,0,.93.45,2.08,1.47,1.65,1.42,2.22,2.26,2.22,3.06,0,1.11-1.1,1.11-1.37,1.11-.53,0-2.8-.35-3.24-.35-1.6-.14-5.64-.27-7.46-.27-1.51,0-2.58,0-3.91.09l0,2.08c-.14,7.37-.8,11.68-6.62,15.9a29.92,29.92,0,0,1-11.5,5.19l-.31-1c13.85-5.42,13.76-16.3,13.59-22a59.53,59.53,0,0,0-10.53,1.55,12.83,12.83,0,0,1-2,.94c-.93,0-3.37-1.47-4.88-7.29l.84-.44c.89,1.38,1.6,2.53,4.84,2.53,1.64,0,6.08-.27,8.53-.44Z"/><path class="cls-8" d="M96.87,61.42a4.58,4.58,0,1,1-4.53-4.57A4.53,4.53,0,0,1,96.87,61.42Z"/><path class="cls-8" d="M102.64,43.93c6.75,0,9.64,2.26,9.68,3.06,0,.27,0,.4-1.29,1.69-.09,1-.17,1.73-.22,3.06L110.64,56c0,.53-.09,1.69-.09,2.27,5.64-.36,14.07-3.91,16.38-5.69,1.24-1,1.42-1.06,1.69-1.06a4.08,4.08,0,0,1,1.38.62l1.5,1c.45.31,1.78,1.34,1.78,2.09s-.71,1-2.4,1.47c-1,.26-5.24,1.68-6.13,1.95-3.15,1-7.59,2.18-10.34,2.18a14.5,14.5,0,0,1-4-.63c0,.63-.09,2-.09,2.53l-.18,6.18c-.13,4.66.58,5.5,8,5.5,2.57,0,8.3-.09,10.56-.62a4.2,4.2,0,0,0,1.69-.75,1.37,1.37,0,0,1,.76-.27c.66,0,1,.35,1.91,1.33l1,1a3,3,0,0,1,.93,1.82c0,1.42-1.46,1.51-3.81,1.64l-4,.23c-.49,0-7,.09-11.55.09-1.38,0-5.91-.18-7.32-1.2-2.76-1.87-2.94-4.8-2.89-8.48l.09-8.62.22-8.88c0-1.86,0-3.9,0-4.17-.14-1-1.16-2.22-3.16-2.66Z"/><path class="cls-8" d="M148.2,42.42c.17,0,.75-.05,1.15-.05s7.68.54,7.68,2.09c0,.31,0,.36-.71,1a1.9,1.9,0,0,0-.35.58c-.14,1.64-.14,2.53-.14,4.75l2.89-.13,5.64-.18,1.24-1.69,4.88,3.46c.32.23.9.72.9,1.16s-.18.62-1.74,1.38c-.09.44-.31,1.24-.39,1.46l-1,4.26a27.65,27.65,0,0,1-8.61,13.77c-4.4,3.59-9.91,5.37-15.5,6.39l-.27-1.06c11.81-3.78,18-10.88,20.38-26l-2.48.09-8.26.4c-6.44.31-7.77.4-10.39.58l.09,3.82v4c0,.48.09,2.66.09,3.06s0,1.87-1.38,1.87c-1.15,0-4-2.31-3.64-4l.31-1.51a35.25,35.25,0,0,0,.27-4.84c0-5.1-.67-6.17-2.67-7l.36-.8a15.72,15.72,0,0,1,7,2.18l5.19-.27,2.4-.13c0-6.75,0-7-3.19-7.82Zm16.07.53c5.32,1.16,7.41,3.42,7.41,5.2a1.65,1.65,0,0,1-1.5,1.77c-.85,0-1.25-.44-2.18-2a17.13,17.13,0,0,0-4.13-4.22Zm2.93-3c3.38.49,8.08,1.43,8.08,4.58a1.51,1.51,0,0,1-1.42,1.64c-.31,0-.8,0-1.82-1.29a17.48,17.48,0,0,0-5.15-4.13Z"/><path class="cls-8" d="M176,53.38a3.75,3.75,0,0,0,3.29,2.13c.53,0,5.19-.44,6.17-.53,4-.31,8.17-.62,12.08-.71l1.82-2,4.26,3.86a1.72,1.72,0,0,1,.62,1.16c0,.62-1.24.8-1.95.93a83,83,0,0,1-8.8,6.7l-1.86,1.29c-.49,4.17-.94,8-4.31,11.06a20.73,20.73,0,0,1-9.54,4.39l-.36-.89A14.56,14.56,0,0,0,183,77.63c3.46-3.42,4-9.06,4-9.19l.22-2.84c0-.18,0-.76,0-1.12a2.74,2.74,0,0,0-1.86-2.75l.35-.75c4.14.66,5.38,1.77,6.4,2.71a48.15,48.15,0,0,0,5.28-7.24c-5.73.53-10.57,1-15.63,2.75-.57.18-.57.18-1.28.84a1.77,1.77,0,0,1-.94.45c-.62,0-1.5-1.2-2.17-2a11.82,11.82,0,0,1-2.18-4.71Z"/><path class="cls-8" d="M209.2,43.93c6.75,0,9.64,2.26,9.68,3.06,0,.27,0,.4-1.28,1.69-.1,1-.19,1.73-.23,3.06L217.19,56c0,.53-.09,1.69-.09,2.27,5.65-.36,14.08-3.91,16.39-5.69,1.24-1,1.42-1.06,1.69-1.06a3.92,3.92,0,0,1,1.37.62l1.52,1c.44.31,1.77,1.34,1.77,2.09s-.71,1-2.4,1.47c-1,.26-5.24,1.68-6.13,1.95-3.15,1-7.59,2.18-10.34,2.18a14.5,14.5,0,0,1-3.95-.63c0,.63-.09,2-.09,2.53l-.18,6.18c-.13,4.66.58,5.5,7.95,5.5,2.58,0,8.3-.09,10.57-.62A4.23,4.23,0,0,0,237,73a1.37,1.37,0,0,1,.76-.27c.67,0,1,.35,1.9,1.33l1,1a3,3,0,0,1,.94,1.82c0,1.42-1.47,1.51-3.82,1.64l-4,.23c-.49,0-7,.09-11.55.09-1.37,0-5.9-.18-7.32-1.2-2.76-1.87-2.93-4.8-2.89-8.48l.09-8.62.22-8.88c0-1.86,0-3.9,0-4.17-.14-1-1.16-2.22-3.16-2.66Z"/><path class="cls-8" d="M254.75,42.42c.18,0,.76-.05,1.16-.05s7.69.54,7.69,2.09c0,.31-.05.36-.72,1a2.13,2.13,0,0,0-.36.58c-.12,1.64-.12,2.53-.12,4.75l2.88-.13,5.64-.18,1.25-1.69,4.88,3.46c.31.23.89.72.89,1.16s-.18.62-1.74,1.38a13,13,0,0,1-.4,1.46l-1,4.26a27.65,27.65,0,0,1-8.61,13.77c-4.4,3.59-9.9,5.37-15.5,6.39l-.27-1.06c11.82-3.78,18-10.88,20.39-26l-2.49.09-8.26.4c-6.44.31-7.77.4-10.39.58l.09,3.82v4c0,.48.09,2.66.09,3.06s0,1.87-1.38,1.87c-1.15,0-4-2.31-3.64-4l.31-1.51a35.25,35.25,0,0,0,.27-4.84c0-5.1-.67-6.17-2.67-7l.36-.8a15.72,15.72,0,0,1,7,2.18l5.2-.27,2.39-.13c0-6.75,0-7-3.19-7.82Zm16.08.53c5.33,1.16,7.41,3.42,7.41,5.2a1.65,1.65,0,0,1-1.5,1.77c-.85,0-1.25-.44-2.18-2a17.13,17.13,0,0,0-4.13-4.22Zm2.93-3c3.38.49,8.08,1.43,8.08,4.58a1.52,1.52,0,0,1-1.42,1.64c-.31,0-.79,0-1.82-1.29a17.74,17.74,0,0,0-5.15-4.13Z"/><path class="cls-8" d="M282.55,53.38a3.74,3.74,0,0,0,3.29,2.13c.53,0,5.19-.44,6.17-.53,4-.31,8.17-.62,12.08-.71l1.82-2,4.26,3.86a1.75,1.75,0,0,1,.63,1.16c0,.62-1.25.8-2,.93A82,82,0,0,1,300,65l-1.86,1.29c-.49,4.17-.93,8-4.3,11.06a20.87,20.87,0,0,1-9.55,4.39l-.36-.89a14.48,14.48,0,0,0,5.55-3.19c3.47-3.42,4-9.06,4-9.19l.22-2.84c0-.18,0-.76,0-1.12a2.74,2.74,0,0,0-1.86-2.75l.36-.75c4.13.66,5.37,1.77,6.39,2.71A48.15,48.15,0,0,0,304,56.45c-5.73.53-10.56,1-15.63,2.75-.57.18-.57.18-1.28.84a1.74,1.74,0,0,1-.94.45c-.62,0-1.5-1.2-2.17-2a11.82,11.82,0,0,1-2.18-4.71Z"/><path class="cls-8" d="M325.09,61.42a4.57,4.57,0,1,1-4.53-4.57A4.53,4.53,0,0,1,325.09,61.42Z"/><path class="cls-8" d="M334.37,48.37c4.48.53,9,3.73,9,5.24,0,.26-.13.53-.58.8a5.25,5.25,0,0,0-1,.75c-3,9.68-8.21,17.23-14.39,22l-.66-.8c7.14-8.79,9.63-21.31,9.63-23.93,0-1.73-.62-2.36-2.31-3.2Zm13.36,0c12.61,9.59,15.63,20.21,15.63,23.31,0,3.6-1.95,4.18-2.84,4.18-1.6,0-2.44-1.51-2.84-3.87A46.79,46.79,0,0,0,347,49.08Z"/><path class="cls-8" d="M364.69,45.53a15.13,15.13,0,0,1,6.89,2.62c.39,0,1.77,0,2.08-.09l4.75-.27c2.18-.13,4.13-.22,5.91-.31l4.79-.18,1.24,0,1.92-2.44,5.15,4a1.89,1.89,0,0,1,.71,1.16c0,.62-1.11,1.06-1.83,1.37-2.35,15.5-7.27,20.6-12,23.93a31.79,31.79,0,0,1-11.45,5.11l-.31-1a27.59,27.59,0,0,0,14.87-14.2,43.66,43.66,0,0,0,3.51-14.92c-.4,0-1.51.09-1.86.09l-4.53.17-13,.71c0,3.47.13,8.17.13,11.64,0,1.24,0,2.26-1.06,2.26-1.51,0-4.09-2-4.09-3.64a2.24,2.24,0,0,1,.09-.67l.35-1.46a13.57,13.57,0,0,0,.09-1.91c0-1.73,0-7.77-.31-8.84a4.65,4.65,0,0,0-2.31-2.39Z"/><path class="cls-8" d="M423.13,42.6c4.52,1.19,8.3,4.43,8.3,5.68,0,.49-.23.53-2.27,1-.4.32-1,.72-1.2.89l-4.88,3.69c-.49.35-1.86,1.24-2.67,1.73.45.18,1.38.58,1.38,1.11s-.26.58-1.6,1.38c0,.71.05,2.93.05,3.55v8c0,1.6.17,8.7.17,10.17,0,.66,0,1.64-1.15,1.64-1.38,0-4.57-1.86-4.57-3.77,0-.67.31-2.31.31-2.44a46.63,46.63,0,0,0,.31-5.47l.09-9.63c0-.18,0-1.42,0-1.69a90.77,90.77,0,0,1-17.1,6.84l-.35-1.07c2.31-.84,3.81-1.42,10.52-5.46a79,79,0,0,0,11.41-8.61l2.93-2.8c.62-.53,1.46-1.42,1.46-2,0-.84-1-1.51-1.59-1.86Z"/><path class="cls-8" d="M274.89,24.81a.88.88,0,0,0,.1.52.48.48,0,0,0,.4.14h1a1.19,1.19,0,0,0,.78-.22,2.3,2.3,0,0,0,.53-.88c0-.11.09-.16.15-.16s.21.06.21.18a1.53,1.53,0,0,1,0,.18,1.48,1.48,0,0,0,0,.22c0,.27,0,.58,0,.95l.11,1.32c0,.14,0,.24,0,.3s-.06.15-.19.16-.14-.06-.16-.19a1.63,1.63,0,0,0-.47-1,2,2,0,0,0-1.15-.25,3.18,3.18,0,0,0-1.22.12c-.11.09-.16.43-.16,1v1.38a2.52,2.52,0,0,0,.36,1.52,1.44,1.44,0,0,0,1.06.42c.15,0,.23.07.23.19s-.05.19-.16.19l-.4,0q-.25,0-1,0h-.77a5.92,5.92,0,0,0-.9,0c-.34,0-.57.07-.69.07s-.23-.07-.23-.19.07-.16.2-.2a.87.87,0,0,0,.57-.48,3.55,3.55,0,0,0,.14-1.18V23.17A1.49,1.49,0,0,0,273,22a1.63,1.63,0,0,0-1-.35c-.12,0-.18-.06-.18-.17s.08-.2.24-.2l.37,0c.27,0,.57,0,.88,0l1.21,0h1.84c.63,0,1.27,0,1.93-.08l.54,0c.11,0,.17.13.19.37s0,.46,0,.51l.06.53a1.58,1.58,0,0,1,0,.28q0,.57-.27.57c-.1,0-.15-.06-.15-.19v-.24a.88.88,0,0,0,0-.24c-.19-.62-.81-.92-1.85-.92h-1.2A.83.83,0,0,0,275,22a.73.73,0,0,0-.15.53Z"/><path class="cls-8" d="M282.74,22.9v1.52a2.29,2.29,0,0,0,.09.83c.07.12.22.17.46.17h1.12a1.18,1.18,0,0,0,1.07-.77l.16-.34a.22.22,0,0,1,.21-.13c.1,0,.15.06.15.19a2.6,2.6,0,0,1,0,.31c0,.12,0,.22,0,.3s0,.51.07,1.06c0,.36,0,.67,0,.94v.35c0,.07,0,.12,0,.14s-.05,0-.11.05-.19-.08-.21-.27a1.59,1.59,0,0,0-.43-.9,1,1,0,0,0-.44-.22,7.21,7.21,0,0,0-1,0h-.48a.72.72,0,0,0-.46.1.58.58,0,0,0-.17.4,10,10,0,0,0,0,1.11v.63a4.74,4.74,0,0,0,.15,1.41,1,1,0,0,0,.28.43,1,1,0,0,0,.5.11c1.9,0,3.14-.58,3.73-1.73a.18.18,0,0,1,.08-.09.15.15,0,0,1,.13.05.23.23,0,0,1,.05.15,2.62,2.62,0,0,1-.37,1.33,1.87,1.87,0,0,1-.77.78,2.62,2.62,0,0,1-1.22.24,9,9,0,0,1-1-.06l-.81-.07c-.3,0-.71,0-1.21,0q-.51,0-1.56.06l-.41,0a.16.16,0,0,1-.18-.16c0-.08,0-.15.15-.19a1.25,1.25,0,0,0,.54-.33,1.33,1.33,0,0,0,.23-.61,5.28,5.28,0,0,0,.07-1V23.08a1.63,1.63,0,0,0-.25-1.06,1.81,1.81,0,0,0-1.06-.39.2.2,0,0,1-.19-.21c0-.11.08-.16.24-.16h.55l.7,0,2.65,0q2.3,0,2.82-.06h.1c.14,0,.2.07.2.23s0,.3,0,.57.06.7.06.88c0,.35-.09.53-.28.54s-.13-.09-.13-.31a1.07,1.07,0,0,0-.51-1,3.19,3.19,0,0,0-1.64-.32h-.85l-.47.06c-.25.07-.36.31-.36.71Z"/><path class="cls-8" d="M291.18,21.12a3.37,3.37,0,0,1,1.29.25l.47.19a1.32,1.32,0,0,0,.45.13.53.53,0,0,0,.2-.05l.27-.13a.23.23,0,0,1,.11,0c.1,0,.15.08.15.23v.57a2,2,0,0,0,0,.25l.09.69.07.63a.86.86,0,0,1,0,.15c0,.2-.06.3-.17.3s-.15-.09-.18-.27a3,3,0,0,0-1-1.69,2.63,2.63,0,0,0-1.74-.71,1.56,1.56,0,0,0-1.1.43,1.3,1.3,0,0,0-.47,1A1.22,1.22,0,0,0,290,24a7,7,0,0,0,1.66.82,5.86,5.86,0,0,1,2.21,1.33,3,3,0,0,1-.25,4,2.78,2.78,0,0,1-2.06.9,5.84,5.84,0,0,1-1.53-.33,6.84,6.84,0,0,0-.72-.21.89.89,0,0,1-.38-.12,1.08,1.08,0,0,1-.09-.36,5.44,5.44,0,0,0-.21-1,6.59,6.59,0,0,1-.26-1.22q0-.33.21-.33c.07,0,.12.06.15.17a4.27,4.27,0,0,0,1.19,2,2.5,2.5,0,0,0,1.76.82A1.8,1.8,0,0,0,293,30a1.72,1.72,0,0,0,.56-1.24,1.42,1.42,0,0,0-.29-.91,2.71,2.71,0,0,0-1-.67l-1.06-.48a6.32,6.32,0,0,1-2-1.27,2.29,2.29,0,0,1-.54-1.59,2.69,2.69,0,0,1,.75-1.94A2.54,2.54,0,0,1,291.18,21.12Z"/><path class="cls-8" d="M300.63,23v5.27a3.11,3.11,0,0,0,.34,1.67,1.49,1.49,0,0,0,1.22.55c.17,0,.25.1.25.25s-.07.16-.22.16h-.17l-.53,0-.87-.06h-.28c-.27,0-.51,0-.73,0l-1.55.09-.33,0q-.22,0-.21-.18a.27.27,0,0,1,.07-.21.59.59,0,0,1,.27-.06,1.09,1.09,0,0,0,.84-.39,1.49,1.49,0,0,0,.3-1V22.57c0-.37-.2-.55-.6-.55a5.86,5.86,0,0,0-1.91.2,1,1,0,0,0-.5.35,4.83,4.83,0,0,0-.33.95l-.06.2c-.05.19-.13.28-.23.28s-.23-.06-.22-.21,0-.31.07-.55l.07-.61.08-.62.05-.43a.27.27,0,0,1,.3-.27H296a7.73,7.73,0,0,0,.78,0h1.43l1.7,0c1.09,0,2.26,0,3.48-.1h.47c.26,0,.39.11.41.32l0,.5q0,.12.06.57a5.36,5.36,0,0,1,0,.59c0,.16-.06.23-.19.23s-.18-.08-.23-.26a1.48,1.48,0,0,0-.56-.94,2.13,2.13,0,0,0-1.2-.29,3.07,3.07,0,0,0-1.32.17C300.72,22.28,300.63,22.55,300.63,23Z"/><path class="cls-8" d="M307.85,28.68l.06.7a1.29,1.29,0,0,0,.41.83,1.25,1.25,0,0,0,.85.28c.23,0,.34.07.34.22s-.15.2-.45.2a4.66,4.66,0,0,1-.56,0c-.61-.06-1.1-.1-1.47-.1a6.33,6.33,0,0,0-1.11.08,3.36,3.36,0,0,1-.5.06.19.19,0,0,1-.2-.15V30.7l.2-.16a1.24,1.24,0,0,0,.66-.44,1.63,1.63,0,0,0,.17-.87V23.05a1.46,1.46,0,0,0-.23-.92,1.28,1.28,0,0,0-.81-.36,1.76,1.76,0,0,1-.46-.11.21.21,0,0,1-.1-.18c0-.13.06-.2.17-.19a2.63,2.63,0,0,1,.38.05,4.17,4.17,0,0,0,.84.05c.26,0,.59,0,1,0l.51,0c.48,0,.85,0,1.11,0s.23,0,.23.17a.25.25,0,0,1,0,.17s-.08,0-.17.06a1,1,0,0,0-.65.28,1.45,1.45,0,0,0-.15.8Z"/><path class="cls-8" d="M313.42,24.74,315,28.57c.07.16.14.25.19.25s.11-.06.17-.19l1.58-3.5a7.11,7.11,0,0,0,.78-2.48.91.91,0,0,0-.3-.71,1.58,1.58,0,0,0-.88-.36c-.16,0-.25-.08-.25-.19s.06-.17.18-.17l.39,0,.73,0,.71,0a7,7,0,0,0,1.1-.08l.28,0c.09,0,.13.06.13.18s-.07.18-.21.21a1.06,1.06,0,0,0-.66.41,8.27,8.27,0,0,0-.73,1.41l-1,2.41L316,28.46q-.57,1.29-.63,1.38-.37.78-.42.9c-.09.21-.2.31-.34.31s-.16-.05-.21-.17l-.16-.35L314,30.1l-1.65-3.76c-.41-.92-.75-1.74-1-2.47a8.2,8.2,0,0,0-.77-1.7,1.16,1.16,0,0,0-.77-.52c-.19,0-.28-.11-.28-.23a.18.18,0,0,1,.2-.2l.21,0a6.67,6.67,0,0,0,.83,0l1.17,0,.74,0,.6,0c.14,0,.2.06.2.18s-.1.18-.29.22a.55.55,0,0,0-.52.6A8.49,8.49,0,0,0,313.42,24.74Z"/><path class="cls-8" d="M323.07,22.08l3.18,7.3a2.25,2.25,0,0,0,.57.83,1.71,1.71,0,0,0,.83.36c.08,0,.12.08.12.2s0,.19-.16.18a1,1,0,0,1-.26,0,9,9,0,0,0-1.74-.12,8.15,8.15,0,0,0-1.64.11l-.18,0a.18.18,0,0,1-.2-.2q0-.11.15-.15a1.1,1.1,0,0,0,.56-.35.85.85,0,0,0,.22-.53,6.11,6.11,0,0,0-.61-1.72c-.12-.27-.26-.43-.41-.47a11.82,11.82,0,0,0-1.61-.05h-.95l-.63.11c-.17.08-.37.38-.58.91l-.22.54a1.1,1.1,0,0,0-.1.47q0,.87,1.23,1c.18,0,.27.09.26.2s-.09.19-.25.19a1.94,1.94,0,0,1-.36,0,4.35,4.35,0,0,0-.82-.09c-.22,0-.58,0-1.07.08l-.68,0c-.13,0-.19,0-.19-.17s.06-.17.19-.21a1.14,1.14,0,0,0,.61-.44,9.27,9.27,0,0,0,.67-1.34l1.91-4.4.32-.72.65-1.33.34-.66v0c.15-.36.25-.53.3-.53s.2.19.38.58Zm.26,4.37-.91-2.13c-.22-.52-.37-.77-.47-.77s-.16.16-.3.49l-.14.3-.81,1.86-.08.17a.49.49,0,0,0-.05.18c0,.16.17.24.5.24h2.07c.17,0,.26-.05.26-.15a.36.36,0,0,0,0-.11Z"/><path class="cls-8" d="M330.76,28.67c0,.87.1,1.36.31,1.47a1.67,1.67,0,0,0,.68.09,3.84,3.84,0,0,0,3.36-1.4c.21-.28.33-.42.39-.42s.12.09.12.29a2.42,2.42,0,0,1-.57,1.58,1.69,1.69,0,0,1-1.39.62l-.67,0-.84-.05-.76,0-.88,0a16,16,0,0,0-1.75.11l-.38,0c-.14,0-.2-.06-.2-.18s.06-.15.18-.18a1,1,0,0,0,.62-.49,3,3,0,0,0,.17-1.17V23.05c0-.74-.31-1.17-.93-1.26l-.42-.07c-.18,0-.27-.1-.27-.22a.19.19,0,0,1,.21-.21.79.79,0,0,1,.2,0l.28,0,.3,0,.64,0a9.32,9.32,0,0,0,1.07-.08c.36,0,.73,0,1.11,0s.42.06.42.2-.1.17-.3.18c-.47,0-.7.36-.7,1Z"/><path class="cls-8" d="M341.82,22.89l3.7,4.15.23.26c.32.36.53.54.64.54s.15-.15.16-.43c0-1,.06-2,.06-2.93a5,5,0,0,0-.33-2.22,1.51,1.51,0,0,0-1.3-.65c-.15,0-.23-.07-.23-.17s.07-.18.2-.18.44,0,.81.06a5,5,0,0,0,.6,0,15.08,15.08,0,0,0,1.54-.12l.2,0c.15,0,.22.07.22.2s-.07.19-.22.21c-.6.11-.9.65-.9,1.6v.34l-.1,4.37,0,.6v1.31l0,.87c0,.13-.05.2-.14.19a.36.36,0,0,1-.26-.15l-6.36-7.08c-.12-.12-.19-.18-.23-.18s-.17.11-.17.32v2.91a12,12,0,0,0,.22,2.9c.15.52.61.82,1.36.89q.21,0,.21.18c0,.14-.07.21-.22.21l-.27,0a8.59,8.59,0,0,0-1.3-.1,7.85,7.85,0,0,0-1.26.1,2.12,2.12,0,0,1-.36,0c-.12,0-.19-.06-.19-.17s.07-.16.2-.2a1.17,1.17,0,0,0,.75-.6,3.1,3.1,0,0,0,.23-1.32l.05-1.65V24q0-2.14-1.59-2.25-.21,0-.21-.18c0-.13.07-.2.23-.2l.49,0h.29q.56,0,1.17-.06a3,3,0,0,1,.39,0,.57.57,0,0,1,.34.09,3.8,3.8,0,0,1,.53.58l.48.56Z"/><path class="cls-8" d="M353.46,22.08l3.19,7.3a2.35,2.35,0,0,0,.55.83,1.79,1.79,0,0,0,.84.36c.08,0,.13.08.13.2s-.06.19-.17.18a1,1,0,0,1-.26,0,8.91,8.91,0,0,0-1.74-.12,8.22,8.22,0,0,0-1.64.11l-.18,0a.18.18,0,0,1-.2-.2q0-.11.15-.15a1.1,1.1,0,0,0,.56-.35.79.79,0,0,0,.22-.53A5.78,5.78,0,0,0,354.3,28c-.12-.27-.26-.43-.41-.47a11.82,11.82,0,0,0-1.61-.05h-.95l-.62.11c-.17.08-.37.38-.59.91l-.22.54a1.28,1.28,0,0,0-.1.47c0,.58.42.92,1.24,1,.17,0,.26.09.25.2s-.09.19-.25.19a1.85,1.85,0,0,1-.35,0,4.45,4.45,0,0,0-.83-.09c-.22,0-.57,0-1.07.08l-.67,0c-.13,0-.2,0-.2-.17s.07-.17.2-.21a1.16,1.16,0,0,0,.6-.44,9,9,0,0,0,.68-1.34l1.9-4.4.33-.72.65-1.33.33-.66v0c.15-.36.25-.53.3-.53s.21.19.39.58Zm.27,4.37-.92-2.13c-.22-.52-.37-.77-.46-.77s-.16.16-.31.49l-.13.3-.82,1.86-.08.17a.45.45,0,0,0,0,.18c0,.16.16.24.5.24h2.06q.27,0,.27-.15a.24.24,0,0,0,0-.11Z"/><path class="cls-8" d="M367.19,26.1h-3.32c-.33,0-.53,0-.61.13a1.15,1.15,0,0,0-.12.68v1.73a2.5,2.5,0,0,0,.32,1.43,1.24,1.24,0,0,0,1.06.44q.24,0,.24.18c0,.15-.12.22-.37.22a4.48,4.48,0,0,1-.49,0,12.08,12.08,0,0,0-1.52-.1c-.29,0-.67,0-1.16.08l-.53,0a.21.21,0,0,1-.23-.23c0-.11.06-.16.18-.18a.87.87,0,0,0,.68-.43,2.19,2.19,0,0,0,.21-1.08V22.77a1,1,0,0,0-.27-.75,2.39,2.39,0,0,0-1-.39c-.13,0-.19-.09-.19-.2s.07-.21.22-.21a3,3,0,0,1,.46.06,10.21,10.21,0,0,0,1.33.08q.26,0,1.11-.09c.33,0,.58-.05.76-.05s.25.07.25.2-.07.17-.2.19a.92.92,0,0,0-.83,1v1.79a1.86,1.86,0,0,0,.1.84c.07.08.3.12.68.12h3.27c.29,0,.46-.06.52-.17a2.5,2.5,0,0,0,.1-.95V22.77a1,1,0,0,0-1-1.08l-.32-.06c-.13,0-.2-.09-.2-.2s.07-.21.23-.21a3.33,3.33,0,0,1,.46.06,10.33,10.33,0,0,0,1.33.08q.27,0,1.11-.09c.34,0,.59-.05.76-.05s.25.07.25.2-.06.17-.2.19a.92.92,0,0,0-.82,1v6a2.51,2.51,0,0,0,.31,1.43,1.2,1.2,0,0,0,1,.44c.18,0,.26.06.26.18s-.12.22-.36.22a4.48,4.48,0,0,1-.49,0,12.2,12.2,0,0,0-1.52-.1c-.29,0-.68,0-1.16.08l-.54,0c-.15,0-.22-.08-.22-.23s.05-.16.17-.18a.91.91,0,0,0,.69-.43,2.3,2.3,0,0,0,.2-1.08V27.07a2.11,2.11,0,0,0-.09-.83C367.66,26.14,367.48,26.1,367.19,26.1Z"/><path class="cls-8" d="M374.31,28.68l.06.7a1.34,1.34,0,0,0,.41.83,1.25,1.25,0,0,0,.85.28c.23,0,.34.07.34.22s-.15.2-.45.2a4.66,4.66,0,0,1-.56,0c-.6-.06-1.1-.1-1.47-.1a6.33,6.33,0,0,0-1.11.08,3.36,3.36,0,0,1-.5.06.19.19,0,0,1-.2-.15V30.7l.2-.16a1.28,1.28,0,0,0,.67-.44,1.74,1.74,0,0,0,.16-.87V23.05a1.53,1.53,0,0,0-.22-.92,1.31,1.31,0,0,0-.82-.36,1.76,1.76,0,0,1-.46-.11.21.21,0,0,1-.1-.18c0-.13.06-.2.17-.19a2.63,2.63,0,0,1,.38.05,4.23,4.23,0,0,0,.84.05c.26,0,.59,0,1,0l.51,0c.47,0,.84,0,1.1,0s.23,0,.23.17a.34.34,0,0,1,0,.17.31.31,0,0,1-.18.06,1,1,0,0,0-.65.28,1.45,1.45,0,0,0-.15.8Z"/><path class="cls-8" d="M387.28,21.2a4.67,4.67,0,0,1,.47,0c.54.05,1,.08,1.44.08a5.39,5.39,0,0,0,1.13-.1h.06c.1,0,.15.05.15.16s-.07.19-.22.24a1.41,1.41,0,0,0-.65.42,3.39,3.39,0,0,0-.47.87l-.41,1-.63,1.58c-.49,1.2-.78,1.94-.89,2.22-.43,1.1-.7,1.78-.82,2-.26.59-.42,1-.46,1.07s-.15.24-.28.24-.27-.1-.35-.3-.14-.35-.34-.82c-.72-1.76-1.23-3.08-1.52-4-.06-.2-.13-.29-.21-.29s-.21.18-.34.53-.44,1.05-.9,2-.78,1.66-1,2.05q-.14.25-.18.36c-.12.29-.26.43-.42.43s-.28-.16-.38-.47a4.29,4.29,0,0,0-.21-.53q-.94-2.18-1.82-4.7l-.62-1.76-.38-.95c-.25-.64-.54-1-.88-1a.17.17,0,0,1-.18-.19c0-.13.08-.19.22-.19l.52,0,.7,0,.72,0c.32,0,.7,0,1.13-.06h.11c.16,0,.24.06.24.19s-.08.18-.25.18q-.63,0-.63.6a11.77,11.77,0,0,0,.64,2.11l.69,1.91.43,1.24.23.66q.18.51.33.51c.12,0,.28-.24.48-.7,0,0,.19-.41.53-1.11.12-.24.3-.63.54-1.19l.34-.76a.41.41,0,0,0,.05-.17.54.54,0,0,0,0-.19c-.08-.19-.2-.5-.34-.92a6.79,6.79,0,0,0-.67-1.51,1.17,1.17,0,0,0-.76-.52c-.13,0-.19-.09-.19-.2s.09-.19.27-.19l.34,0,1.15.08c.8,0,1.26,0,1.39,0l.43-.05c.12,0,.18.08.18.23a.18.18,0,0,1-.15.17l-.22.07a.57.57,0,0,0-.42.59,11.08,11.08,0,0,0,.73,2.44l.72,2,.3.82c.09.23.14.38.17.46.11.35.22.52.34.51s.24-.18.36-.53c0-.08.17-.43.43-1,.11-.27.3-.77.56-1.51.14-.37.32-.84.53-1.42a4.45,4.45,0,0,0,.35-1.31,1,1,0,0,0-.25-.73,2,2,0,0,0-.94-.38c-.13,0-.19-.09-.19-.18A.21.21,0,0,1,387.28,21.2Z"/><path class="cls-8" d="M393.79,22.08l3.18,7.3a2.36,2.36,0,0,0,.56.83,1.8,1.8,0,0,0,.83.36c.09,0,.13.08.13.2s-.05.19-.16.18a1.16,1.16,0,0,1-.27,0,8.84,8.84,0,0,0-1.74-.12,8,8,0,0,0-1.63.11l-.19,0c-.13,0-.19-.07-.19-.2s.05-.12.15-.15a1.1,1.1,0,0,0,.56-.35.79.79,0,0,0,.22-.53,5.78,5.78,0,0,0-.61-1.72c-.12-.27-.26-.43-.41-.47a11.92,11.92,0,0,0-1.61-.05h-.95l-.63.11c-.17.08-.37.38-.58.91l-.22.54a1.1,1.1,0,0,0-.1.47q0,.87,1.23,1c.18,0,.27.09.26.2s-.09.19-.25.19a1.94,1.94,0,0,1-.36,0,4.28,4.28,0,0,0-.83-.09c-.21,0-.57,0-1.06.08l-.68,0c-.13,0-.19,0-.19-.17s.06-.17.19-.21a1.18,1.18,0,0,0,.61-.44,9.27,9.27,0,0,0,.67-1.34l1.91-4.4c.15-.35.26-.59.32-.72l.65-1.33.34-.66v0c.15-.36.24-.53.3-.53s.2.19.38.58Zm.26,4.37-.91-2.13c-.22-.52-.38-.77-.47-.77s-.16.16-.31.49l-.13.3-.81,1.86-.08.17a.49.49,0,0,0,0,.18c0,.16.17.24.5.24h2.07c.17,0,.26-.05.26-.15a.36.36,0,0,0,0-.11Z"/><path class="cls-8" d="M405.51,26.1h-3.32c-.33,0-.53,0-.61.13a1.15,1.15,0,0,0-.12.68v1.73a2.5,2.5,0,0,0,.32,1.43,1.24,1.24,0,0,0,1.06.44q.24,0,.24.18c0,.15-.12.22-.36.22l-.5,0a12,12,0,0,0-1.52-.1c-.29,0-.67,0-1.15.08l-.54,0c-.15,0-.22-.08-.22-.23s0-.16.17-.18a.87.87,0,0,0,.68-.43,2.19,2.19,0,0,0,.21-1.08V22.77a.92.92,0,0,0-.28-.75,2.28,2.28,0,0,0-1-.39c-.13,0-.19-.09-.19-.2s.07-.21.22-.21a3.15,3.15,0,0,1,.46.06,10.21,10.21,0,0,0,1.33.08q.27,0,1.11-.09c.33,0,.59-.05.76-.05s.25.07.25.2-.07.17-.2.19a.93.93,0,0,0-.83,1v1.79a1.86,1.86,0,0,0,.1.84c.08.08.3.12.68.12h3.27c.29,0,.46-.06.53-.17a2.84,2.84,0,0,0,.09-.95V22.77a1,1,0,0,0-1-1.08l-.32-.06c-.13,0-.2-.09-.2-.2a.19.19,0,0,1,.22-.21,3.24,3.24,0,0,1,.47.06,10.21,10.21,0,0,0,1.33.08q.27,0,1.11-.09c.34,0,.59-.05.76-.05s.25.07.25.2-.06.17-.2.19a.92.92,0,0,0-.82,1v6a2.51,2.51,0,0,0,.31,1.43,1.22,1.22,0,0,0,1,.44c.18,0,.26.06.26.18s-.12.22-.36.22a4.48,4.48,0,0,1-.49,0,12.2,12.2,0,0,0-1.52-.1c-.29,0-.68,0-1.16.08l-.53,0a.2.2,0,0,1-.23-.23c0-.11.06-.16.18-.18a.87.87,0,0,0,.67-.43,2.06,2.06,0,0,0,.21-1.08V27.07a2.11,2.11,0,0,0-.09-.83C406,26.14,405.8,26.1,405.51,26.1Z"/><path class="cls-8" d="M412.92,28.68l.06.7a1.29,1.29,0,0,0,.41.83,1.25,1.25,0,0,0,.85.28c.23,0,.34.07.34.22s-.15.2-.45.2a4.66,4.66,0,0,1-.56,0c-.61-.06-1.1-.1-1.48-.1a6.28,6.28,0,0,0-1.1.08,3.36,3.36,0,0,1-.5.06.19.19,0,0,1-.2-.15V30.7l.2-.16a1.32,1.32,0,0,0,.67-.44,1.86,1.86,0,0,0,.16-.87V23.05a1.46,1.46,0,0,0-.22-.92,1.28,1.28,0,0,0-.81-.36,1.76,1.76,0,0,1-.46-.11.19.19,0,0,1-.1-.18c0-.13.06-.2.17-.19a2.63,2.63,0,0,1,.38.05,4.23,4.23,0,0,0,.84.05c.26,0,.59,0,1,0l.51,0c.48,0,.85,0,1.11,0s.23,0,.23.17a.25.25,0,0,1,0,.17s-.08,0-.17.06a1,1,0,0,0-.65.28,1.45,1.45,0,0,0-.15.8Z"/><path class="cls-8" d="M425.89,21.2a4.67,4.67,0,0,1,.47,0c.54.05,1,.08,1.44.08a5.52,5.52,0,0,0,1.13-.1H429c.1,0,.15.05.15.16s-.08.19-.22.24a1.41,1.41,0,0,0-.65.42,3.11,3.11,0,0,0-.47.87l-.41,1-.64,1.58c-.48,1.2-.78,1.94-.88,2.22-.43,1.1-.7,1.78-.82,2-.26.59-.42,1-.46,1.07s-.16.24-.28.24-.27-.1-.35-.3-.14-.35-.34-.82c-.73-1.76-1.24-3.08-1.53-4,0-.2-.12-.29-.2-.29s-.21.18-.34.53-.44,1.05-.9,2-.78,1.66-1,2.05q-.14.25-.18.36c-.12.29-.27.43-.43.43s-.28-.16-.37-.47a4.29,4.29,0,0,0-.21-.53q-.95-2.18-1.82-4.7c-.4-1.11-.6-1.7-.62-1.76l-.38-.95c-.25-.64-.55-1-.88-1a.17.17,0,0,1-.18-.19c0-.13.07-.19.22-.19l.52,0,.7,0,.72,0c.32,0,.69,0,1.12-.06H418c.16,0,.24.06.24.19s-.08.18-.25.18q-.63,0-.63.6a11.77,11.77,0,0,0,.64,2.11l.69,1.91.42,1.24.24.66q.18.51.33.51c.12,0,.28-.24.48-.7,0,0,.19-.41.53-1.11.12-.24.3-.63.54-1.19.13-.3.24-.55.34-.76a.35.35,0,0,0,0-.36c-.08-.19-.19-.5-.33-.92a6.79,6.79,0,0,0-.67-1.51,1.19,1.19,0,0,0-.76-.52.2.2,0,0,1-.19-.2c0-.12.09-.19.27-.19l.33,0,1.16.08c.8,0,1.26,0,1.39,0l.43-.05c.12,0,.18.08.18.23a.18.18,0,0,1-.15.17l-.22.07a.57.57,0,0,0-.42.59,11.41,11.41,0,0,0,.72,2.44l.73,2,.3.82c.09.23.14.38.17.46.11.35.22.52.34.51s.24-.18.36-.53l.42-1c.12-.27.3-.77.57-1.51l.53-1.42a4.34,4.34,0,0,0,.34-1.31,1,1,0,0,0-.24-.73,2,2,0,0,0-.94-.38c-.13,0-.2-.09-.19-.18A.21.21,0,0,1,425.89,21.2Z"/><path class="cls-8" d="M432.4,22.08l3.18,7.3a2.36,2.36,0,0,0,.56.83,1.71,1.71,0,0,0,.83.36c.09,0,.13.08.13.2s-.05.19-.16.18a1,1,0,0,1-.26,0,9.1,9.1,0,0,0-1.75-.12,8.22,8.22,0,0,0-1.64.11l-.18,0a.18.18,0,0,1-.2-.2c0-.07.06-.12.16-.15a1.14,1.14,0,0,0,.56-.35.85.85,0,0,0,.22-.53,6.11,6.11,0,0,0-.61-1.72c-.13-.27-.26-.43-.41-.47a11.92,11.92,0,0,0-1.61-.05h-1l-.63.11c-.17.08-.37.38-.58.91l-.22.54a1.1,1.1,0,0,0-.1.47q0,.87,1.23,1c.17,0,.26.09.26.2s-.09.19-.25.19a1.86,1.86,0,0,1-.36,0,4.36,4.36,0,0,0-.83-.09c-.22,0-.57,0-1.06.08l-.68,0c-.13,0-.19,0-.19-.17s.06-.17.19-.21a1.18,1.18,0,0,0,.61-.44,9.27,9.27,0,0,0,.67-1.34l1.91-4.4c.15-.35.26-.59.32-.72l.65-1.33.33-.66v0c.16-.36.26-.53.31-.53s.2.19.38.58Zm.26,4.37-.91-2.13c-.22-.52-.38-.77-.47-.77s-.16.16-.31.49l-.13.3L430,26.2l-.07.17a.35.35,0,0,0-.05.18c0,.16.16.24.5.24h2.06q.27,0,.27-.15a.24.24,0,0,0,0-.11Z"/><path class="cls-8" d="M444.19,21.12a4.92,4.92,0,0,1,3.53,1.27,4.37,4.37,0,0,1,1.34,3.33,5.51,5.51,0,0,1-1.39,3.81A4.72,4.72,0,0,1,444,31.05a5,5,0,0,1-3.62-1.32A4.76,4.76,0,0,1,439,26.18a5.47,5.47,0,0,1,.34-1.89A4.47,4.47,0,0,1,442,21.54,5.92,5.92,0,0,1,444.19,21.12Zm-.5.52a2.62,2.62,0,0,0-2.2,1,4.71,4.71,0,0,0-.79,2.9,5.94,5.94,0,0,0,1,3.57,3.07,3.07,0,0,0,2.58,1.38,2.73,2.73,0,0,0,2.3-1.14,4.88,4.88,0,0,0,.86-3,5.88,5.88,0,0,0-.4-2.14A4.25,4.25,0,0,0,446,22.55,3.22,3.22,0,0,0,443.69,21.64Z"/><path class="cls-8" d="M459.08,26.1h-3.33c-.33,0-.53,0-.61.13a1.24,1.24,0,0,0-.12.68v1.73a2.41,2.41,0,0,0,.33,1.43,1.21,1.21,0,0,0,1,.44q.24,0,.24.18c0,.15-.12.22-.36.22l-.5,0a11.93,11.93,0,0,0-1.51-.1c-.3,0-.68,0-1.16.08l-.54,0a.2.2,0,0,1-.22-.23c0-.11.06-.16.17-.18a.87.87,0,0,0,.68-.43,2.19,2.19,0,0,0,.21-1.08V22.77a.92.92,0,0,0-.28-.75,2.28,2.28,0,0,0-1-.39c-.13,0-.2-.09-.2-.2s.08-.21.23-.21a3.33,3.33,0,0,1,.46.06,10.1,10.1,0,0,0,1.33.08c.17,0,.54,0,1.1-.09.34,0,.59-.05.76-.05s.25.07.25.2-.06.17-.2.19a.93.93,0,0,0-.83,1v1.79a1.8,1.8,0,0,0,.11.84c.07.08.29.12.67.12h3.28c.28,0,.45-.06.52-.17a2.84,2.84,0,0,0,.09-.95V22.77a1,1,0,0,0-1-1.08l-.32-.06c-.13,0-.2-.09-.2-.2s.08-.21.23-.21a3.33,3.33,0,0,1,.46.06,10.38,10.38,0,0,0,1.34.08c.17,0,.54,0,1.1-.09.34,0,.59-.05.77-.05s.25.07.25.2-.07.17-.21.19a.92.92,0,0,0-.82,1v6a2.42,2.42,0,0,0,.32,1.43,1.2,1.2,0,0,0,1,.44c.17,0,.25.06.25.18s-.11.22-.36.22a4.48,4.48,0,0,1-.49,0,12.05,12.05,0,0,0-1.51-.1c-.3,0-.69,0-1.17.08l-.53,0a.21.21,0,0,1-.23-.23c0-.11.06-.16.18-.18a.9.9,0,0,0,.68-.43,2.18,2.18,0,0,0,.2-1.08V27.07a2.11,2.11,0,0,0-.09-.83C459.54,26.14,459.37,26.1,459.08,26.1Z"/><path class="cls-8" d="M468.52,22.08l3.18,7.3a2.23,2.23,0,0,0,.56.83,1.71,1.71,0,0,0,.83.36c.09,0,.13.08.13.2s-.05.19-.16.18a1.16,1.16,0,0,1-.27,0,8.91,8.91,0,0,0-1.74-.12,8.22,8.22,0,0,0-1.64.11l-.18,0a.18.18,0,0,1-.2-.2c0-.07.05-.12.16-.15a1.07,1.07,0,0,0,.55-.35.79.79,0,0,0,.22-.53,6,6,0,0,0-.6-1.72c-.13-.27-.27-.43-.42-.47a11.82,11.82,0,0,0-1.61-.05h-.95l-.62.11c-.17.08-.37.38-.59.91L465,29a1.1,1.1,0,0,0-.1.47q0,.87,1.23,1c.17,0,.26.09.25.2s-.09.19-.24.19a1.86,1.86,0,0,1-.36,0,4.36,4.36,0,0,0-.83-.09c-.22,0-.57,0-1.06.08l-.68,0c-.13,0-.2,0-.2-.17s.07-.17.2-.21a1.16,1.16,0,0,0,.6-.44,8.09,8.09,0,0,0,.68-1.34l1.91-4.4c.15-.35.26-.59.32-.72l.65-1.33.33-.66v0c.15-.36.25-.53.3-.53s.2.19.39.58Zm.26,4.37-.92-2.13c-.21-.52-.37-.77-.46-.77s-.16.16-.31.49l-.13.3-.82,1.86-.08.17a.74.74,0,0,0,0,.18c0,.16.16.24.5.24h2.06q.27,0,.27-.15a.24.24,0,0,0,0-.11Z"/><path class="cls-8" d="M482.54,21.2a4.57,4.57,0,0,1,.47,0c.54.05,1,.08,1.44.08a5.39,5.39,0,0,0,1.13-.1h.06c.1,0,.15.05.15.16s-.07.19-.22.24a1.41,1.41,0,0,0-.65.42,3.12,3.12,0,0,0-.46.87l-.42,1-.63,1.58c-.49,1.2-.78,1.94-.88,2.22-.44,1.1-.71,1.78-.82,2-.27.59-.42,1-.46,1.07s-.16.24-.29.24-.27-.1-.35-.3-.14-.35-.33-.82c-.73-1.76-1.24-3.08-1.53-4-.06-.2-.13-.29-.21-.29s-.2.18-.34.53-.44,1.05-.89,2-.79,1.66-1,2.05l-.17.36c-.13.29-.27.43-.43.43s-.28-.16-.37-.47c0-.12-.11-.3-.21-.53q-1-2.18-1.83-4.7c-.39-1.11-.6-1.7-.61-1.76l-.38-.95c-.26-.64-.55-1-.89-1a.17.17,0,0,1-.18-.19c0-.13.08-.19.22-.19l.52,0,.71,0,.71,0c.32,0,.7,0,1.13-.06h.12c.16,0,.24.06.24.19s-.09.18-.25.18q-.63,0-.63.6a11.31,11.31,0,0,0,.63,2.11l.69,1.91.43,1.24.24.66c.11.34.22.51.32.51s.29-.24.48-.7q0-.06.54-1.11l.54-1.19.33-.76a.49.49,0,0,0,.06-.17.59.59,0,0,0,0-.19c-.08-.19-.19-.5-.34-.92a6.35,6.35,0,0,0-.67-1.51,1.15,1.15,0,0,0-.75-.52c-.13,0-.2-.09-.2-.2s.1-.19.27-.19l.34,0,1.15.08c.8,0,1.26,0,1.4,0l.42-.05c.12,0,.19.08.19.23s-.06.14-.16.17l-.21.07a.56.56,0,0,0-.43.59,11.73,11.73,0,0,0,.73,2.44l.73,2,.3.82c.08.23.14.38.16.46.11.35.22.52.35.51s.23-.18.35-.53c0-.08.17-.43.43-1,.11-.27.3-.77.57-1.51.13-.37.31-.84.53-1.42a4.68,4.68,0,0,0,.34-1.31,1,1,0,0,0-.25-.73,2,2,0,0,0-.94-.38q-.19,0-.18-.18C482.36,21.28,482.42,21.21,482.54,21.2Z"/><path class="cls-8" d="M489.05,22.08l3.19,7.3a2.12,2.12,0,0,0,.56.83,1.71,1.71,0,0,0,.83.36c.08,0,.12.08.12.2s-.05.19-.16.18a1.09,1.09,0,0,1-.26,0,8.91,8.91,0,0,0-1.74-.12,8.22,8.22,0,0,0-1.64.11l-.18,0a.18.18,0,0,1-.2-.2q0-.11.15-.15a1.1,1.1,0,0,0,.56-.35.79.79,0,0,0,.22-.53,5.78,5.78,0,0,0-.61-1.72c-.12-.27-.26-.43-.41-.47a11.82,11.82,0,0,0-1.61-.05h-.95l-.62.11c-.18.08-.37.38-.59.91l-.22.54a1.28,1.28,0,0,0-.1.47c0,.58.41.92,1.24,1,.17,0,.26.09.25.2s-.09.19-.25.19a2,2,0,0,1-.36,0,4.27,4.27,0,0,0-.82-.09c-.22,0-.57,0-1.07.08l-.67,0c-.13,0-.2,0-.2-.17s.07-.17.2-.21a1.16,1.16,0,0,0,.6-.44,9,9,0,0,0,.68-1.34l1.9-4.4c.16-.35.27-.59.32-.72l.66-1.33.33-.66v0c.15-.36.25-.53.3-.53s.2.19.38.58Zm.26,4.37-.91-2.13c-.22-.52-.37-.77-.46-.77s-.16.16-.31.49l-.13.3-.82,1.86-.08.17a.49.49,0,0,0-.05.18q0,.24.51.24h2.06q.27,0,.27-.15a.24.24,0,0,0,0-.11Z"/><path class="cls-8" d="M496.74,28.68l.05.7a1.39,1.39,0,0,0,.41.83,1.25,1.25,0,0,0,.85.28c.23,0,.35.07.35.22s-.15.2-.46.2a4.79,4.79,0,0,1-.56,0c-.6-.06-1.09-.1-1.47-.1a6.41,6.41,0,0,0-1.11.08,3.36,3.36,0,0,1-.5.06.2.2,0,0,1-.2-.15V30.7l.21-.16a1.29,1.29,0,0,0,.66-.44,1.74,1.74,0,0,0,.16-.87V23.05a1.46,1.46,0,0,0-.22-.92,1.28,1.28,0,0,0-.82-.36,1.77,1.77,0,0,1-.45-.11.19.19,0,0,1-.1-.18c0-.13,0-.2.17-.19a2.54,2.54,0,0,1,.37.05,4.35,4.35,0,0,0,.85.05c.25,0,.58,0,1,0l.51,0c.48,0,.85,0,1.1,0s.23,0,.23.17a.34.34,0,0,1,0,.17s-.08,0-.18.06a1.07,1.07,0,0,0-.65.28,1.57,1.57,0,0,0-.14.8Z"/><path class="cls-8" d="M504.51,28.68l.05.7a1.34,1.34,0,0,0,.41.83,1.25,1.25,0,0,0,.85.28c.23,0,.35.07.35.22s-.16.2-.46.2a4.79,4.79,0,0,1-.56,0c-.6-.06-1.1-.1-1.47-.1a6.33,6.33,0,0,0-1.11.08,3.36,3.36,0,0,1-.5.06.19.19,0,0,1-.2-.15V30.7l.2-.16a1.28,1.28,0,0,0,.67-.44,1.74,1.74,0,0,0,.16-.87V23.05a1.53,1.53,0,0,0-.22-.92,1.28,1.28,0,0,0-.82-.36,1.77,1.77,0,0,1-.45-.11.2.2,0,0,1-.11-.18c0-.13.06-.2.17-.19a2.47,2.47,0,0,1,.38.05,4.35,4.35,0,0,0,.85.05c.25,0,.58,0,1,0l.52,0c.48,0,.84,0,1.1,0s.23,0,.23.17a.34.34,0,0,1,0,.17.28.28,0,0,1-.18.06,1,1,0,0,0-.65.28,1.47,1.47,0,0,0-.14.8Z"/><rect class="cls-8" x="350.63" y="20.21" width="4.43" height="0.52"/><path class="cls-8" d="M500.65,19c.07,0,.1,0,.1.1s-.07.16-.22.28a1.8,1.8,0,0,0-.5.62,1.69,1.69,0,0,0-.2.76,1.24,1.24,0,0,0,.64,1c.2.14.3.26.3.37a.33.33,0,0,1-.09.22l-.43.45c-.31.33-.53.49-.65.49a.91.91,0,0,1-.73-.43,1.59,1.59,0,0,1-.34-1,3,3,0,0,1,.92-2.09,6.19,6.19,0,0,1,.67-.58A1.2,1.2,0,0,1,500.65,19Z"/><path class="cls-8" d="M515.6,29.07c1.13,0,1.31,0,1.76-.85.1-.11.46-.11.52.09a7.06,7.06,0,0,1-.75,2.39c-.62,0-1.17-.05-2.16-.05h-2.45c-.8,0-1.46,0-1.72.05s-.19-.2-.16-.34c.59-.54,1.47-1.36,2.39-2.37a6.25,6.25,0,0,0,2-4.11A1.71,1.71,0,0,0,513.37,22a2.34,2.34,0,0,0-2,1.42.33.33,0,0,1-.51-.22,3.77,3.77,0,0,1,3.55-2.4,2.66,2.66,0,0,1,2.91,2.62c0,1.2-.48,2.06-2.33,3.8l-.74.69c-.68.63-.81.85-.81,1s.07.19.29.19Z"/><path class="cls-8" d="M526.21,25.83c0,2.48-1.06,5-3.56,5s-3.55-2.56-3.55-5,1.06-5,3.55-5S526.21,23.45,526.21,25.83Zm-3.56,4.33c1.17,0,1.31-3,1.31-4.33s-.14-4.33-1.31-4.33-1.31,3-1.31,4.33S521.48,30.16,522.65,30.16Z"/><path class="cls-8" d="M531.94,29.07c1.12,0,1.31,0,1.76-.85.1-.11.46-.11.52.09a6.82,6.82,0,0,1-.76,2.39c-.61,0-1.17-.05-2.15-.05h-2.45c-.8,0-1.46,0-1.72.05s-.19-.2-.16-.34c.59-.54,1.46-1.36,2.39-2.37a6.25,6.25,0,0,0,2-4.11A1.71,1.71,0,0,0,529.71,22a2.34,2.34,0,0,0-2,1.42.33.33,0,0,1-.51-.22,3.77,3.77,0,0,1,3.54-2.4,2.65,2.65,0,0,1,2.91,2.62c0,1.2-.47,2.06-2.32,3.8l-.74.69c-.68.63-.82.85-.82,1s.08.19.3.19Z"/><path class="cls-8" d="M458.34,73.66c3.76,0,4.38-.11,5.88-2.84.36-.36,1.55-.36,1.75.31-.46,3.2-1.65,6.76-2.52,8-2.07-.1-3.92-.15-7.23-.15H448c-2.68,0-4.9,0-5.77.15-.47-.1-.62-.67-.52-1.13,2-1.81,4.9-4.54,8-7.94,3.55-3.92,6.75-8.26,6.75-13.78,0-3.55-2.16-6.29-5.62-6.29-2.94,0-5,1.91-6.65,4.75A1.11,1.11,0,0,1,442.5,54a12.67,12.67,0,0,1,11.87-8c6,0,9.75,3.92,9.75,8.77,0,4-1.6,6.91-7.79,12.74l-2.48,2.32c-2.27,2.11-2.73,2.84-2.73,3.25s.26.62,1,.62Z"/><path class="cls-8" d="M495,62.82c0,8.31-3.55,16.87-11.91,16.87s-11.92-8.56-11.92-16.87c0-8,3.56-16.86,11.92-16.86S495,54.83,495,62.82Zm-11.91,14.5c3.92,0,4.38-9.9,4.38-14.5s-.46-14.49-4.38-14.49-4.39,9.9-4.39,14.49S479.13,77.32,483.05,77.32Z"/><path class="cls-8" d="M514.72,73.66c3.77,0,4.39-.11,5.88-2.84.36-.36,1.55-.36,1.76.31-.47,3.2-1.65,6.76-2.53,8-2.06-.1-3.92-.15-7.22-.15h-8.2c-2.69,0-4.9,0-5.78.15-.46-.1-.62-.67-.52-1.13,2-1.81,4.9-4.54,8-7.94,3.56-3.92,6.76-8.26,6.76-13.78,0-3.55-2.17-6.29-5.63-6.29-2.94,0-5,1.91-6.65,4.75a1.1,1.1,0,0,1-1.7-.73,12.65,12.65,0,0,1,11.86-8c6,0,9.75,3.92,9.75,8.77,0,4-1.6,6.91-7.79,12.74l-2.48,2.32C508,71.9,507.5,72.63,507.5,73s.26.62,1,.62Z"/><path class="cls-8" d="M539.71,72.32c0,4.12.31,4.64,2.84,4.84l2.11.16c.47.31.42,1.65-.1,1.8-1.86-.1-4.95-.15-8.15-.15-3.4,0-6.5,0-8.36.15-.51-.15-.56-1.49-.1-1.8l2.12-.16c2.52-.2,2.83-.72,2.83-4.84V55.66c0-3.41-.2-4.18-2.47-4.49l-2.38-.31a1.42,1.42,0,0,1-.1-1.81,57.06,57.06,0,0,0,6.6-1.44c2.27-.67,4.23-1.65,4.59-1.65a.75.75,0,0,1,.73.57c-.11,1.18-.16,3.55-.16,6.13Z"/><path class="cls-8" d="M539.72,28.8c0,1.25.1,1.41.87,1.47l.64.05c.14.09.13.5,0,.55-.57,0-1.51-.05-2.48-.05s-2,0-2.54.05c-.16-.05-.17-.46,0-.55l.64-.05c.77-.06.86-.22.86-1.47V23.73c0-1-.06-1.27-.75-1.36l-.72-.1a.42.42,0,0,1,0-.55,15.69,15.69,0,0,0,2-.44c.69-.2,1.28-.5,1.39-.5a.23.23,0,0,1,.22.17c0,.36,0,1.09,0,1.87Z"/></g></g></svg>