<svg xmlns="http://www.w3.org/2000/svg" width="18.827" height="30.833" viewBox="0 0 18.827 30.833">
  <g id="icon_hand.svg" transform="translate(-15.173 -133.167)">
    <path id="hand-pointer-regular" d="M13.991,7.006a2.569,2.569,0,0,0-3.12-.746,2.567,2.567,0,0,0-2.211-.767V2.617a2.589,2.589,0,1,0-5.179,0V8.911a2.557,2.557,0,0,0-2.425.347A2.634,2.634,0,0,0,.488,12.9l4.285,6.016A2.587,2.587,0,0,0,6.875,20h6.964a2.6,2.6,0,0,0,2.522-2.023l1.071-4.648a2.651,2.651,0,0,0,.067-.594V9.453A2.6,2.6,0,0,0,13.991,7.006ZM3.163,10.926l1.06,1.487a.625.625,0,0,0,1.134-.363V2.617a.715.715,0,1,1,1.429,0V9.453a.625.625,0,0,0,.625.625h.268A.625.625,0,0,0,8.3,9.453V8.086a.715.715,0,1,1,1.429,0V9.453a.625.625,0,0,0,.625.625h.268a.625.625,0,0,0,.625-.625v-.82a.715.715,0,1,1,1.429,0v.82a.625.625,0,0,0,.625.625h.268a.625.625,0,0,0,.625-.625.715.715,0,1,1,1.429,0v3.281a.771.771,0,0,1-.02.173l-1.071,4.648a.718.718,0,0,1-.695.569H6.875a.709.709,0,0,1-.574-.3L2.015,11.809c-.563-.79.586-1.673,1.148-.883Zm3.717,4.7v-3.75a.59.59,0,0,1,.547-.625h.234a.59.59,0,0,1,.547.625v3.75a.59.59,0,0,1-.547.625H7.427A.59.59,0,0,1,6.88,15.625Zm2.946,0v-3.75a.59.59,0,0,1,.547-.625h.234a.59.59,0,0,1,.547.625v3.75a.59.59,0,0,1-.547.625h-.234A.59.59,0,0,1,9.827,15.625Zm2.946,0v-3.75a.59.59,0,0,1,.547-.625h.234a.59.59,0,0,1,.547.625v3.75a.59.59,0,0,1-.547.625H13.32A.59.59,0,0,1,12.773,15.625Z" transform="translate(16.5 144)" fill="#003d4c"/>
    <line id="線_7" data-name="線 7" x1="2" y2="4.333" transform="translate(26.5 135.167)" fill="none" stroke="#003d4c" stroke-linecap="round" stroke-width="2"/>
    <line id="線_8" data-name="線 8" y2="4.333" transform="translate(22.5 134.167)" fill="none" stroke="#003d4c" stroke-linecap="round" stroke-width="2"/>
    <line id="線_9" data-name="線 9" x2="2" y2="4.333" transform="translate(16.5 135.167)" fill="none" stroke="#003d4c" stroke-linecap="round" stroke-width="2"/>
  </g>
</svg>
