<svg xmlns="http://www.w3.org/2000/svg" viewBox="0 0 52.14 52.14"><defs><style>.cls-1{fill:#fff;}</style></defs><title>icon</title><g id="レイヤー_2" data-name="レイヤー 2"><g id="レイヤー_6" data-name="レイヤー 6"><path d="M52.14,26.07A26.07,26.07,0,1,0,22,51.82V33.6H15.38V26.07H22V20.32c0-6.53,3.9-10.14,9.85-10.14a40.17,40.17,0,0,1,5.84.51v6.42H34.39c-3.24,0-4.25,2-4.25,4.07v4.89h7.23L36.22,33.6H30.14V51.82A26.08,26.08,0,0,0,52.14,26.07Z"/><path class="cls-1" d="M36.22,33.6l1.15-7.53H30.14V21.18c0-2.06,1-4.07,4.25-4.07h3.29V10.69a40.17,40.17,0,0,0-5.84-.51c-5.95,0-9.85,3.61-9.85,10.14v5.75H15.38V33.6H22V51.82a26.11,26.11,0,0,0,8.15,0V33.6Z"/></g></g></svg>