<svg xmlns="http://www.w3.org/2000/svg" xmlns:xlink="http://www.w3.org/1999/xlink" width="229" height="175" viewBox="0 0 229 175">
  <defs>
    <clipPath id="clip-path">
      <rect id="長方形_52" data-name="長方形 52" width="229" height="175" transform="translate(-0.193 -0.283)" fill="#e6e6e6" stroke="#707070" stroke-width="1"/>
    </clipPath>
  </defs>
  <g id="マスクグループ_2" data-name="マスクグループ 2" transform="translate(0.193 0.283)" clip-path="url(#clip-path)">
    <g id="レイヤー_2" data-name="レイヤー 2" transform="translate(6.222 0)">
      <g id="レイヤー_1" data-name="レイヤー 1" transform="translate(0 0)">
        <path id="パス_518" data-name="パス 518" d="M82.556,8.021a9.372,9.372,0,0,1-3.909,2.354,5.783,5.783,0,0,0-.733-1.07A8.584,8.584,0,0,0,81.773,7.4H79.821l-.165.551H78.338a9.719,9.719,0,0,0,.64-2.084,12.273,12.273,0,0,0,.171-1.235c.2,0,.518.033,1.07.033h2.31V3.931H79.976a9.135,9.135,0,0,0-1.036.044v-1.1c-.121.127-.182.171-.336.314a4.134,4.134,0,0,0-.733-.91A4.57,4.57,0,0,0,79.639,0l1.2.226c-.154.292-.2.38-.336.606h1.444a5.513,5.513,0,0,0,1.1-.066v.888A4.322,4.322,0,0,0,83.967,0l1.191.215a4.868,4.868,0,0,1-.281.628h2.139a7.421,7.421,0,0,0,1.24-.066V1.935a8.942,8.942,0,0,0-1.18-.055h-.882c.215.314.314.485.5.777l-.926.27h.551a8.06,8.06,0,0,0,1.047-.044,5.027,5.027,0,0,0-.044.81V4.857a5.272,5.272,0,0,0,.044.821c-.281,0-.6-.033-1.047-.033h-2.6V6.4h3.209a7.718,7.718,0,0,0,.97-.044,2.7,2.7,0,0,1-.044.347c-.033.43-.083.788-.1,1.07-.11,1.1-.187,1.389-.413,1.654s-.551.342-1.318.342a9.782,9.782,0,0,1-1.053-.044,4.664,4.664,0,0,0-.281-1.1,11.423,11.423,0,0,0,1.218.116c.623,0,.656-.055.733-1.323H83.724V9.3a8.429,8.429,0,0,0,.088,1.251h-1.3a4.961,4.961,0,0,0,.066-.97V9.289Zm-1.6-5.094a6.792,6.792,0,0,0-.507-1.058h-.623a6.323,6.323,0,0,1-.877,1.014,7.674,7.674,0,0,0,1.025.044Zm1.566,2.718h-2.31c-.044.281-.055.347-.149.755h2.47Zm.64-2.718a3.424,3.424,0,0,0-.706-.673c.187-.16.248-.215.4-.364H81.607c.138.215.2.325.452.766l-.937.292Zm2.393,0A9.064,9.064,0,0,0,85,1.88h-.689A5.27,5.27,0,0,1,83.4,2.927ZM83.7,4.664h2.442V3.931H83.68Z" transform="translate(-12.976 0)"/>
        <path id="パス_519" data-name="パス 519" d="M96.466,10.405a11.527,11.527,0,0,0-1.511.055,6.252,6.252,0,0,1,.3-1.5,5.783,5.783,0,0,1,1.61-2.288A15.758,15.758,0,0,1,98.8,5.256c1.1-.733,1.406-1.1,1.406-1.715,0-.8-.617-1.29-1.615-1.29a1.654,1.654,0,0,0-1.489.689A2.249,2.249,0,0,0,96.764,4L95.11,3.8a3.5,3.5,0,0,1,.81-1.869A3.407,3.407,0,0,1,98.6.884c2.051,0,3.308.981,3.308,2.586a2.365,2.365,0,0,1-.832,1.869,14.29,14.29,0,0,1-1.968,1.439,10.6,10.6,0,0,0-1.395,1.169A2.867,2.867,0,0,0,97.05,9h3.28a11.18,11.18,0,0,0,1.715-.1v1.549a16.62,16.62,0,0,0-1.77-.066Z" transform="translate(-15.706 -0.14)"/>
        <path id="パス_520" data-name="パス 520" d="M113.425,1.957a4.521,4.521,0,0,0-.149.866,20.4,20.4,0,0,1-.888,3.859,10.9,10.9,0,0,1-2,3.484,4.929,4.929,0,0,0-1.285-.97,7.613,7.613,0,0,0,1.61-2.4,13.523,13.523,0,0,0,1.059-3.859,7.654,7.654,0,0,0,.1-1.1V1.676Zm3.2-.281a14.588,14.588,0,0,0,.474,2.591,10.9,10.9,0,0,0,2.514,4.868,4.758,4.758,0,0,0-1.24,1.036,12.024,12.024,0,0,1-1.919-3.308,18.034,18.034,0,0,1-1.07-4.1,5.513,5.513,0,0,0-.154-.81Zm1.185.121a5.894,5.894,0,0,1,.843,1.588l-.843.4a6.82,6.82,0,0,0-.838-1.615Zm1.24,1.422a8.1,8.1,0,0,0-.816-1.56l.788-.347a6.3,6.3,0,0,1,.838,1.511Z" transform="translate(-17.967 -0.21)"/>
        <path id="パス_521" data-name="パス 521" d="M129.693,1.362a24.316,24.316,0,0,0-.11,2.525,10.43,10.43,0,0,1-.915,4.631,7.128,7.128,0,0,1-1.555,2.084,3.936,3.936,0,0,0-1.136-1.1,4.741,4.741,0,0,0,1.163-1.3c.81-1.3,1.07-2.757,1.07-5.9a5.793,5.793,0,0,0-.028-1Zm2.988-.132a6.219,6.219,0,0,0-.088,1.07l-.055,6.412a4.51,4.51,0,0,0,1.709-1.285,5.513,5.513,0,0,0,1.1-2.062,4.592,4.592,0,0,0,1.1,1.059,6.985,6.985,0,0,1-1.792,2.624,7.5,7.5,0,0,1-2.4,1.356,5.231,5.231,0,0,0-.485.2l-.717-.766a5.127,5.127,0,0,0,.1-1.191l.055-6.357V1.952a5,5,0,0,0-.044-.744Z" transform="translate(-20.662 -0.193)"/>
        <path id="パス_522" data-name="パス 522" d="M145.482,9.695a12.994,12.994,0,0,0-1.389.044V8.267a7.448,7.448,0,0,0,1.411.077h5.127V3.432H145.7a11.224,11.224,0,0,0-1.444.055V2.021a7.167,7.167,0,0,0,1.455.083h6.4a6.923,6.923,0,0,0-.033.932V9.2a6.8,6.8,0,0,0,.061,1.163H150.62V9.695Z" transform="translate(-23.556 -0.323)"/>
        <path id="パス_523" data-name="パス 523" d="M160.1,8a7.382,7.382,0,0,0,1.439.083H168A7.476,7.476,0,0,0,169.446,8V9.516a11.473,11.473,0,0,0-1.422-.055h-6.5a11.318,11.318,0,0,0-1.417.055Zm1.136-5.485a7.167,7.167,0,0,0,1.329.077h4.41A7.216,7.216,0,0,0,168.3,2.52V4.008a10.022,10.022,0,0,0-1.323-.055h-4.449a9.923,9.923,0,0,0-1.318.055Z" transform="translate(-26.113 -0.403)"/>
        <path id="パス_524" data-name="パス 524" d="M176.7,5.715a11.313,11.313,0,0,0,1.825.077h6a11.23,11.23,0,0,0,1.825-.077V7.281a11.45,11.45,0,0,0-1.836-.061h-5.982a11.5,11.5,0,0,0-1.836.061Z" transform="translate(-28.765 -0.913)"/>
        <path id="パス_525" data-name="パス 525" d="M.636,200.112V179.676H48.489v-17.7H170.123v16.7h46.613v21.435Z" transform="translate(-0.636 -25.879)" fill="none" stroke="#003d4c" stroke-miterlimit="10" stroke-width="1.273"/>
        <rect id="長方形_61" data-name="長方形 61" width="53.504" height="13.959" transform="translate(78.93 35.768)" fill="#003d4c"/>
        <rect id="長方形_62" data-name="長方形 62" width="11.302" height="2.492" transform="translate(89.564 30.845)" fill="#003d4c"/>
        <rect id="長方形_63" data-name="長方形 63" width="11.302" height="2.492" transform="translate(113.16 30.845)" fill="#003d4c"/>
        <path id="パス_526" data-name="パス 526" d="M28.325,42.57h45.2l5.816,2.988v4.455H28.325Z" transform="translate(-5.06 -6.801)" fill="#003d4c"/>
        <path id="パス_527" data-name="パス 527" d="M76.178,53.048H28.325V58.2l3.655,2.994H70.693l5.485-5.651Z" transform="translate(-5.06 -8.475)" fill="#003d4c"/>
        <path id="パス_528" data-name="パス 528" d="M18.7,69.261V91.032H10.723L2.415,88.375V80.149L7.068,69.261Z" transform="translate(-0.921 -11.066)" fill="#003d4c"/>
        <path id="パス_529" data-name="パス 529" d="M19.459,102.684v27.251H15.638l-8.474-8.474V102.684Z" transform="translate(-1.679 -16.406)" fill="#003d4c"/>
        <path id="パス_530" data-name="パス 530" d="M218.24,42.57h-45.2l-5.816,2.988v4.455H218.24Z" transform="translate(-27.253 -6.801)" fill="#003d4c"/>
        <path id="パス_531" data-name="パス 531" d="M170.988,53.048h47.853V58.2l-3.655,2.994H176.468l-5.48-5.651Z" transform="translate(-27.853 -8.475)" fill="#003d4c"/>
        <path id="パス_532" data-name="パス 532" d="M234.468,69.261V91.032h7.972l8.308-2.657V80.149L246.1,69.261Z" transform="translate(-37.996 -11.066)" fill="#003d4c"/>
        <path id="パス_533" data-name="パス 533" d="M234.468,102.684v27.251h3.821l8.473-8.474V102.684Z" transform="translate(-37.996 -16.406)" fill="#003d4c"/>
        <path id="パス_534" data-name="パス 534" d="M24.959,160.119V65.9H197.77v94.217" transform="translate(-4.522 -10.529)" fill="none" stroke="#003d4c" stroke-miterlimit="10" stroke-width="1.273"/>
        <path id="パス_535" data-name="パス 535" d="M108.582,190.975a21.633,21.633,0,0,0-3.457-3.346,13.485,13.485,0,0,1-4.295,3.258,4.41,4.41,0,0,0-.915-1.251,9.411,9.411,0,0,0,2.255-1.24,10.866,10.866,0,0,0,3.787-4.587l.121-.292c-.176,0-.176,0-3.727.066a8.224,8.224,0,0,0-1.229.094l-.044-1.444a5.036,5.036,0,0,0,.992.066h.27l3.964-.055a2.36,2.36,0,0,0,1-.127l.722.794a2,2,0,0,0-.358.606,14.846,14.846,0,0,1-1.759,3.109A17.814,17.814,0,0,1,108,188.279c.281.248.281.248,1.654,1.566Z" transform="translate(-16.498 -29.096)"/>
        <path id="パス_536" data-name="パス 536" d="M122.473,185.964a6.2,6.2,0,0,1-.788,3.027,5.274,5.274,0,0,1-2.944,2.205,3.644,3.644,0,0,0-.91-1.24,4.155,4.155,0,0,0,2.668-1.88,4.785,4.785,0,0,0,.5-2.128h-2.757a11.3,11.3,0,0,0-1.428.055v-1.34a8.032,8.032,0,0,0,1.45.077h6.616a8.215,8.215,0,0,0,1.455-.077V186a11.458,11.458,0,0,0-1.433-.055Zm-4.521-4.124a7.852,7.852,0,0,0,1.455.077h4.328a7.745,7.745,0,0,0,1.45-.077v1.373a10.77,10.77,0,0,0-1.428-.055h-4.372a10.922,10.922,0,0,0-1.433.055Z" transform="translate(-19.198 -29.052)"/>
        <path id="パス_537" data-name="パス 537" d="M133.483,186.144a11.31,11.31,0,0,0,1.825.077h6.009a11.31,11.31,0,0,0,1.825-.077v1.566a12.629,12.629,0,0,0-1.836-.055h-5.987a12.629,12.629,0,0,0-1.836.055Z" transform="translate(-21.861 -29.74)"/>
        <path id="パス_538" data-name="パス 538" d="M151.311,184.292a16.3,16.3,0,0,1,3,1.533l-.7,1.274a12.834,12.834,0,0,0-3.054-1.654Zm-.507,5.044a10.012,10.012,0,0,0,3.258-.733,6.935,6.935,0,0,0,3.253-2.464,8.4,8.4,0,0,0,1.307-2.5,5.783,5.783,0,0,0,1.174,1,9.632,9.632,0,0,1-1.693,2.85,10.156,10.156,0,0,1-6.114,3.2,6.948,6.948,0,0,0-.794.187Zm1.373-7.773a17.836,17.836,0,0,1,3,1.455l-.722,1.24a13.012,13.012,0,0,0-3.01-1.544Zm6.009.044a6.019,6.019,0,0,1,1.059,1.477l-.843.485a6.9,6.9,0,0,0-1.064-1.511Zm1.428,1.251a7.057,7.057,0,0,0-1.042-1.455l.8-.436a5.916,5.916,0,0,1,1.047,1.406Z" transform="translate(-24.589 -28.913)"/>
        <text id="S" transform="translate(44.154 42.062)" fill="#fff" font-size="11" font-family="Helvetica" letter-spacing="0.24em"><tspan x="0" y="0">S</tspan></text>
        <text id="S-2" data-name="S" stroke-linejoin="round" fill="none" stroke="#003d4c" stroke-linecap="round" transform="translate(44.154 42.062)" stroke-width="2" font-size="11" font-family="Helvetica" letter-spacing="0.24em"><tspan x="0" y="0">S</tspan></text>
        <text id="S-3" data-name="S" transform="translate(44.154 42.062)" fill="#fff" font-size="11" font-family="Helvetica" letter-spacing="0.24em"><tspan x="0" y="0">S</tspan></text>
        <text id="S-4" data-name="S" transform="translate(164.018 42.062)" fill="#fff" font-size="11" font-family="Helvetica" letter-spacing="0.24em"><tspan x="0" y="0">S</tspan></text>
        <text id="S-5" data-name="S" stroke-linejoin="round" fill="none" stroke="#003d4c" stroke-linecap="round" transform="translate(164.018 42.062)" stroke-width="2" font-size="11" font-family="Helvetica" letter-spacing="0.24em"><tspan x="0" y="0">S</tspan></text>
        <text id="S-6" data-name="S" transform="translate(164.018 42.062)" fill="#fff" font-size="11" font-family="Helvetica" letter-spacing="0.24em"><tspan x="0" y="0">S</tspan></text>
        <text id="S-7" data-name="S" transform="translate(91.163 29.537)" fill="#fff" font-size="11" font-family="Helvetica" letter-spacing="0.24em"><tspan x="0" y="0">S</tspan></text>
        <text id="S-8" data-name="S" stroke-linejoin="round" fill="none" stroke="#003d4c" stroke-linecap="round" transform="translate(91.163 29.537)" stroke-width="2" font-size="11" font-family="Helvetica" letter-spacing="0.24em"><tspan x="0" y="0">S</tspan></text>
        <text id="S-9" data-name="S" transform="translate(91.163 29.537)" fill="#fff" font-size="11" font-family="Helvetica" letter-spacing="0.24em"><tspan x="0" y="0">S</tspan></text>
        <text id="S-10" data-name="S" transform="translate(114.224 29.537)" fill="#fff" font-size="11" font-family="Helvetica" letter-spacing="0.24em"><tspan x="0" y="0">S</tspan></text>
        <text id="S-11" data-name="S" stroke-linejoin="round" fill="none" stroke="#003d4c" stroke-linecap="round" transform="translate(114.224 29.537)" stroke-width="2" font-size="11" font-family="Helvetica" letter-spacing="0.24em"><tspan x="0" y="0">S</tspan></text>
        <text id="S-12" data-name="S" transform="translate(114.224 29.537)" fill="#fff" font-size="11" font-family="Helvetica" letter-spacing="0.24em"><tspan x="0" y="0">S</tspan></text>
        <text id="S-13" data-name="S" transform="translate(198.733 74.617)" fill="#fff" font-size="11" font-family="Helvetica" letter-spacing="0.24em"><tspan x="0" y="0">S</tspan></text>
        <text id="S-14" data-name="S" stroke-linejoin="round" fill="none" stroke="#003d4c" stroke-linecap="round" transform="translate(198.733 74.617)" stroke-width="2" font-size="11" font-family="Helvetica" letter-spacing="0.24em"><tspan x="0" y="0">S</tspan></text>
        <text id="S-15" data-name="S" transform="translate(198.733 74.617)" fill="#fff" font-size="11" font-family="Helvetica" letter-spacing="0.24em"><tspan x="0" y="0">S</tspan></text>
        <text id="S-16" data-name="S" transform="translate(198.733 101.801)" fill="#fff" font-size="11" font-family="Helvetica" letter-spacing="0.24em"><tspan x="0" y="0">S</tspan></text>
        <text id="S-17" data-name="S" stroke-linejoin="round" fill="none" stroke="#003d4c" stroke-linecap="round" transform="translate(198.733 101.801)" stroke-width="2" font-size="11" font-family="Helvetica" letter-spacing="0.24em"><tspan x="0" y="0">S</tspan></text>
        <text id="S-18" data-name="S" transform="translate(198.733 101.801)" fill="#fff" font-size="11" font-family="Helvetica" letter-spacing="0.24em"><tspan x="0" y="0">S</tspan></text>
        <text id="S-19" data-name="S" transform="translate(7.079 74.617)" fill="#fff" font-size="11" font-family="Helvetica" letter-spacing="0.24em"><tspan x="0" y="0">S</tspan></text>
        <text id="S-20" data-name="S" stroke-linejoin="round" fill="none" stroke="#003d4c" stroke-linecap="round" transform="translate(7.079 74.617)" stroke-width="2" font-size="11" font-family="Helvetica" letter-spacing="0.24em"><tspan x="0" y="0">S</tspan></text>
        <text id="S-21" data-name="S" transform="translate(7.079 74.617)" fill="#fff" font-size="11" font-family="Helvetica" letter-spacing="0.24em"><tspan x="0" y="0">S</tspan></text>
        <text id="S-22" data-name="S" transform="translate(7.079 101.801)" fill="#fff" font-size="11" font-family="Helvetica" letter-spacing="0.24em"><tspan x="0" y="0">S</tspan></text>
        <text id="S-23" data-name="S" stroke-linejoin="round" fill="none" stroke="#003d4c" stroke-linecap="round" transform="translate(7.079 101.801)" stroke-width="2" font-size="11" font-family="Helvetica" letter-spacing="0.24em"><tspan x="0" y="0">S</tspan></text>
        <text id="S-24" data-name="S" transform="translate(7.079 101.801)" fill="#fff" font-size="11" font-family="Helvetica" letter-spacing="0.24em"><tspan x="0" y="0">S</tspan></text>
        <text id="R" transform="translate(102.994 47.145)" fill="#fff" font-size="11" font-family="Helvetica" letter-spacing="0.24em"><tspan x="0" y="0">R</tspan></text>
        <text id="R-2" data-name="R" stroke-linejoin="round" fill="none" stroke="#003d4c" stroke-linecap="round" transform="translate(102.994 47.145)" stroke-width="2" font-size="11" font-family="Helvetica" letter-spacing="0.24em"><tspan x="0" y="0">R</tspan></text>
        <text id="R-3" data-name="R" transform="translate(102.994 47.145)" fill="#fff" font-size="11" font-family="Helvetica" letter-spacing="0.24em"><tspan x="0" y="0">R</tspan></text>
        <text id="R-4" data-name="R" transform="translate(164.018 55.536)" fill="#fff" font-size="11" font-family="Helvetica" letter-spacing="0.24em"><tspan x="0" y="0">R</tspan></text>
        <text id="R-5" data-name="R" stroke-linejoin="round" fill="none" stroke="#003d4c" stroke-linecap="round" transform="translate(164.018 55.536)" stroke-width="2" font-size="11" font-family="Helvetica" letter-spacing="0.24em"><tspan x="0" y="0">R</tspan></text>
        <text id="R-6" data-name="R" transform="translate(164.018 55.536)" fill="#fff" font-size="11" font-family="Helvetica" letter-spacing="0.24em"><tspan x="0" y="0">R</tspan></text>
        <text id="R-7" data-name="R" transform="translate(44.148 55.536)" fill="#fff" font-size="11" font-family="Helvetica" letter-spacing="0.24em"><tspan x="0" y="0">R</tspan></text>
        <text id="R-8" data-name="R" stroke-linejoin="round" fill="none" stroke="#003d4c" stroke-linecap="round" transform="translate(44.148 55.536)" stroke-width="2" font-size="11" font-family="Helvetica" letter-spacing="0.24em"><tspan x="0" y="0">R</tspan></text>
        <text id="R-9" data-name="R" transform="translate(44.148 55.536)" fill="#fff" font-size="11" font-family="Helvetica" letter-spacing="0.24em"><tspan x="0" y="0">R</tspan></text>
        <rect id="長方形_64" data-name="長方形 64" width="58.118" height="22.504" transform="translate(45.692 79.536)" fill="none" stroke="#e1f000" stroke-miterlimit="10" stroke-width="0.656"/>
        <rect id="長方形_65" data-name="長方形 65" width="12.046" height="20.503" transform="translate(25.823 79.536)" fill="none" stroke="#e1f000" stroke-miterlimit="10" stroke-width="0.656"/>
        <rect id="長方形_66" data-name="長方形 66" width="12.046" height="20.503" transform="translate(175.033 79.536)" fill="none" stroke="#e1f000" stroke-miterlimit="10" stroke-width="0.656"/>
        <rect id="長方形_67" data-name="長方形 67" width="58.118" height="12.47" transform="translate(45.692 103.634)" fill="none" stroke="#e1f000" stroke-miterlimit="10" stroke-width="0.656"/>
        <rect id="長方形_68" data-name="長方形 68" width="58.118" height="22.504" transform="translate(109.307 79.536)" fill="none" stroke="#e1f000" stroke-miterlimit="10" stroke-width="0.656"/>
        <rect id="長方形_69" data-name="長方形 69" width="58.118" height="12.47" transform="translate(109.307 103.634)" fill="none" stroke="#e1f000" stroke-miterlimit="10" stroke-width="0.656"/>
      </g>
    </g>
  </g>
</svg>
