<svg xmlns="http://www.w3.org/2000/svg" xmlns:xlink="http://www.w3.org/1999/xlink" width="229" height="175" viewBox="0 0 229 175">
  <defs>
    <clipPath id="clip-path">
      <rect id="長方形_53" data-name="長方形 53" width="229" height="175" transform="translate(-0.457 -0.283)" fill="#e6e6e6" stroke="#707070" stroke-width="1"/>
    </clipPath>
  </defs>
  <g id="マスクグループ_3" data-name="マスクグループ 3" transform="translate(0.457 0.283)" clip-path="url(#clip-path)">
    <g id="レイヤー_2" data-name="レイヤー 2" transform="translate(4.255 0)">
      <g id="レイヤー_1" data-name="レイヤー 1" transform="translate(0 0)">
        <rect id="長方形_70" data-name="長方形 70" width="3.6" height="29.309" transform="translate(207.037 117.122) rotate(180)" fill="#003d4c"/>
        <rect id="長方形_71" data-name="長方形 71" width="5.327" height="17.161" transform="translate(11.073 58.504)" fill="#003d4c"/>
        <path id="パス_539" data-name="パス 539" d="M7.1,69.628v11.79l2.58,8.841,2.824,2.949h5.854v-5l-6.468-.033V69.628Z" transform="translate(-1.955 -11.124)" fill="#003d4c"/>
        <path id="パス_540" data-name="パス 540" d="M6.1,200.227V180.085H53.261V162.647H173.12V179.1h45.927v21.125Z" transform="translate(-1.795 -25.986)" fill="none" stroke="#003d4c" stroke-miterlimit="10" stroke-width="1.254"/>
        <path id="パス_541" data-name="パス 541" d="M23.449,159.155V66.313H204.875v92.842" transform="translate(-4.566 -10.595)" fill="none" stroke="#003d4c" stroke-miterlimit="10" stroke-width="1.254"/>
        <rect id="長方形_72" data-name="長方形 72" width="55.838" height="11.133" transform="translate(80.449 38.036)" fill="#003d4c"/>
        <path id="パス_542" data-name="パス 542" d="M107.855,37.862h36.353l8.352,2.949v1.966H96.722v-2.46Z" transform="translate(-16.273 -6.049)" fill="#003d4c"/>
        <path id="パス_543" data-name="パス 543" d="M30.073,56.178v5.735H71.992L75.1,58.144V56.178Z" transform="translate(-5.625 -8.976)" fill="#003d4c"/>
        <path id="パス_544" data-name="パス 544" d="M30.073,52.372V41.565H75.1l5.566,3.112v5.566L78.216,52.7Z" transform="translate(-5.625 -6.641)" fill="#003d4c"/>
        <rect id="長方形_73" data-name="長方形 73" width="3.6" height="29.309" transform="translate(12.822 87.813)" fill="#003d4c"/>
        <path id="パス_545" data-name="パス 545" d="M228.1,56.178v5.735H186.183l-3.112-3.769V56.178Z" transform="translate(-30.069 -8.976)" fill="#003d4c"/>
        <path id="パス_546" data-name="パス 546" d="M227.044,52.372V41.565H182.013l-5.566,3.112v5.566L178.9,52.7Z" transform="translate(-29.011 -6.641)" fill="#003d4c"/>
        <rect id="長方形_74" data-name="長方形 74" width="5.327" height="17.161" transform="translate(203.453 58.504)" fill="#003d4c"/>
        <path id="パス_547" data-name="パス 547" d="M254.372,69.628v11.79l-2.58,8.841-2.824,2.949h-5.854v-5l6.468-.033V69.628Z" transform="translate(-39.662 -11.124)" fill="#003d4c"/>
        <path id="パス_548" data-name="パス 548" d="M86.122,7.9a9.27,9.27,0,0,1-3.856,2.319,5.43,5.43,0,0,0-.722-1.054,8.4,8.4,0,0,0,3.8-1.879H83.428c-.054.19-.092.293-.168.543h-1.3A9.917,9.917,0,0,0,82.6,5.778a11.738,11.738,0,0,0,.163-1.211c.2,0,.51.033,1.054.033h2.275V3.877H83.607a9.167,9.167,0,0,0-1.026.043V2.835c-.119.125-.174.168-.331.31a4.073,4.073,0,0,0-.722-.9A4.5,4.5,0,0,0,83.243,0l1.189.223c-.157.288-.2.375-.331.6h1.417A5.431,5.431,0,0,0,86.6.755v.874A4.258,4.258,0,0,0,87.506,0l1.178.212c-.092.234-.1.255-.277.619h2.107A7.391,7.391,0,0,0,91.737.766v1.14a8.949,8.949,0,0,0-1.168-.054h-.863c.212.31.31.478.489.766l-.912.266h.543a7.94,7.94,0,0,0,1.032-.043,4.952,4.952,0,0,0-.043.8V4.784a5.188,5.188,0,0,0,.043.809c-.277,0-.587-.033-1.032-.033H87.262V6.3h3.166a7.537,7.537,0,0,0,.95-.043,2.655,2.655,0,0,1-.043.342c-.033.424-.076.777-.1,1.054-.114,1.086-.19,1.369-.413,1.629s-.543.337-1.3.337a9.543,9.543,0,0,1-1.032-.043,4.888,4.888,0,0,0-.277-1.086,11.127,11.127,0,0,0,1.2.114c.608,0,.641-.054.717-1.3H87.273V9.161a7.512,7.512,0,0,0,.092,1.233H86.051a4.487,4.487,0,0,0,.071-.956V7.9Zm-1.58-5.018a6.235,6.235,0,0,0-.5-1.043h-.608a6.517,6.517,0,0,1-.863,1,7.456,7.456,0,0,0,1.01.043Zm1.542,2.677H83.808c-.043.277-.054.342-.141.744h2.427Zm.635-2.677a3.557,3.557,0,0,0-.711-.663c.19-.157.244-.212.4-.358H85.177c.13.212.2.32.445.755l-.923.288Zm2.351,0a7.531,7.531,0,0,0-.543-1.032h-.679a5.348,5.348,0,0,1-.9,1.032ZM87.24,4.594h2.406V3.872H87.229Z" transform="translate(-13.846 0)"/>
        <path id="パス_549" data-name="パス 549" d="M99.8,7.744a1.5,1.5,0,0,0,.543.939,2.172,2.172,0,0,0,1.4.445c1.14,0,1.868-.587,1.868-1.488a1.331,1.331,0,0,0-.646-1.206,2.971,2.971,0,0,0-1.325-.277,9.4,9.4,0,0,0-1.238.06V4.789a7.5,7.5,0,0,0,1.119.06c1.157,0,1.836-.543,1.836-1.423,0-.8-.543-1.244-1.521-1.244a1.917,1.917,0,0,0-1.26.358,1.678,1.678,0,0,0-.483.885l-1.629-.277A2.862,2.862,0,0,1,99.54,1.52,3.72,3.72,0,0,1,101.8.885c1.928,0,3.177.972,3.177,2.471a2.113,2.113,0,0,1-.777,1.673,2.905,2.905,0,0,1-1.124.451,2.411,2.411,0,0,1,1.629.771,2.2,2.2,0,0,1,.543,1.586,2.428,2.428,0,0,1-.69,1.673,3.986,3.986,0,0,1-2.835.95,3.637,3.637,0,0,1-2.933-1.086,3.074,3.074,0,0,1-.646-1.287Z" transform="translate(-16.5 -0.141)"/>
        <path id="パス_550" data-name="パス 550" d="M116.516,1.928a4.723,4.723,0,0,0-.141.853,19.665,19.665,0,0,1-.88,3.8,10.638,10.638,0,0,1-1.982,3.427,4.768,4.768,0,0,0-1.265-.956,7.51,7.51,0,0,0,1.591-2.368,13.685,13.685,0,0,0,1.043-3.8,8.237,8.237,0,0,0,.1-1.086V1.651Zm3.155-.277a14.283,14.283,0,0,0,.462,2.552A10.8,10.8,0,0,0,122.609,9a4.779,4.779,0,0,0-1.222,1.021A11.7,11.7,0,0,1,119.5,6.761a17.486,17.486,0,0,1-1.054-4.04,6.04,6.04,0,0,0-.157-.8Zm1.162.119a5.658,5.658,0,0,1,.825,1.564l-.831.391a6.9,6.9,0,0,0-.8-1.591Zm1.222,1.4a7.978,7.978,0,0,0-.8-1.537l.777-.342a6.386,6.386,0,0,1,.82,1.488Z" transform="translate(-18.754 -0.207)"/>
        <path id="パス_551" data-name="パス 551" d="M132.553,1.341a23.958,23.958,0,0,0-.087,2.487,10.428,10.428,0,0,1-.9,4.562,7.12,7.12,0,0,1-1.531,2.053,3.894,3.894,0,0,0-1.124-1.086,4.5,4.5,0,0,0,1.146-1.276c.8-1.276,1.054-2.715,1.054-5.816a5.708,5.708,0,0,0-.065-.988Zm2.943-.13a5.53,5.53,0,0,0-.081,1.054l-.054,6.316a4.464,4.464,0,0,0,1.7-1.265,5.431,5.431,0,0,0,1.086-2.031,4.632,4.632,0,0,0,1.043,1.043,6.881,6.881,0,0,1-1.765,2.585,7.358,7.358,0,0,1-2.362,1.336,5.155,5.155,0,0,0-.478.2l-.711-.755a5.293,5.293,0,0,0,.1-1.173l.054-6.261V1.922a4.924,4.924,0,0,0-.043-.733Z" transform="translate(-21.416 -0.19)"/>
        <path id="パス_552" data-name="パス 552" d="M148.095,9.55a12.609,12.609,0,0,0-1.379,0V8.144a7.239,7.239,0,0,0,1.385.076h5.05V3.381h-4.86a11.165,11.165,0,0,0-1.423.054V1.991a7.1,7.1,0,0,0,1.434.081h6.3a6.819,6.819,0,0,0-.033.918V9.061a7.479,7.479,0,0,0,.054,1.146H153.14V9.55Z" transform="translate(-24.261 -0.318)"/>
        <path id="パス_553" data-name="パス 553" d="M162.5,7.885a7.364,7.364,0,0,0,1.423.081h6.37a7.271,7.271,0,0,0,1.417-.081V9.373a11.149,11.149,0,0,0-1.4-.054H163.9a11.3,11.3,0,0,0-1.4.054Zm1.124-5.4a7.006,7.006,0,0,0,1.309.076h4.344a7.06,7.06,0,0,0,1.309-.076V3.948a9.732,9.732,0,0,0-1.3-.054H164.91a9.732,9.732,0,0,0-1.3.054Z" transform="translate(-26.782 -0.397)"/>
        <path id="パス_554" data-name="パス 554" d="M178.84,5.629a11.144,11.144,0,0,0,1.8.076h5.919a11.143,11.143,0,0,0,1.8-.076V7.172a11.323,11.323,0,0,0-1.808-.06h-5.919a11.361,11.361,0,0,0-1.808.06Z" transform="translate(-29.39 -0.899)"/>
        <path id="パス_555" data-name="パス 555" d="M111.671,190.628a20.859,20.859,0,0,0-3.4-3.3,13.191,13.191,0,0,1-4.23,3.2,4.426,4.426,0,0,0-.9-1.227,9.271,9.271,0,0,0,2.221-1.222,10.7,10.7,0,0,0,3.731-4.518l.119-.288c-.174,0-.174,0-3.671.065a9,9,0,0,0-1.211.087l-.043-1.417a4.957,4.957,0,0,0,.978.065h.282l3.9-.054a2.324,2.324,0,0,0,.988-.125l.733.755a2.2,2.2,0,0,0-.353.6,14.766,14.766,0,0,1-1.732,3.063,16.986,16.986,0,0,1,2.053,1.629c.277.244.277.244,1.629,1.542Z" transform="translate(-17.298 -29.062)"/>
        <path id="パス_556" data-name="パス 556" d="M125.354,185.691a6.044,6.044,0,0,1-.777,2.981,5.2,5.2,0,0,1-2.9,2.172,3.519,3.519,0,0,0-.9-1.222,4.111,4.111,0,0,0,2.628-1.852,4.714,4.714,0,0,0,.489-2.1h-2.715a11.132,11.132,0,0,0-1.407.054v-1.32a7.91,7.91,0,0,0,1.428.076h6.517a8.094,8.094,0,0,0,1.434-.076v1.32a11.282,11.282,0,0,0-1.412-.054Zm-4.453-4.068a7.167,7.167,0,0,0,1.434.081H126.6a7.058,7.058,0,0,0,1.428-.081v1.358a10.614,10.614,0,0,0-1.407-.054h-4.3a10.757,10.757,0,0,0-1.412.054Z" transform="translate(-19.957 -29.018)"/>
        <path id="パス_557" data-name="パス 557" d="M136.2,185.87a11.144,11.144,0,0,0,1.8.076h5.919a11.144,11.144,0,0,0,1.8-.076v1.542a11.323,11.323,0,0,0-1.808-.06h-5.9a11.323,11.323,0,0,0-1.808.06Z" transform="translate(-22.581 -29.696)"/>
        <path id="パス_558" data-name="パス 558" d="M153.761,184.045a16.051,16.051,0,0,1,2.954,1.51l-.69,1.249a12.827,12.827,0,0,0-3.009-1.629Zm-.5,4.969a9.862,9.862,0,0,0,3.209-.722,6.832,6.832,0,0,0,3.2-2.427,8.271,8.271,0,0,0,1.287-2.466,5.871,5.871,0,0,0,1.157.988,9.487,9.487,0,0,1-1.667,2.808,9.971,9.971,0,0,1-6.023,3.15,7.365,7.365,0,0,0-.777.19Zm1.352-7.657a17.569,17.569,0,0,1,2.954,1.434l-.711,1.216a13.255,13.255,0,0,0-2.965-1.521Zm5.919.043a5.931,5.931,0,0,1,1.043,1.455l-.831.478a6.8,6.8,0,0,0-1.048-1.488Zm1.407,1.233a6.951,6.951,0,0,0-1.01-1.434l.787-.429a5.718,5.718,0,0,1,1.032,1.385Z" transform="translate(-25.267 -28.882)"/>
        <text id="S" transform="translate(104.186 48.529)" fill="#fff" font-size="11" font-family="Helvetica" letter-spacing="0.24em"><tspan x="0" y="0">S</tspan></text>
        <text id="S-2" data-name="S" stroke-linejoin="round" fill="none" stroke="#003d4c" stroke-linecap="round" transform="translate(104.186 48.529)" stroke-width="2" font-size="11" font-family="Helvetica" letter-spacing="0.24em"><tspan x="0" y="0">S</tspan></text>
        <text id="S-3" data-name="S" transform="translate(104.186 48.529)" fill="#fff" font-size="11" font-family="Helvetica" letter-spacing="0.24em"><tspan x="0" y="0">S</tspan></text>
        <text id="S-4" data-name="S" transform="translate(41.903 57.859)" fill="#fff" font-size="11" font-family="Helvetica" letter-spacing="0.24em"><tspan x="0" y="0">S</tspan></text>
        <text id="S-5" data-name="S" stroke-linejoin="round" fill="none" stroke="#003d4c" stroke-linecap="round" transform="translate(41.903 57.859)" stroke-width="2" font-size="11" font-family="Helvetica" letter-spacing="0.24em"><tspan x="0" y="0">S</tspan></text>
        <text id="S-6" data-name="S" transform="translate(41.903 57.859)" fill="#fff" font-size="11" font-family="Helvetica" letter-spacing="0.24em"><tspan x="0" y="0">S</tspan></text>
        <text id="A" transform="translate(41.903 40.671)" fill="#fff" font-size="11" font-family="Helvetica" letter-spacing="0.24em"><tspan x="0" y="0">A</tspan></text>
        <text id="A-2" data-name="A" stroke-linejoin="round" fill="none" stroke="#003d4c" stroke-linecap="round" transform="translate(41.903 40.671)" stroke-width="2" font-size="11" font-family="Helvetica" letter-spacing="0.24em"><tspan x="0" y="0">A</tspan></text>
        <text id="A-3" data-name="A" transform="translate(41.903 40.671)" fill="#fff" font-size="11" font-family="Helvetica" letter-spacing="0.24em"><tspan x="0" y="0">A</tspan></text>
        <text id="A-4" data-name="A" transform="translate(12.822 68.774)" fill="#fff" font-size="11" font-family="Helvetica" letter-spacing="0.24em"><tspan x="0" y="0">A</tspan></text>
        <text id="A-5" data-name="A" stroke-linejoin="round" fill="none" stroke="#003d4c" stroke-linecap="round" transform="translate(12.822 68.774)" stroke-width="2" font-size="11" font-family="Helvetica" letter-spacing="0.24em"><tspan x="0" y="0">A</tspan></text>
        <text id="A-6" data-name="A" transform="translate(12.822 68.774)" fill="#fff" font-size="11" font-family="Helvetica" letter-spacing="0.24em"><tspan x="0" y="0">A</tspan></text>
        <text id="B" transform="translate(2.096 104.692)" fill="#fff" font-size="11" font-family="Helvetica" letter-spacing="0.24em"><tspan x="0" y="0">B</tspan></text>
        <text id="B-2" data-name="B" stroke-linejoin="round" fill="none" stroke="#003d4c" stroke-linecap="round" transform="translate(2.096 104.692)" stroke-width="2" font-size="11" font-family="Helvetica" letter-spacing="0.24em"><tspan x="0" y="0">B</tspan></text>
        <text id="B-3" data-name="B" transform="translate(2.096 104.692)" fill="#fff" font-size="11" font-family="Helvetica" letter-spacing="0.24em"><tspan x="0" y="0">B</tspan></text>
        <text id="B-4" data-name="B" transform="translate(209.008 104.692)" fill="#fff" font-size="11" font-family="Helvetica" letter-spacing="0.24em"><tspan x="0" y="0">B</tspan></text>
        <text id="B-5" data-name="B" stroke-linejoin="round" fill="none" stroke="#003d4c" stroke-linecap="round" transform="translate(209.008 104.692)" stroke-width="2" font-size="11" font-family="Helvetica" letter-spacing="0.24em"><tspan x="0" y="0">B</tspan></text>
        <text id="B-6" data-name="B" transform="translate(209.008 104.692)" fill="#fff" font-size="11" font-family="Helvetica" letter-spacing="0.24em"><tspan x="0" y="0">B</tspan></text>
        <text id="B-7" data-name="B" transform="translate(0 79.592)" fill="#fff" font-size="11" font-family="Helvetica" letter-spacing="0.24em"><tspan x="0" y="0">B</tspan></text>
        <text id="B-8" data-name="B" stroke-linejoin="round" fill="none" stroke="#003d4c" stroke-linecap="round" transform="translate(0 79.592)" stroke-width="2" font-size="11" font-family="Helvetica" letter-spacing="0.24em"><tspan x="0" y="0">B</tspan></text>
        <text id="B-9" data-name="B" transform="translate(0 79.592)" fill="#fff" font-size="11" font-family="Helvetica" letter-spacing="0.24em"><tspan x="0" y="0">B</tspan></text>
        <text id="B-10" data-name="B" transform="translate(211.631 79.592)" fill="#fff" font-size="11" font-family="Helvetica" letter-spacing="0.24em"><tspan x="0" y="0">B</tspan></text>
        <text id="B-11" data-name="B" stroke-linejoin="round" fill="none" stroke="#003d4c" stroke-linecap="round" transform="translate(211.631 79.592)" stroke-width="2" font-size="11" font-family="Helvetica" letter-spacing="0.24em"><tspan x="0" y="0">B</tspan></text>
        <text id="B-12" data-name="B" transform="translate(211.631 79.592)" fill="#fff" font-size="11" font-family="Helvetica" letter-spacing="0.24em"><tspan x="0" y="0">B</tspan></text>
        <text id="A-7" data-name="A" transform="translate(198.033 68.774)" fill="#fff" font-size="11" font-family="Helvetica" letter-spacing="0.24em"><tspan x="0" y="0">A</tspan></text>
        <text id="A-8" data-name="A" stroke-linejoin="round" fill="none" stroke="#003d4c" stroke-linecap="round" transform="translate(198.033 68.774)" stroke-width="2" font-size="11" font-family="Helvetica" letter-spacing="0.24em"><tspan x="0" y="0">A</tspan></text>
        <text id="A-9" data-name="A" transform="translate(198.033 68.774)" fill="#fff" font-size="11" font-family="Helvetica" letter-spacing="0.24em"><tspan x="0" y="0">A</tspan></text>
        <text id="A-10" data-name="A" transform="translate(104.181 31.184)" fill="#fff" font-size="11" font-family="Helvetica" letter-spacing="0.24em"><tspan x="0" y="0">A</tspan></text>
        <text id="A-11" data-name="A" stroke-linejoin="round" fill="none" stroke="#003d4c" stroke-linecap="round" transform="translate(104.181 31.184)" stroke-width="2" font-size="11" font-family="Helvetica" letter-spacing="0.24em"><tspan x="0" y="0">A</tspan></text>
        <text id="A-12" data-name="A" transform="translate(104.181 31.184)" fill="#fff" font-size="11" font-family="Helvetica" letter-spacing="0.24em"><tspan x="0" y="0">A</tspan></text>
        <text id="A-13" data-name="A" transform="translate(172.753 40.671)" fill="#fff" font-size="11" font-family="Helvetica" letter-spacing="0.24em"><tspan x="0" y="0">A</tspan></text>
        <text id="A-14" data-name="A" stroke-linejoin="round" fill="none" stroke="#003d4c" stroke-linecap="round" transform="translate(172.753 40.671)" stroke-width="2" font-size="11" font-family="Helvetica" letter-spacing="0.24em"><tspan x="0" y="0">A</tspan></text>
        <text id="A-15" data-name="A" transform="translate(172.753 40.671)" fill="#fff" font-size="11" font-family="Helvetica" letter-spacing="0.24em"><tspan x="0" y="0">A</tspan></text>
        <text id="S-7" data-name="S" transform="translate(172.753 57.859)" fill="#fff" font-size="11" font-family="Helvetica" letter-spacing="0.24em"><tspan x="0" y="0">S</tspan></text>
        <text id="S-8" data-name="S" stroke-linejoin="round" fill="none" stroke="#003d4c" stroke-linecap="round" transform="translate(172.753 57.859)" stroke-width="2" font-size="11" font-family="Helvetica" letter-spacing="0.24em"><tspan x="0" y="0">S</tspan></text>
        <text id="S-9" data-name="S" transform="translate(172.753 57.859)" fill="#fff" font-size="11" font-family="Helvetica" letter-spacing="0.24em"><tspan x="0" y="0">S</tspan></text>
        <rect id="長方形_75" data-name="長方形 75" width="57.25" height="22.168" transform="translate(49.739 80.455)" fill="none" stroke="#e1f000" stroke-miterlimit="10" stroke-width="0.646"/>
        <rect id="長方形_76" data-name="長方形 76" width="11.866" height="20.196" transform="translate(30.172 80.455)" fill="none" stroke="#e1f000" stroke-miterlimit="10" stroke-width="0.646"/>
        <rect id="長方形_77" data-name="長方形 77" width="11.866" height="20.196" transform="translate(177.152 80.455)" fill="none" stroke="#e1f000" stroke-miterlimit="10" stroke-width="0.646"/>
        <rect id="長方形_78" data-name="長方形 78" width="57.25" height="12.284" transform="translate(49.739 104.192)" fill="none" stroke="#e1f000" stroke-miterlimit="10" stroke-width="0.646"/>
        <rect id="長方形_79" data-name="長方形 79" width="57.25" height="22.168" transform="translate(112.403 80.455)" fill="none" stroke="#e1f000" stroke-miterlimit="10" stroke-width="0.646"/>
        <rect id="長方形_80" data-name="長方形 80" width="57.25" height="12.284" transform="translate(112.403 104.192)" fill="none" stroke="#e1f000" stroke-miterlimit="10" stroke-width="0.646"/>
      </g>
    </g>
  </g>
</svg>
