<svg xmlns="http://www.w3.org/2000/svg" xmlns:xlink="http://www.w3.org/1999/xlink" width="229.296" height="174.768" viewBox="0 0 229.296 174.768">
  <defs>
    <clipPath id="clip-path">
      <rect id="長方形_51" data-name="長方形 51" width="229.296" height="174.768" transform="translate(0)" fill="#e6e6e6" stroke="#707070" stroke-width="1"/>
    </clipPath>
  </defs>
  <g id="マスクグループ_1" data-name="マスクグループ 1" clip-path="url(#clip-path)">
    <g id="レイヤー_2" data-name="レイヤー 2" transform="translate(1.509 0)">
      <g id="レイヤー_1" data-name="レイヤー 1" transform="translate(0 0)">
        <path id="パス_484" data-name="パス 484" d="M43.943,3.985a5.53,5.53,0,0,0-.046.952,6.461,6.461,0,0,1-1.155,4.179,6.875,6.875,0,0,1-3.071,2.107,4.041,4.041,0,0,0-.929-1.345,5.484,5.484,0,0,0,2.084-.964c1.2-.958,1.576-1.968,1.576-4.2a3.031,3.031,0,0,0-.058-.7ZM48.734,2.5a3.221,3.221,0,0,0-.473.825,7.36,7.36,0,0,1-1.818,2.373,7.106,7.106,0,0,1-1.414.981A3.908,3.908,0,0,0,43.966,5.6,5.646,5.646,0,0,0,45.7,4.516a5,5,0,0,0,1.12-1.5h-6.2a11.6,11.6,0,0,0-1.6.069V1.612a9.623,9.623,0,0,0,1.628.092H46.8a3.314,3.314,0,0,0,1.155-.1Z" transform="translate(-6.75 -0.256)"/>
        <path id="パス_485" data-name="パス 485" d="M59.515,1.276a5.427,5.427,0,0,0-.04,1.062V5.594a5.2,5.2,0,0,0,.052,1.039H57.91a8.741,8.741,0,0,0,.058-1.062V2.326a7.569,7.569,0,0,0-.046-1.062Zm5.357,0a5.1,5.1,0,0,0-.063,1.1v1.6A13.854,13.854,0,0,1,64.5,7.551,4.491,4.491,0,0,1,62.194,10.3a9.681,9.681,0,0,1-2.309.912A4.093,4.093,0,0,0,59.059,9.8a6.246,6.246,0,0,0,2.54-.941,3.331,3.331,0,0,0,1.628-3.008,19.107,19.107,0,0,0,.063-1.968V2.407a5.68,5.68,0,0,0-.063-1.12Z" transform="translate(-9.812 -0.202)"/>
        <path id="パス_486" data-name="パス 486" d="M73.6,5.984a11.805,11.805,0,0,0,1.911.081h6.286A11.846,11.846,0,0,0,83.7,5.984V7.624a12.036,12.036,0,0,0-1.922-.064H75.518a11.99,11.99,0,0,0-1.922.063Z" transform="translate(-12.318 -0.956)"/>
        <path id="パス_487" data-name="パス 487" d="M99.642,3.822a8.659,8.659,0,0,0,1.536-.081V5.231a11.124,11.124,0,0,0-1.512-.063H97.246A6.519,6.519,0,0,1,96.4,8.5a7.181,7.181,0,0,1-3.008,2.638A3.643,3.643,0,0,0,92.316,9.86a5.432,5.432,0,0,0,2.84-2.309,5.016,5.016,0,0,0,.577-2.373H92.813a11.072,11.072,0,0,0-1.512.063v-1.5a8.746,8.746,0,0,0,1.536.081h2.973V2.206a7.6,7.6,0,0,0-.058-1.155h1.628a6.709,6.709,0,0,0-.064,1.155V3.822Z" transform="translate(-15.147 -0.168)"/>
        <path id="パス_488" data-name="パス 488" d="M116.883,10.991a9.237,9.237,0,0,0-.67-.814L116.046,10a4.451,4.451,0,0,1-1.414.86,5.011,5.011,0,0,1-1.772.317,3.192,3.192,0,0,1-2.378-.8,2.5,2.5,0,0,1-.693-1.778,2.667,2.667,0,0,1,.768-1.876,4.3,4.3,0,0,1,1.472-.981l-.352-.375a2.309,2.309,0,0,1-.768-1.7c0-1.264,1.039-2.078,2.621-2.078s2.615.814,2.615,2.049a2.09,2.09,0,0,1-.895,1.732,8.855,8.855,0,0,1-1.3.7l2.182,2.2a5.807,5.807,0,0,0,1.155-2.494l1.1.531a9.813,9.813,0,0,1-.681,1.628,7.32,7.32,0,0,1-.756,1.155l.791.8c.439.433.86.837,1.155,1.108ZM112.79,6.563a5.236,5.236,0,0,0-1.155.71,1.611,1.611,0,0,0-.525,1.2c0,.97.727,1.582,1.888,1.582a3.354,3.354,0,0,0,2.309-.918Zm.352-1.3c.133-.058.237-.115.306-.139a4.728,4.728,0,0,0,.958-.531,1.085,1.085,0,0,0,.5-.877c0-.652-.52-1.051-1.345-1.051s-1.345.381-1.345,1.051a1.536,1.536,0,0,0,.52,1.1Z" transform="translate(-18.101 -0.254)"/>
        <path id="パス_489" data-name="パス 489" d="M130.617,8.4a9.854,9.854,0,0,1-4.1,2.465,6.015,6.015,0,0,0-.762-1.12,8.936,8.936,0,0,0,4.041-2h-2.038c-.058.2-.092.312-.179.577H126.2a10.541,10.541,0,0,0,.681-2.188,12.484,12.484,0,0,0,.173-1.287c.214,0,.543.035,1.12.035h2.419V4.116h-2.638a9.566,9.566,0,0,0-1.085.046V3.008c-.133.133-.19.179-.358.329a4.329,4.329,0,0,0-.785-.941,4.785,4.785,0,0,0,1.83-2.4l1.264.237c-.167.306-.214.4-.352.635h1.507A5.9,5.9,0,0,0,131.131.8v.929A4.618,4.618,0,0,0,132.077,0l1.253.225c-.1.248-.11.271-.294.658h2.24a7.857,7.857,0,0,0,1.3-.069V2.026a9.513,9.513,0,0,0-1.241-.058h-.918c.225.329.329.508.52.814l-.97.283h.577a8.44,8.44,0,0,0,1.1-.046,5.265,5.265,0,0,0-.046.849V5.086a5.519,5.519,0,0,0,.046.86c-.294,0-.623-.035-1.1-.035h-2.725V6.7h3.365a8.013,8.013,0,0,0,1.01-.046,2.821,2.821,0,0,1-.046.364c-.035.45-.081.825-.1,1.12-.121,1.155-.2,1.455-.439,1.732s-.577.358-1.38.358a10.144,10.144,0,0,1-1.1-.046,5.2,5.2,0,0,0-.294-1.155,11.961,11.961,0,0,0,1.276.121c.647,0,.681-.058.762-1.385h-3.042V9.739a7.983,7.983,0,0,0,.1,1.31h-1.4a4.768,4.768,0,0,0,.075-1.016V9.727Zm-1.68-5.334a6.627,6.627,0,0,0-.531-1.108h-.647a6.927,6.927,0,0,1-.918,1.062,8.036,8.036,0,0,0,1.074.046Zm1.639,2.846h-2.419c-.046.294-.058.364-.15.791h2.58Zm.675-2.846a3.781,3.781,0,0,0-.756-.7c.2-.167.26-.225.427-.381h-1.31c.139.225.214.341.473.8l-.981.306Zm2.5,0a8.011,8.011,0,0,0-.577-1.1h-.722a5.685,5.685,0,0,1-.952,1.1Zm-1.945,1.818h2.58V4.116h-2.575Z" transform="translate(-20.647 0)"/>
        <path id="パス_490" data-name="パス 490" d="M146.811,10.923a10.753,10.753,0,0,0,.1-1.593V2.576h-.577a10.252,10.252,0,0,0-1.264.075V1.092a6.171,6.171,0,0,0,1.224.069h1.155a9.45,9.45,0,0,0,1.247-.058,18.106,18.106,0,0,0-.1,2.026v6.2a10.114,10.114,0,0,0,.1,1.593Z" transform="translate(-23.737 -0.175)"/>
        <path id="パス_491" data-name="パス 491" d="M162.092,2.049a4.254,4.254,0,0,0-.156.906A20.9,20.9,0,0,1,161,7a11.292,11.292,0,0,1-2.084,3.648,5.161,5.161,0,0,0-1.345-1.016,8.082,8.082,0,0,0,1.686-2.517,14.351,14.351,0,0,0,1.108-4.041,8.968,8.968,0,0,0,.11-1.155V1.755Zm3.348-.294a15.275,15.275,0,0,0,.5,2.713,11.419,11.419,0,0,0,2.632,5.1,4.982,4.982,0,0,0-1.3,1.085,12.445,12.445,0,0,1-2.009-3.464,18.586,18.586,0,0,1-1.12-4.295,5.775,5.775,0,0,0-.162-.849Zm1.241.127a6.171,6.171,0,0,1,.883,1.663l-.883.416a7.142,7.142,0,0,0-.877-1.691Zm1.293,1.489a8.174,8.174,0,0,0-.849-1.634l.826-.364a6.8,6.8,0,0,1,.877,1.582Z" transform="translate(-25.735 -0.22)"/>
        <path id="パス_492" data-name="パス 492" d="M179.126,1.426a25.462,25.462,0,0,0-.115,2.644,10.92,10.92,0,0,1-.958,4.849,7.464,7.464,0,0,1-1.628,2.182,4.122,4.122,0,0,0-1.189-1.155,4.849,4.849,0,0,0,1.212-1.357c.854-1.357,1.126-2.886,1.126-6.183a5.4,5.4,0,0,0-.064-1.051Zm3.129-.139a6.511,6.511,0,0,0-.081,1.12l-.046,6.714a4.7,4.7,0,0,0,1.807-1.345,5.772,5.772,0,0,0,1.155-2.159,4.953,4.953,0,0,0,1.079,1.108,7.314,7.314,0,0,1-1.876,2.748,7.857,7.857,0,0,1-2.517,1.42,5.477,5.477,0,0,0-.508.208l-.75-.8a5.37,5.37,0,0,0,.1-1.247l.058-6.656V2.043a5.236,5.236,0,0,0-.046-.779Z" transform="translate(-28.557 -0.202)"/>
        <path id="パス_493" data-name="パス 493" d="M195.659,10.152a13.462,13.462,0,0,0-1.455.046V8.657a7.8,7.8,0,0,0,1.478.081h5.369V3.594h-5.2a11.707,11.707,0,0,0-1.507.058V2.116a7.452,7.452,0,0,0,1.518.087h6.7a7.245,7.245,0,0,0-.035.976V9.632a7.947,7.947,0,0,0,.058,1.218h-1.576v-.7Z" transform="translate(-31.588 -0.338)"/>
        <path id="パス_494" data-name="パス 494" d="M210.975,8.382a7.729,7.729,0,0,0,1.507.087h6.771a7.828,7.828,0,0,0,1.512-.087V9.964a12.013,12.013,0,0,0-1.489-.058h-6.818a11.851,11.851,0,0,0-1.484.058Zm1.189-5.744a7.5,7.5,0,0,0,1.391.081h4.618a7.447,7.447,0,0,0,1.414-.081V4.2a10.345,10.345,0,0,0-1.38-.058h-4.659a10.345,10.345,0,0,0-1.38.058Z" transform="translate(-34.267 -0.422)"/>
        <path id="パス_495" data-name="パス 495" d="M228.343,5.984a11.806,11.806,0,0,0,1.911.081h6.286a11.8,11.8,0,0,0,1.911-.081V7.624a11.99,11.99,0,0,0-1.922-.063h-6.263a11.99,11.99,0,0,0-1.922.063Z" transform="translate(-37.042 -0.956)"/>
        <path id="パス_496" data-name="パス 496" d="M.666,199.741v-21.4H50.773v-18.53H178.136V177.3h48.808v22.444Z" transform="translate(-0.666 -25.533)" fill="none" stroke="#003d4c" stroke-miterlimit="10" stroke-width="1.333"/>
        <rect id="長方形_54" data-name="長方形 54" width="55.851" height="9.398" transform="translate(80.385 32.512)" fill="#003d4c"/>
        <path id="パス_497" data-name="パス 497" d="M41.71,32.476V47.093l18.5,5.478H82.124V35.351l-2.609-2.875Z" transform="translate(-7.224 -5.189)" fill="#003d4c"/>
        <path id="パス_498" data-name="パス 498" d="M31.935,43.438l-8.7-5.744V32.476H37.159V43.438Z" transform="translate(-4.272 -5.189)" fill="#003d4c"/>
        <path id="パス_499" data-name="パス 499" d="M17.508,63.331H6.9L2.631,74.819v8.873l7.441,2.956h7.435Z" transform="translate(-0.98 -10.118)" fill="#003d4c"/>
        <path id="パス_500" data-name="パス 500" d="M18.253,97.916v29.141H15.211L7.3,118.011V97.916Z" transform="translate(-1.726 -15.644)" fill="#003d4c"/>
        <path id="パス_501" data-name="パス 501" d="M210.166,32.476V47.093l-18.5,5.478H169.746V35.351l2.609-2.875Z" transform="translate(-27.68 -5.189)" fill="#003d4c"/>
        <path id="パス_502" data-name="パス 502" d="M224.974,43.438l8.705-5.744V32.476H219.755V43.438Z" transform="translate(-35.67 -5.189)" fill="#003d4c"/>
        <path id="パス_503" data-name="パス 503" d="M242.743,63.331h10.616l4.26,11.488v8.873l-7.435,2.956h-7.441Z" transform="translate(-39.343 -10.118)" fill="#003d4c"/>
        <path id="パス_504" data-name="パス 504" d="M242.743,97.916v29.141h3.048l7.914-9.046V97.916Z" transform="translate(-39.343 -15.644)" fill="#003d4c"/>
        <path id="パス_505" data-name="パス 505" d="M24.026,158.049V59.394H204.976v98.655" transform="translate(-4.399 -9.489)" fill="none" stroke="#003d4c" stroke-miterlimit="10" stroke-width="1.333"/>
        <path id="パス_506" data-name="パス 506" d="M114.381,189.3a22.947,22.947,0,0,0-3.637-3.527,13.935,13.935,0,0,1-4.491,3.412,4.728,4.728,0,0,0-.958-1.31,9.466,9.466,0,0,0,2.361-1.3,11.36,11.36,0,0,0,3.966-4.8l.127-.312c-.185,0-.185,0-3.9.075a9.492,9.492,0,0,0-1.287.092l-.046-1.512a4.809,4.809,0,0,0,1.039.075h.283l4.151-.063a2.6,2.6,0,0,0,1.051-.127l.779.8a2.309,2.309,0,0,0-.381.635A15.65,15.65,0,0,1,111.6,184.7a18.6,18.6,0,0,1,2.182,1.732c.294.26.294.26,1.732,1.639Z" transform="translate(-17.383 -28.76)"/>
        <path id="パス_507" data-name="パス 507" d="M128.908,184.06a6.391,6.391,0,0,1-.826,3.175,5.512,5.512,0,0,1-3.077,2.309,3.741,3.741,0,0,0-.958-1.293,4.37,4.37,0,0,0,2.8-1.974,5.011,5.011,0,0,0,.52-2.228H124.48a11.991,11.991,0,0,0-1.5.058v-1.4a8.519,8.519,0,0,0,1.524.081h6.927a8.488,8.488,0,0,0,1.518-.081v1.4a11.831,11.831,0,0,0-1.5-.058Zm-4.728-4.318a8.147,8.147,0,0,0,1.524.081h4.526a8.185,8.185,0,0,0,1.524-.081v1.437a11.323,11.323,0,0,0-1.5-.058h-4.578a11.28,11.28,0,0,0-1.5.058Z" transform="translate(-20.208 -28.717)"/>
        <path id="パス_508" data-name="パス 508" d="M140.444,184.249a11.844,11.844,0,0,0,1.911.081h6.286a11.889,11.889,0,0,0,1.917-.081v1.628a13.328,13.328,0,0,0-1.928-.058h-6.263a13.227,13.227,0,0,0-1.922.058Z" transform="translate(-22.999 -29.437)"/>
        <path id="パス_509" data-name="パス 509" d="M159.114,182.309a17.555,17.555,0,0,1,3.135,1.6l-.716,1.333a13.226,13.226,0,0,0-3.2-1.732Zm-.531,5.288a10.42,10.42,0,0,0,3.406-.768,7.227,7.227,0,0,0,3.412-2.586,8.965,8.965,0,0,0,1.368-2.615A6.212,6.212,0,0,0,168,182.7a10.085,10.085,0,0,1-1.772,2.984,10.6,10.6,0,0,1-6.408,3.354,6.13,6.13,0,0,0-.825.2Zm1.437-8.139a18.669,18.669,0,0,1,3.14,1.518l-.756,1.3a13.623,13.623,0,0,0-3.152-1.616Zm6.286.046a6.131,6.131,0,0,1,1.114,1.541l-.889.508a7.157,7.157,0,0,0-1.108-1.582Zm1.5,1.31a7.238,7.238,0,0,0-1.074-1.524l.837-.462a6.114,6.114,0,0,1,1.1,1.478Z" transform="translate(-25.857 -28.571)"/>
        <text id="R" transform="translate(50.955 40.471)" fill="#fff" font-size="11" font-family="Helvetica" letter-spacing="0.24em"><tspan x="0" y="0">R</tspan></text>
        <text id="R-2" data-name="R" stroke-linejoin="round" fill="none" stroke="#003d4c" stroke-linecap="round" transform="translate(50.955 40.471)" stroke-width="2" font-size="11" font-family="Helvetica" letter-spacing="0.24em"><tspan x="0" y="0">R</tspan></text>
        <text id="R-3" data-name="R" transform="translate(50.955 40.471)" fill="#fff" font-size="11" font-family="Helvetica" letter-spacing="0.24em"><tspan x="0" y="0">R</tspan></text>
        <text id="S" transform="translate(21.653 35.148)" fill="#fff" font-size="11" font-family="Helvetica" letter-spacing="0.24em"><tspan x="0" y="0">S</tspan></text>
        <text id="S-2" data-name="S" stroke-linejoin="round" fill="none" stroke="#003d4c" stroke-linecap="round" transform="translate(21.653 35.148)" stroke-width="2" font-size="11" font-family="Helvetica" letter-spacing="0.24em"><tspan x="0" y="0">S</tspan></text>
        <text id="S-3" data-name="S" transform="translate(21.653 35.148)" fill="#fff" font-size="11" font-family="Helvetica" letter-spacing="0.24em"><tspan x="0" y="0">S</tspan></text>
        <text id="S-4" data-name="S" transform="translate(186.931 35.148)" fill="#fff" font-size="11" font-family="Helvetica" letter-spacing="0.24em"><tspan x="0" y="0">S</tspan></text>
        <text id="S-5" data-name="S" transform="translate(186.931 35.148)" fill="none" stroke="#003d4c" stroke-width="2" font-size="11" font-family="Helvetica" letter-spacing="0.24em"><tspan x="0" y="0">S</tspan></text>
        <text id="S-6" data-name="S" transform="translate(186.931 35.148)" fill="#fff" font-size="11" font-family="Helvetica" letter-spacing="0.24em"><tspan x="0" y="0">S</tspan></text>
        <text id="S-7" data-name="S" transform="translate(5.571 69.23)" fill="#fff" font-size="11" font-family="Helvetica" letter-spacing="0.24em"><tspan x="0" y="0">S</tspan></text>
        <text id="S-8" data-name="S" stroke-linejoin="round" fill="none" stroke="#003d4c" stroke-linecap="round" transform="translate(5.571 69.23)" stroke-width="2" font-size="11" font-family="Helvetica" letter-spacing="0.24em"><tspan x="0" y="0">S</tspan></text>
        <text id="S-9" data-name="S" transform="translate(5.571 69.23)" fill="#fff" font-size="11" font-family="Helvetica" letter-spacing="0.24em"><tspan x="0" y="0">S</tspan></text>
        <text id="S-10" data-name="S" transform="translate(5.571 97.701)" fill="#fff" font-size="11" font-family="Helvetica" letter-spacing="0.24em"><tspan x="0" y="0">S</tspan></text>
        <text id="S-11" data-name="S" stroke-linejoin="round" fill="none" stroke="#003d4c" stroke-linecap="round" transform="translate(5.571 97.701)" stroke-width="2" font-size="11" font-family="Helvetica" letter-spacing="0.24em"><tspan x="0" y="0">S</tspan></text>
        <text id="S-12" data-name="S" transform="translate(5.571 97.701)" fill="#fff" font-size="11" font-family="Helvetica" letter-spacing="0.24em"><tspan x="0" y="0">S</tspan></text>
        <text id="S-13" data-name="S" transform="translate(205.028 69.23)" fill="#fff" font-size="11" font-family="Helvetica" letter-spacing="0.24em"><tspan x="0" y="0">S</tspan></text>
        <text id="S-14" data-name="S" stroke-linejoin="round" fill="none" stroke="#003d4c" stroke-linecap="round" transform="translate(205.028 69.23)" stroke-width="2" font-size="11" font-family="Helvetica" letter-spacing="0.24em"><tspan x="0" y="0">S</tspan></text>
        <text id="S-15" data-name="S" transform="translate(205.028 69.23)" fill="#fff" font-size="11" font-family="Helvetica" letter-spacing="0.24em"><tspan x="0" y="0">S</tspan></text>
        <text id="S-16" data-name="S" transform="translate(205.028 97.701)" fill="#fff" font-size="11" font-family="Helvetica" letter-spacing="0.24em"><tspan x="0" y="0">S</tspan></text>
        <text id="S-17" data-name="S" stroke-linejoin="round" fill="none" stroke="#003d4c" stroke-linecap="round" transform="translate(205.028 97.701)" stroke-width="2" font-size="11" font-family="Helvetica" letter-spacing="0.24em"><tspan x="0" y="0">S</tspan></text>
        <text id="S-18" data-name="S" transform="translate(205.028 97.701)" fill="#fff" font-size="11" font-family="Helvetica" letter-spacing="0.24em"><tspan x="0" y="0">S</tspan></text>
        <text id="R-4" data-name="R" transform="translate(103.851 40.471)" fill="#fff" font-size="11" font-family="Helvetica" letter-spacing="0.24em"><tspan x="0" y="0">R</tspan></text>
        <text id="R-5" data-name="R" stroke-linejoin="round" fill="none" stroke="#003d4c" stroke-linecap="round" transform="translate(103.851 40.471)" stroke-width="2" font-size="11" font-family="Helvetica" letter-spacing="0.24em"><tspan x="0" y="0">R</tspan></text>
        <text id="R-6" data-name="R" transform="translate(103.851 40.471)" fill="#fff" font-size="11" font-family="Helvetica" letter-spacing="0.24em"><tspan x="0" y="0">R</tspan></text>
        <text id="R-7" data-name="R" transform="translate(158.252 40.471)" fill="#fff" font-size="11" font-family="Helvetica" letter-spacing="0.24em"><tspan x="0" y="0">R</tspan></text>
        <text id="R-8" data-name="R" transform="translate(158.252 40.471)" fill="none" stroke="#003d4c" stroke-width="2" font-size="11" font-family="Helvetica" letter-spacing="0.24em"><tspan x="0" y="0">R</tspan></text>
        <text id="R-9" data-name="R" transform="translate(158.252 40.471)" fill="#fff" font-size="11" font-family="Helvetica" letter-spacing="0.24em"><tspan x="0" y="0">R</tspan></text>
        <rect id="長方形_55" data-name="長方形 55" width="60.856" height="23.564" transform="translate(46.724 74.329)" fill="#e1f000"/>
        <rect id="長方形_56" data-name="長方形 56" width="12.613" height="21.469" transform="translate(25.925 74.329)" fill="#e1f000"/>
        <rect id="長方形_57" data-name="長方形 57" width="12.613" height="21.469" transform="translate(182.163 74.329)" fill="#e1f000"/>
        <rect id="長方形_58" data-name="長方形 58" width="60.856" height="13.058" transform="translate(46.724 99.556)" fill="#e1f000"/>
        <rect id="長方形_59" data-name="長方形 59" width="60.856" height="23.564" transform="translate(113.341 74.329)" fill="#e1f000"/>
        <rect id="長方形_60" data-name="長方形 60" width="60.856" height="13.058" transform="translate(113.341 99.556)" fill="#e1f000"/>
        <text id="S-19" data-name="S" transform="translate(27.888 88.858)" font-size="11" font-family="Helvetica" letter-spacing="0.24em"><tspan x="0" y="0">S</tspan></text>
        <text id="S-20" data-name="S" transform="translate(72.13 88.858)" font-size="11" font-family="Helvetica" letter-spacing="0.24em"><tspan x="0" y="0">S</tspan></text>
        <text id="S-21" data-name="S" transform="translate(140.178 88.858)" font-size="11" font-family="Helvetica" letter-spacing="0.24em"><tspan x="0" y="0">S</tspan></text>
        <text id="S-22" data-name="S" transform="translate(184.085 88.858)" font-size="11" font-family="Helvetica" letter-spacing="0.24em"><tspan x="0" y="0">S</tspan></text>
        <path id="パス_510" data-name="パス 510" d="M92.84,121.329a8.081,8.081,0,0,0-.058,1.01l-.052,5.715a7.21,7.21,0,0,0,2.73-1.1,5.871,5.871,0,0,0,2.044-2.309,4.543,4.543,0,0,0,.952,1.022,7.5,7.5,0,0,1-2.234,2.309,9.051,9.051,0,0,1-3.643,1.368,2.974,2.974,0,0,0-.577.173l-.641-.774a3.308,3.308,0,0,0,.092-1.028l.04-5.4a4.658,4.658,0,0,0-.052-1.028Z" transform="translate(-15.157 -19.377)"/>
        <path id="パス_511" data-name="パス 511" d="M106.291,125.143a5.421,5.421,0,0,1-.7,2.69,4.734,4.734,0,0,1-2.609,1.974,3.227,3.227,0,0,0-.82-1.114,3.793,3.793,0,0,0,2.373-1.657,4.18,4.18,0,0,0,.439-1.893h-2.43a9.7,9.7,0,0,0-1.27.052v-1.189a7.262,7.262,0,0,0,1.287.069h5.854a7.376,7.376,0,0,0,1.293-.069V125.2a9.811,9.811,0,0,0-1.27-.052Zm2.309-3.331a5.3,5.3,0,0,1,.7,1.4l-.774.318a5.6,5.6,0,0,0-.675-1.38v.531a9.237,9.237,0,0,0-1.27-.052h-3.031a9.237,9.237,0,0,0-1.27.052V121.46a6.991,6.991,0,0,0,1.287.069h3a6.991,6.991,0,0,0,1.287-.069v.623Zm1.051,1.27a6.784,6.784,0,0,0-.693-1.368l.739-.294a5.224,5.224,0,0,1,.7,1.345Z" transform="translate(-16.74 -19.399)"/>
        <path id="パス_512" data-name="パス 512" d="M120.064,123.737a2.488,2.488,0,0,0-.341.335,13.433,13.433,0,0,1-1.859,1.639v3.4a5.774,5.774,0,0,0,.052.958h-1.293a5.947,5.947,0,0,0,.052-.952v-2.667a14.431,14.431,0,0,1-2.834,1.27,4.041,4.041,0,0,0-.618-1.039,11.209,11.209,0,0,0,2.373-.9,11.545,11.545,0,0,0,2.84-2.032,3.787,3.787,0,0,0,.577-.722Z" transform="translate(-18.65 -19.656)"/>
        <path id="パス_513" data-name="パス 513" d="M123.666,125.3a5.981,5.981,0,0,0,1.3.075h4.266a5.917,5.917,0,0,0,1.293-.075v1.391a7.574,7.574,0,0,0-1.3-.046h-4.249a7.661,7.661,0,0,0-1.3.046Z" transform="translate(-20.318 -20.019)"/>
        <path id="パス_514" data-name="パス 514" d="M140.534,129.6a19,19,0,0,0-3.071-2.973,11.875,11.875,0,0,1-3.81,2.886,4.041,4.041,0,0,0-.808-1.114,8.243,8.243,0,0,0,2-1.1,9.652,9.652,0,0,0,3.365-4.076l.11-.26c-.162,0-.162,0-3.314.064a7.84,7.84,0,0,0-1.091.081l-.04-1.282a4.307,4.307,0,0,0,.883.058h.237l3.521-.046a2.165,2.165,0,0,0,.895-.115l.658.681a2.037,2.037,0,0,0-.317.543,13.278,13.278,0,0,1-1.564,2.759,15.689,15.689,0,0,1,1.853,1.455c.248.219.248.219,1.46,1.385Z" transform="translate(-21.785 -19.447)"/>
        <path id="パス_515" data-name="パス 515" d="M145.351,123.661a13.891,13.891,0,0,1,2.661,1.362l-.623,1.137a11.707,11.707,0,0,0-2.713-1.466Zm-.45,4.48a9.063,9.063,0,0,0,2.886-.647,6.113,6.113,0,0,0,2.886-2.205,7.153,7.153,0,0,0,1.155-2.211,5.139,5.139,0,0,0,1.045.895,8.8,8.8,0,0,1-1.5,2.528,9.116,9.116,0,0,1-5.432,2.84,6.8,6.8,0,0,0-.7.162Zm1.218-6.927a16.527,16.527,0,0,1,2.661,1.293l-.641,1.1a11.961,11.961,0,0,0-2.673-1.385Z" transform="translate(-23.675 -19.366)"/>
        <path id="パス_516" data-name="パス 516" d="M155.332,125.3a5.981,5.981,0,0,0,1.3.075H160.9a5.917,5.917,0,0,0,1.293-.075v1.391a7.574,7.574,0,0,0-1.3-.046h-4.249a7.661,7.661,0,0,0-1.3.046Z" transform="translate(-25.377 -20.019)"/>
        <path id="パス_517" data-name="パス 517" d="M166.86,129.6a6.544,6.544,0,0,0,.058-1.12V122.1a6.432,6.432,0,0,0-.058-1.016h1.374a6.622,6.622,0,0,0-.04,1.051v1.859a29.3,29.3,0,0,1,4.514,2.09l-.7,1.155a23.969,23.969,0,0,0-3.539-1.911c-.231-.11-.26-.121-.341-.167a5.322,5.322,0,0,1,.04.681v2.638a9.713,9.713,0,0,0,.04,1.108Z" transform="translate(-27.219 -19.345)"/>
      </g>
    </g>
  </g>
</svg>
